<svg width="25" height="29" viewBox="0 0 25 29" fill="none" xmlns="http://www.w3.org/2000/svg">
<g clip-path="url(#clip0_121_77)">
<rect width="25" height="29" fill="white"/>
<path d="M0 0H150V174H0V0Z" fill="#E3E3E3"/>
<path fill-rule="evenodd" clip-rule="evenodd" d="M149 1H1V173H149V1ZM0 0V174H150V0H0Z" fill="black"/>
<path d="M31.5429 70.0625H23.0078L21.3281 76H15.5468L24.8632 47.5625H29.8437L38.9843 76H33.2031L31.5429 70.0625ZM24.3554 65.3945H30.2538L27.3437 54.9258L24.3554 65.3945Z" fill="black"/>
<path d="M65.5663 76V47.5625H75.1171C76.6666 47.5625 78.0729 47.7188 79.3359 48.0312C80.6119 48.3438 81.6992 48.819 82.5976 49.457C83.496 50.0951 84.1861 50.9023 84.6679 51.8789C85.1627 52.8555 85.4101 54.0078 85.4101 55.3359C85.3971 56.1953 85.2408 57.0091 84.9413 57.7773C84.6549 58.5326 84.2252 59.1966 83.6523 59.7695C83.3398 60.082 82.9817 60.3685 82.5781 60.6289C82.1874 60.8893 81.7512 61.1107 81.2695 61.293V61.3125C82.207 61.5729 82.9492 61.9049 83.496 62.3086C84.0559 62.7122 84.5247 63.181 84.9023 63.7148C85.2929 64.2878 85.5794 64.9128 85.7617 65.5898C85.957 66.2539 86.0546 66.944 86.0546 67.6602C86.0546 69.0273 85.8203 70.2318 85.3515 71.2734C84.8828 72.3151 84.2122 73.1875 83.3398 73.8906C82.4674 74.5938 81.4062 75.1211 80.1562 75.4727C78.9062 75.8242 77.4999 76 75.9374 76H65.5663ZM71.0742 63.4609V71.5664H75.957C76.6731 71.5664 77.3111 71.4753 77.871 71.293C78.4439 71.1107 78.9192 70.8633 79.2968 70.5508C79.7135 70.1992 80.026 69.776 80.2343 69.2812C80.4557 68.7865 80.5663 68.2331 80.5663 67.6211C80.5663 66.9831 80.4817 66.4102 80.3124 65.9023C80.1562 65.3945 79.9023 64.9648 79.5507 64.6133C79.1992 64.2487 78.7434 63.9688 78.1835 63.7734C77.6236 63.5781 76.9596 63.474 76.1913 63.4609H71.0742ZM71.0742 59.4961H75.1562C75.9895 59.4831 76.7252 59.3854 77.3632 59.2031C78.0012 59.0078 78.5156 58.7214 78.9062 58.3438C79.2317 58.0443 79.4791 57.6797 79.6484 57.25C79.8307 56.8203 79.9218 56.332 79.9218 55.7852C79.9218 55.2122 79.8437 54.7109 79.6874 54.2812C79.5442 53.8516 79.3229 53.4935 79.0234 53.207C78.6328 52.8034 78.1054 52.5104 77.4413 52.3281C76.7903 52.1458 76.0221 52.0482 75.1367 52.0352H71.0742V59.4961Z" fill="black"/>
<path d="M133.496 63.8711C133.496 65.0951 133.385 66.2604 133.164 67.3672C132.943 68.4609 132.624 69.4766 132.207 70.4141C131.764 71.3516 131.217 72.2109 130.566 72.9922C129.915 73.7734 129.173 74.4245 128.34 74.9453C127.585 75.401 126.751 75.7526 125.84 76C124.941 76.2604 123.971 76.3906 122.93 76.3906C121.823 76.3906 120.801 76.2474 119.863 75.9609C118.926 75.6745 118.073 75.2708 117.305 74.75C116.549 74.2031 115.872 73.5456 115.273 72.7773C114.674 71.9961 114.173 71.1172 113.769 70.1406C113.405 69.2422 113.125 68.2656 112.93 67.2109C112.747 66.1562 112.656 65.043 112.656 63.8711V59.7305C112.656 58.4805 112.76 57.2956 112.969 56.1758C113.19 55.056 113.509 54.0208 113.926 53.0703C114.329 52.1719 114.818 51.3581 115.391 50.6289C115.977 49.8997 116.647 49.2747 117.402 48.7539C118.144 48.2461 118.978 47.8555 119.902 47.582C120.827 47.3086 121.829 47.1719 122.91 47.1719C124.004 47.1719 125.026 47.3151 125.977 47.6016C126.94 47.875 127.806 48.2721 128.574 48.793C129.342 49.2878 130.013 49.8867 130.586 50.5898C131.172 51.293 131.673 52.0677 132.09 52.9141C132.546 53.8776 132.891 54.9323 133.125 56.0781C133.372 57.224 133.496 58.4414 133.496 59.7305V63.8711ZM127.93 59.6914C127.93 58.9622 127.891 58.2721 127.812 57.6211C127.747 56.957 127.637 56.3451 127.48 55.7852C127.285 55.082 127.025 54.457 126.699 53.9102C126.374 53.3503 125.99 52.8945 125.547 52.543C125.195 52.2826 124.798 52.0807 124.355 51.9375C123.926 51.7943 123.444 51.7227 122.91 51.7227C122.402 51.7227 121.94 51.7878 121.523 51.918C121.12 52.0482 120.755 52.237 120.43 52.4844C119.987 52.849 119.609 53.3047 119.297 53.8516C118.997 54.3984 118.763 55.0365 118.594 55.7656C118.463 56.3255 118.366 56.9375 118.301 57.6016C118.249 58.2656 118.223 58.9622 118.223 59.6914V63.8711C118.223 64.5612 118.249 65.2253 118.301 65.8633C118.353 66.5013 118.444 67.0938 118.574 67.6406C118.717 68.3307 118.926 68.9622 119.199 69.5352C119.486 70.0951 119.818 70.5508 120.195 70.9023C120.547 71.2148 120.944 71.4557 121.387 71.625C121.842 71.7943 122.357 71.8789 122.93 71.8789C123.477 71.8789 123.978 71.8008 124.434 71.6445C124.889 71.4883 125.293 71.2604 125.644 70.9609C126.087 70.5964 126.458 70.1406 126.758 69.5938C127.07 69.0339 127.318 68.4023 127.5 67.6992C127.643 67.1523 127.747 66.5534 127.812 65.9023C127.891 65.2513 127.93 64.5742 127.93 63.8711V59.6914Z" fill="black"/>
<path d="M36.5038 100.562L36.5234 119.41C36.5234 120.999 36.302 122.411 35.8593 123.648C35.4296 124.885 34.8046 125.927 33.9843 126.773C33.151 127.633 32.1354 128.284 30.9374 128.727C29.7525 129.169 28.3984 129.391 26.8749 129.391C25.4427 129.391 24.1471 129.169 22.9882 128.727C21.8424 128.284 20.8593 127.639 20.039 126.793C19.2187 125.947 18.5807 124.905 18.1249 123.668C17.6822 122.418 17.4609 120.999 17.4609 119.41L17.4804 100.562H22.9687L22.9882 119.41C23.0012 120.361 23.0924 121.194 23.2617 121.91C23.444 122.626 23.7109 123.219 24.0624 123.688C24.388 124.117 24.7851 124.443 25.2538 124.664C25.7226 124.872 26.263 124.977 26.8749 124.977C27.539 124.977 28.1249 124.866 28.6328 124.645C29.1536 124.41 29.5833 124.065 29.9218 123.609C30.2864 123.141 30.5598 122.555 30.7421 121.852C30.9244 121.148 31.0221 120.335 31.0351 119.41L31.0546 100.562H36.5038Z" fill="black"/>
<path d="M86.5038 105.035H77.7343V129H72.2265V105.035H63.5742V100.562H86.5038V105.035Z" fill="black"/>
</g>
<defs>
<clipPath id="clip0_121_77">
<rect width="25" height="29" fill="white"/>
</clipPath>
</defs>
</svg>
