<svg width="25" height="29" viewBox="0 0 25 29" fill="none" xmlns="http://www.w3.org/2000/svg">
<g clip-path="url(#clip0_121_95)">
<rect width="25" height="29" fill="white"/>
<path d="M-75 -29H75V145H-75V-29Z" fill="#E3E3E3"/>
<path fill-rule="evenodd" clip-rule="evenodd" d="M74 -28H-74V144H74V-28ZM-75 -29V145H75V-29H-75Z" fill="black"/>
<path d="M-43.4571 41.0625H-51.9923L-53.6719 47H-59.4532L-50.1368 18.5625H-45.1563L-36.0157 47H-41.7969L-43.4571 41.0625ZM-50.6446 36.3945H-44.7462L-47.6563 25.9258L-50.6446 36.3945Z" fill="black"/>
<path d="M-9.43367 47V18.5625H0.117111C1.66659 18.5625 3.07284 18.7188 4.33586 19.0312C5.6119 19.3438 6.69914 19.819 7.59758 20.457C8.49602 21.0951 9.18612 21.9023 9.66789 22.8789C10.1627 23.8555 10.4101 25.0078 10.4101 26.3359C10.3971 27.1953 10.2408 28.0091 9.94133 28.7773C9.65487 29.5326 9.22518 30.1966 8.65227 30.7695C8.33977 31.082 7.98169 31.3685 7.57805 31.6289C7.18742 31.8893 6.75123 32.1107 6.26945 32.293V32.3125C7.20695 32.5729 7.94914 32.9049 8.49602 33.3086C9.05591 33.7122 9.52466 34.181 9.90227 34.7148C10.2929 35.2878 10.5794 35.9128 10.7616 36.5898C10.957 37.2539 11.0546 37.944 11.0546 38.6602C11.0546 40.0273 10.8202 41.2318 10.3515 42.2734C9.88274 43.3151 9.21216 44.1875 8.33977 44.8906C7.46737 45.5938 6.40617 46.1211 5.15617 46.4727C3.90617 46.8242 2.49992 47 0.937424 47H-9.43367ZM-3.92586 34.4609V42.5664H0.956955C1.6731 42.5664 2.31112 42.4753 2.87102 42.293C3.44393 42.1107 3.91919 41.8633 4.2968 41.5508C4.71347 41.1992 5.02597 40.776 5.2343 40.2812C5.45565 39.7865 5.56633 39.2331 5.56633 38.6211C5.56633 37.9831 5.48169 37.4102 5.31242 36.9023C5.15617 36.3945 4.90227 35.9648 4.5507 35.6133C4.19914 35.2487 3.74341 34.9688 3.18352 34.7734C2.62362 34.5781 1.95956 34.474 1.19133 34.4609H-3.92586ZM-3.92586 30.4961H0.156174C0.989507 30.4831 1.72518 30.3854 2.3632 30.2031C3.00123 30.0078 3.51555 29.7214 3.90617 29.3438C4.23169 29.0443 4.47909 28.6797 4.64836 28.25C4.83065 27.8203 4.9218 27.332 4.9218 26.7852C4.9218 26.2122 4.84367 25.7109 4.68742 25.2812C4.54419 24.8516 4.32284 24.4935 4.02336 24.207C3.63274 23.8034 3.10539 23.5104 2.44133 23.3281C1.79029 23.1458 1.02206 23.0482 0.136642 23.0352H-3.92586V30.4961Z" fill="black"/>
<path d="M58.496 34.8711C58.496 36.0951 58.3853 37.2604 58.164 38.3672C57.9426 39.4609 57.6236 40.4766 57.207 41.4141C56.7642 42.3516 56.2174 43.2109 55.5663 43.9922C54.9153 44.7734 54.1731 45.4245 53.3398 45.9453C52.5846 46.401 51.7512 46.7526 50.8398 47C49.9413 47.2604 48.9713 47.3906 47.9296 47.3906C46.8228 47.3906 45.8007 47.2474 44.8632 46.9609C43.9257 46.6745 43.0728 46.2708 42.3046 45.75C41.5494 45.2031 40.8723 44.5456 40.2734 43.7773C39.6744 42.9961 39.1731 42.1172 38.7695 41.1406C38.4049 40.2422 38.1249 39.2656 37.9296 38.2109C37.7473 37.1562 37.6562 36.043 37.6562 34.8711V30.7305C37.6562 29.4805 37.7603 28.2956 37.9687 27.1758C38.19 26.056 38.509 25.0208 38.9257 24.0703C39.3294 23.1719 39.8176 22.3581 40.3905 21.6289C40.9765 20.8997 41.6471 20.2747 42.4023 19.7539C43.1445 19.2461 43.9778 18.8555 44.9023 18.582C45.8267 18.3086 46.8294 18.1719 47.9101 18.1719C49.0038 18.1719 50.026 18.3151 50.9765 18.6016C51.94 18.875 52.8059 19.2721 53.5741 19.793C54.3424 20.2878 55.0129 20.8867 55.5859 21.5898C56.1718 22.293 56.6731 23.0677 57.0898 23.9141C57.5455 24.8776 57.8905 25.9323 58.1249 27.0781C58.3723 28.224 58.496 29.4414 58.496 30.7305V34.8711ZM52.9296 30.6914C52.9296 29.9622 52.8905 29.2721 52.8124 28.6211C52.7473 27.957 52.6366 27.3451 52.4804 26.7852C52.2851 26.082 52.0247 25.457 51.6991 24.9102C51.3736 24.3503 50.9895 23.8945 50.5468 23.543C50.1952 23.2826 49.7981 23.0807 49.3554 22.9375C48.9257 22.7943 48.4439 22.7227 47.9101 22.7227C47.4023 22.7227 46.94 22.7878 46.5234 22.918C46.1197 23.0482 45.7551 23.237 45.4296 23.4844C44.9869 23.849 44.6093 24.3047 44.2968 24.8516C43.9973 25.3984 43.7629 26.0365 43.5937 26.7656C43.4635 27.3255 43.3658 27.9375 43.3007 28.6016C43.2486 29.2656 43.2226 29.9622 43.2226 30.6914V34.8711C43.2226 35.5612 43.2486 36.2253 43.3007 36.8633C43.3528 37.5013 43.4439 38.0938 43.5741 38.6406C43.7174 39.3307 43.9257 39.9622 44.1991 40.5352C44.4856 41.0951 44.8176 41.5508 45.1952 41.9023C45.5468 42.2148 45.9439 42.4557 46.3866 42.625C46.8424 42.7943 47.3567 42.8789 47.9296 42.8789C48.4765 42.8789 48.9778 42.8008 49.4335 42.6445C49.8892 42.4883 50.2929 42.2604 50.6445 41.9609C51.0872 41.5964 51.4583 41.1406 51.7577 40.5938C52.0702 40.0339 52.3176 39.4023 52.4999 38.6992C52.6432 38.1523 52.7473 37.5534 52.8124 36.9023C52.8905 36.2513 52.9296 35.5742 52.9296 34.8711V30.6914Z" fill="black"/>
<path d="M-38.4962 71.5625L-38.4766 90.4102C-38.4766 91.9987 -38.698 93.4115 -39.1407 94.6484C-39.5704 95.8854 -40.1954 96.9271 -41.0157 97.7734C-41.849 98.6328 -42.8647 99.2839 -44.0626 99.7266C-45.2475 100.169 -46.6016 100.391 -48.1251 100.391C-49.5574 100.391 -50.8529 100.169 -52.0118 99.7266C-53.1576 99.2839 -54.1407 98.6393 -54.961 97.793C-55.7813 96.9466 -56.4193 95.9049 -56.8751 94.668C-57.3178 93.418 -57.5391 91.9987 -57.5391 90.4102L-57.5196 71.5625H-52.0313L-52.0118 90.4102C-51.9988 91.3607 -51.9076 92.194 -51.7384 92.9102C-51.5561 93.6263 -51.2891 94.2188 -50.9376 94.6875C-50.6121 95.1172 -50.2149 95.4427 -49.7462 95.6641C-49.2774 95.8724 -48.7371 95.9766 -48.1251 95.9766C-47.461 95.9766 -46.8751 95.8659 -46.3673 95.6445C-45.8464 95.4102 -45.4167 95.0651 -45.0782 94.6094C-44.7136 94.1406 -44.4402 93.5547 -44.2579 92.8516C-44.0756 92.1484 -43.9779 91.3346 -43.9649 90.4102L-43.9454 71.5625H-38.4962Z" fill="black"/>
<path d="M11.5038 76.0352H2.7343V100H-2.77351V76.0352H-11.4259V71.5625H11.5038V76.0352Z" fill="black"/>
</g>
<defs>
<clipPath id="clip0_121_95">
<rect width="25" height="29" fill="white"/>
</clipPath>
</defs>
</svg>
