<svg width="25" height="29" viewBox="0 0 25 29" fill="none" xmlns="http://www.w3.org/2000/svg">
<g clip-path="url(#clip0_121_97)">
<rect width="25" height="29" fill="white"/>
<path d="M-100 -29H50V145H-100V-29Z" fill="#E3E3E3"/>
<path fill-rule="evenodd" clip-rule="evenodd" d="M49 -28H-99V144H49V-28ZM-100 -29V145H50V-29H-100Z" fill="black"/>
<path d="M-68.4571 41.0625H-76.9922L-78.6719 47H-84.4532L-75.1368 18.5625H-70.1563L-61.0157 47H-66.7969L-68.4571 41.0625ZM-75.6446 36.3945H-69.7462L-72.6563 25.9258L-75.6446 36.3945Z" fill="black"/>
<path d="M-34.4337 47V18.5625H-24.8829C-23.3334 18.5625 -21.9271 18.7188 -20.6641 19.0312C-19.3881 19.3438 -18.3008 19.819 -17.4024 20.457C-16.504 21.0951 -15.8139 21.9023 -15.3321 22.8789C-14.8373 23.8555 -14.5899 25.0078 -14.5899 26.3359C-14.6029 27.1953 -14.7592 28.0091 -15.0587 28.7773C-15.3451 29.5326 -15.7748 30.1966 -16.3477 30.7695C-16.6602 31.082 -17.0183 31.3685 -17.4219 31.6289C-17.8126 31.8893 -18.2488 32.1107 -18.7305 32.293V32.3125C-17.793 32.5729 -17.0508 32.9049 -16.504 33.3086C-15.9441 33.7122 -15.4753 34.181 -15.0977 34.7148C-14.7071 35.2878 -14.4206 35.9128 -14.2383 36.5898C-14.043 37.2539 -13.9454 37.944 -13.9454 38.6602C-13.9454 40.0273 -14.1797 41.2318 -14.6485 42.2734C-15.1172 43.3151 -15.7878 44.1875 -16.6602 44.8906C-17.5326 45.5938 -18.5938 46.1211 -19.8438 46.4727C-21.0938 46.8242 -22.5001 47 -24.0626 47H-34.4337ZM-28.9258 34.4609V42.5664H-24.043C-23.3269 42.5664 -22.6889 42.4753 -22.129 42.293C-21.5561 42.1107 -21.0808 41.8633 -20.7032 41.5508C-20.2865 41.1992 -19.974 40.776 -19.7657 40.2812C-19.5443 39.7865 -19.4337 39.2331 -19.4337 38.6211C-19.4337 37.9831 -19.5183 37.4102 -19.6876 36.9023C-19.8438 36.3945 -20.0977 35.9648 -20.4493 35.6133C-20.8008 35.2487 -21.2566 34.9688 -21.8165 34.7734C-22.3764 34.5781 -23.0404 34.474 -23.8087 34.4609H-28.9258ZM-28.9258 30.4961H-24.8438C-24.0105 30.4831 -23.2748 30.3854 -22.6368 30.2031C-21.9988 30.0078 -21.4844 29.7214 -21.0938 29.3438C-20.7683 29.0443 -20.5209 28.6797 -20.3516 28.25C-20.1693 27.8203 -20.0782 27.332 -20.0782 26.7852C-20.0782 26.2122 -20.1563 25.7109 -20.3126 25.2812C-20.4558 24.8516 -20.6771 24.4935 -20.9766 24.207C-21.3672 23.8034 -21.8946 23.5104 -22.5587 23.3281C-23.2097 23.1458 -23.9779 23.0482 -24.8633 23.0352H-28.9258V30.4961Z" fill="black"/>
<path d="M33.496 34.8711C33.496 36.0951 33.3854 37.2604 33.164 38.3672C32.9426 39.4609 32.6236 40.4766 32.207 41.4141C31.7643 42.3516 31.2174 43.2109 30.5663 43.9922C29.9153 44.7734 29.1731 45.4245 28.3398 45.9453C27.5846 46.401 26.7512 46.7526 25.8398 47C24.9413 47.2604 23.9713 47.3906 22.9296 47.3906C21.8229 47.3906 20.8007 47.2474 19.8632 46.9609C18.9257 46.6745 18.0729 46.2708 17.3046 45.75C16.5494 45.2031 15.8723 44.5456 15.2734 43.7773C14.6744 42.9961 14.1731 42.1172 13.7695 41.1406C13.4049 40.2422 13.1249 39.2656 12.9296 38.2109C12.7473 37.1562 12.6562 36.043 12.6562 34.8711V30.7305C12.6562 29.4805 12.7604 28.2956 12.9687 27.1758C13.19 26.056 13.5091 25.0208 13.9257 24.0703C14.3294 23.1719 14.8176 22.3581 15.3906 21.6289C15.9765 20.8997 16.6471 20.2747 17.4023 19.7539C18.1445 19.2461 18.9778 18.8555 19.9023 18.582C20.8268 18.3086 21.8294 18.1719 22.9101 18.1719C24.0038 18.1719 25.026 18.3151 25.9765 18.6016C26.94 18.875 27.8059 19.2721 28.5742 19.793C29.3424 20.2878 30.013 20.8867 30.5859 21.5898C31.1718 22.293 31.6731 23.0677 32.0898 23.9141C32.5455 24.8776 32.8906 25.9323 33.1249 27.0781C33.3723 28.224 33.496 29.4414 33.496 30.7305V34.8711ZM27.9296 30.6914C27.9296 29.9622 27.8906 29.2721 27.8124 28.6211C27.7473 27.957 27.6367 27.3451 27.4804 26.7852C27.2851 26.082 27.0247 25.457 26.6992 24.9102C26.3736 24.3503 25.9895 23.8945 25.5468 23.543C25.1953 23.2826 24.7981 23.0807 24.3554 22.9375C23.9257 22.7943 23.4439 22.7227 22.9101 22.7227C22.4023 22.7227 21.94 22.7878 21.5234 22.918C21.1197 23.0482 20.7551 23.237 20.4296 23.4844C19.9869 23.849 19.6093 24.3047 19.2968 24.8516C18.9973 25.3984 18.763 26.0365 18.5937 26.7656C18.4635 27.3255 18.3658 27.9375 18.3007 28.6016C18.2486 29.2656 18.2226 29.9622 18.2226 30.6914V34.8711C18.2226 35.5612 18.2486 36.2253 18.3007 36.8633C18.3528 37.5013 18.4439 38.0938 18.5742 38.6406C18.7174 39.3307 18.9257 39.9622 19.1992 40.5352C19.4856 41.0951 19.8176 41.5508 20.1953 41.9023C20.5468 42.2148 20.9439 42.4557 21.3867 42.625C21.8424 42.7943 22.3567 42.8789 22.9296 42.8789C23.4765 42.8789 23.9778 42.8008 24.4335 42.6445C24.8893 42.4883 25.2929 42.2604 25.6445 41.9609C26.0872 41.5964 26.4583 41.1406 26.7578 40.5938C27.0703 40.0339 27.3176 39.4023 27.4999 38.6992C27.6432 38.1523 27.7473 37.5534 27.8124 36.9023C27.8906 36.2513 27.9296 35.5742 27.9296 34.8711V30.6914Z" fill="black"/>
<path d="M-63.4962 71.5625L-63.4766 90.4102C-63.4766 91.9987 -63.698 93.4115 -64.1407 94.6484C-64.5704 95.8854 -65.1954 96.9271 -66.0157 97.7734C-66.849 98.6328 -67.8646 99.2839 -69.0626 99.7266C-70.2475 100.169 -71.6016 100.391 -73.1251 100.391C-74.5573 100.391 -75.8529 100.169 -77.0118 99.7266C-78.1576 99.2839 -79.1407 98.6393 -79.961 97.793C-80.7813 96.9466 -81.4193 95.9049 -81.8751 94.668C-82.3178 93.418 -82.5391 91.9987 -82.5391 90.4102L-82.5196 71.5625H-77.0313L-77.0118 90.4102C-76.9988 91.3607 -76.9076 92.194 -76.7383 92.9102C-76.556 93.6263 -76.2891 94.2188 -75.9376 94.6875C-75.612 95.1172 -75.2149 95.4427 -74.7462 95.6641C-74.2774 95.8724 -73.737 95.9766 -73.1251 95.9766C-72.461 95.9766 -71.8751 95.8659 -71.3672 95.6445C-70.8464 95.4102 -70.4167 95.0651 -70.0782 94.6094C-69.7136 94.1406 -69.4402 93.5547 -69.2579 92.8516C-69.0756 92.1484 -68.9779 91.3346 -68.9649 90.4102L-68.9454 71.5625H-63.4962Z" fill="black"/>
<path d="M-13.4962 76.0352H-22.2657V100H-27.7735V76.0352H-36.4258V71.5625H-13.4962V76.0352Z" fill="black"/>
</g>
<defs>
<clipPath id="clip0_121_97">
<rect width="25" height="29" fill="white"/>
</clipPath>
</defs>
</svg>
