<svg width="25" height="29" viewBox="0 0 25 29" fill="none" xmlns="http://www.w3.org/2000/svg">
<g clip-path="url(#clip0_121_99)">
<rect width="25" height="29" fill="white"/>
<path d="M-125 -29H25V145H-125V-29Z" fill="var(--background)"/>
<path fill-rule="evenodd" clip-rule="evenodd" d="M24 -28H-124V144H24V-28ZM-125 -29V145H25V-29H-125Z" fill="black"/>
<path d="M-93.4571 41.0625H-101.992L-103.672 47H-109.453L-100.137 18.5625H-95.1563L-86.0157 47H-91.7969L-93.4571 41.0625ZM-100.645 36.3945H-94.7462L-97.6563 25.9258L-100.645 36.3945Z" fill="black"/>
<path d="M-59.4337 47V18.5625H-49.8829C-48.3334 18.5625 -46.9271 18.7188 -45.6641 19.0312C-44.3881 19.3438 -43.3008 19.819 -42.4024 20.457C-41.504 21.0951 -40.8139 21.9023 -40.3321 22.8789C-39.8373 23.8555 -39.5899 25.0078 -39.5899 26.3359C-39.6029 27.1953 -39.7592 28.0091 -40.0587 28.7773C-40.3451 29.5326 -40.7748 30.1966 -41.3477 30.7695C-41.6602 31.082 -42.0183 31.3685 -42.4219 31.6289C-42.8126 31.8893 -43.2488 32.1107 -43.7305 32.293V32.3125C-42.793 32.5729 -42.0508 32.9049 -41.504 33.3086C-40.9441 33.7122 -40.4753 34.181 -40.0977 34.7148C-39.7071 35.2878 -39.4206 35.9128 -39.2383 36.5898C-39.043 37.2539 -38.9454 37.944 -38.9454 38.6602C-38.9454 40.0273 -39.1797 41.2318 -39.6485 42.2734C-40.1172 43.3151 -40.7878 44.1875 -41.6602 44.8906C-42.5326 45.5938 -43.5938 46.1211 -44.8438 46.4727C-46.0938 46.8242 -47.5001 47 -49.0626 47H-59.4337ZM-53.9258 34.4609V42.5664H-49.043C-48.3269 42.5664 -47.6889 42.4753 -47.129 42.293C-46.5561 42.1107 -46.0808 41.8633 -45.7032 41.5508C-45.2865 41.1992 -44.974 40.776 -44.7657 40.2812C-44.5443 39.7865 -44.4337 39.2331 -44.4337 38.6211C-44.4337 37.9831 -44.5183 37.4102 -44.6876 36.9023C-44.8438 36.3945 -45.0977 35.9648 -45.4493 35.6133C-45.8008 35.2487 -46.2566 34.9688 -46.8165 34.7734C-47.3764 34.5781 -48.0404 34.474 -48.8087 34.4609H-53.9258ZM-53.9258 30.4961H-49.8438C-49.0105 30.4831 -48.2748 30.3854 -47.6368 30.2031C-46.9988 30.0078 -46.4844 29.7214 -46.0938 29.3438C-45.7683 29.0443 -45.5209 28.6797 -45.3516 28.25C-45.1693 27.8203 -45.0782 27.332 -45.0782 26.7852C-45.0782 26.2122 -45.1563 25.7109 -45.3126 25.2812C-45.4558 24.8516 -45.6771 24.4935 -45.9766 24.207C-46.3672 23.8034 -46.8946 23.5104 -47.5587 23.3281C-48.2097 23.1458 -48.9779 23.0482 -49.8633 23.0352H-53.9258V30.4961Z" fill="black"/>
<path d="M8.49603 34.8711C8.49603 36.0951 8.38536 37.2604 8.164 38.3672C7.94265 39.4609 7.62364 40.4766 7.20697 41.4141C6.76426 42.3516 6.21739 43.2109 5.56635 43.9922C4.9153 44.7734 4.17312 45.4245 3.33978 45.9453C2.58457 46.401 1.75124 46.7526 0.839783 47C-0.0586548 47.2604 -1.02871 47.3906 -2.07037 47.3906C-3.17714 47.3906 -4.19928 47.2474 -5.13678 46.9609C-6.07428 46.6745 -6.92714 46.2708 -7.69537 45.75C-8.45058 45.2031 -9.12767 44.5456 -9.72662 43.7773C-10.3256 42.9961 -10.8269 42.1172 -11.2305 41.1406C-11.5951 40.2422 -11.8751 39.2656 -12.0704 38.2109C-12.2527 37.1562 -12.3438 36.043 -12.3438 34.8711V30.7305C-12.3438 29.4805 -12.2396 28.2956 -12.0313 27.1758C-11.81 26.056 -11.4909 25.0208 -11.0743 24.0703C-10.6706 23.1719 -10.1824 22.3581 -9.60944 21.6289C-9.0235 20.8997 -8.35293 20.2747 -7.59772 19.7539C-6.85553 19.2461 -6.0222 18.8555 -5.09772 18.582C-4.17324 18.3086 -3.17063 18.1719 -2.0899 18.1719C-0.996155 18.1719 0.0259807 18.3151 0.976501 18.6016C1.94004 18.875 2.80593 19.2721 3.57416 19.793C4.34239 20.2878 5.01296 20.8867 5.58588 21.5898C6.17181 22.293 6.67312 23.0677 7.08978 23.9141C7.54551 24.8776 7.89056 25.9323 8.12494 27.0781C8.37233 28.224 8.49603 29.4414 8.49603 30.7305V34.8711ZM2.92963 30.6914C2.92963 29.9622 2.89056 29.2721 2.81244 28.6211C2.74733 27.957 2.63666 27.3451 2.48041 26.7852C2.2851 26.082 2.02468 25.457 1.69916 24.9102C1.37364 24.3503 0.989522 23.8945 0.546814 23.543C0.195251 23.2826 -0.201884 23.0807 -0.644592 22.9375C-1.07428 22.7943 -1.55605 22.7227 -2.0899 22.7227C-2.59772 22.7227 -3.05996 22.7878 -3.47662 22.918C-3.88027 23.0482 -4.24485 23.237 -4.57037 23.4844C-5.01308 23.849 -5.39069 24.3047 -5.70319 24.8516C-6.00267 25.3984 -6.23704 26.0365 -6.40631 26.7656C-6.53652 27.3255 -6.63418 27.9375 -6.69928 28.6016C-6.75136 29.2656 -6.7774 29.9622 -6.7774 30.6914V34.8711C-6.7774 35.5612 -6.75136 36.2253 -6.69928 36.8633C-6.6472 37.5013 -6.55605 38.0938 -6.42584 38.6406C-6.28261 39.3307 -6.07428 39.9622 -5.80084 40.5352C-5.51438 41.0951 -5.18235 41.5508 -4.80475 41.9023C-4.45319 42.2148 -4.05605 42.4557 -3.61334 42.625C-3.15761 42.7943 -2.64329 42.8789 -2.07037 42.8789C-1.5235 42.8789 -1.0222 42.8008 -0.566467 42.6445C-0.110738 42.4883 0.292908 42.2604 0.64447 41.9609C1.08718 41.5964 1.45827 41.1406 1.75775 40.5938C2.07025 40.0339 2.31765 39.4023 2.49994 38.6992C2.64317 38.1523 2.74733 37.5534 2.81244 36.9023C2.89056 36.2513 2.92963 35.5742 2.92963 34.8711V30.6914Z" fill="black"/>
<path d="M-88.4962 71.5625L-88.4766 90.4102C-88.4766 91.9987 -88.698 93.4115 -89.1407 94.6484C-89.5704 95.8854 -90.1954 96.9271 -91.0157 97.7734C-91.849 98.6328 -92.8646 99.2839 -94.0626 99.7266C-95.2475 100.169 -96.6016 100.391 -98.1251 100.391C-99.5573 100.391 -100.853 100.169 -102.012 99.7266C-103.158 99.2839 -104.141 98.6393 -104.961 97.793C-105.781 96.9466 -106.419 95.9049 -106.875 94.668C-107.318 93.418 -107.539 91.9987 -107.539 90.4102L-107.52 71.5625H-102.031L-102.012 90.4102C-101.999 91.3607 -101.908 92.194 -101.738 92.9102C-101.556 93.6263 -101.289 94.2188 -100.938 94.6875C-100.612 95.1172 -100.215 95.4427 -99.7462 95.6641C-99.2774 95.8724 -98.737 95.9766 -98.1251 95.9766C-97.461 95.9766 -96.8751 95.8659 -96.3672 95.6445C-95.8464 95.4102 -95.4167 95.0651 -95.0782 94.6094C-94.7136 94.1406 -94.4402 93.5547 -94.2579 92.8516C-94.0756 92.1484 -93.9779 91.3346 -93.9649 90.4102L-93.9454 71.5625H-88.4962Z" fill="black"/>
<path d="M-38.4962 76.0352H-47.2657V100H-52.7735V76.0352H-61.4258V71.5625H-38.4962V76.0352Z" fill="black"/>
</g>
<defs>
<clipPath id="clip0_121_99">
<rect width="25" height="29" fill="white"/>
</clipPath>
</defs>
</svg>
