<svg width="25" height="29" viewBox="0 0 25 29" fill="none" xmlns="http://www.w3.org/2000/svg">
<g clip-path="url(#clip0_121_101)">
<rect width="25" height="29" fill="white"/>
<path d="M0 -58H150V116H0V-58Z" fill="var(--background)"/>
<path fill-rule="evenodd" clip-rule="evenodd" d="M149 -57H1V115H149V-57ZM0 -58V116H150V-58H0Z" fill="black"/>
<path d="M31.5429 12.0625H23.0078L21.3281 18H15.5468L24.8632 -10.4375H29.8437L38.9843 18H33.2031L31.5429 12.0625ZM24.3554 7.39453H30.2538L27.3437 -3.07422L24.3554 7.39453Z" fill="black"/>
<path d="M65.5663 18V-10.4375H75.1171C76.6666 -10.4375 78.0729 -10.2812 79.3359 -9.96875C80.6119 -9.65625 81.6992 -9.18099 82.5976 -8.54297C83.496 -7.90495 84.1861 -7.09766 84.6679 -6.12109C85.1627 -5.14453 85.4101 -3.99219 85.4101 -2.66406C85.3971 -1.80469 85.2408 -0.990885 84.9413 -0.222656C84.6549 0.532552 84.2252 1.19661 83.6523 1.76953C83.3398 2.08203 82.9817 2.36849 82.5781 2.62891C82.1874 2.88932 81.7512 3.11068 81.2695 3.29297V3.3125C82.207 3.57292 82.9492 3.90495 83.496 4.30859C84.0559 4.71224 84.5247 5.18099 84.9023 5.71484C85.2929 6.28776 85.5794 6.91276 85.7617 7.58984C85.957 8.25391 86.0546 8.94401 86.0546 9.66016C86.0546 11.0273 85.8203 12.2318 85.3515 13.2734C84.8828 14.3151 84.2122 15.1875 83.3398 15.8906C82.4674 16.5938 81.4062 17.1211 80.1562 17.4727C78.9062 17.8242 77.4999 18 75.9374 18H65.5663ZM71.0742 5.46094V13.5664H75.957C76.6731 13.5664 77.3111 13.4753 77.871 13.293C78.4439 13.1107 78.9192 12.8633 79.2968 12.5508C79.7135 12.1992 80.026 11.776 80.2343 11.2812C80.4557 10.7865 80.5663 10.2331 80.5663 9.62109C80.5663 8.98307 80.4817 8.41016 80.3124 7.90234C80.1562 7.39453 79.9023 6.96484 79.5507 6.61328C79.1992 6.2487 78.7434 5.96875 78.1835 5.77344C77.6236 5.57812 76.9596 5.47396 76.1913 5.46094H71.0742ZM71.0742 1.49609H75.1562C75.9895 1.48307 76.7252 1.38542 77.3632 1.20312C78.0012 1.00781 78.5156 0.721354 78.9062 0.34375C79.2317 0.0442708 79.4791 -0.320312 79.6484 -0.75C79.8307 -1.17969 79.9218 -1.66797 79.9218 -2.21484C79.9218 -2.78776 79.8437 -3.28906 79.6874 -3.71875C79.5442 -4.14844 79.3229 -4.50651 79.0234 -4.79297C78.6328 -5.19661 78.1054 -5.48958 77.4413 -5.67188C76.7903 -5.85417 76.0221 -5.95182 75.1367 -5.96484H71.0742V1.49609Z" fill="black"/>
<path d="M133.496 5.87109C133.496 7.09505 133.385 8.26042 133.164 9.36719C132.943 10.4609 132.624 11.4766 132.207 12.4141C131.764 13.3516 131.217 14.2109 130.566 14.9922C129.915 15.7734 129.173 16.4245 128.34 16.9453C127.585 17.401 126.751 17.7526 125.84 18C124.941 18.2604 123.971 18.3906 122.93 18.3906C121.823 18.3906 120.801 18.2474 119.863 17.9609C118.926 17.6745 118.073 17.2708 117.305 16.75C116.549 16.2031 115.872 15.5456 115.273 14.7773C114.674 13.9961 114.173 13.1172 113.769 12.1406C113.405 11.2422 113.125 10.2656 112.93 9.21094C112.747 8.15625 112.656 7.04297 112.656 5.87109V1.73047C112.656 0.480469 112.76 -0.704427 112.969 -1.82422C113.19 -2.94401 113.509 -3.97917 113.926 -4.92969C114.329 -5.82812 114.818 -6.64193 115.391 -7.37109C115.977 -8.10026 116.647 -8.72526 117.402 -9.24609C118.144 -9.75391 118.978 -10.1445 119.902 -10.418C120.827 -10.6914 121.829 -10.8281 122.91 -10.8281C124.004 -10.8281 125.026 -10.6849 125.977 -10.3984C126.94 -10.125 127.806 -9.72786 128.574 -9.20703C129.342 -8.71224 130.013 -8.11328 130.586 -7.41016C131.172 -6.70703 131.673 -5.93229 132.09 -5.08594C132.546 -4.1224 132.891 -3.06771 133.125 -1.92188C133.372 -0.776042 133.496 0.441406 133.496 1.73047V5.87109ZM127.93 1.69141C127.93 0.96224 127.891 0.272135 127.812 -0.378906C127.747 -1.04297 127.637 -1.65495 127.48 -2.21484C127.285 -2.91797 127.025 -3.54297 126.699 -4.08984C126.374 -4.64974 125.99 -5.10547 125.547 -5.45703C125.195 -5.71745 124.798 -5.91927 124.355 -6.0625C123.926 -6.20573 123.444 -6.27734 122.91 -6.27734C122.402 -6.27734 121.94 -6.21224 121.523 -6.08203C121.12 -5.95182 120.755 -5.76302 120.43 -5.51562C119.987 -5.15104 119.609 -4.69531 119.297 -4.14844C118.997 -3.60156 118.763 -2.96354 118.594 -2.23438C118.463 -1.67448 118.366 -1.0625 118.301 -0.398438C118.249 0.265625 118.223 0.96224 118.223 1.69141V5.87109C118.223 6.5612 118.249 7.22526 118.301 7.86328C118.353 8.5013 118.444 9.09375 118.574 9.64062C118.717 10.3307 118.926 10.9622 119.199 11.5352C119.486 12.0951 119.818 12.5508 120.195 12.9023C120.547 13.2148 120.944 13.4557 121.387 13.625C121.842 13.7943 122.357 13.8789 122.93 13.8789C123.477 13.8789 123.978 13.8008 124.434 13.6445C124.889 13.4883 125.293 13.2604 125.644 12.9609C126.087 12.5964 126.458 12.1406 126.758 11.5938C127.07 11.0339 127.318 10.4023 127.5 9.69922C127.643 9.15234 127.747 8.55339 127.812 7.90234C127.891 7.2513 127.93 6.57422 127.93 5.87109V1.69141Z" fill="black"/>
<path d="M36.5038 42.5625L36.5234 61.4102C36.5234 62.9987 36.302 64.4115 35.8593 65.6484C35.4296 66.8854 34.8046 67.9271 33.9843 68.7734C33.151 69.6328 32.1354 70.2839 30.9374 70.7266C29.7525 71.1693 28.3984 71.3906 26.8749 71.3906C25.4427 71.3906 24.1471 71.1693 22.9882 70.7266C21.8424 70.2839 20.8593 69.6393 20.039 68.793C19.2187 67.9466 18.5807 66.9049 18.1249 65.668C17.6822 64.418 17.4609 62.9987 17.4609 61.4102L17.4804 42.5625H22.9687L22.9882 61.4102C23.0012 62.3607 23.0924 63.194 23.2617 63.9102C23.444 64.6263 23.7109 65.2188 24.0624 65.6875C24.388 66.1172 24.7851 66.4427 25.2538 66.6641C25.7226 66.8724 26.263 66.9766 26.8749 66.9766C27.539 66.9766 28.1249 66.8659 28.6328 66.6445C29.1536 66.4102 29.5833 66.0651 29.9218 65.6094C30.2864 65.1406 30.5598 64.5547 30.7421 63.8516C30.9244 63.1484 31.0221 62.3346 31.0351 61.4102L31.0546 42.5625H36.5038Z" fill="black"/>
<path d="M86.5038 47.0352H77.7343V71H72.2265V47.0352H63.5742V42.5625H86.5038V47.0352Z" fill="black"/>
</g>
<defs>
<clipPath id="clip0_121_101">
<rect width="25" height="29" fill="white"/>
</clipPath>
</defs>
</svg>
