<svg width="25" height="29" viewBox="0 0 25 29" fill="none" xmlns="http://www.w3.org/2000/svg">
<g clip-path="url(#clip0_121_103)">
<rect width="25" height="29" fill="white"/>
<path d="M-25 -58H125V116H-25V-58Z" fill="#E3E3E3"/>
<path fill-rule="evenodd" clip-rule="evenodd" d="M124 -57H-24V115H124V-57ZM-25 -58V116H125V-58H-25Z" fill="black"/>
<path d="M6.54291 12.0625H-1.99224L-3.67193 18H-9.45318L-0.136776 -10.4375H4.84369L13.9843 18H8.20307L6.54291 12.0625ZM-0.644588 7.39453H5.25385L2.34369 -3.07422L-0.644588 7.39453Z" fill="black"/>
<path d="M40.5663 18V-10.4375H50.1171C51.6666 -10.4375 53.0729 -10.2812 54.3359 -9.96875C55.6119 -9.65625 56.6992 -9.18099 57.5976 -8.54297C58.496 -7.90495 59.1861 -7.09766 59.6679 -6.12109C60.1627 -5.14453 60.4101 -3.99219 60.4101 -2.66406C60.3971 -1.80469 60.2408 -0.990885 59.9413 -0.222656C59.6549 0.532552 59.2252 1.19661 58.6523 1.76953C58.3398 2.08203 57.9817 2.36849 57.5781 2.62891C57.1874 2.88932 56.7512 3.11068 56.2695 3.29297V3.3125C57.207 3.57292 57.9492 3.90495 58.496 4.30859C59.0559 4.71224 59.5247 5.18099 59.9023 5.71484C60.2929 6.28776 60.5794 6.91276 60.7617 7.58984C60.957 8.25391 61.0546 8.94401 61.0546 9.66016C61.0546 11.0273 60.8203 12.2318 60.3515 13.2734C59.8828 14.3151 59.2122 15.1875 58.3398 15.8906C57.4674 16.5938 56.4062 17.1211 55.1562 17.4727C53.9062 17.8242 52.4999 18 50.9374 18H40.5663ZM46.0742 5.46094V13.5664H50.957C51.6731 13.5664 52.3111 13.4753 52.871 13.293C53.4439 13.1107 53.9192 12.8633 54.2968 12.5508C54.7135 12.1992 55.026 11.776 55.2343 11.2812C55.4557 10.7865 55.5663 10.2331 55.5663 9.62109C55.5663 8.98307 55.4817 8.41016 55.3124 7.90234C55.1562 7.39453 54.9023 6.96484 54.5507 6.61328C54.1992 6.2487 53.7434 5.96875 53.1835 5.77344C52.6236 5.57812 51.9596 5.47396 51.1913 5.46094H46.0742ZM46.0742 1.49609H50.1562C50.9895 1.48307 51.7252 1.38542 52.3632 1.20312C53.0012 1.00781 53.5156 0.721354 53.9062 0.34375C54.2317 0.0442708 54.4791 -0.320312 54.6484 -0.75C54.8307 -1.17969 54.9218 -1.66797 54.9218 -2.21484C54.9218 -2.78776 54.8437 -3.28906 54.6874 -3.71875C54.5442 -4.14844 54.3229 -4.50651 54.0234 -4.79297C53.6328 -5.19661 53.1054 -5.48958 52.4413 -5.67188C51.7903 -5.85417 51.0221 -5.95182 50.1367 -5.96484H46.0742V1.49609Z" fill="black"/>
<path d="M108.496 5.87109C108.496 7.09505 108.385 8.26042 108.164 9.36719C107.943 10.4609 107.624 11.4766 107.207 12.4141C106.764 13.3516 106.217 14.2109 105.566 14.9922C104.915 15.7734 104.173 16.4245 103.34 16.9453C102.585 17.401 101.751 17.7526 100.84 18C99.9413 18.2604 98.9713 18.3906 97.9296 18.3906C96.8229 18.3906 95.8007 18.2474 94.8632 17.9609C93.9257 17.6745 93.0729 17.2708 92.3046 16.75C91.5494 16.2031 90.8723 15.5456 90.2734 14.7773C89.6744 13.9961 89.1731 13.1172 88.7695 12.1406C88.4049 11.2422 88.1249 10.2656 87.9296 9.21094C87.7473 8.15625 87.6562 7.04297 87.6562 5.87109V1.73047C87.6562 0.480469 87.7604 -0.704427 87.9687 -1.82422C88.19 -2.94401 88.5091 -3.97917 88.9257 -4.92969C89.3294 -5.82812 89.8176 -6.64193 90.3906 -7.37109C90.9765 -8.10026 91.6471 -8.72526 92.4023 -9.24609C93.1445 -9.75391 93.9778 -10.1445 94.9023 -10.418C95.8268 -10.6914 96.8294 -10.8281 97.9101 -10.8281C99.0038 -10.8281 100.026 -10.6849 100.977 -10.3984C101.94 -10.125 102.806 -9.72786 103.574 -9.20703C104.342 -8.71224 105.013 -8.11328 105.586 -7.41016C106.172 -6.70703 106.673 -5.93229 107.09 -5.08594C107.546 -4.1224 107.891 -3.06771 108.125 -1.92188C108.372 -0.776042 108.496 0.441406 108.496 1.73047V5.87109ZM102.93 1.69141C102.93 0.96224 102.891 0.272135 102.812 -0.378906C102.747 -1.04297 102.637 -1.65495 102.48 -2.21484C102.285 -2.91797 102.025 -3.54297 101.699 -4.08984C101.374 -4.64974 100.99 -5.10547 100.547 -5.45703C100.195 -5.71745 99.7981 -5.91927 99.3554 -6.0625C98.9257 -6.20573 98.4439 -6.27734 97.9101 -6.27734C97.4023 -6.27734 96.94 -6.21224 96.5234 -6.08203C96.1197 -5.95182 95.7551 -5.76302 95.4296 -5.51562C94.9869 -5.15104 94.6093 -4.69531 94.2968 -4.14844C93.9973 -3.60156 93.763 -2.96354 93.5937 -2.23438C93.4635 -1.67448 93.3658 -1.0625 93.3007 -0.398438C93.2486 0.265625 93.2226 0.96224 93.2226 1.69141V5.87109C93.2226 6.5612 93.2486 7.22526 93.3007 7.86328C93.3528 8.5013 93.4439 9.09375 93.5742 9.64062C93.7174 10.3307 93.9257 10.9622 94.1992 11.5352C94.4856 12.0951 94.8176 12.5508 95.1953 12.9023C95.5468 13.2148 95.9439 13.4557 96.3867 13.625C96.8424 13.7943 97.3567 13.8789 97.9296 13.8789C98.4765 13.8789 98.9778 13.8008 99.4335 13.6445C99.8893 13.4883 100.293 13.2604 100.644 12.9609C101.087 12.5964 101.458 12.1406 101.758 11.5938C102.07 11.0339 102.318 10.4023 102.5 9.69922C102.643 9.15234 102.747 8.55339 102.812 7.90234C102.891 7.2513 102.93 6.57422 102.93 5.87109V1.69141Z" fill="black"/>
<path d="M11.5038 42.5625L11.5234 61.4102C11.5234 62.9987 11.302 64.4115 10.8593 65.6484C10.4296 66.8854 9.80463 67.9271 8.98432 68.7734C8.15098 69.6328 7.13536 70.2839 5.93744 70.7266C4.75255 71.1693 3.39838 71.3906 1.87494 71.3906C0.442651 71.3906 -0.852922 71.1693 -2.01178 70.7266C-3.15761 70.2839 -4.14068 69.6393 -4.96099 68.793C-5.78131 67.9466 -6.41933 66.9049 -6.87506 65.668C-7.31777 64.418 -7.53912 62.9987 -7.53912 61.4102L-7.51959 42.5625H-2.03131L-2.01178 61.4102C-1.99876 62.3607 -1.90761 63.194 -1.73834 63.9102C-1.55605 64.6263 -1.28912 65.2188 -0.937557 65.6875C-0.612036 66.1172 -0.214901 66.4427 0.253849 66.6641C0.722599 66.8724 1.26296 66.9766 1.87494 66.9766C2.53901 66.9766 3.12494 66.8659 3.63276 66.6445C4.15359 66.4102 4.58328 66.0651 4.92182 65.6094C5.2864 65.1406 5.55984 64.5547 5.74213 63.8516C5.92442 63.1484 6.02208 62.3346 6.0351 61.4102L6.05463 42.5625H11.5038Z" fill="black"/>
<path d="M61.5038 47.0352H52.7343V71H47.2265V47.0352H38.5742V42.5625H61.5038V47.0352Z" fill="black"/>
</g>
<defs>
<clipPath id="clip0_121_103">
<rect width="25" height="29" fill="white"/>
</clipPath>
</defs>
</svg>
