<svg width="25" height="29" viewBox="0 0 25 29" fill="none" xmlns="http://www.w3.org/2000/svg">
<g clip-path="url(#clip0_121_105)">
<rect width="25" height="29" fill="white"/>
<path d="M-50 -58H100V116H-50V-58Z" fill="var(--background)"/>
<path fill-rule="evenodd" clip-rule="evenodd" d="M99 -57H-49V115H99V-57ZM-50 -58V116H100V-58H-50Z" fill="black"/>
<path d="M-18.4571 12.0625H-26.9922L-28.6719 18H-34.4532L-25.1368 -10.4375H-20.1563L-11.0157 18H-16.7969L-18.4571 12.0625ZM-25.6446 7.39453H-19.7462L-22.6563 -3.07422L-25.6446 7.39453Z" fill="black"/>
<path d="M15.5663 18V-10.4375H25.1171C26.6666 -10.4375 28.0729 -10.2812 29.3359 -9.96875C30.6119 -9.65625 31.6992 -9.18099 32.5976 -8.54297C33.496 -7.90495 34.1861 -7.09766 34.6679 -6.12109C35.1627 -5.14453 35.4101 -3.99219 35.4101 -2.66406C35.3971 -1.80469 35.2408 -0.990885 34.9413 -0.222656C34.6549 0.532552 34.2252 1.19661 33.6523 1.76953C33.3398 2.08203 32.9817 2.36849 32.5781 2.62891C32.1874 2.88932 31.7512 3.11068 31.2695 3.29297V3.3125C32.207 3.57292 32.9492 3.90495 33.496 4.30859C34.0559 4.71224 34.5247 5.18099 34.9023 5.71484C35.2929 6.28776 35.5794 6.91276 35.7617 7.58984C35.957 8.25391 36.0546 8.94401 36.0546 9.66016C36.0546 11.0273 35.8203 12.2318 35.3515 13.2734C34.8828 14.3151 34.2122 15.1875 33.3398 15.8906C32.4674 16.5938 31.4062 17.1211 30.1562 17.4727C28.9062 17.8242 27.4999 18 25.9374 18H15.5663ZM21.0742 5.46094V13.5664H25.957C26.6731 13.5664 27.3111 13.4753 27.871 13.293C28.4439 13.1107 28.9192 12.8633 29.2968 12.5508C29.7135 12.1992 30.026 11.776 30.2343 11.2812C30.4557 10.7865 30.5663 10.2331 30.5663 9.62109C30.5663 8.98307 30.4817 8.41016 30.3124 7.90234C30.1562 7.39453 29.9023 6.96484 29.5507 6.61328C29.1992 6.2487 28.7434 5.96875 28.1835 5.77344C27.6236 5.57812 26.9596 5.47396 26.1913 5.46094H21.0742ZM21.0742 1.49609H25.1562C25.9895 1.48307 26.7252 1.38542 27.3632 1.20312C28.0012 1.00781 28.5156 0.721354 28.9062 0.34375C29.2317 0.0442708 29.4791 -0.320312 29.6484 -0.75C29.8307 -1.17969 29.9218 -1.66797 29.9218 -2.21484C29.9218 -2.78776 29.8437 -3.28906 29.6874 -3.71875C29.5442 -4.14844 29.3229 -4.50651 29.0234 -4.79297C28.6328 -5.19661 28.1054 -5.48958 27.4413 -5.67188C26.7903 -5.85417 26.0221 -5.95182 25.1367 -5.96484H21.0742V1.49609Z" fill="black"/>
<path d="M83.496 5.87109C83.496 7.09505 83.3854 8.26042 83.164 9.36719C82.9426 10.4609 82.6236 11.4766 82.207 12.4141C81.7643 13.3516 81.2174 14.2109 80.5663 14.9922C79.9153 15.7734 79.1731 16.4245 78.3398 16.9453C77.5846 17.401 76.7512 17.7526 75.8398 18C74.9413 18.2604 73.9713 18.3906 72.9296 18.3906C71.8229 18.3906 70.8007 18.2474 69.8632 17.9609C68.9257 17.6745 68.0729 17.2708 67.3046 16.75C66.5494 16.2031 65.8723 15.5456 65.2734 14.7773C64.6744 13.9961 64.1731 13.1172 63.7695 12.1406C63.4049 11.2422 63.1249 10.2656 62.9296 9.21094C62.7473 8.15625 62.6562 7.04297 62.6562 5.87109V1.73047C62.6562 0.480469 62.7604 -0.704427 62.9687 -1.82422C63.19 -2.94401 63.5091 -3.97917 63.9257 -4.92969C64.3294 -5.82812 64.8176 -6.64193 65.3906 -7.37109C65.9765 -8.10026 66.6471 -8.72526 67.4023 -9.24609C68.1445 -9.75391 68.9778 -10.1445 69.9023 -10.418C70.8268 -10.6914 71.8294 -10.8281 72.9101 -10.8281C74.0038 -10.8281 75.026 -10.6849 75.9765 -10.3984C76.94 -10.125 77.8059 -9.72786 78.5742 -9.20703C79.3424 -8.71224 80.013 -8.11328 80.5859 -7.41016C81.1718 -6.70703 81.6731 -5.93229 82.0898 -5.08594C82.5455 -4.1224 82.8906 -3.06771 83.1249 -1.92188C83.3723 -0.776042 83.496 0.441406 83.496 1.73047V5.87109ZM77.9296 1.69141C77.9296 0.96224 77.8906 0.272135 77.8124 -0.378906C77.7473 -1.04297 77.6367 -1.65495 77.4804 -2.21484C77.2851 -2.91797 77.0247 -3.54297 76.6992 -4.08984C76.3736 -4.64974 75.9895 -5.10547 75.5468 -5.45703C75.1953 -5.71745 74.7981 -5.91927 74.3554 -6.0625C73.9257 -6.20573 73.4439 -6.27734 72.9101 -6.27734C72.4023 -6.27734 71.94 -6.21224 71.5234 -6.08203C71.1197 -5.95182 70.7551 -5.76302 70.4296 -5.51562C69.9869 -5.15104 69.6093 -4.69531 69.2968 -4.14844C68.9973 -3.60156 68.763 -2.96354 68.5937 -2.23438C68.4635 -1.67448 68.3658 -1.0625 68.3007 -0.398438C68.2486 0.265625 68.2226 0.96224 68.2226 1.69141V5.87109C68.2226 6.5612 68.2486 7.22526 68.3007 7.86328C68.3528 8.5013 68.4439 9.09375 68.5742 9.64062C68.7174 10.3307 68.9257 10.9622 69.1992 11.5352C69.4856 12.0951 69.8176 12.5508 70.1953 12.9023C70.5468 13.2148 70.9439 13.4557 71.3867 13.625C71.8424 13.7943 72.3567 13.8789 72.9296 13.8789C73.4765 13.8789 73.9778 13.8008 74.4335 13.6445C74.8893 13.4883 75.2929 13.2604 75.6445 12.9609C76.0872 12.5964 76.4583 12.1406 76.7578 11.5938C77.0703 11.0339 77.3176 10.4023 77.4999 9.69922C77.6432 9.15234 77.7473 8.55339 77.8124 7.90234C77.8906 7.2513 77.9296 6.57422 77.9296 5.87109V1.69141Z" fill="black"/>
<path d="M-13.4962 42.5625L-13.4766 61.4102C-13.4766 62.9987 -13.698 64.4115 -14.1407 65.6484C-14.5704 66.8854 -15.1954 67.9271 -16.0157 68.7734C-16.849 69.6328 -17.8646 70.2839 -19.0626 70.7266C-20.2475 71.1693 -21.6016 71.3906 -23.1251 71.3906C-24.5573 71.3906 -25.8529 71.1693 -27.0118 70.7266C-28.1576 70.2839 -29.1407 69.6393 -29.961 68.793C-30.7813 67.9466 -31.4193 66.9049 -31.8751 65.668C-32.3178 64.418 -32.5391 62.9987 -32.5391 61.4102L-32.5196 42.5625H-27.0313L-27.0118 61.4102C-26.9988 62.3607 -26.9076 63.194 -26.7383 63.9102C-26.556 64.6263 -26.2891 65.2188 -25.9376 65.6875C-25.612 66.1172 -25.2149 66.4427 -24.7462 66.6641C-24.2774 66.8724 -23.737 66.9766 -23.1251 66.9766C-22.461 66.9766 -21.8751 66.8659 -21.3672 66.6445C-20.8464 66.4102 -20.4167 66.0651 -20.0782 65.6094C-19.7136 65.1406 -19.4402 64.5547 -19.2579 63.8516C-19.0756 63.1484 -18.9779 62.3346 -18.9649 61.4102L-18.9454 42.5625H-13.4962Z" fill="black"/>
<path d="M36.5038 47.0352H27.7343V71H22.2265V47.0352H13.5742V42.5625H36.5038V47.0352Z" fill="black"/>
</g>
<defs>
<clipPath id="clip0_121_105">
<rect width="25" height="29" fill="white"/>
</clipPath>
</defs>
</svg>
