<svg width="25" height="29" viewBox="0 0 25 29" fill="none" xmlns="http://www.w3.org/2000/svg">
<g clip-path="url(#clip0_121_107)">
<rect width="25" height="29" fill="white"/>
<path d="M-75 -58H75V116H-75V-58Z" fill="#E3E3E3"/>
<path fill-rule="evenodd" clip-rule="evenodd" d="M74 -57H-74V115H74V-57ZM-75 -58V116H75V-58H-75Z" fill="black"/>
<path d="M-43.4571 12.0625H-51.9923L-53.6719 18H-59.4532L-50.1368 -10.4375H-45.1563L-36.0157 18H-41.7969L-43.4571 12.0625ZM-50.6446 7.39453H-44.7462L-47.6563 -3.07422L-50.6446 7.39453Z" fill="black"/>
<path d="M-9.43367 18V-10.4375H0.117111C1.66659 -10.4375 3.07284 -10.2812 4.33586 -9.96875C5.6119 -9.65625 6.69914 -9.18099 7.59758 -8.54297C8.49602 -7.90495 9.18612 -7.09766 9.66789 -6.12109C10.1627 -5.14453 10.4101 -3.99219 10.4101 -2.66406C10.3971 -1.80469 10.2408 -0.990885 9.94133 -0.222656C9.65487 0.532552 9.22518 1.19661 8.65227 1.76953C8.33977 2.08203 7.98169 2.36849 7.57805 2.62891C7.18742 2.88932 6.75123 3.11068 6.26945 3.29297V3.3125C7.20695 3.57292 7.94914 3.90495 8.49602 4.30859C9.05591 4.71224 9.52466 5.18099 9.90227 5.71484C10.2929 6.28776 10.5794 6.91276 10.7616 7.58984C10.957 8.25391 11.0546 8.94401 11.0546 9.66016C11.0546 11.0273 10.8202 12.2318 10.3515 13.2734C9.88274 14.3151 9.21216 15.1875 8.33977 15.8906C7.46737 16.5938 6.40617 17.1211 5.15617 17.4727C3.90617 17.8242 2.49992 18 0.937424 18H-9.43367ZM-3.92586 5.46094V13.5664H0.956955C1.6731 13.5664 2.31112 13.4753 2.87102 13.293C3.44393 13.1107 3.91919 12.8633 4.2968 12.5508C4.71347 12.1992 5.02597 11.776 5.2343 11.2812C5.45565 10.7865 5.56633 10.2331 5.56633 9.62109C5.56633 8.98307 5.48169 8.41016 5.31242 7.90234C5.15617 7.39453 4.90227 6.96484 4.5507 6.61328C4.19914 6.2487 3.74341 5.96875 3.18352 5.77344C2.62362 5.57812 1.95956 5.47396 1.19133 5.46094H-3.92586ZM-3.92586 1.49609H0.156174C0.989507 1.48307 1.72518 1.38542 2.3632 1.20312C3.00123 1.00781 3.51555 0.721354 3.90617 0.34375C4.23169 0.0442708 4.47909 -0.320312 4.64836 -0.75C4.83065 -1.17969 4.9218 -1.66797 4.9218 -2.21484C4.9218 -2.78776 4.84367 -3.28906 4.68742 -3.71875C4.54419 -4.14844 4.32284 -4.50651 4.02336 -4.79297C3.63274 -5.19661 3.10539 -5.48958 2.44133 -5.67188C1.79029 -5.85417 1.02206 -5.95182 0.136642 -5.96484H-3.92586V1.49609Z" fill="black"/>
<path d="M58.496 5.87109C58.496 7.09505 58.3853 8.26042 58.164 9.36719C57.9426 10.4609 57.6236 11.4766 57.207 12.4141C56.7642 13.3516 56.2174 14.2109 55.5663 14.9922C54.9153 15.7734 54.1731 16.4245 53.3398 16.9453C52.5846 17.401 51.7512 17.7526 50.8398 18C49.9413 18.2604 48.9713 18.3906 47.9296 18.3906C46.8228 18.3906 45.8007 18.2474 44.8632 17.9609C43.9257 17.6745 43.0728 17.2708 42.3046 16.75C41.5494 16.2031 40.8723 15.5456 40.2734 14.7773C39.6744 13.9961 39.1731 13.1172 38.7695 12.1406C38.4049 11.2422 38.1249 10.2656 37.9296 9.21094C37.7473 8.15625 37.6562 7.04297 37.6562 5.87109V1.73047C37.6562 0.480469 37.7603 -0.704427 37.9687 -1.82422C38.19 -2.94401 38.509 -3.97917 38.9257 -4.92969C39.3294 -5.82812 39.8176 -6.64193 40.3905 -7.37109C40.9765 -8.10026 41.6471 -8.72526 42.4023 -9.24609C43.1445 -9.75391 43.9778 -10.1445 44.9023 -10.418C45.8267 -10.6914 46.8294 -10.8281 47.9101 -10.8281C49.0038 -10.8281 50.026 -10.6849 50.9765 -10.3984C51.94 -10.125 52.8059 -9.72786 53.5741 -9.20703C54.3424 -8.71224 55.0129 -8.11328 55.5859 -7.41016C56.1718 -6.70703 56.6731 -5.93229 57.0898 -5.08594C57.5455 -4.1224 57.8905 -3.06771 58.1249 -1.92188C58.3723 -0.776042 58.496 0.441406 58.496 1.73047V5.87109ZM52.9296 1.69141C52.9296 0.96224 52.8905 0.272135 52.8124 -0.378906C52.7473 -1.04297 52.6366 -1.65495 52.4804 -2.21484C52.2851 -2.91797 52.0247 -3.54297 51.6991 -4.08984C51.3736 -4.64974 50.9895 -5.10547 50.5468 -5.45703C50.1952 -5.71745 49.7981 -5.91927 49.3554 -6.0625C48.9257 -6.20573 48.4439 -6.27734 47.9101 -6.27734C47.4023 -6.27734 46.94 -6.21224 46.5234 -6.08203C46.1197 -5.95182 45.7551 -5.76302 45.4296 -5.51562C44.9869 -5.15104 44.6093 -4.69531 44.2968 -4.14844C43.9973 -3.60156 43.7629 -2.96354 43.5937 -2.23438C43.4635 -1.67448 43.3658 -1.0625 43.3007 -0.398438C43.2486 0.265625 43.2226 0.96224 43.2226 1.69141V5.87109C43.2226 6.5612 43.2486 7.22526 43.3007 7.86328C43.3528 8.5013 43.4439 9.09375 43.5741 9.64062C43.7174 10.3307 43.9257 10.9622 44.1991 11.5352C44.4856 12.0951 44.8176 12.5508 45.1952 12.9023C45.5468 13.2148 45.9439 13.4557 46.3866 13.625C46.8424 13.7943 47.3567 13.8789 47.9296 13.8789C48.4765 13.8789 48.9778 13.8008 49.4335 13.6445C49.8892 13.4883 50.2929 13.2604 50.6445 12.9609C51.0872 12.5964 51.4583 12.1406 51.7577 11.5938C52.0702 11.0339 52.3176 10.4023 52.4999 9.69922C52.6432 9.15234 52.7473 8.55339 52.8124 7.90234C52.8905 7.2513 52.9296 6.57422 52.9296 5.87109V1.69141Z" fill="black"/>
<path d="M-38.4962 42.5625L-38.4766 61.4102C-38.4766 62.9987 -38.698 64.4115 -39.1407 65.6484C-39.5704 66.8854 -40.1954 67.9271 -41.0157 68.7734C-41.849 69.6328 -42.8647 70.2839 -44.0626 70.7266C-45.2475 71.1693 -46.6016 71.3906 -48.1251 71.3906C-49.5574 71.3906 -50.8529 71.1693 -52.0118 70.7266C-53.1576 70.2839 -54.1407 69.6393 -54.961 68.793C-55.7813 67.9466 -56.4193 66.9049 -56.8751 65.668C-57.3178 64.418 -57.5391 62.9987 -57.5391 61.4102L-57.5196 42.5625H-52.0313L-52.0118 61.4102C-51.9988 62.3607 -51.9076 63.194 -51.7384 63.9102C-51.5561 64.6263 -51.2891 65.2188 -50.9376 65.6875C-50.6121 66.1172 -50.2149 66.4427 -49.7462 66.6641C-49.2774 66.8724 -48.7371 66.9766 -48.1251 66.9766C-47.461 66.9766 -46.8751 66.8659 -46.3673 66.6445C-45.8464 66.4102 -45.4167 66.0651 -45.0782 65.6094C-44.7136 65.1406 -44.4402 64.5547 -44.2579 63.8516C-44.0756 63.1484 -43.9779 62.3346 -43.9649 61.4102L-43.9454 42.5625H-38.4962Z" fill="black"/>
<path d="M11.5038 47.0352H2.7343V71H-2.77351V47.0352H-11.4259V42.5625H11.5038V47.0352Z" fill="black"/>
</g>
<defs>
<clipPath id="clip0_121_107">
<rect width="25" height="29" fill="white"/>
</clipPath>
</defs>
</svg>
