<svg width="25" height="29" viewBox="0 0 25 29" fill="none" xmlns="http://www.w3.org/2000/svg">
<g clip-path="url(#clip0_121_109)">
<rect width="25" height="29" fill="white"/>
<path d="M-100 -58H50V116H-100V-58Z" fill="var(--background)"/>
<path fill-rule="evenodd" clip-rule="evenodd" d="M49 -57H-99V115H49V-57ZM-100 -58V116H50V-58H-100Z" fill="black"/>
<path d="M-68.4571 12.0625H-76.9922L-78.6719 18H-84.4532L-75.1368 -10.4375H-70.1563L-61.0157 18H-66.7969L-68.4571 12.0625ZM-75.6446 7.39453H-69.7462L-72.6563 -3.07422L-75.6446 7.39453Z" fill="black"/>
<path d="M-34.4337 18V-10.4375H-24.8829C-23.3334 -10.4375 -21.9271 -10.2812 -20.6641 -9.96875C-19.3881 -9.65625 -18.3008 -9.18099 -17.4024 -8.54297C-16.504 -7.90495 -15.8139 -7.09766 -15.3321 -6.12109C-14.8373 -5.14453 -14.5899 -3.99219 -14.5899 -2.66406C-14.6029 -1.80469 -14.7592 -0.990885 -15.0587 -0.222656C-15.3451 0.532552 -15.7748 1.19661 -16.3477 1.76953C-16.6602 2.08203 -17.0183 2.36849 -17.4219 2.62891C-17.8126 2.88932 -18.2488 3.11068 -18.7305 3.29297V3.3125C-17.793 3.57292 -17.0508 3.90495 -16.504 4.30859C-15.9441 4.71224 -15.4753 5.18099 -15.0977 5.71484C-14.7071 6.28776 -14.4206 6.91276 -14.2383 7.58984C-14.043 8.25391 -13.9454 8.94401 -13.9454 9.66016C-13.9454 11.0273 -14.1797 12.2318 -14.6485 13.2734C-15.1172 14.3151 -15.7878 15.1875 -16.6602 15.8906C-17.5326 16.5938 -18.5938 17.1211 -19.8438 17.4727C-21.0938 17.8242 -22.5001 18 -24.0626 18H-34.4337ZM-28.9258 5.46094V13.5664H-24.043C-23.3269 13.5664 -22.6889 13.4753 -22.129 13.293C-21.5561 13.1107 -21.0808 12.8633 -20.7032 12.5508C-20.2865 12.1992 -19.974 11.776 -19.7657 11.2812C-19.5443 10.7865 -19.4337 10.2331 -19.4337 9.62109C-19.4337 8.98307 -19.5183 8.41016 -19.6876 7.90234C-19.8438 7.39453 -20.0977 6.96484 -20.4493 6.61328C-20.8008 6.2487 -21.2566 5.96875 -21.8165 5.77344C-22.3764 5.57812 -23.0404 5.47396 -23.8087 5.46094H-28.9258ZM-28.9258 1.49609H-24.8438C-24.0105 1.48307 -23.2748 1.38542 -22.6368 1.20312C-21.9988 1.00781 -21.4844 0.721354 -21.0938 0.34375C-20.7683 0.0442708 -20.5209 -0.320312 -20.3516 -0.75C-20.1693 -1.17969 -20.0782 -1.66797 -20.0782 -2.21484C-20.0782 -2.78776 -20.1563 -3.28906 -20.3126 -3.71875C-20.4558 -4.14844 -20.6771 -4.50651 -20.9766 -4.79297C-21.3672 -5.19661 -21.8946 -5.48958 -22.5587 -5.67188C-23.2097 -5.85417 -23.9779 -5.95182 -24.8633 -5.96484H-28.9258V1.49609Z" fill="black"/>
<path d="M33.496 5.87109C33.496 7.09505 33.3854 8.26042 33.164 9.36719C32.9426 10.4609 32.6236 11.4766 32.207 12.4141C31.7643 13.3516 31.2174 14.2109 30.5663 14.9922C29.9153 15.7734 29.1731 16.4245 28.3398 16.9453C27.5846 17.401 26.7512 17.7526 25.8398 18C24.9413 18.2604 23.9713 18.3906 22.9296 18.3906C21.8229 18.3906 20.8007 18.2474 19.8632 17.9609C18.9257 17.6745 18.0729 17.2708 17.3046 16.75C16.5494 16.2031 15.8723 15.5456 15.2734 14.7773C14.6744 13.9961 14.1731 13.1172 13.7695 12.1406C13.4049 11.2422 13.1249 10.2656 12.9296 9.21094C12.7473 8.15625 12.6562 7.04297 12.6562 5.87109V1.73047C12.6562 0.480469 12.7604 -0.704427 12.9687 -1.82422C13.19 -2.94401 13.5091 -3.97917 13.9257 -4.92969C14.3294 -5.82812 14.8176 -6.64193 15.3906 -7.37109C15.9765 -8.10026 16.6471 -8.72526 17.4023 -9.24609C18.1445 -9.75391 18.9778 -10.1445 19.9023 -10.418C20.8268 -10.6914 21.8294 -10.8281 22.9101 -10.8281C24.0038 -10.8281 25.026 -10.6849 25.9765 -10.3984C26.94 -10.125 27.8059 -9.72786 28.5742 -9.20703C29.3424 -8.71224 30.013 -8.11328 30.5859 -7.41016C31.1718 -6.70703 31.6731 -5.93229 32.0898 -5.08594C32.5455 -4.1224 32.8906 -3.06771 33.1249 -1.92188C33.3723 -0.776042 33.496 0.441406 33.496 1.73047V5.87109ZM27.9296 1.69141C27.9296 0.96224 27.8906 0.272135 27.8124 -0.378906C27.7473 -1.04297 27.6367 -1.65495 27.4804 -2.21484C27.2851 -2.91797 27.0247 -3.54297 26.6992 -4.08984C26.3736 -4.64974 25.9895 -5.10547 25.5468 -5.45703C25.1953 -5.71745 24.7981 -5.91927 24.3554 -6.0625C23.9257 -6.20573 23.4439 -6.27734 22.9101 -6.27734C22.4023 -6.27734 21.94 -6.21224 21.5234 -6.08203C21.1197 -5.95182 20.7551 -5.76302 20.4296 -5.51562C19.9869 -5.15104 19.6093 -4.69531 19.2968 -4.14844C18.9973 -3.60156 18.763 -2.96354 18.5937 -2.23438C18.4635 -1.67448 18.3658 -1.0625 18.3007 -0.398438C18.2486 0.265625 18.2226 0.96224 18.2226 1.69141V5.87109C18.2226 6.5612 18.2486 7.22526 18.3007 7.86328C18.3528 8.5013 18.4439 9.09375 18.5742 9.64062C18.7174 10.3307 18.9257 10.9622 19.1992 11.5352C19.4856 12.0951 19.8176 12.5508 20.1953 12.9023C20.5468 13.2148 20.9439 13.4557 21.3867 13.625C21.8424 13.7943 22.3567 13.8789 22.9296 13.8789C23.4765 13.8789 23.9778 13.8008 24.4335 13.6445C24.8893 13.4883 25.2929 13.2604 25.6445 12.9609C26.0872 12.5964 26.4583 12.1406 26.7578 11.5938C27.0703 11.0339 27.3176 10.4023 27.4999 9.69922C27.6432 9.15234 27.7473 8.55339 27.8124 7.90234C27.8906 7.2513 27.9296 6.57422 27.9296 5.87109V1.69141Z" fill="black"/>
<path d="M-63.4962 42.5625L-63.4766 61.4102C-63.4766 62.9987 -63.698 64.4115 -64.1407 65.6484C-64.5704 66.8854 -65.1954 67.9271 -66.0157 68.7734C-66.849 69.6328 -67.8646 70.2839 -69.0626 70.7266C-70.2475 71.1693 -71.6016 71.3906 -73.1251 71.3906C-74.5573 71.3906 -75.8529 71.1693 -77.0118 70.7266C-78.1576 70.2839 -79.1407 69.6393 -79.961 68.793C-80.7813 67.9466 -81.4193 66.9049 -81.8751 65.668C-82.3178 64.418 -82.5391 62.9987 -82.5391 61.4102L-82.5196 42.5625H-77.0313L-77.0118 61.4102C-76.9988 62.3607 -76.9076 63.194 -76.7383 63.9102C-76.556 64.6263 -76.2891 65.2188 -75.9376 65.6875C-75.612 66.1172 -75.2149 66.4427 -74.7462 66.6641C-74.2774 66.8724 -73.737 66.9766 -73.1251 66.9766C-72.461 66.9766 -71.8751 66.8659 -71.3672 66.6445C-70.8464 66.4102 -70.4167 66.0651 -70.0782 65.6094C-69.7136 65.1406 -69.4402 64.5547 -69.2579 63.8516C-69.0756 63.1484 -68.9779 62.3346 -68.9649 61.4102L-68.9454 42.5625H-63.4962Z" fill="black"/>
<path d="M-13.4962 47.0352H-22.2657V71H-27.7735V47.0352H-36.4258V42.5625H-13.4962V47.0352Z" fill="black"/>
</g>
<defs>
<clipPath id="clip0_121_109">
<rect width="25" height="29" fill="white"/>
</clipPath>
</defs>
</svg>
