<svg width="25" height="29" viewBox="0 0 25 29" fill="none" xmlns="http://www.w3.org/2000/svg">
<g clip-path="url(#clip0_121_111)">
<rect width="25" height="29" fill="white"/>
<path d="M-125 -58H25V116H-125V-58Z" fill="#E3E3E3"/>
<path fill-rule="evenodd" clip-rule="evenodd" d="M24 -57H-124V115H24V-57ZM-125 -58V116H25V-58H-125Z" fill="black"/>
<path d="M-93.4571 12.0625H-101.992L-103.672 18H-109.453L-100.137 -10.4375H-95.1563L-86.0157 18H-91.7969L-93.4571 12.0625ZM-100.645 7.39453H-94.7462L-97.6563 -3.07422L-100.645 7.39453Z" fill="black"/>
<path d="M-59.4337 18V-10.4375H-49.8829C-48.3334 -10.4375 -46.9271 -10.2812 -45.6641 -9.96875C-44.3881 -9.65625 -43.3008 -9.18099 -42.4024 -8.54297C-41.504 -7.90495 -40.8139 -7.09766 -40.3321 -6.12109C-39.8373 -5.14453 -39.5899 -3.99219 -39.5899 -2.66406C-39.6029 -1.80469 -39.7592 -0.990885 -40.0587 -0.222656C-40.3451 0.532552 -40.7748 1.19661 -41.3477 1.76953C-41.6602 2.08203 -42.0183 2.36849 -42.4219 2.62891C-42.8126 2.88932 -43.2488 3.11068 -43.7305 3.29297V3.3125C-42.793 3.57292 -42.0508 3.90495 -41.504 4.30859C-40.9441 4.71224 -40.4753 5.18099 -40.0977 5.71484C-39.7071 6.28776 -39.4206 6.91276 -39.2383 7.58984C-39.043 8.25391 -38.9454 8.94401 -38.9454 9.66016C-38.9454 11.0273 -39.1797 12.2318 -39.6485 13.2734C-40.1172 14.3151 -40.7878 15.1875 -41.6602 15.8906C-42.5326 16.5938 -43.5938 17.1211 -44.8438 17.4727C-46.0938 17.8242 -47.5001 18 -49.0626 18H-59.4337ZM-53.9258 5.46094V13.5664H-49.043C-48.3269 13.5664 -47.6889 13.4753 -47.129 13.293C-46.5561 13.1107 -46.0808 12.8633 -45.7032 12.5508C-45.2865 12.1992 -44.974 11.776 -44.7657 11.2812C-44.5443 10.7865 -44.4337 10.2331 -44.4337 9.62109C-44.4337 8.98307 -44.5183 8.41016 -44.6876 7.90234C-44.8438 7.39453 -45.0977 6.96484 -45.4493 6.61328C-45.8008 6.2487 -46.2566 5.96875 -46.8165 5.77344C-47.3764 5.57812 -48.0404 5.47396 -48.8087 5.46094H-53.9258ZM-53.9258 1.49609H-49.8438C-49.0105 1.48307 -48.2748 1.38542 -47.6368 1.20312C-46.9988 1.00781 -46.4844 0.721354 -46.0938 0.34375C-45.7683 0.0442708 -45.5209 -0.320312 -45.3516 -0.75C-45.1693 -1.17969 -45.0782 -1.66797 -45.0782 -2.21484C-45.0782 -2.78776 -45.1563 -3.28906 -45.3126 -3.71875C-45.4558 -4.14844 -45.6771 -4.50651 -45.9766 -4.79297C-46.3672 -5.19661 -46.8946 -5.48958 -47.5587 -5.67188C-48.2097 -5.85417 -48.9779 -5.95182 -49.8633 -5.96484H-53.9258V1.49609Z" fill="black"/>
<path d="M8.49603 5.87109C8.49603 7.09505 8.38536 8.26042 8.164 9.36719C7.94265 10.4609 7.62364 11.4766 7.20697 12.4141C6.76426 13.3516 6.21739 14.2109 5.56635 14.9922C4.9153 15.7734 4.17312 16.4245 3.33978 16.9453C2.58457 17.401 1.75124 17.7526 0.839783 18C-0.0586548 18.2604 -1.02871 18.3906 -2.07037 18.3906C-3.17714 18.3906 -4.19928 18.2474 -5.13678 17.9609C-6.07428 17.6745 -6.92714 17.2708 -7.69537 16.75C-8.45058 16.2031 -9.12767 15.5456 -9.72662 14.7773C-10.3256 13.9961 -10.8269 13.1172 -11.2305 12.1406C-11.5951 11.2422 -11.8751 10.2656 -12.0704 9.21094C-12.2527 8.15625 -12.3438 7.04297 -12.3438 5.87109V1.73047C-12.3438 0.480469 -12.2396 -0.704427 -12.0313 -1.82422C-11.81 -2.94401 -11.4909 -3.97917 -11.0743 -4.92969C-10.6706 -5.82812 -10.1824 -6.64193 -9.60944 -7.37109C-9.0235 -8.10026 -8.35293 -8.72526 -7.59772 -9.24609C-6.85553 -9.75391 -6.0222 -10.1445 -5.09772 -10.418C-4.17324 -10.6914 -3.17063 -10.8281 -2.0899 -10.8281C-0.996155 -10.8281 0.0259807 -10.6849 0.976501 -10.3984C1.94004 -10.125 2.80593 -9.72786 3.57416 -9.20703C4.34239 -8.71224 5.01296 -8.11328 5.58588 -7.41016C6.17181 -6.70703 6.67312 -5.93229 7.08978 -5.08594C7.54551 -4.1224 7.89056 -3.06771 8.12494 -1.92188C8.37233 -0.776042 8.49603 0.441406 8.49603 1.73047V5.87109ZM2.92963 1.69141C2.92963 0.96224 2.89056 0.272135 2.81244 -0.378906C2.74733 -1.04297 2.63666 -1.65495 2.48041 -2.21484C2.2851 -2.91797 2.02468 -3.54297 1.69916 -4.08984C1.37364 -4.64974 0.989522 -5.10547 0.546814 -5.45703C0.195251 -5.71745 -0.201884 -5.91927 -0.644592 -6.0625C-1.07428 -6.20573 -1.55605 -6.27734 -2.0899 -6.27734C-2.59772 -6.27734 -3.05996 -6.21224 -3.47662 -6.08203C-3.88027 -5.95182 -4.24485 -5.76302 -4.57037 -5.51562C-5.01308 -5.15104 -5.39069 -4.69531 -5.70319 -4.14844C-6.00267 -3.60156 -6.23704 -2.96354 -6.40631 -2.23438C-6.53652 -1.67448 -6.63418 -1.0625 -6.69928 -0.398438C-6.75136 0.265625 -6.7774 0.96224 -6.7774 1.69141V5.87109C-6.7774 6.5612 -6.75136 7.22526 -6.69928 7.86328C-6.6472 8.5013 -6.55605 9.09375 -6.42584 9.64062C-6.28261 10.3307 -6.07428 10.9622 -5.80084 11.5352C-5.51438 12.0951 -5.18235 12.5508 -4.80475 12.9023C-4.45319 13.2148 -4.05605 13.4557 -3.61334 13.625C-3.15761 13.7943 -2.64329 13.8789 -2.07037 13.8789C-1.5235 13.8789 -1.0222 13.8008 -0.566467 13.6445C-0.110738 13.4883 0.292908 13.2604 0.64447 12.9609C1.08718 12.5964 1.45827 12.1406 1.75775 11.5938C2.07025 11.0339 2.31765 10.4023 2.49994 9.69922C2.64317 9.15234 2.74733 8.55339 2.81244 7.90234C2.89056 7.2513 2.92963 6.57422 2.92963 5.87109V1.69141Z" fill="black"/>
<path d="M-88.4962 42.5625L-88.4766 61.4102C-88.4766 62.9987 -88.698 64.4115 -89.1407 65.6484C-89.5704 66.8854 -90.1954 67.9271 -91.0157 68.7734C-91.849 69.6328 -92.8646 70.2839 -94.0626 70.7266C-95.2475 71.1693 -96.6016 71.3906 -98.1251 71.3906C-99.5573 71.3906 -100.853 71.1693 -102.012 70.7266C-103.158 70.2839 -104.141 69.6393 -104.961 68.793C-105.781 67.9466 -106.419 66.9049 -106.875 65.668C-107.318 64.418 -107.539 62.9987 -107.539 61.4102L-107.52 42.5625H-102.031L-102.012 61.4102C-101.999 62.3607 -101.908 63.194 -101.738 63.9102C-101.556 64.6263 -101.289 65.2188 -100.938 65.6875C-100.612 66.1172 -100.215 66.4427 -99.7462 66.6641C-99.2774 66.8724 -98.737 66.9766 -98.1251 66.9766C-97.461 66.9766 -96.8751 66.8659 -96.3672 66.6445C-95.8464 66.4102 -95.4167 66.0651 -95.0782 65.6094C-94.7136 65.1406 -94.4402 64.5547 -94.2579 63.8516C-94.0756 63.1484 -93.9779 62.3346 -93.9649 61.4102L-93.9454 42.5625H-88.4962Z" fill="black"/>
<path d="M-38.4962 47.0352H-47.2657V71H-52.7735V47.0352H-61.4258V42.5625H-38.4962V47.0352Z" fill="black"/>
</g>
<defs>
<clipPath id="clip0_121_111">
<rect width="25" height="29" fill="white"/>
</clipPath>
</defs>
</svg>
