<svg width="25" height="29" viewBox="0 0 25 29" fill="none" xmlns="http://www.w3.org/2000/svg">
<g clip-path="url(#clip0_121_113)">
<rect width="25" height="29" fill="white"/>
<path d="M0 -87H150V87H0V-87Z" fill="#E3E3E3"/>
<path fill-rule="evenodd" clip-rule="evenodd" d="M149 -86H1V86H149V-86ZM0 -87V87H150V-87H0Z" fill="black"/>
<path d="M31.5429 -16.9375H23.0078L21.3281 -11H15.5468L24.8632 -39.4375H29.8437L38.9843 -11H33.2031L31.5429 -16.9375ZM24.3554 -21.6055H30.2538L27.3437 -32.0742L24.3554 -21.6055Z" fill="black"/>
<path d="M65.5663 -11V-39.4375H75.1171C76.6666 -39.4375 78.0729 -39.2812 79.3359 -38.9688C80.6119 -38.6562 81.6992 -38.181 82.5976 -37.543C83.496 -36.9049 84.1861 -36.0977 84.6679 -35.1211C85.1627 -34.1445 85.4101 -32.9922 85.4101 -31.6641C85.3971 -30.8047 85.2408 -29.9909 84.9413 -29.2227C84.6549 -28.4674 84.2252 -27.8034 83.6523 -27.2305C83.3398 -26.918 82.9817 -26.6315 82.5781 -26.3711C82.1874 -26.1107 81.7512 -25.8893 81.2695 -25.707V-25.6875C82.207 -25.4271 82.9492 -25.0951 83.496 -24.6914C84.0559 -24.2878 84.5247 -23.819 84.9023 -23.2852C85.2929 -22.7122 85.5794 -22.0872 85.7617 -21.4102C85.957 -20.7461 86.0546 -20.056 86.0546 -19.3398C86.0546 -17.9727 85.8203 -16.7682 85.3515 -15.7266C84.8828 -14.6849 84.2122 -13.8125 83.3398 -13.1094C82.4674 -12.4062 81.4062 -11.8789 80.1562 -11.5273C78.9062 -11.1758 77.4999 -11 75.9374 -11H65.5663ZM71.0742 -23.5391V-15.4336H75.957C76.6731 -15.4336 77.3111 -15.5247 77.871 -15.707C78.4439 -15.8893 78.9192 -16.1367 79.2968 -16.4492C79.7135 -16.8008 80.026 -17.224 80.2343 -17.7188C80.4557 -18.2135 80.5663 -18.7669 80.5663 -19.3789C80.5663 -20.0169 80.4817 -20.5898 80.3124 -21.0977C80.1562 -21.6055 79.9023 -22.0352 79.5507 -22.3867C79.1992 -22.7513 78.7434 -23.0312 78.1835 -23.2266C77.6236 -23.4219 76.9596 -23.526 76.1913 -23.5391H71.0742ZM71.0742 -27.5039H75.1562C75.9895 -27.5169 76.7252 -27.6146 77.3632 -27.7969C78.0012 -27.9922 78.5156 -28.2786 78.9062 -28.6562C79.2317 -28.9557 79.4791 -29.3203 79.6484 -29.75C79.8307 -30.1797 79.9218 -30.668 79.9218 -31.2148C79.9218 -31.7878 79.8437 -32.2891 79.6874 -32.7188C79.5442 -33.1484 79.3229 -33.5065 79.0234 -33.793C78.6328 -34.1966 78.1054 -34.4896 77.4413 -34.6719C76.7903 -34.8542 76.0221 -34.9518 75.1367 -34.9648H71.0742V-27.5039Z" fill="black"/>
<path d="M133.496 -23.1289C133.496 -21.9049 133.385 -20.7396 133.164 -19.6328C132.943 -18.5391 132.624 -17.5234 132.207 -16.5859C131.764 -15.6484 131.217 -14.7891 130.566 -14.0078C129.915 -13.2266 129.173 -12.5755 128.34 -12.0547C127.585 -11.599 126.751 -11.2474 125.84 -11C124.941 -10.7396 123.971 -10.6094 122.93 -10.6094C121.823 -10.6094 120.801 -10.7526 119.863 -11.0391C118.926 -11.3255 118.073 -11.7292 117.305 -12.25C116.549 -12.7969 115.872 -13.4544 115.273 -14.2227C114.674 -15.0039 114.173 -15.8828 113.769 -16.8594C113.405 -17.7578 113.125 -18.7344 112.93 -19.7891C112.747 -20.8438 112.656 -21.957 112.656 -23.1289V-27.2695C112.656 -28.5195 112.76 -29.7044 112.969 -30.8242C113.19 -31.944 113.509 -32.9792 113.926 -33.9297C114.329 -34.8281 114.818 -35.6419 115.391 -36.3711C115.977 -37.1003 116.647 -37.7253 117.402 -38.2461C118.144 -38.7539 118.978 -39.1445 119.902 -39.418C120.827 -39.6914 121.829 -39.8281 122.91 -39.8281C124.004 -39.8281 125.026 -39.6849 125.977 -39.3984C126.94 -39.125 127.806 -38.7279 128.574 -38.207C129.342 -37.7122 130.013 -37.1133 130.586 -36.4102C131.172 -35.707 131.673 -34.9323 132.09 -34.0859C132.546 -33.1224 132.891 -32.0677 133.125 -30.9219C133.372 -29.776 133.496 -28.5586 133.496 -27.2695V-23.1289ZM127.93 -27.3086C127.93 -28.0378 127.891 -28.7279 127.812 -29.3789C127.747 -30.043 127.637 -30.6549 127.48 -31.2148C127.285 -31.918 127.025 -32.543 126.699 -33.0898C126.374 -33.6497 125.99 -34.1055 125.547 -34.457C125.195 -34.7174 124.798 -34.9193 124.355 -35.0625C123.926 -35.2057 123.444 -35.2773 122.91 -35.2773C122.402 -35.2773 121.94 -35.2122 121.523 -35.082C121.12 -34.9518 120.755 -34.763 120.43 -34.5156C119.987 -34.151 119.609 -33.6953 119.297 -33.1484C118.997 -32.6016 118.763 -31.9635 118.594 -31.2344C118.463 -30.6745 118.366 -30.0625 118.301 -29.3984C118.249 -28.7344 118.223 -28.0378 118.223 -27.3086V-23.1289C118.223 -22.4388 118.249 -21.7747 118.301 -21.1367C118.353 -20.4987 118.444 -19.9062 118.574 -19.3594C118.717 -18.6693 118.926 -18.0378 119.199 -17.4648C119.486 -16.9049 119.818 -16.4492 120.195 -16.0977C120.547 -15.7852 120.944 -15.5443 121.387 -15.375C121.842 -15.2057 122.357 -15.1211 122.93 -15.1211C123.477 -15.1211 123.978 -15.1992 124.434 -15.3555C124.889 -15.5117 125.293 -15.7396 125.644 -16.0391C126.087 -16.4036 126.458 -16.8594 126.758 -17.4062C127.07 -17.9661 127.318 -18.5977 127.5 -19.3008C127.643 -19.8477 127.747 -20.4466 127.812 -21.0977C127.891 -21.7487 127.93 -22.4258 127.93 -23.1289V-27.3086Z" fill="black"/>
<path d="M36.5038 13.5625L36.5234 32.4102C36.5234 33.9987 36.302 35.4115 35.8593 36.6484C35.4296 37.8854 34.8046 38.9271 33.9843 39.7734C33.151 40.6328 32.1354 41.2839 30.9374 41.7266C29.7525 42.1693 28.3984 42.3906 26.8749 42.3906C25.4427 42.3906 24.1471 42.1693 22.9882 41.7266C21.8424 41.2839 20.8593 40.6393 20.039 39.793C19.2187 38.9466 18.5807 37.9049 18.1249 36.668C17.6822 35.418 17.4609 33.9987 17.4609 32.4102L17.4804 13.5625H22.9687L22.9882 32.4102C23.0012 33.3607 23.0924 34.194 23.2617 34.9102C23.444 35.6263 23.7109 36.2188 24.0624 36.6875C24.388 37.1172 24.7851 37.4427 25.2538 37.6641C25.7226 37.8724 26.263 37.9766 26.8749 37.9766C27.539 37.9766 28.1249 37.8659 28.6328 37.6445C29.1536 37.4102 29.5833 37.0651 29.9218 36.6094C30.2864 36.1406 30.5598 35.5547 30.7421 34.8516C30.9244 34.1484 31.0221 33.3346 31.0351 32.4102L31.0546 13.5625H36.5038Z" fill="black"/>
<path d="M86.5038 18.0352H77.7343V42H72.2265V18.0352H63.5742V13.5625H86.5038V18.0352Z" fill="black"/>
</g>
<defs>
<clipPath id="clip0_121_113">
<rect width="25" height="29" fill="white"/>
</clipPath>
</defs>
</svg>
