<svg width="25" height="29" viewBox="0 0 25 29" fill="none" xmlns="http://www.w3.org/2000/svg">
<g clip-path="url(#clip0_121_79)">
<rect width="25" height="29" fill="white"/>
<path d="M-25 0H125V174H-25V0Z" fill="#E3E3E3"/>
<path fill-rule="evenodd" clip-rule="evenodd" d="M124 1H-24V173H124V1ZM-25 0V174H125V0H-25Z" fill="black"/>
<path d="M6.54291 70.0625H-1.99224L-3.67193 76H-9.45318L-0.136776 47.5625H4.84369L13.9843 76H8.20307L6.54291 70.0625ZM-0.644588 65.3945H5.25385L2.34369 54.9258L-0.644588 65.3945Z" fill="black"/>
<path d="M40.5663 76V47.5625H50.1171C51.6666 47.5625 53.0729 47.7188 54.3359 48.0312C55.6119 48.3438 56.6992 48.819 57.5976 49.457C58.496 50.0951 59.1861 50.9023 59.6679 51.8789C60.1627 52.8555 60.4101 54.0078 60.4101 55.3359C60.3971 56.1953 60.2408 57.0091 59.9413 57.7773C59.6549 58.5326 59.2252 59.1966 58.6523 59.7695C58.3398 60.082 57.9817 60.3685 57.5781 60.6289C57.1874 60.8893 56.7512 61.1107 56.2695 61.293V61.3125C57.207 61.5729 57.9492 61.9049 58.496 62.3086C59.0559 62.7122 59.5247 63.181 59.9023 63.7148C60.2929 64.2878 60.5794 64.9128 60.7617 65.5898C60.957 66.2539 61.0546 66.944 61.0546 67.6602C61.0546 69.0273 60.8203 70.2318 60.3515 71.2734C59.8828 72.3151 59.2122 73.1875 58.3398 73.8906C57.4674 74.5938 56.4062 75.1211 55.1562 75.4727C53.9062 75.8242 52.4999 76 50.9374 76H40.5663ZM46.0742 63.4609V71.5664H50.957C51.6731 71.5664 52.3111 71.4753 52.871 71.293C53.4439 71.1107 53.9192 70.8633 54.2968 70.5508C54.7135 70.1992 55.026 69.776 55.2343 69.2812C55.4557 68.7865 55.5663 68.2331 55.5663 67.6211C55.5663 66.9831 55.4817 66.4102 55.3124 65.9023C55.1562 65.3945 54.9023 64.9648 54.5507 64.6133C54.1992 64.2487 53.7434 63.9688 53.1835 63.7734C52.6236 63.5781 51.9596 63.474 51.1913 63.4609H46.0742ZM46.0742 59.4961H50.1562C50.9895 59.4831 51.7252 59.3854 52.3632 59.2031C53.0012 59.0078 53.5156 58.7214 53.9062 58.3438C54.2317 58.0443 54.4791 57.6797 54.6484 57.25C54.8307 56.8203 54.9218 56.332 54.9218 55.7852C54.9218 55.2122 54.8437 54.7109 54.6874 54.2812C54.5442 53.8516 54.3229 53.4935 54.0234 53.207C53.6328 52.8034 53.1054 52.5104 52.4413 52.3281C51.7903 52.1458 51.0221 52.0482 50.1367 52.0352H46.0742V59.4961Z" fill="black"/>
<path d="M108.496 63.8711C108.496 65.0951 108.385 66.2604 108.164 67.3672C107.943 68.4609 107.624 69.4766 107.207 70.4141C106.764 71.3516 106.217 72.2109 105.566 72.9922C104.915 73.7734 104.173 74.4245 103.34 74.9453C102.585 75.401 101.751 75.7526 100.84 76C99.9413 76.2604 98.9713 76.3906 97.9296 76.3906C96.8229 76.3906 95.8007 76.2474 94.8632 75.9609C93.9257 75.6745 93.0729 75.2708 92.3046 74.75C91.5494 74.2031 90.8723 73.5456 90.2734 72.7773C89.6744 71.9961 89.1731 71.1172 88.7695 70.1406C88.4049 69.2422 88.1249 68.2656 87.9296 67.2109C87.7473 66.1562 87.6562 65.043 87.6562 63.8711V59.7305C87.6562 58.4805 87.7604 57.2956 87.9687 56.1758C88.19 55.056 88.5091 54.0208 88.9257 53.0703C89.3294 52.1719 89.8176 51.3581 90.3906 50.6289C90.9765 49.8997 91.6471 49.2747 92.4023 48.7539C93.1445 48.2461 93.9778 47.8555 94.9023 47.582C95.8268 47.3086 96.8294 47.1719 97.9101 47.1719C99.0038 47.1719 100.026 47.3151 100.977 47.6016C101.94 47.875 102.806 48.2721 103.574 48.793C104.342 49.2878 105.013 49.8867 105.586 50.5898C106.172 51.293 106.673 52.0677 107.09 52.9141C107.546 53.8776 107.891 54.9323 108.125 56.0781C108.372 57.224 108.496 58.4414 108.496 59.7305V63.8711ZM102.93 59.6914C102.93 58.9622 102.891 58.2721 102.812 57.6211C102.747 56.957 102.637 56.3451 102.48 55.7852C102.285 55.082 102.025 54.457 101.699 53.9102C101.374 53.3503 100.99 52.8945 100.547 52.543C100.195 52.2826 99.7981 52.0807 99.3554 51.9375C98.9257 51.7943 98.4439 51.7227 97.9101 51.7227C97.4023 51.7227 96.94 51.7878 96.5234 51.918C96.1197 52.0482 95.7551 52.237 95.4296 52.4844C94.9869 52.849 94.6093 53.3047 94.2968 53.8516C93.9973 54.3984 93.763 55.0365 93.5937 55.7656C93.4635 56.3255 93.3658 56.9375 93.3007 57.6016C93.2486 58.2656 93.2226 58.9622 93.2226 59.6914V63.8711C93.2226 64.5612 93.2486 65.2253 93.3007 65.8633C93.3528 66.5013 93.4439 67.0938 93.5742 67.6406C93.7174 68.3307 93.9257 68.9622 94.1992 69.5352C94.4856 70.0951 94.8176 70.5508 95.1953 70.9023C95.5468 71.2148 95.9439 71.4557 96.3867 71.625C96.8424 71.7943 97.3567 71.8789 97.9296 71.8789C98.4765 71.8789 98.9778 71.8008 99.4335 71.6445C99.8893 71.4883 100.293 71.2604 100.644 70.9609C101.087 70.5964 101.458 70.1406 101.758 69.5938C102.07 69.0339 102.318 68.4023 102.5 67.6992C102.643 67.1523 102.747 66.5534 102.812 65.9023C102.891 65.2513 102.93 64.5742 102.93 63.8711V59.6914Z" fill="black"/>
<path d="M11.5038 100.562L11.5234 119.41C11.5234 120.999 11.302 122.411 10.8593 123.648C10.4296 124.885 9.80463 125.927 8.98432 126.773C8.15098 127.633 7.13536 128.284 5.93744 128.727C4.75255 129.169 3.39838 129.391 1.87494 129.391C0.442651 129.391 -0.852922 129.169 -2.01178 128.727C-3.15761 128.284 -4.14068 127.639 -4.96099 126.793C-5.78131 125.947 -6.41933 124.905 -6.87506 123.668C-7.31777 122.418 -7.53912 120.999 -7.53912 119.41L-7.51959 100.562H-2.03131L-2.01178 119.41C-1.99876 120.361 -1.90761 121.194 -1.73834 121.91C-1.55605 122.626 -1.28912 123.219 -0.937557 123.688C-0.612036 124.117 -0.214901 124.443 0.253849 124.664C0.722599 124.872 1.26296 124.977 1.87494 124.977C2.53901 124.977 3.12494 124.866 3.63276 124.645C4.15359 124.41 4.58328 124.065 4.92182 123.609C5.2864 123.141 5.55984 122.555 5.74213 121.852C5.92442 121.148 6.02208 120.335 6.0351 119.41L6.05463 100.562H11.5038Z" fill="black"/>
<path d="M61.5038 105.035H52.7343V129H47.2265V105.035H38.5742V100.562H61.5038V105.035Z" fill="black"/>
</g>
<defs>
<clipPath id="clip0_121_79">
<rect width="25" height="29" fill="white"/>
</clipPath>
</defs>
</svg>
