<svg width="25" height="29" viewBox="0 0 25 29" fill="none" xmlns="http://www.w3.org/2000/svg">
<g clip-path="url(#clip0_121_115)">
<rect width="25" height="29" fill="white"/>
<path d="M-25 -87H125V87H-25V-87Z" fill="#E3E3E3"/>
<path fill-rule="evenodd" clip-rule="evenodd" d="M124 -86H-24V86H124V-86ZM-25 -87V87H125V-87H-25Z" fill="black"/>
<path d="M6.54291 -16.9375H-1.99224L-3.67193 -11H-9.45318L-0.136776 -39.4375H4.84369L13.9843 -11H8.20307L6.54291 -16.9375ZM-0.644588 -21.6055H5.25385L2.34369 -32.0742L-0.644588 -21.6055Z" fill="black"/>
<path d="M40.5663 -11V-39.4375H50.1171C51.6666 -39.4375 53.0729 -39.2812 54.3359 -38.9688C55.6119 -38.6562 56.6992 -38.181 57.5976 -37.543C58.496 -36.9049 59.1861 -36.0977 59.6679 -35.1211C60.1627 -34.1445 60.4101 -32.9922 60.4101 -31.6641C60.3971 -30.8047 60.2408 -29.9909 59.9413 -29.2227C59.6549 -28.4674 59.2252 -27.8034 58.6523 -27.2305C58.3398 -26.918 57.9817 -26.6315 57.5781 -26.3711C57.1874 -26.1107 56.7512 -25.8893 56.2695 -25.707V-25.6875C57.207 -25.4271 57.9492 -25.0951 58.496 -24.6914C59.0559 -24.2878 59.5247 -23.819 59.9023 -23.2852C60.2929 -22.7122 60.5794 -22.0872 60.7617 -21.4102C60.957 -20.7461 61.0546 -20.056 61.0546 -19.3398C61.0546 -17.9727 60.8203 -16.7682 60.3515 -15.7266C59.8828 -14.6849 59.2122 -13.8125 58.3398 -13.1094C57.4674 -12.4062 56.4062 -11.8789 55.1562 -11.5273C53.9062 -11.1758 52.4999 -11 50.9374 -11H40.5663ZM46.0742 -23.5391V-15.4336H50.957C51.6731 -15.4336 52.3111 -15.5247 52.871 -15.707C53.4439 -15.8893 53.9192 -16.1367 54.2968 -16.4492C54.7135 -16.8008 55.026 -17.224 55.2343 -17.7188C55.4557 -18.2135 55.5663 -18.7669 55.5663 -19.3789C55.5663 -20.0169 55.4817 -20.5898 55.3124 -21.0977C55.1562 -21.6055 54.9023 -22.0352 54.5507 -22.3867C54.1992 -22.7513 53.7434 -23.0312 53.1835 -23.2266C52.6236 -23.4219 51.9596 -23.526 51.1913 -23.5391H46.0742ZM46.0742 -27.5039H50.1562C50.9895 -27.5169 51.7252 -27.6146 52.3632 -27.7969C53.0012 -27.9922 53.5156 -28.2786 53.9062 -28.6562C54.2317 -28.9557 54.4791 -29.3203 54.6484 -29.75C54.8307 -30.1797 54.9218 -30.668 54.9218 -31.2148C54.9218 -31.7878 54.8437 -32.2891 54.6874 -32.7188C54.5442 -33.1484 54.3229 -33.5065 54.0234 -33.793C53.6328 -34.1966 53.1054 -34.4896 52.4413 -34.6719C51.7903 -34.8542 51.0221 -34.9518 50.1367 -34.9648H46.0742V-27.5039Z" fill="black"/>
<path d="M108.496 -23.1289C108.496 -21.9049 108.385 -20.7396 108.164 -19.6328C107.943 -18.5391 107.624 -17.5234 107.207 -16.5859C106.764 -15.6484 106.217 -14.7891 105.566 -14.0078C104.915 -13.2266 104.173 -12.5755 103.34 -12.0547C102.585 -11.599 101.751 -11.2474 100.84 -11C99.9413 -10.7396 98.9713 -10.6094 97.9296 -10.6094C96.8229 -10.6094 95.8007 -10.7526 94.8632 -11.0391C93.9257 -11.3255 93.0729 -11.7292 92.3046 -12.25C91.5494 -12.7969 90.8723 -13.4544 90.2734 -14.2227C89.6744 -15.0039 89.1731 -15.8828 88.7695 -16.8594C88.4049 -17.7578 88.1249 -18.7344 87.9296 -19.7891C87.7473 -20.8438 87.6562 -21.957 87.6562 -23.1289V-27.2695C87.6562 -28.5195 87.7604 -29.7044 87.9687 -30.8242C88.19 -31.944 88.5091 -32.9792 88.9257 -33.9297C89.3294 -34.8281 89.8176 -35.6419 90.3906 -36.3711C90.9765 -37.1003 91.6471 -37.7253 92.4023 -38.2461C93.1445 -38.7539 93.9778 -39.1445 94.9023 -39.418C95.8268 -39.6914 96.8294 -39.8281 97.9101 -39.8281C99.0038 -39.8281 100.026 -39.6849 100.977 -39.3984C101.94 -39.125 102.806 -38.7279 103.574 -38.207C104.342 -37.7122 105.013 -37.1133 105.586 -36.4102C106.172 -35.707 106.673 -34.9323 107.09 -34.0859C107.546 -33.1224 107.891 -32.0677 108.125 -30.9219C108.372 -29.776 108.496 -28.5586 108.496 -27.2695V-23.1289ZM102.93 -27.3086C102.93 -28.0378 102.891 -28.7279 102.812 -29.3789C102.747 -30.043 102.637 -30.6549 102.48 -31.2148C102.285 -31.918 102.025 -32.543 101.699 -33.0898C101.374 -33.6497 100.99 -34.1055 100.547 -34.457C100.195 -34.7174 99.7981 -34.9193 99.3554 -35.0625C98.9257 -35.2057 98.4439 -35.2773 97.9101 -35.2773C97.4023 -35.2773 96.94 -35.2122 96.5234 -35.082C96.1197 -34.9518 95.7551 -34.763 95.4296 -34.5156C94.9869 -34.151 94.6093 -33.6953 94.2968 -33.1484C93.9973 -32.6016 93.763 -31.9635 93.5937 -31.2344C93.4635 -30.6745 93.3658 -30.0625 93.3007 -29.3984C93.2486 -28.7344 93.2226 -28.0378 93.2226 -27.3086V-23.1289C93.2226 -22.4388 93.2486 -21.7747 93.3007 -21.1367C93.3528 -20.4987 93.4439 -19.9062 93.5742 -19.3594C93.7174 -18.6693 93.9257 -18.0378 94.1992 -17.4648C94.4856 -16.9049 94.8176 -16.4492 95.1953 -16.0977C95.5468 -15.7852 95.9439 -15.5443 96.3867 -15.375C96.8424 -15.2057 97.3567 -15.1211 97.9296 -15.1211C98.4765 -15.1211 98.9778 -15.1992 99.4335 -15.3555C99.8893 -15.5117 100.293 -15.7396 100.644 -16.0391C101.087 -16.4036 101.458 -16.8594 101.758 -17.4062C102.07 -17.9661 102.318 -18.5977 102.5 -19.3008C102.643 -19.8477 102.747 -20.4466 102.812 -21.0977C102.891 -21.7487 102.93 -22.4258 102.93 -23.1289V-27.3086Z" fill="black"/>
<path d="M11.5038 13.5625L11.5234 32.4102C11.5234 33.9987 11.302 35.4115 10.8593 36.6484C10.4296 37.8854 9.80463 38.9271 8.98432 39.7734C8.15098 40.6328 7.13536 41.2839 5.93744 41.7266C4.75255 42.1693 3.39838 42.3906 1.87494 42.3906C0.442651 42.3906 -0.852922 42.1693 -2.01178 41.7266C-3.15761 41.2839 -4.14068 40.6393 -4.96099 39.793C-5.78131 38.9466 -6.41933 37.9049 -6.87506 36.668C-7.31777 35.418 -7.53912 33.9987 -7.53912 32.4102L-7.51959 13.5625H-2.03131L-2.01178 32.4102C-1.99876 33.3607 -1.90761 34.194 -1.73834 34.9102C-1.55605 35.6263 -1.28912 36.2188 -0.937557 36.6875C-0.612036 37.1172 -0.214901 37.4427 0.253849 37.6641C0.722599 37.8724 1.26296 37.9766 1.87494 37.9766C2.53901 37.9766 3.12494 37.8659 3.63276 37.6445C4.15359 37.4102 4.58328 37.0651 4.92182 36.6094C5.2864 36.1406 5.55984 35.5547 5.74213 34.8516C5.92442 34.1484 6.02208 33.3346 6.0351 32.4102L6.05463 13.5625H11.5038Z" fill="black"/>
<path d="M61.5038 18.0352H52.7343V42H47.2265V18.0352H38.5742V13.5625H61.5038V18.0352Z" fill="black"/>
</g>
<defs>
<clipPath id="clip0_121_115">
<rect width="25" height="29" fill="white"/>
</clipPath>
</defs>
</svg>
