<svg width="25" height="29" viewBox="0 0 25 29" fill="none" xmlns="http://www.w3.org/2000/svg">
<g clip-path="url(#clip0_121_117)">
<rect width="25" height="29" fill="white"/>
<path d="M-50 -87H100V87H-50V-87Z" fill="#E3E3E3"/>
<path fill-rule="evenodd" clip-rule="evenodd" d="M99 -86H-49V86H99V-86ZM-50 -87V87H100V-87H-50Z" fill="black"/>
<path d="M-18.4571 -16.9375H-26.9922L-28.6719 -11H-34.4532L-25.1368 -39.4375H-20.1563L-11.0157 -11H-16.7969L-18.4571 -16.9375ZM-25.6446 -21.6055H-19.7462L-22.6563 -32.0742L-25.6446 -21.6055Z" fill="black"/>
<path d="M15.5663 -11V-39.4375H25.1171C26.6666 -39.4375 28.0729 -39.2812 29.3359 -38.9688C30.6119 -38.6562 31.6992 -38.181 32.5976 -37.543C33.496 -36.9049 34.1861 -36.0977 34.6679 -35.1211C35.1627 -34.1445 35.4101 -32.9922 35.4101 -31.6641C35.3971 -30.8047 35.2408 -29.9909 34.9413 -29.2227C34.6549 -28.4674 34.2252 -27.8034 33.6523 -27.2305C33.3398 -26.918 32.9817 -26.6315 32.5781 -26.3711C32.1874 -26.1107 31.7512 -25.8893 31.2695 -25.707V-25.6875C32.207 -25.4271 32.9492 -25.0951 33.496 -24.6914C34.0559 -24.2878 34.5247 -23.819 34.9023 -23.2852C35.2929 -22.7122 35.5794 -22.0872 35.7617 -21.4102C35.957 -20.7461 36.0546 -20.056 36.0546 -19.3398C36.0546 -17.9727 35.8203 -16.7682 35.3515 -15.7266C34.8828 -14.6849 34.2122 -13.8125 33.3398 -13.1094C32.4674 -12.4062 31.4062 -11.8789 30.1562 -11.5273C28.9062 -11.1758 27.4999 -11 25.9374 -11H15.5663ZM21.0742 -23.5391V-15.4336H25.957C26.6731 -15.4336 27.3111 -15.5247 27.871 -15.707C28.4439 -15.8893 28.9192 -16.1367 29.2968 -16.4492C29.7135 -16.8008 30.026 -17.224 30.2343 -17.7188C30.4557 -18.2135 30.5663 -18.7669 30.5663 -19.3789C30.5663 -20.0169 30.4817 -20.5898 30.3124 -21.0977C30.1562 -21.6055 29.9023 -22.0352 29.5507 -22.3867C29.1992 -22.7513 28.7434 -23.0312 28.1835 -23.2266C27.6236 -23.4219 26.9596 -23.526 26.1913 -23.5391H21.0742ZM21.0742 -27.5039H25.1562C25.9895 -27.5169 26.7252 -27.6146 27.3632 -27.7969C28.0012 -27.9922 28.5156 -28.2786 28.9062 -28.6562C29.2317 -28.9557 29.4791 -29.3203 29.6484 -29.75C29.8307 -30.1797 29.9218 -30.668 29.9218 -31.2148C29.9218 -31.7878 29.8437 -32.2891 29.6874 -32.7188C29.5442 -33.1484 29.3229 -33.5065 29.0234 -33.793C28.6328 -34.1966 28.1054 -34.4896 27.4413 -34.6719C26.7903 -34.8542 26.0221 -34.9518 25.1367 -34.9648H21.0742V-27.5039Z" fill="black"/>
<path d="M83.496 -23.1289C83.496 -21.9049 83.3854 -20.7396 83.164 -19.6328C82.9426 -18.5391 82.6236 -17.5234 82.207 -16.5859C81.7643 -15.6484 81.2174 -14.7891 80.5663 -14.0078C79.9153 -13.2266 79.1731 -12.5755 78.3398 -12.0547C77.5846 -11.599 76.7512 -11.2474 75.8398 -11C74.9413 -10.7396 73.9713 -10.6094 72.9296 -10.6094C71.8229 -10.6094 70.8007 -10.7526 69.8632 -11.0391C68.9257 -11.3255 68.0729 -11.7292 67.3046 -12.25C66.5494 -12.7969 65.8723 -13.4544 65.2734 -14.2227C64.6744 -15.0039 64.1731 -15.8828 63.7695 -16.8594C63.4049 -17.7578 63.1249 -18.7344 62.9296 -19.7891C62.7473 -20.8438 62.6562 -21.957 62.6562 -23.1289V-27.2695C62.6562 -28.5195 62.7604 -29.7044 62.9687 -30.8242C63.19 -31.944 63.5091 -32.9792 63.9257 -33.9297C64.3294 -34.8281 64.8176 -35.6419 65.3906 -36.3711C65.9765 -37.1003 66.6471 -37.7253 67.4023 -38.2461C68.1445 -38.7539 68.9778 -39.1445 69.9023 -39.418C70.8268 -39.6914 71.8294 -39.8281 72.9101 -39.8281C74.0038 -39.8281 75.026 -39.6849 75.9765 -39.3984C76.94 -39.125 77.8059 -38.7279 78.5742 -38.207C79.3424 -37.7122 80.013 -37.1133 80.5859 -36.4102C81.1718 -35.707 81.6731 -34.9323 82.0898 -34.0859C82.5455 -33.1224 82.8906 -32.0677 83.1249 -30.9219C83.3723 -29.776 83.496 -28.5586 83.496 -27.2695V-23.1289ZM77.9296 -27.3086C77.9296 -28.0378 77.8906 -28.7279 77.8124 -29.3789C77.7473 -30.043 77.6367 -30.6549 77.4804 -31.2148C77.2851 -31.918 77.0247 -32.543 76.6992 -33.0898C76.3736 -33.6497 75.9895 -34.1055 75.5468 -34.457C75.1953 -34.7174 74.7981 -34.9193 74.3554 -35.0625C73.9257 -35.2057 73.4439 -35.2773 72.9101 -35.2773C72.4023 -35.2773 71.94 -35.2122 71.5234 -35.082C71.1197 -34.9518 70.7551 -34.763 70.4296 -34.5156C69.9869 -34.151 69.6093 -33.6953 69.2968 -33.1484C68.9973 -32.6016 68.763 -31.9635 68.5937 -31.2344C68.4635 -30.6745 68.3658 -30.0625 68.3007 -29.3984C68.2486 -28.7344 68.2226 -28.0378 68.2226 -27.3086V-23.1289C68.2226 -22.4388 68.2486 -21.7747 68.3007 -21.1367C68.3528 -20.4987 68.4439 -19.9062 68.5742 -19.3594C68.7174 -18.6693 68.9257 -18.0378 69.1992 -17.4648C69.4856 -16.9049 69.8176 -16.4492 70.1953 -16.0977C70.5468 -15.7852 70.9439 -15.5443 71.3867 -15.375C71.8424 -15.2057 72.3567 -15.1211 72.9296 -15.1211C73.4765 -15.1211 73.9778 -15.1992 74.4335 -15.3555C74.8893 -15.5117 75.2929 -15.7396 75.6445 -16.0391C76.0872 -16.4036 76.4583 -16.8594 76.7578 -17.4062C77.0703 -17.9661 77.3176 -18.5977 77.4999 -19.3008C77.6432 -19.8477 77.7473 -20.4466 77.8124 -21.0977C77.8906 -21.7487 77.9296 -22.4258 77.9296 -23.1289V-27.3086Z" fill="black"/>
<path d="M-13.4962 13.5625L-13.4766 32.4102C-13.4766 33.9987 -13.698 35.4115 -14.1407 36.6484C-14.5704 37.8854 -15.1954 38.9271 -16.0157 39.7734C-16.849 40.6328 -17.8646 41.2839 -19.0626 41.7266C-20.2475 42.1693 -21.6016 42.3906 -23.1251 42.3906C-24.5573 42.3906 -25.8529 42.1693 -27.0118 41.7266C-28.1576 41.2839 -29.1407 40.6393 -29.961 39.793C-30.7813 38.9466 -31.4193 37.9049 -31.8751 36.668C-32.3178 35.418 -32.5391 33.9987 -32.5391 32.4102L-32.5196 13.5625H-27.0313L-27.0118 32.4102C-26.9988 33.3607 -26.9076 34.194 -26.7383 34.9102C-26.556 35.6263 -26.2891 36.2188 -25.9376 36.6875C-25.612 37.1172 -25.2149 37.4427 -24.7462 37.6641C-24.2774 37.8724 -23.737 37.9766 -23.1251 37.9766C-22.461 37.9766 -21.8751 37.8659 -21.3672 37.6445C-20.8464 37.4102 -20.4167 37.0651 -20.0782 36.6094C-19.7136 36.1406 -19.4402 35.5547 -19.2579 34.8516C-19.0756 34.1484 -18.9779 33.3346 -18.9649 32.4102L-18.9454 13.5625H-13.4962Z" fill="black"/>
<path d="M36.5038 18.0352H27.7343V42H22.2265V18.0352H13.5742V13.5625H36.5038V18.0352Z" fill="black"/>
</g>
<defs>
<clipPath id="clip0_121_117">
<rect width="25" height="29" fill="white"/>
</clipPath>
</defs>
</svg>
