<svg width="25" height="29" viewBox="0 0 25 29" fill="none" xmlns="http://www.w3.org/2000/svg">
<g clip-path="url(#clip0_121_119)">
<rect width="25" height="29" fill="white"/>
<path d="M-75 -87H75V87H-75V-87Z" fill="var(--background)"/>
<path fill-rule="evenodd" clip-rule="evenodd" d="M74 -86H-74V86H74V-86ZM-75 -87V87H75V-87H-75Z" fill="black"/>
<path d="M-43.4571 -16.9375H-51.9923L-53.6719 -11H-59.4532L-50.1368 -39.4375H-45.1563L-36.0157 -11H-41.7969L-43.4571 -16.9375ZM-50.6446 -21.6055H-44.7462L-47.6563 -32.0742L-50.6446 -21.6055Z" fill="black"/>
<path d="M-9.43367 -11V-39.4375H0.117111C1.66659 -39.4375 3.07284 -39.2812 4.33586 -38.9688C5.6119 -38.6562 6.69914 -38.181 7.59758 -37.543C8.49602 -36.9049 9.18612 -36.0977 9.66789 -35.1211C10.1627 -34.1445 10.4101 -32.9922 10.4101 -31.6641C10.3971 -30.8047 10.2408 -29.9909 9.94133 -29.2227C9.65487 -28.4674 9.22518 -27.8034 8.65227 -27.2305C8.33977 -26.918 7.98169 -26.6315 7.57805 -26.3711C7.18742 -26.1107 6.75123 -25.8893 6.26945 -25.707V-25.6875C7.20695 -25.4271 7.94914 -25.0951 8.49602 -24.6914C9.05591 -24.2878 9.52466 -23.819 9.90227 -23.2852C10.2929 -22.7122 10.5794 -22.0872 10.7616 -21.4102C10.957 -20.7461 11.0546 -20.056 11.0546 -19.3398C11.0546 -17.9727 10.8202 -16.7682 10.3515 -15.7266C9.88274 -14.6849 9.21216 -13.8125 8.33977 -13.1094C7.46737 -12.4062 6.40617 -11.8789 5.15617 -11.5273C3.90617 -11.1758 2.49992 -11 0.937424 -11H-9.43367ZM-3.92586 -23.5391V-15.4336H0.956955C1.6731 -15.4336 2.31112 -15.5247 2.87102 -15.707C3.44393 -15.8893 3.91919 -16.1367 4.2968 -16.4492C4.71347 -16.8008 5.02597 -17.224 5.2343 -17.7188C5.45565 -18.2135 5.56633 -18.7669 5.56633 -19.3789C5.56633 -20.0169 5.48169 -20.5898 5.31242 -21.0977C5.15617 -21.6055 4.90227 -22.0352 4.5507 -22.3867C4.19914 -22.7513 3.74341 -23.0312 3.18352 -23.2266C2.62362 -23.4219 1.95956 -23.526 1.19133 -23.5391H-3.92586ZM-3.92586 -27.5039H0.156174C0.989507 -27.5169 1.72518 -27.6146 2.3632 -27.7969C3.00123 -27.9922 3.51555 -28.2786 3.90617 -28.6562C4.23169 -28.9557 4.47909 -29.3203 4.64836 -29.75C4.83065 -30.1797 4.9218 -30.668 4.9218 -31.2148C4.9218 -31.7878 4.84367 -32.2891 4.68742 -32.7188C4.54419 -33.1484 4.32284 -33.5065 4.02336 -33.793C3.63274 -34.1966 3.10539 -34.4896 2.44133 -34.6719C1.79029 -34.8542 1.02206 -34.9518 0.136642 -34.9648H-3.92586V-27.5039Z" fill="black"/>
<path d="M58.496 -23.1289C58.496 -21.9049 58.3853 -20.7396 58.164 -19.6328C57.9426 -18.5391 57.6236 -17.5234 57.207 -16.5859C56.7642 -15.6484 56.2174 -14.7891 55.5663 -14.0078C54.9153 -13.2266 54.1731 -12.5755 53.3398 -12.0547C52.5846 -11.599 51.7512 -11.2474 50.8398 -11C49.9413 -10.7396 48.9713 -10.6094 47.9296 -10.6094C46.8228 -10.6094 45.8007 -10.7526 44.8632 -11.0391C43.9257 -11.3255 43.0728 -11.7292 42.3046 -12.25C41.5494 -12.7969 40.8723 -13.4544 40.2734 -14.2227C39.6744 -15.0039 39.1731 -15.8828 38.7695 -16.8594C38.4049 -17.7578 38.1249 -18.7344 37.9296 -19.7891C37.7473 -20.8438 37.6562 -21.957 37.6562 -23.1289V-27.2695C37.6562 -28.5195 37.7603 -29.7044 37.9687 -30.8242C38.19 -31.944 38.509 -32.9792 38.9257 -33.9297C39.3294 -34.8281 39.8176 -35.6419 40.3905 -36.3711C40.9765 -37.1003 41.6471 -37.7253 42.4023 -38.2461C43.1445 -38.7539 43.9778 -39.1445 44.9023 -39.418C45.8267 -39.6914 46.8294 -39.8281 47.9101 -39.8281C49.0038 -39.8281 50.026 -39.6849 50.9765 -39.3984C51.94 -39.125 52.8059 -38.7279 53.5741 -38.207C54.3424 -37.7122 55.0129 -37.1133 55.5859 -36.4102C56.1718 -35.707 56.6731 -34.9323 57.0898 -34.0859C57.5455 -33.1224 57.8905 -32.0677 58.1249 -30.9219C58.3723 -29.776 58.496 -28.5586 58.496 -27.2695V-23.1289ZM52.9296 -27.3086C52.9296 -28.0378 52.8905 -28.7279 52.8124 -29.3789C52.7473 -30.043 52.6366 -30.6549 52.4804 -31.2148C52.2851 -31.918 52.0247 -32.543 51.6991 -33.0898C51.3736 -33.6497 50.9895 -34.1055 50.5468 -34.457C50.1952 -34.7174 49.7981 -34.9193 49.3554 -35.0625C48.9257 -35.2057 48.4439 -35.2773 47.9101 -35.2773C47.4023 -35.2773 46.94 -35.2122 46.5234 -35.082C46.1197 -34.9518 45.7551 -34.763 45.4296 -34.5156C44.9869 -34.151 44.6093 -33.6953 44.2968 -33.1484C43.9973 -32.6016 43.7629 -31.9635 43.5937 -31.2344C43.4635 -30.6745 43.3658 -30.0625 43.3007 -29.3984C43.2486 -28.7344 43.2226 -28.0378 43.2226 -27.3086V-23.1289C43.2226 -22.4388 43.2486 -21.7747 43.3007 -21.1367C43.3528 -20.4987 43.4439 -19.9062 43.5741 -19.3594C43.7174 -18.6693 43.9257 -18.0378 44.1991 -17.4648C44.4856 -16.9049 44.8176 -16.4492 45.1952 -16.0977C45.5468 -15.7852 45.9439 -15.5443 46.3866 -15.375C46.8424 -15.2057 47.3567 -15.1211 47.9296 -15.1211C48.4765 -15.1211 48.9778 -15.1992 49.4335 -15.3555C49.8892 -15.5117 50.2929 -15.7396 50.6445 -16.0391C51.0872 -16.4036 51.4583 -16.8594 51.7577 -17.4062C52.0702 -17.9661 52.3176 -18.5977 52.4999 -19.3008C52.6432 -19.8477 52.7473 -20.4466 52.8124 -21.0977C52.8905 -21.7487 52.9296 -22.4258 52.9296 -23.1289V-27.3086Z" fill="black"/>
<path d="M-38.4962 13.5625L-38.4766 32.4102C-38.4766 33.9987 -38.698 35.4115 -39.1407 36.6484C-39.5704 37.8854 -40.1954 38.9271 -41.0157 39.7734C-41.849 40.6328 -42.8647 41.2839 -44.0626 41.7266C-45.2475 42.1693 -46.6016 42.3906 -48.1251 42.3906C-49.5574 42.3906 -50.8529 42.1693 -52.0118 41.7266C-53.1576 41.2839 -54.1407 40.6393 -54.961 39.793C-55.7813 38.9466 -56.4193 37.9049 -56.8751 36.668C-57.3178 35.418 -57.5391 33.9987 -57.5391 32.4102L-57.5196 13.5625H-52.0313L-52.0118 32.4102C-51.9988 33.3607 -51.9076 34.194 -51.7384 34.9102C-51.5561 35.6263 -51.2891 36.2188 -50.9376 36.6875C-50.6121 37.1172 -50.2149 37.4427 -49.7462 37.6641C-49.2774 37.8724 -48.7371 37.9766 -48.1251 37.9766C-47.461 37.9766 -46.8751 37.8659 -46.3673 37.6445C-45.8464 37.4102 -45.4167 37.0651 -45.0782 36.6094C-44.7136 36.1406 -44.4402 35.5547 -44.2579 34.8516C-44.0756 34.1484 -43.9779 33.3346 -43.9649 32.4102L-43.9454 13.5625H-38.4962Z" fill="black"/>
<path d="M11.5038 18.0352H2.7343V42H-2.77351V18.0352H-11.4259V13.5625H11.5038V18.0352Z" fill="black"/>
</g>
<defs>
<clipPath id="clip0_121_119">
<rect width="25" height="29" fill="white"/>
</clipPath>
</defs>
</svg>
