<svg width="25" height="29" viewBox="0 0 25 29" fill="none" xmlns="http://www.w3.org/2000/svg">
<g clip-path="url(#clip0_121_121)">
<rect width="25" height="29" fill="white"/>
<path d="M-100 -87H50V87H-100V-87Z" fill="var(--background)"/>
<path fill-rule="evenodd" clip-rule="evenodd" d="M49 -86H-99V86H49V-86ZM-100 -87V87H50V-87H-100Z" fill="black"/>
<path d="M-68.4571 -16.9375H-76.9922L-78.6719 -11H-84.4532L-75.1368 -39.4375H-70.1563L-61.0157 -11H-66.7969L-68.4571 -16.9375ZM-75.6446 -21.6055H-69.7462L-72.6563 -32.0742L-75.6446 -21.6055Z" fill="black"/>
<path d="M-34.4337 -11V-39.4375H-24.8829C-23.3334 -39.4375 -21.9271 -39.2812 -20.6641 -38.9688C-19.3881 -38.6562 -18.3008 -38.181 -17.4024 -37.543C-16.504 -36.9049 -15.8139 -36.0977 -15.3321 -35.1211C-14.8373 -34.1445 -14.5899 -32.9922 -14.5899 -31.6641C-14.6029 -30.8047 -14.7592 -29.9909 -15.0587 -29.2227C-15.3451 -28.4674 -15.7748 -27.8034 -16.3477 -27.2305C-16.6602 -26.918 -17.0183 -26.6315 -17.4219 -26.3711C-17.8126 -26.1107 -18.2488 -25.8893 -18.7305 -25.707V-25.6875C-17.793 -25.4271 -17.0508 -25.0951 -16.504 -24.6914C-15.9441 -24.2878 -15.4753 -23.819 -15.0977 -23.2852C-14.7071 -22.7122 -14.4206 -22.0872 -14.2383 -21.4102C-14.043 -20.7461 -13.9454 -20.056 -13.9454 -19.3398C-13.9454 -17.9727 -14.1797 -16.7682 -14.6485 -15.7266C-15.1172 -14.6849 -15.7878 -13.8125 -16.6602 -13.1094C-17.5326 -12.4062 -18.5938 -11.8789 -19.8438 -11.5273C-21.0938 -11.1758 -22.5001 -11 -24.0626 -11H-34.4337ZM-28.9258 -23.5391V-15.4336H-24.043C-23.3269 -15.4336 -22.6889 -15.5247 -22.129 -15.707C-21.5561 -15.8893 -21.0808 -16.1367 -20.7032 -16.4492C-20.2865 -16.8008 -19.974 -17.224 -19.7657 -17.7188C-19.5443 -18.2135 -19.4337 -18.7669 -19.4337 -19.3789C-19.4337 -20.0169 -19.5183 -20.5898 -19.6876 -21.0977C-19.8438 -21.6055 -20.0977 -22.0352 -20.4493 -22.3867C-20.8008 -22.7513 -21.2566 -23.0312 -21.8165 -23.2266C-22.3764 -23.4219 -23.0404 -23.526 -23.8087 -23.5391H-28.9258ZM-28.9258 -27.5039H-24.8438C-24.0105 -27.5169 -23.2748 -27.6146 -22.6368 -27.7969C-21.9988 -27.9922 -21.4844 -28.2786 -21.0938 -28.6562C-20.7683 -28.9557 -20.5209 -29.3203 -20.3516 -29.75C-20.1693 -30.1797 -20.0782 -30.668 -20.0782 -31.2148C-20.0782 -31.7878 -20.1563 -32.2891 -20.3126 -32.7188C-20.4558 -33.1484 -20.6771 -33.5065 -20.9766 -33.793C-21.3672 -34.1966 -21.8946 -34.4896 -22.5587 -34.6719C-23.2097 -34.8542 -23.9779 -34.9518 -24.8633 -34.9648H-28.9258V-27.5039Z" fill="black"/>
<path d="M33.496 -23.1289C33.496 -21.9049 33.3854 -20.7396 33.164 -19.6328C32.9426 -18.5391 32.6236 -17.5234 32.207 -16.5859C31.7643 -15.6484 31.2174 -14.7891 30.5663 -14.0078C29.9153 -13.2266 29.1731 -12.5755 28.3398 -12.0547C27.5846 -11.599 26.7512 -11.2474 25.8398 -11C24.9413 -10.7396 23.9713 -10.6094 22.9296 -10.6094C21.8229 -10.6094 20.8007 -10.7526 19.8632 -11.0391C18.9257 -11.3255 18.0729 -11.7292 17.3046 -12.25C16.5494 -12.7969 15.8723 -13.4544 15.2734 -14.2227C14.6744 -15.0039 14.1731 -15.8828 13.7695 -16.8594C13.4049 -17.7578 13.1249 -18.7344 12.9296 -19.7891C12.7473 -20.8438 12.6562 -21.957 12.6562 -23.1289V-27.2695C12.6562 -28.5195 12.7604 -29.7044 12.9687 -30.8242C13.19 -31.944 13.5091 -32.9792 13.9257 -33.9297C14.3294 -34.8281 14.8176 -35.6419 15.3906 -36.3711C15.9765 -37.1003 16.6471 -37.7253 17.4023 -38.2461C18.1445 -38.7539 18.9778 -39.1445 19.9023 -39.418C20.8268 -39.6914 21.8294 -39.8281 22.9101 -39.8281C24.0038 -39.8281 25.026 -39.6849 25.9765 -39.3984C26.94 -39.125 27.8059 -38.7279 28.5742 -38.207C29.3424 -37.7122 30.013 -37.1133 30.5859 -36.4102C31.1718 -35.707 31.6731 -34.9323 32.0898 -34.0859C32.5455 -33.1224 32.8906 -32.0677 33.1249 -30.9219C33.3723 -29.776 33.496 -28.5586 33.496 -27.2695V-23.1289ZM27.9296 -27.3086C27.9296 -28.0378 27.8906 -28.7279 27.8124 -29.3789C27.7473 -30.043 27.6367 -30.6549 27.4804 -31.2148C27.2851 -31.918 27.0247 -32.543 26.6992 -33.0898C26.3736 -33.6497 25.9895 -34.1055 25.5468 -34.457C25.1953 -34.7174 24.7981 -34.9193 24.3554 -35.0625C23.9257 -35.2057 23.4439 -35.2773 22.9101 -35.2773C22.4023 -35.2773 21.94 -35.2122 21.5234 -35.082C21.1197 -34.9518 20.7551 -34.763 20.4296 -34.5156C19.9869 -34.151 19.6093 -33.6953 19.2968 -33.1484C18.9973 -32.6016 18.763 -31.9635 18.5937 -31.2344C18.4635 -30.6745 18.3658 -30.0625 18.3007 -29.3984C18.2486 -28.7344 18.2226 -28.0378 18.2226 -27.3086V-23.1289C18.2226 -22.4388 18.2486 -21.7747 18.3007 -21.1367C18.3528 -20.4987 18.4439 -19.9062 18.5742 -19.3594C18.7174 -18.6693 18.9257 -18.0378 19.1992 -17.4648C19.4856 -16.9049 19.8176 -16.4492 20.1953 -16.0977C20.5468 -15.7852 20.9439 -15.5443 21.3867 -15.375C21.8424 -15.2057 22.3567 -15.1211 22.9296 -15.1211C23.4765 -15.1211 23.9778 -15.1992 24.4335 -15.3555C24.8893 -15.5117 25.2929 -15.7396 25.6445 -16.0391C26.0872 -16.4036 26.4583 -16.8594 26.7578 -17.4062C27.0703 -17.9661 27.3176 -18.5977 27.4999 -19.3008C27.6432 -19.8477 27.7473 -20.4466 27.8124 -21.0977C27.8906 -21.7487 27.9296 -22.4258 27.9296 -23.1289V-27.3086Z" fill="black"/>
<path d="M-63.4962 13.5625L-63.4766 32.4102C-63.4766 33.9987 -63.698 35.4115 -64.1407 36.6484C-64.5704 37.8854 -65.1954 38.9271 -66.0157 39.7734C-66.849 40.6328 -67.8646 41.2839 -69.0626 41.7266C-70.2475 42.1693 -71.6016 42.3906 -73.1251 42.3906C-74.5573 42.3906 -75.8529 42.1693 -77.0118 41.7266C-78.1576 41.2839 -79.1407 40.6393 -79.961 39.793C-80.7813 38.9466 -81.4193 37.9049 -81.8751 36.668C-82.3178 35.418 -82.5391 33.9987 -82.5391 32.4102L-82.5196 13.5625H-77.0313L-77.0118 32.4102C-76.9988 33.3607 -76.9076 34.194 -76.7383 34.9102C-76.556 35.6263 -76.2891 36.2188 -75.9376 36.6875C-75.612 37.1172 -75.2149 37.4427 -74.7462 37.6641C-74.2774 37.8724 -73.737 37.9766 -73.1251 37.9766C-72.461 37.9766 -71.8751 37.8659 -71.3672 37.6445C-70.8464 37.4102 -70.4167 37.0651 -70.0782 36.6094C-69.7136 36.1406 -69.4402 35.5547 -69.2579 34.8516C-69.0756 34.1484 -68.9779 33.3346 -68.9649 32.4102L-68.9454 13.5625H-63.4962Z" fill="black"/>
<path d="M-13.4962 18.0352H-22.2657V42H-27.7735V18.0352H-36.4258V13.5625H-13.4962V18.0352Z" fill="black"/>
</g>
<defs>
<clipPath id="clip0_121_121">
<rect width="25" height="29" fill="white"/>
</clipPath>
</defs>
</svg>
