<svg width="25" height="29" viewBox="0 0 25 29" fill="none" xmlns="http://www.w3.org/2000/svg">
<g clip-path="url(#clip0_121_123)">
<rect width="25" height="29" fill="white"/>
<path d="M-125 -87H25V87H-125V-87Z" fill="var(--background)"/>
<path fill-rule="evenodd" clip-rule="evenodd" d="M24 -86H-124V86H24V-86ZM-125 -87V87H25V-87H-125Z" fill="black"/>
<path d="M-93.4571 -16.9375H-101.992L-103.672 -11H-109.453L-100.137 -39.4375H-95.1563L-86.0157 -11H-91.7969L-93.4571 -16.9375ZM-100.645 -21.6055H-94.7462L-97.6563 -32.0742L-100.645 -21.6055Z" fill="black"/>
<path d="M-59.4337 -11V-39.4375H-49.8829C-48.3334 -39.4375 -46.9271 -39.2812 -45.6641 -38.9688C-44.3881 -38.6562 -43.3008 -38.181 -42.4024 -37.543C-41.504 -36.9049 -40.8139 -36.0977 -40.3321 -35.1211C-39.8373 -34.1445 -39.5899 -32.9922 -39.5899 -31.6641C-39.6029 -30.8047 -39.7592 -29.9909 -40.0587 -29.2227C-40.3451 -28.4674 -40.7748 -27.8034 -41.3477 -27.2305C-41.6602 -26.918 -42.0183 -26.6315 -42.4219 -26.3711C-42.8126 -26.1107 -43.2488 -25.8893 -43.7305 -25.707V-25.6875C-42.793 -25.4271 -42.0508 -25.0951 -41.504 -24.6914C-40.9441 -24.2878 -40.4753 -23.819 -40.0977 -23.2852C-39.7071 -22.7122 -39.4206 -22.0872 -39.2383 -21.4102C-39.043 -20.7461 -38.9454 -20.056 -38.9454 -19.3398C-38.9454 -17.9727 -39.1797 -16.7682 -39.6485 -15.7266C-40.1172 -14.6849 -40.7878 -13.8125 -41.6602 -13.1094C-42.5326 -12.4062 -43.5938 -11.8789 -44.8438 -11.5273C-46.0938 -11.1758 -47.5001 -11 -49.0626 -11H-59.4337ZM-53.9258 -23.5391V-15.4336H-49.043C-48.3269 -15.4336 -47.6889 -15.5247 -47.129 -15.707C-46.5561 -15.8893 -46.0808 -16.1367 -45.7032 -16.4492C-45.2865 -16.8008 -44.974 -17.224 -44.7657 -17.7188C-44.5443 -18.2135 -44.4337 -18.7669 -44.4337 -19.3789C-44.4337 -20.0169 -44.5183 -20.5898 -44.6876 -21.0977C-44.8438 -21.6055 -45.0977 -22.0352 -45.4493 -22.3867C-45.8008 -22.7513 -46.2566 -23.0312 -46.8165 -23.2266C-47.3764 -23.4219 -48.0404 -23.526 -48.8087 -23.5391H-53.9258ZM-53.9258 -27.5039H-49.8438C-49.0105 -27.5169 -48.2748 -27.6146 -47.6368 -27.7969C-46.9988 -27.9922 -46.4844 -28.2786 -46.0938 -28.6562C-45.7683 -28.9557 -45.5209 -29.3203 -45.3516 -29.75C-45.1693 -30.1797 -45.0782 -30.668 -45.0782 -31.2148C-45.0782 -31.7878 -45.1563 -32.2891 -45.3126 -32.7188C-45.4558 -33.1484 -45.6771 -33.5065 -45.9766 -33.793C-46.3672 -34.1966 -46.8946 -34.4896 -47.5587 -34.6719C-48.2097 -34.8542 -48.9779 -34.9518 -49.8633 -34.9648H-53.9258V-27.5039Z" fill="black"/>
<path d="M8.49603 -23.1289C8.49603 -21.9049 8.38536 -20.7396 8.164 -19.6328C7.94265 -18.5391 7.62364 -17.5234 7.20697 -16.5859C6.76426 -15.6484 6.21739 -14.7891 5.56635 -14.0078C4.9153 -13.2266 4.17312 -12.5755 3.33978 -12.0547C2.58457 -11.599 1.75124 -11.2474 0.839783 -11C-0.0586548 -10.7396 -1.02871 -10.6094 -2.07037 -10.6094C-3.17714 -10.6094 -4.19928 -10.7526 -5.13678 -11.0391C-6.07428 -11.3255 -6.92714 -11.7292 -7.69537 -12.25C-8.45058 -12.7969 -9.12767 -13.4544 -9.72662 -14.2227C-10.3256 -15.0039 -10.8269 -15.8828 -11.2305 -16.8594C-11.5951 -17.7578 -11.8751 -18.7344 -12.0704 -19.7891C-12.2527 -20.8438 -12.3438 -21.957 -12.3438 -23.1289V-27.2695C-12.3438 -28.5195 -12.2396 -29.7044 -12.0313 -30.8242C-11.81 -31.944 -11.4909 -32.9792 -11.0743 -33.9297C-10.6706 -34.8281 -10.1824 -35.6419 -9.60944 -36.3711C-9.0235 -37.1003 -8.35293 -37.7253 -7.59772 -38.2461C-6.85553 -38.7539 -6.0222 -39.1445 -5.09772 -39.418C-4.17324 -39.6914 -3.17063 -39.8281 -2.0899 -39.8281C-0.996155 -39.8281 0.0259807 -39.6849 0.976501 -39.3984C1.94004 -39.125 2.80593 -38.7279 3.57416 -38.207C4.34239 -37.7122 5.01296 -37.1133 5.58588 -36.4102C6.17181 -35.707 6.67312 -34.9323 7.08978 -34.0859C7.54551 -33.1224 7.89056 -32.0677 8.12494 -30.9219C8.37233 -29.776 8.49603 -28.5586 8.49603 -27.2695V-23.1289ZM2.92963 -27.3086C2.92963 -28.0378 2.89056 -28.7279 2.81244 -29.3789C2.74733 -30.043 2.63666 -30.6549 2.48041 -31.2148C2.2851 -31.918 2.02468 -32.543 1.69916 -33.0898C1.37364 -33.6497 0.989522 -34.1055 0.546814 -34.457C0.195251 -34.7174 -0.201884 -34.9193 -0.644592 -35.0625C-1.07428 -35.2057 -1.55605 -35.2773 -2.0899 -35.2773C-2.59772 -35.2773 -3.05996 -35.2122 -3.47662 -35.082C-3.88027 -34.9518 -4.24485 -34.763 -4.57037 -34.5156C-5.01308 -34.151 -5.39069 -33.6953 -5.70319 -33.1484C-6.00267 -32.6016 -6.23704 -31.9635 -6.40631 -31.2344C-6.53652 -30.6745 -6.63418 -30.0625 -6.69928 -29.3984C-6.75136 -28.7344 -6.7774 -28.0378 -6.7774 -27.3086V-23.1289C-6.7774 -22.4388 -6.75136 -21.7747 -6.69928 -21.1367C-6.6472 -20.4987 -6.55605 -19.9062 -6.42584 -19.3594C-6.28261 -18.6693 -6.07428 -18.0378 -5.80084 -17.4648C-5.51438 -16.9049 -5.18235 -16.4492 -4.80475 -16.0977C-4.45319 -15.7852 -4.05605 -15.5443 -3.61334 -15.375C-3.15761 -15.2057 -2.64329 -15.1211 -2.07037 -15.1211C-1.5235 -15.1211 -1.0222 -15.1992 -0.566467 -15.3555C-0.110738 -15.5117 0.292908 -15.7396 0.64447 -16.0391C1.08718 -16.4036 1.45827 -16.8594 1.75775 -17.4062C2.07025 -17.9661 2.31765 -18.5977 2.49994 -19.3008C2.64317 -19.8477 2.74733 -20.4466 2.81244 -21.0977C2.89056 -21.7487 2.92963 -22.4258 2.92963 -23.1289V-27.3086Z" fill="black"/>
<path d="M-88.4962 13.5625L-88.4766 32.4102C-88.4766 33.9987 -88.698 35.4115 -89.1407 36.6484C-89.5704 37.8854 -90.1954 38.9271 -91.0157 39.7734C-91.849 40.6328 -92.8646 41.2839 -94.0626 41.7266C-95.2475 42.1693 -96.6016 42.3906 -98.1251 42.3906C-99.5573 42.3906 -100.853 42.1693 -102.012 41.7266C-103.158 41.2839 -104.141 40.6393 -104.961 39.793C-105.781 38.9466 -106.419 37.9049 -106.875 36.668C-107.318 35.418 -107.539 33.9987 -107.539 32.4102L-107.52 13.5625H-102.031L-102.012 32.4102C-101.999 33.3607 -101.908 34.194 -101.738 34.9102C-101.556 35.6263 -101.289 36.2188 -100.938 36.6875C-100.612 37.1172 -100.215 37.4427 -99.7462 37.6641C-99.2774 37.8724 -98.737 37.9766 -98.1251 37.9766C-97.461 37.9766 -96.8751 37.8659 -96.3672 37.6445C-95.8464 37.4102 -95.4167 37.0651 -95.0782 36.6094C-94.7136 36.1406 -94.4402 35.5547 -94.2579 34.8516C-94.0756 34.1484 -93.9779 33.3346 -93.9649 32.4102L-93.9454 13.5625H-88.4962Z" fill="black"/>
<path d="M-38.4962 18.0352H-47.2657V42H-52.7735V18.0352H-61.4258V13.5625H-38.4962V18.0352Z" fill="black"/>
</g>
<defs>
<clipPath id="clip0_121_123">
<rect width="25" height="29" fill="white"/>
</clipPath>
</defs>
</svg>
