<svg width="25" height="29" viewBox="0 0 25 29" fill="none" xmlns="http://www.w3.org/2000/svg">
<g clip-path="url(#clip0_121_125)">
<rect width="25" height="29" fill="white"/>
<path d="M0 -116H150V58H0V-116Z" fill="var(--background)"/>
<path fill-rule="evenodd" clip-rule="evenodd" d="M149 -115H1V57H149V-115ZM0 -116V58H150V-116H0Z" fill="black"/>
<path d="M31.5429 -45.9375H23.0078L21.3281 -40H15.5468L24.8632 -68.4375H29.8437L38.9843 -40H33.2031L31.5429 -45.9375ZM24.3554 -50.6055H30.2538L27.3437 -61.0742L24.3554 -50.6055Z" fill="black"/>
<path d="M65.5663 -40V-68.4375H75.1171C76.6666 -68.4375 78.0729 -68.2812 79.3359 -67.9688C80.6119 -67.6562 81.6992 -67.181 82.5976 -66.543C83.496 -65.9049 84.1861 -65.0977 84.6679 -64.1211C85.1627 -63.1445 85.4101 -61.9922 85.4101 -60.6641C85.3971 -59.8047 85.2408 -58.9909 84.9413 -58.2227C84.6549 -57.4674 84.2252 -56.8034 83.6523 -56.2305C83.3398 -55.918 82.9817 -55.6315 82.5781 -55.3711C82.1874 -55.1107 81.7512 -54.8893 81.2695 -54.707V-54.6875C82.207 -54.4271 82.9492 -54.0951 83.496 -53.6914C84.0559 -53.2878 84.5247 -52.819 84.9023 -52.2852C85.2929 -51.7122 85.5794 -51.0872 85.7617 -50.4102C85.957 -49.7461 86.0546 -49.056 86.0546 -48.3398C86.0546 -46.9727 85.8203 -45.7682 85.3515 -44.7266C84.8828 -43.6849 84.2122 -42.8125 83.3398 -42.1094C82.4674 -41.4062 81.4062 -40.8789 80.1562 -40.5273C78.9062 -40.1758 77.4999 -40 75.9374 -40H65.5663ZM71.0742 -52.5391V-44.4336H75.957C76.6731 -44.4336 77.3111 -44.5247 77.871 -44.707C78.4439 -44.8893 78.9192 -45.1367 79.2968 -45.4492C79.7135 -45.8008 80.026 -46.224 80.2343 -46.7188C80.4557 -47.2135 80.5663 -47.7669 80.5663 -48.3789C80.5663 -49.0169 80.4817 -49.5898 80.3124 -50.0977C80.1562 -50.6055 79.9023 -51.0352 79.5507 -51.3867C79.1992 -51.7513 78.7434 -52.0312 78.1835 -52.2266C77.6236 -52.4219 76.9596 -52.526 76.1913 -52.5391H71.0742ZM71.0742 -56.5039H75.1562C75.9895 -56.5169 76.7252 -56.6146 77.3632 -56.7969C78.0012 -56.9922 78.5156 -57.2786 78.9062 -57.6562C79.2317 -57.9557 79.4791 -58.3203 79.6484 -58.75C79.8307 -59.1797 79.9218 -59.668 79.9218 -60.2148C79.9218 -60.7878 79.8437 -61.2891 79.6874 -61.7188C79.5442 -62.1484 79.3229 -62.5065 79.0234 -62.793C78.6328 -63.1966 78.1054 -63.4896 77.4413 -63.6719C76.7903 -63.8542 76.0221 -63.9518 75.1367 -63.9648H71.0742V-56.5039Z" fill="black"/>
<path d="M133.496 -52.1289C133.496 -50.9049 133.385 -49.7396 133.164 -48.6328C132.943 -47.5391 132.624 -46.5234 132.207 -45.5859C131.764 -44.6484 131.217 -43.7891 130.566 -43.0078C129.915 -42.2266 129.173 -41.5755 128.34 -41.0547C127.585 -40.599 126.751 -40.2474 125.84 -40C124.941 -39.7396 123.971 -39.6094 122.93 -39.6094C121.823 -39.6094 120.801 -39.7526 119.863 -40.0391C118.926 -40.3255 118.073 -40.7292 117.305 -41.25C116.549 -41.7969 115.872 -42.4544 115.273 -43.2227C114.674 -44.0039 114.173 -44.8828 113.769 -45.8594C113.405 -46.7578 113.125 -47.7344 112.93 -48.7891C112.747 -49.8438 112.656 -50.957 112.656 -52.1289V-56.2695C112.656 -57.5195 112.76 -58.7044 112.969 -59.8242C113.19 -60.944 113.509 -61.9792 113.926 -62.9297C114.329 -63.8281 114.818 -64.6419 115.391 -65.3711C115.977 -66.1003 116.647 -66.7253 117.402 -67.2461C118.144 -67.7539 118.978 -68.1445 119.902 -68.418C120.827 -68.6914 121.829 -68.8281 122.91 -68.8281C124.004 -68.8281 125.026 -68.6849 125.977 -68.3984C126.94 -68.125 127.806 -67.7279 128.574 -67.207C129.342 -66.7122 130.013 -66.1133 130.586 -65.4102C131.172 -64.707 131.673 -63.9323 132.09 -63.0859C132.546 -62.1224 132.891 -61.0677 133.125 -59.9219C133.372 -58.776 133.496 -57.5586 133.496 -56.2695V-52.1289ZM127.93 -56.3086C127.93 -57.0378 127.891 -57.7279 127.812 -58.3789C127.747 -59.043 127.637 -59.6549 127.48 -60.2148C127.285 -60.918 127.025 -61.543 126.699 -62.0898C126.374 -62.6497 125.99 -63.1055 125.547 -63.457C125.195 -63.7174 124.798 -63.9193 124.355 -64.0625C123.926 -64.2057 123.444 -64.2773 122.91 -64.2773C122.402 -64.2773 121.94 -64.2122 121.523 -64.082C121.12 -63.9518 120.755 -63.763 120.43 -63.5156C119.987 -63.151 119.609 -62.6953 119.297 -62.1484C118.997 -61.6016 118.763 -60.9635 118.594 -60.2344C118.463 -59.6745 118.366 -59.0625 118.301 -58.3984C118.249 -57.7344 118.223 -57.0378 118.223 -56.3086V-52.1289C118.223 -51.4388 118.249 -50.7747 118.301 -50.1367C118.353 -49.4987 118.444 -48.9062 118.574 -48.3594C118.717 -47.6693 118.926 -47.0378 119.199 -46.4648C119.486 -45.9049 119.818 -45.4492 120.195 -45.0977C120.547 -44.7852 120.944 -44.5443 121.387 -44.375C121.842 -44.2057 122.357 -44.1211 122.93 -44.1211C123.477 -44.1211 123.978 -44.1992 124.434 -44.3555C124.889 -44.5117 125.293 -44.7396 125.644 -45.0391C126.087 -45.4036 126.458 -45.8594 126.758 -46.4062C127.07 -46.9661 127.318 -47.5977 127.5 -48.3008C127.643 -48.8477 127.747 -49.4466 127.812 -50.0977C127.891 -50.7487 127.93 -51.4258 127.93 -52.1289V-56.3086Z" fill="black"/>
<path d="M36.5038 -15.4375L36.5234 3.41016C36.5234 4.9987 36.302 6.41146 35.8593 7.64844C35.4296 8.88542 34.8046 9.92708 33.9843 10.7734C33.151 11.6328 32.1354 12.2839 30.9374 12.7266C29.7525 13.1693 28.3984 13.3906 26.8749 13.3906C25.4427 13.3906 24.1471 13.1693 22.9882 12.7266C21.8424 12.2839 20.8593 11.6393 20.039 10.793C19.2187 9.94661 18.5807 8.90495 18.1249 7.66797C17.6822 6.41797 17.4609 4.9987 17.4609 3.41016L17.4804 -15.4375H22.9687L22.9882 3.41016C23.0012 4.36068 23.0924 5.19401 23.2617 5.91016C23.444 6.6263 23.7109 7.21875 24.0624 7.6875C24.388 8.11719 24.7851 8.44271 25.2538 8.66406C25.7226 8.8724 26.263 8.97656 26.8749 8.97656C27.539 8.97656 28.1249 8.86589 28.6328 8.64453C29.1536 8.41016 29.5833 8.0651 29.9218 7.60938C30.2864 7.14062 30.5598 6.55469 30.7421 5.85156C30.9244 5.14844 31.0221 4.33464 31.0351 3.41016L31.0546 -15.4375H36.5038Z" fill="black"/>
<path d="M86.5038 -10.9648H77.7343V13H72.2265V-10.9648H63.5742V-15.4375H86.5038V-10.9648Z" fill="black"/>
</g>
<defs>
<clipPath id="clip0_121_125">
<rect width="25" height="29" fill="white"/>
</clipPath>
</defs>
</svg>
