<svg width="25" height="29" viewBox="0 0 25 29" fill="none" xmlns="http://www.w3.org/2000/svg">
<g clip-path="url(#clip0_121_127)">
<rect width="25" height="29" fill="white"/>
<path d="M-25 -116H125V58H-25V-116Z" fill="#E3E3E3"/>
<path fill-rule="evenodd" clip-rule="evenodd" d="M124 -115H-24V57H124V-115ZM-25 -116V58H125V-116H-25Z" fill="black"/>
<path d="M6.54291 -45.9375H-1.99224L-3.67193 -40H-9.45318L-0.136776 -68.4375H4.84369L13.9843 -40H8.20307L6.54291 -45.9375ZM-0.644588 -50.6055H5.25385L2.34369 -61.0742L-0.644588 -50.6055Z" fill="black"/>
<path d="M40.5663 -40V-68.4375H50.1171C51.6666 -68.4375 53.0729 -68.2812 54.3359 -67.9688C55.6119 -67.6562 56.6992 -67.181 57.5976 -66.543C58.496 -65.9049 59.1861 -65.0977 59.6679 -64.1211C60.1627 -63.1445 60.4101 -61.9922 60.4101 -60.6641C60.3971 -59.8047 60.2408 -58.9909 59.9413 -58.2227C59.6549 -57.4674 59.2252 -56.8034 58.6523 -56.2305C58.3398 -55.918 57.9817 -55.6315 57.5781 -55.3711C57.1874 -55.1107 56.7512 -54.8893 56.2695 -54.707V-54.6875C57.207 -54.4271 57.9492 -54.0951 58.496 -53.6914C59.0559 -53.2878 59.5247 -52.819 59.9023 -52.2852C60.2929 -51.7122 60.5794 -51.0872 60.7617 -50.4102C60.957 -49.7461 61.0546 -49.056 61.0546 -48.3398C61.0546 -46.9727 60.8203 -45.7682 60.3515 -44.7266C59.8828 -43.6849 59.2122 -42.8125 58.3398 -42.1094C57.4674 -41.4062 56.4062 -40.8789 55.1562 -40.5273C53.9062 -40.1758 52.4999 -40 50.9374 -40H40.5663ZM46.0742 -52.5391V-44.4336H50.957C51.6731 -44.4336 52.3111 -44.5247 52.871 -44.707C53.4439 -44.8893 53.9192 -45.1367 54.2968 -45.4492C54.7135 -45.8008 55.026 -46.224 55.2343 -46.7188C55.4557 -47.2135 55.5663 -47.7669 55.5663 -48.3789C55.5663 -49.0169 55.4817 -49.5898 55.3124 -50.0977C55.1562 -50.6055 54.9023 -51.0352 54.5507 -51.3867C54.1992 -51.7513 53.7434 -52.0312 53.1835 -52.2266C52.6236 -52.4219 51.9596 -52.526 51.1913 -52.5391H46.0742ZM46.0742 -56.5039H50.1562C50.9895 -56.5169 51.7252 -56.6146 52.3632 -56.7969C53.0012 -56.9922 53.5156 -57.2786 53.9062 -57.6562C54.2317 -57.9557 54.4791 -58.3203 54.6484 -58.75C54.8307 -59.1797 54.9218 -59.668 54.9218 -60.2148C54.9218 -60.7878 54.8437 -61.2891 54.6874 -61.7188C54.5442 -62.1484 54.3229 -62.5065 54.0234 -62.793C53.6328 -63.1966 53.1054 -63.4896 52.4413 -63.6719C51.7903 -63.8542 51.0221 -63.9518 50.1367 -63.9648H46.0742V-56.5039Z" fill="black"/>
<path d="M108.496 -52.1289C108.496 -50.9049 108.385 -49.7396 108.164 -48.6328C107.943 -47.5391 107.624 -46.5234 107.207 -45.5859C106.764 -44.6484 106.217 -43.7891 105.566 -43.0078C104.915 -42.2266 104.173 -41.5755 103.34 -41.0547C102.585 -40.599 101.751 -40.2474 100.84 -40C99.9413 -39.7396 98.9713 -39.6094 97.9296 -39.6094C96.8229 -39.6094 95.8007 -39.7526 94.8632 -40.0391C93.9257 -40.3255 93.0729 -40.7292 92.3046 -41.25C91.5494 -41.7969 90.8723 -42.4544 90.2734 -43.2227C89.6744 -44.0039 89.1731 -44.8828 88.7695 -45.8594C88.4049 -46.7578 88.1249 -47.7344 87.9296 -48.7891C87.7473 -49.8438 87.6562 -50.957 87.6562 -52.1289V-56.2695C87.6562 -57.5195 87.7604 -58.7044 87.9687 -59.8242C88.19 -60.944 88.5091 -61.9792 88.9257 -62.9297C89.3294 -63.8281 89.8176 -64.6419 90.3906 -65.3711C90.9765 -66.1003 91.6471 -66.7253 92.4023 -67.2461C93.1445 -67.7539 93.9778 -68.1445 94.9023 -68.418C95.8268 -68.6914 96.8294 -68.8281 97.9101 -68.8281C99.0038 -68.8281 100.026 -68.6849 100.977 -68.3984C101.94 -68.125 102.806 -67.7279 103.574 -67.207C104.342 -66.7122 105.013 -66.1133 105.586 -65.4102C106.172 -64.707 106.673 -63.9323 107.09 -63.0859C107.546 -62.1224 107.891 -61.0677 108.125 -59.9219C108.372 -58.776 108.496 -57.5586 108.496 -56.2695V-52.1289ZM102.93 -56.3086C102.93 -57.0378 102.891 -57.7279 102.812 -58.3789C102.747 -59.043 102.637 -59.6549 102.48 -60.2148C102.285 -60.918 102.025 -61.543 101.699 -62.0898C101.374 -62.6497 100.99 -63.1055 100.547 -63.457C100.195 -63.7174 99.7981 -63.9193 99.3554 -64.0625C98.9257 -64.2057 98.4439 -64.2773 97.9101 -64.2773C97.4023 -64.2773 96.94 -64.2122 96.5234 -64.082C96.1197 -63.9518 95.7551 -63.763 95.4296 -63.5156C94.9869 -63.151 94.6093 -62.6953 94.2968 -62.1484C93.9973 -61.6016 93.763 -60.9635 93.5937 -60.2344C93.4635 -59.6745 93.3658 -59.0625 93.3007 -58.3984C93.2486 -57.7344 93.2226 -57.0378 93.2226 -56.3086V-52.1289C93.2226 -51.4388 93.2486 -50.7747 93.3007 -50.1367C93.3528 -49.4987 93.4439 -48.9062 93.5742 -48.3594C93.7174 -47.6693 93.9257 -47.0378 94.1992 -46.4648C94.4856 -45.9049 94.8176 -45.4492 95.1953 -45.0977C95.5468 -44.7852 95.9439 -44.5443 96.3867 -44.375C96.8424 -44.2057 97.3567 -44.1211 97.9296 -44.1211C98.4765 -44.1211 98.9778 -44.1992 99.4335 -44.3555C99.8893 -44.5117 100.293 -44.7396 100.644 -45.0391C101.087 -45.4036 101.458 -45.8594 101.758 -46.4062C102.07 -46.9661 102.318 -47.5977 102.5 -48.3008C102.643 -48.8477 102.747 -49.4466 102.812 -50.0977C102.891 -50.7487 102.93 -51.4258 102.93 -52.1289V-56.3086Z" fill="black"/>
<path d="M11.5038 -15.4375L11.5234 3.41016C11.5234 4.9987 11.302 6.41146 10.8593 7.64844C10.4296 8.88542 9.80463 9.92708 8.98432 10.7734C8.15098 11.6328 7.13536 12.2839 5.93744 12.7266C4.75255 13.1693 3.39838 13.3906 1.87494 13.3906C0.442651 13.3906 -0.852922 13.1693 -2.01178 12.7266C-3.15761 12.2839 -4.14068 11.6393 -4.96099 10.793C-5.78131 9.94661 -6.41933 8.90495 -6.87506 7.66797C-7.31777 6.41797 -7.53912 4.9987 -7.53912 3.41016L-7.51959 -15.4375H-2.03131L-2.01178 3.41016C-1.99876 4.36068 -1.90761 5.19401 -1.73834 5.91016C-1.55605 6.6263 -1.28912 7.21875 -0.937557 7.6875C-0.612036 8.11719 -0.214901 8.44271 0.253849 8.66406C0.722599 8.8724 1.26296 8.97656 1.87494 8.97656C2.53901 8.97656 3.12494 8.86589 3.63276 8.64453C4.15359 8.41016 4.58328 8.0651 4.92182 7.60938C5.2864 7.14062 5.55984 6.55469 5.74213 5.85156C5.92442 5.14844 6.02208 4.33464 6.0351 3.41016L6.05463 -15.4375H11.5038Z" fill="black"/>
<path d="M61.5038 -10.9648H52.7343V13H47.2265V-10.9648H38.5742V-15.4375H61.5038V-10.9648Z" fill="black"/>
</g>
<defs>
<clipPath id="clip0_121_127">
<rect width="25" height="29" fill="white"/>
</clipPath>
</defs>
</svg>
