<svg width="25" height="29" viewBox="0 0 25 29" fill="none" xmlns="http://www.w3.org/2000/svg">
<g clip-path="url(#clip0_121_129)">
<rect width="25" height="29" fill="white"/>
<path d="M-50 -116H100V58H-50V-116Z" fill="#E3E3E3"/>
<path fill-rule="evenodd" clip-rule="evenodd" d="M99 -115H-49V57H99V-115ZM-50 -116V58H100V-116H-50Z" fill="black"/>
<path d="M-18.4571 -45.9375H-26.9922L-28.6719 -40H-34.4532L-25.1368 -68.4375H-20.1563L-11.0157 -40H-16.7969L-18.4571 -45.9375ZM-25.6446 -50.6055H-19.7462L-22.6563 -61.0742L-25.6446 -50.6055Z" fill="black"/>
<path d="M15.5663 -40V-68.4375H25.1171C26.6666 -68.4375 28.0729 -68.2812 29.3359 -67.9688C30.6119 -67.6562 31.6992 -67.181 32.5976 -66.543C33.496 -65.9049 34.1861 -65.0977 34.6679 -64.1211C35.1627 -63.1445 35.4101 -61.9922 35.4101 -60.6641C35.3971 -59.8047 35.2408 -58.9909 34.9413 -58.2227C34.6549 -57.4674 34.2252 -56.8034 33.6523 -56.2305C33.3398 -55.918 32.9817 -55.6315 32.5781 -55.3711C32.1874 -55.1107 31.7512 -54.8893 31.2695 -54.707V-54.6875C32.207 -54.4271 32.9492 -54.0951 33.496 -53.6914C34.0559 -53.2878 34.5247 -52.819 34.9023 -52.2852C35.2929 -51.7122 35.5794 -51.0872 35.7617 -50.4102C35.957 -49.7461 36.0546 -49.056 36.0546 -48.3398C36.0546 -46.9727 35.8203 -45.7682 35.3515 -44.7266C34.8828 -43.6849 34.2122 -42.8125 33.3398 -42.1094C32.4674 -41.4062 31.4062 -40.8789 30.1562 -40.5273C28.9062 -40.1758 27.4999 -40 25.9374 -40H15.5663ZM21.0742 -52.5391V-44.4336H25.957C26.6731 -44.4336 27.3111 -44.5247 27.871 -44.707C28.4439 -44.8893 28.9192 -45.1367 29.2968 -45.4492C29.7135 -45.8008 30.026 -46.224 30.2343 -46.7188C30.4557 -47.2135 30.5663 -47.7669 30.5663 -48.3789C30.5663 -49.0169 30.4817 -49.5898 30.3124 -50.0977C30.1562 -50.6055 29.9023 -51.0352 29.5507 -51.3867C29.1992 -51.7513 28.7434 -52.0312 28.1835 -52.2266C27.6236 -52.4219 26.9596 -52.526 26.1913 -52.5391H21.0742ZM21.0742 -56.5039H25.1562C25.9895 -56.5169 26.7252 -56.6146 27.3632 -56.7969C28.0012 -56.9922 28.5156 -57.2786 28.9062 -57.6562C29.2317 -57.9557 29.4791 -58.3203 29.6484 -58.75C29.8307 -59.1797 29.9218 -59.668 29.9218 -60.2148C29.9218 -60.7878 29.8437 -61.2891 29.6874 -61.7188C29.5442 -62.1484 29.3229 -62.5065 29.0234 -62.793C28.6328 -63.1966 28.1054 -63.4896 27.4413 -63.6719C26.7903 -63.8542 26.0221 -63.9518 25.1367 -63.9648H21.0742V-56.5039Z" fill="black"/>
<path d="M83.496 -52.1289C83.496 -50.9049 83.3854 -49.7396 83.164 -48.6328C82.9426 -47.5391 82.6236 -46.5234 82.207 -45.5859C81.7643 -44.6484 81.2174 -43.7891 80.5663 -43.0078C79.9153 -42.2266 79.1731 -41.5755 78.3398 -41.0547C77.5846 -40.599 76.7512 -40.2474 75.8398 -40C74.9413 -39.7396 73.9713 -39.6094 72.9296 -39.6094C71.8229 -39.6094 70.8007 -39.7526 69.8632 -40.0391C68.9257 -40.3255 68.0729 -40.7292 67.3046 -41.25C66.5494 -41.7969 65.8723 -42.4544 65.2734 -43.2227C64.6744 -44.0039 64.1731 -44.8828 63.7695 -45.8594C63.4049 -46.7578 63.1249 -47.7344 62.9296 -48.7891C62.7473 -49.8438 62.6562 -50.957 62.6562 -52.1289V-56.2695C62.6562 -57.5195 62.7604 -58.7044 62.9687 -59.8242C63.19 -60.944 63.5091 -61.9792 63.9257 -62.9297C64.3294 -63.8281 64.8176 -64.6419 65.3906 -65.3711C65.9765 -66.1003 66.6471 -66.7253 67.4023 -67.2461C68.1445 -67.7539 68.9778 -68.1445 69.9023 -68.418C70.8268 -68.6914 71.8294 -68.8281 72.9101 -68.8281C74.0038 -68.8281 75.026 -68.6849 75.9765 -68.3984C76.94 -68.125 77.8059 -67.7279 78.5742 -67.207C79.3424 -66.7122 80.013 -66.1133 80.5859 -65.4102C81.1718 -64.707 81.6731 -63.9323 82.0898 -63.0859C82.5455 -62.1224 82.8906 -61.0677 83.1249 -59.9219C83.3723 -58.776 83.496 -57.5586 83.496 -56.2695V-52.1289ZM77.9296 -56.3086C77.9296 -57.0378 77.8906 -57.7279 77.8124 -58.3789C77.7473 -59.043 77.6367 -59.6549 77.4804 -60.2148C77.2851 -60.918 77.0247 -61.543 76.6992 -62.0898C76.3736 -62.6497 75.9895 -63.1055 75.5468 -63.457C75.1953 -63.7174 74.7981 -63.9193 74.3554 -64.0625C73.9257 -64.2057 73.4439 -64.2773 72.9101 -64.2773C72.4023 -64.2773 71.94 -64.2122 71.5234 -64.082C71.1197 -63.9518 70.7551 -63.763 70.4296 -63.5156C69.9869 -63.151 69.6093 -62.6953 69.2968 -62.1484C68.9973 -61.6016 68.763 -60.9635 68.5937 -60.2344C68.4635 -59.6745 68.3658 -59.0625 68.3007 -58.3984C68.2486 -57.7344 68.2226 -57.0378 68.2226 -56.3086V-52.1289C68.2226 -51.4388 68.2486 -50.7747 68.3007 -50.1367C68.3528 -49.4987 68.4439 -48.9062 68.5742 -48.3594C68.7174 -47.6693 68.9257 -47.0378 69.1992 -46.4648C69.4856 -45.9049 69.8176 -45.4492 70.1953 -45.0977C70.5468 -44.7852 70.9439 -44.5443 71.3867 -44.375C71.8424 -44.2057 72.3567 -44.1211 72.9296 -44.1211C73.4765 -44.1211 73.9778 -44.1992 74.4335 -44.3555C74.8893 -44.5117 75.2929 -44.7396 75.6445 -45.0391C76.0872 -45.4036 76.4583 -45.8594 76.7578 -46.4062C77.0703 -46.9661 77.3176 -47.5977 77.4999 -48.3008C77.6432 -48.8477 77.7473 -49.4466 77.8124 -50.0977C77.8906 -50.7487 77.9296 -51.4258 77.9296 -52.1289V-56.3086Z" fill="black"/>
<path d="M-13.4962 -15.4375L-13.4766 3.41016C-13.4766 4.9987 -13.698 6.41146 -14.1407 7.64844C-14.5704 8.88542 -15.1954 9.92708 -16.0157 10.7734C-16.849 11.6328 -17.8646 12.2839 -19.0626 12.7266C-20.2475 13.1693 -21.6016 13.3906 -23.1251 13.3906C-24.5573 13.3906 -25.8529 13.1693 -27.0118 12.7266C-28.1576 12.2839 -29.1407 11.6393 -29.961 10.793C-30.7813 9.94661 -31.4193 8.90495 -31.8751 7.66797C-32.3178 6.41797 -32.5391 4.9987 -32.5391 3.41016L-32.5196 -15.4375H-27.0313L-27.0118 3.41016C-26.9988 4.36068 -26.9076 5.19401 -26.7383 5.91016C-26.556 6.6263 -26.2891 7.21875 -25.9376 7.6875C-25.612 8.11719 -25.2149 8.44271 -24.7462 8.66406C-24.2774 8.8724 -23.737 8.97656 -23.1251 8.97656C-22.461 8.97656 -21.8751 8.86589 -21.3672 8.64453C-20.8464 8.41016 -20.4167 8.0651 -20.0782 7.60938C-19.7136 7.14062 -19.4402 6.55469 -19.2579 5.85156C-19.0756 5.14844 -18.9779 4.33464 -18.9649 3.41016L-18.9454 -15.4375H-13.4962Z" fill="black"/>
<path d="M36.5038 -10.9648H27.7343V13H22.2265V-10.9648H13.5742V-15.4375H36.5038V-10.9648Z" fill="black"/>
</g>
<defs>
<clipPath id="clip0_121_129">
<rect width="25" height="29" fill="white"/>
</clipPath>
</defs>
</svg>
