<svg width="25" height="29" viewBox="0 0 25 29" fill="none" xmlns="http://www.w3.org/2000/svg">
<g clip-path="url(#clip0_121_131)">
<rect width="25" height="29" fill="white"/>
<path d="M-75 -116H75V58H-75V-116Z" fill="var(--background)"/>
<path fill-rule="evenodd" clip-rule="evenodd" d="M74 -115H-74V57H74V-115ZM-75 -116V58H75V-116H-75Z" fill="black"/>
<path d="M-43.4571 -45.9375H-51.9923L-53.6719 -40H-59.4532L-50.1368 -68.4375H-45.1563L-36.0157 -40H-41.7969L-43.4571 -45.9375ZM-50.6446 -50.6055H-44.7462L-47.6563 -61.0742L-50.6446 -50.6055Z" fill="black"/>
<path d="M-9.43367 -40V-68.4375H0.117111C1.66659 -68.4375 3.07284 -68.2812 4.33586 -67.9688C5.6119 -67.6562 6.69914 -67.181 7.59758 -66.543C8.49602 -65.9049 9.18612 -65.0977 9.66789 -64.1211C10.1627 -63.1445 10.4101 -61.9922 10.4101 -60.6641C10.3971 -59.8047 10.2408 -58.9909 9.94133 -58.2227C9.65487 -57.4674 9.22518 -56.8034 8.65227 -56.2305C8.33977 -55.918 7.98169 -55.6315 7.57805 -55.3711C7.18742 -55.1107 6.75123 -54.8893 6.26945 -54.707V-54.6875C7.20695 -54.4271 7.94914 -54.0951 8.49602 -53.6914C9.05591 -53.2878 9.52466 -52.819 9.90227 -52.2852C10.2929 -51.7122 10.5794 -51.0872 10.7616 -50.4102C10.957 -49.7461 11.0546 -49.056 11.0546 -48.3398C11.0546 -46.9727 10.8202 -45.7682 10.3515 -44.7266C9.88274 -43.6849 9.21216 -42.8125 8.33977 -42.1094C7.46737 -41.4062 6.40617 -40.8789 5.15617 -40.5273C3.90617 -40.1758 2.49992 -40 0.937424 -40H-9.43367ZM-3.92586 -52.5391V-44.4336H0.956955C1.6731 -44.4336 2.31112 -44.5247 2.87102 -44.707C3.44393 -44.8893 3.91919 -45.1367 4.2968 -45.4492C4.71347 -45.8008 5.02597 -46.224 5.2343 -46.7188C5.45565 -47.2135 5.56633 -47.7669 5.56633 -48.3789C5.56633 -49.0169 5.48169 -49.5898 5.31242 -50.0977C5.15617 -50.6055 4.90227 -51.0352 4.5507 -51.3867C4.19914 -51.7513 3.74341 -52.0312 3.18352 -52.2266C2.62362 -52.4219 1.95956 -52.526 1.19133 -52.5391H-3.92586ZM-3.92586 -56.5039H0.156174C0.989507 -56.5169 1.72518 -56.6146 2.3632 -56.7969C3.00123 -56.9922 3.51555 -57.2786 3.90617 -57.6562C4.23169 -57.9557 4.47909 -58.3203 4.64836 -58.75C4.83065 -59.1797 4.9218 -59.668 4.9218 -60.2148C4.9218 -60.7878 4.84367 -61.2891 4.68742 -61.7188C4.54419 -62.1484 4.32284 -62.5065 4.02336 -62.793C3.63274 -63.1966 3.10539 -63.4896 2.44133 -63.6719C1.79029 -63.8542 1.02206 -63.9518 0.136642 -63.9648H-3.92586V-56.5039Z" fill="black"/>
<path d="M58.496 -52.1289C58.496 -50.9049 58.3853 -49.7396 58.164 -48.6328C57.9426 -47.5391 57.6236 -46.5234 57.207 -45.5859C56.7642 -44.6484 56.2174 -43.7891 55.5663 -43.0078C54.9153 -42.2266 54.1731 -41.5755 53.3398 -41.0547C52.5846 -40.599 51.7512 -40.2474 50.8398 -40C49.9413 -39.7396 48.9713 -39.6094 47.9296 -39.6094C46.8228 -39.6094 45.8007 -39.7526 44.8632 -40.0391C43.9257 -40.3255 43.0728 -40.7292 42.3046 -41.25C41.5494 -41.7969 40.8723 -42.4544 40.2734 -43.2227C39.6744 -44.0039 39.1731 -44.8828 38.7695 -45.8594C38.4049 -46.7578 38.1249 -47.7344 37.9296 -48.7891C37.7473 -49.8438 37.6562 -50.957 37.6562 -52.1289V-56.2695C37.6562 -57.5195 37.7603 -58.7044 37.9687 -59.8242C38.19 -60.944 38.509 -61.9792 38.9257 -62.9297C39.3294 -63.8281 39.8176 -64.6419 40.3905 -65.3711C40.9765 -66.1003 41.6471 -66.7253 42.4023 -67.2461C43.1445 -67.7539 43.9778 -68.1445 44.9023 -68.418C45.8267 -68.6914 46.8294 -68.8281 47.9101 -68.8281C49.0038 -68.8281 50.026 -68.6849 50.9765 -68.3984C51.94 -68.125 52.8059 -67.7279 53.5741 -67.207C54.3424 -66.7122 55.0129 -66.1133 55.5859 -65.4102C56.1718 -64.707 56.6731 -63.9323 57.0898 -63.0859C57.5455 -62.1224 57.8905 -61.0677 58.1249 -59.9219C58.3723 -58.776 58.496 -57.5586 58.496 -56.2695V-52.1289ZM52.9296 -56.3086C52.9296 -57.0378 52.8905 -57.7279 52.8124 -58.3789C52.7473 -59.043 52.6366 -59.6549 52.4804 -60.2148C52.2851 -60.918 52.0247 -61.543 51.6991 -62.0898C51.3736 -62.6497 50.9895 -63.1055 50.5468 -63.457C50.1952 -63.7174 49.7981 -63.9193 49.3554 -64.0625C48.9257 -64.2057 48.4439 -64.2773 47.9101 -64.2773C47.4023 -64.2773 46.94 -64.2122 46.5234 -64.082C46.1197 -63.9518 45.7551 -63.763 45.4296 -63.5156C44.9869 -63.151 44.6093 -62.6953 44.2968 -62.1484C43.9973 -61.6016 43.7629 -60.9635 43.5937 -60.2344C43.4635 -59.6745 43.3658 -59.0625 43.3007 -58.3984C43.2486 -57.7344 43.2226 -57.0378 43.2226 -56.3086V-52.1289C43.2226 -51.4388 43.2486 -50.7747 43.3007 -50.1367C43.3528 -49.4987 43.4439 -48.9062 43.5741 -48.3594C43.7174 -47.6693 43.9257 -47.0378 44.1991 -46.4648C44.4856 -45.9049 44.8176 -45.4492 45.1952 -45.0977C45.5468 -44.7852 45.9439 -44.5443 46.3866 -44.375C46.8424 -44.2057 47.3567 -44.1211 47.9296 -44.1211C48.4765 -44.1211 48.9778 -44.1992 49.4335 -44.3555C49.8892 -44.5117 50.2929 -44.7396 50.6445 -45.0391C51.0872 -45.4036 51.4583 -45.8594 51.7577 -46.4062C52.0702 -46.9661 52.3176 -47.5977 52.4999 -48.3008C52.6432 -48.8477 52.7473 -49.4466 52.8124 -50.0977C52.8905 -50.7487 52.9296 -51.4258 52.9296 -52.1289V-56.3086Z" fill="black"/>
<path d="M-38.4962 -15.4375L-38.4766 3.41016C-38.4766 4.9987 -38.698 6.41146 -39.1407 7.64844C-39.5704 8.88542 -40.1954 9.92708 -41.0157 10.7734C-41.849 11.6328 -42.8647 12.2839 -44.0626 12.7266C-45.2475 13.1693 -46.6016 13.3906 -48.1251 13.3906C-49.5574 13.3906 -50.8529 13.1693 -52.0118 12.7266C-53.1576 12.2839 -54.1407 11.6393 -54.961 10.793C-55.7813 9.94661 -56.4193 8.90495 -56.8751 7.66797C-57.3178 6.41797 -57.5391 4.9987 -57.5391 3.41016L-57.5196 -15.4375H-52.0313L-52.0118 3.41016C-51.9988 4.36068 -51.9076 5.19401 -51.7384 5.91016C-51.5561 6.6263 -51.2891 7.21875 -50.9376 7.6875C-50.6121 8.11719 -50.2149 8.44271 -49.7462 8.66406C-49.2774 8.8724 -48.7371 8.97656 -48.1251 8.97656C-47.461 8.97656 -46.8751 8.86589 -46.3673 8.64453C-45.8464 8.41016 -45.4167 8.0651 -45.0782 7.60938C-44.7136 7.14062 -44.4402 6.55469 -44.2579 5.85156C-44.0756 5.14844 -43.9779 4.33464 -43.9649 3.41016L-43.9454 -15.4375H-38.4962Z" fill="black"/>
<path d="M11.5038 -10.9648H2.7343V13H-2.77351V-10.9648H-11.4259V-15.4375H11.5038V-10.9648Z" fill="black"/>
</g>
<defs>
<clipPath id="clip0_121_131">
<rect width="25" height="29" fill="white"/>
</clipPath>
</defs>
</svg>
