<svg width="25" height="29" viewBox="0 0 25 29" fill="none" xmlns="http://www.w3.org/2000/svg">
<g clip-path="url(#clip0_121_133)">
<rect width="25" height="29" fill="white"/>
<path d="M-100 -116H50V58H-100V-116Z" fill="#E3E3E3"/>
<path fill-rule="evenodd" clip-rule="evenodd" d="M49 -115H-99V57H49V-115ZM-100 -116V58H50V-116H-100Z" fill="black"/>
<path d="M-68.4571 -45.9375H-76.9922L-78.6719 -40H-84.4532L-75.1368 -68.4375H-70.1563L-61.0157 -40H-66.7969L-68.4571 -45.9375ZM-75.6446 -50.6055H-69.7462L-72.6563 -61.0742L-75.6446 -50.6055Z" fill="black"/>
<path d="M-34.4337 -40V-68.4375H-24.8829C-23.3334 -68.4375 -21.9271 -68.2812 -20.6641 -67.9688C-19.3881 -67.6562 -18.3008 -67.181 -17.4024 -66.543C-16.504 -65.9049 -15.8139 -65.0977 -15.3321 -64.1211C-14.8373 -63.1445 -14.5899 -61.9922 -14.5899 -60.6641C-14.6029 -59.8047 -14.7592 -58.9909 -15.0587 -58.2227C-15.3451 -57.4674 -15.7748 -56.8034 -16.3477 -56.2305C-16.6602 -55.918 -17.0183 -55.6315 -17.4219 -55.3711C-17.8126 -55.1107 -18.2488 -54.8893 -18.7305 -54.707V-54.6875C-17.793 -54.4271 -17.0508 -54.0951 -16.504 -53.6914C-15.9441 -53.2878 -15.4753 -52.819 -15.0977 -52.2852C-14.7071 -51.7122 -14.4206 -51.0872 -14.2383 -50.4102C-14.043 -49.7461 -13.9454 -49.056 -13.9454 -48.3398C-13.9454 -46.9727 -14.1797 -45.7682 -14.6485 -44.7266C-15.1172 -43.6849 -15.7878 -42.8125 -16.6602 -42.1094C-17.5326 -41.4062 -18.5938 -40.8789 -19.8438 -40.5273C-21.0938 -40.1758 -22.5001 -40 -24.0626 -40H-34.4337ZM-28.9258 -52.5391V-44.4336H-24.043C-23.3269 -44.4336 -22.6889 -44.5247 -22.129 -44.707C-21.5561 -44.8893 -21.0808 -45.1367 -20.7032 -45.4492C-20.2865 -45.8008 -19.974 -46.224 -19.7657 -46.7188C-19.5443 -47.2135 -19.4337 -47.7669 -19.4337 -48.3789C-19.4337 -49.0169 -19.5183 -49.5898 -19.6876 -50.0977C-19.8438 -50.6055 -20.0977 -51.0352 -20.4493 -51.3867C-20.8008 -51.7513 -21.2566 -52.0312 -21.8165 -52.2266C-22.3764 -52.4219 -23.0404 -52.526 -23.8087 -52.5391H-28.9258ZM-28.9258 -56.5039H-24.8438C-24.0105 -56.5169 -23.2748 -56.6146 -22.6368 -56.7969C-21.9988 -56.9922 -21.4844 -57.2786 -21.0938 -57.6562C-20.7683 -57.9557 -20.5209 -58.3203 -20.3516 -58.75C-20.1693 -59.1797 -20.0782 -59.668 -20.0782 -60.2148C-20.0782 -60.7878 -20.1563 -61.2891 -20.3126 -61.7188C-20.4558 -62.1484 -20.6771 -62.5065 -20.9766 -62.793C-21.3672 -63.1966 -21.8946 -63.4896 -22.5587 -63.6719C-23.2097 -63.8542 -23.9779 -63.9518 -24.8633 -63.9648H-28.9258V-56.5039Z" fill="black"/>
<path d="M33.496 -52.1289C33.496 -50.9049 33.3854 -49.7396 33.164 -48.6328C32.9426 -47.5391 32.6236 -46.5234 32.207 -45.5859C31.7643 -44.6484 31.2174 -43.7891 30.5663 -43.0078C29.9153 -42.2266 29.1731 -41.5755 28.3398 -41.0547C27.5846 -40.599 26.7512 -40.2474 25.8398 -40C24.9413 -39.7396 23.9713 -39.6094 22.9296 -39.6094C21.8229 -39.6094 20.8007 -39.7526 19.8632 -40.0391C18.9257 -40.3255 18.0729 -40.7292 17.3046 -41.25C16.5494 -41.7969 15.8723 -42.4544 15.2734 -43.2227C14.6744 -44.0039 14.1731 -44.8828 13.7695 -45.8594C13.4049 -46.7578 13.1249 -47.7344 12.9296 -48.7891C12.7473 -49.8438 12.6562 -50.957 12.6562 -52.1289V-56.2695C12.6562 -57.5195 12.7604 -58.7044 12.9687 -59.8242C13.19 -60.944 13.5091 -61.9792 13.9257 -62.9297C14.3294 -63.8281 14.8176 -64.6419 15.3906 -65.3711C15.9765 -66.1003 16.6471 -66.7253 17.4023 -67.2461C18.1445 -67.7539 18.9778 -68.1445 19.9023 -68.418C20.8268 -68.6914 21.8294 -68.8281 22.9101 -68.8281C24.0038 -68.8281 25.026 -68.6849 25.9765 -68.3984C26.94 -68.125 27.8059 -67.7279 28.5742 -67.207C29.3424 -66.7122 30.013 -66.1133 30.5859 -65.4102C31.1718 -64.707 31.6731 -63.9323 32.0898 -63.0859C32.5455 -62.1224 32.8906 -61.0677 33.1249 -59.9219C33.3723 -58.776 33.496 -57.5586 33.496 -56.2695V-52.1289ZM27.9296 -56.3086C27.9296 -57.0378 27.8906 -57.7279 27.8124 -58.3789C27.7473 -59.043 27.6367 -59.6549 27.4804 -60.2148C27.2851 -60.918 27.0247 -61.543 26.6992 -62.0898C26.3736 -62.6497 25.9895 -63.1055 25.5468 -63.457C25.1953 -63.7174 24.7981 -63.9193 24.3554 -64.0625C23.9257 -64.2057 23.4439 -64.2773 22.9101 -64.2773C22.4023 -64.2773 21.94 -64.2122 21.5234 -64.082C21.1197 -63.9518 20.7551 -63.763 20.4296 -63.5156C19.9869 -63.151 19.6093 -62.6953 19.2968 -62.1484C18.9973 -61.6016 18.763 -60.9635 18.5937 -60.2344C18.4635 -59.6745 18.3658 -59.0625 18.3007 -58.3984C18.2486 -57.7344 18.2226 -57.0378 18.2226 -56.3086V-52.1289C18.2226 -51.4388 18.2486 -50.7747 18.3007 -50.1367C18.3528 -49.4987 18.4439 -48.9062 18.5742 -48.3594C18.7174 -47.6693 18.9257 -47.0378 19.1992 -46.4648C19.4856 -45.9049 19.8176 -45.4492 20.1953 -45.0977C20.5468 -44.7852 20.9439 -44.5443 21.3867 -44.375C21.8424 -44.2057 22.3567 -44.1211 22.9296 -44.1211C23.4765 -44.1211 23.9778 -44.1992 24.4335 -44.3555C24.8893 -44.5117 25.2929 -44.7396 25.6445 -45.0391C26.0872 -45.4036 26.4583 -45.8594 26.7578 -46.4062C27.0703 -46.9661 27.3176 -47.5977 27.4999 -48.3008C27.6432 -48.8477 27.7473 -49.4466 27.8124 -50.0977C27.8906 -50.7487 27.9296 -51.4258 27.9296 -52.1289V-56.3086Z" fill="black"/>
<path d="M-63.4962 -15.4375L-63.4766 3.41016C-63.4766 4.9987 -63.698 6.41146 -64.1407 7.64844C-64.5704 8.88542 -65.1954 9.92708 -66.0157 10.7734C-66.849 11.6328 -67.8646 12.2839 -69.0626 12.7266C-70.2475 13.1693 -71.6016 13.3906 -73.1251 13.3906C-74.5573 13.3906 -75.8529 13.1693 -77.0118 12.7266C-78.1576 12.2839 -79.1407 11.6393 -79.961 10.793C-80.7813 9.94661 -81.4193 8.90495 -81.8751 7.66797C-82.3178 6.41797 -82.5391 4.9987 -82.5391 3.41016L-82.5196 -15.4375H-77.0313L-77.0118 3.41016C-76.9988 4.36068 -76.9076 5.19401 -76.7383 5.91016C-76.556 6.6263 -76.2891 7.21875 -75.9376 7.6875C-75.612 8.11719 -75.2149 8.44271 -74.7462 8.66406C-74.2774 8.8724 -73.737 8.97656 -73.1251 8.97656C-72.461 8.97656 -71.8751 8.86589 -71.3672 8.64453C-70.8464 8.41016 -70.4167 8.0651 -70.0782 7.60938C-69.7136 7.14062 -69.4402 6.55469 -69.2579 5.85156C-69.0756 5.14844 -68.9779 4.33464 -68.9649 3.41016L-68.9454 -15.4375H-63.4962Z" fill="black"/>
<path d="M-13.4962 -10.9648H-22.2657V13H-27.7735V-10.9648H-36.4258V-15.4375H-13.4962V-10.9648Z" fill="black"/>
</g>
<defs>
<clipPath id="clip0_121_133">
<rect width="25" height="29" fill="white"/>
</clipPath>
</defs>
</svg>
