<svg width="25" height="29" viewBox="0 0 25 29" fill="none" xmlns="http://www.w3.org/2000/svg">
<g clip-path="url(#clip0_121_81)">
<rect width="25" height="29" fill="white"/>
<path d="M-50 0H100V174H-50V0Z" fill="var(--background)"/>
<path fill-rule="evenodd" clip-rule="evenodd" d="M99 1H-49V173H99V1ZM-50 0V174H100V0H-50Z" fill="black"/>
<path d="M-18.4571 70.0625H-26.9922L-28.6719 76H-34.4532L-25.1368 47.5625H-20.1563L-11.0157 76H-16.7969L-18.4571 70.0625ZM-25.6446 65.3945H-19.7462L-22.6563 54.9258L-25.6446 65.3945Z" fill="black"/>
<path d="M15.5663 76V47.5625H25.1171C26.6666 47.5625 28.0729 47.7188 29.3359 48.0312C30.6119 48.3438 31.6992 48.819 32.5976 49.457C33.496 50.0951 34.1861 50.9023 34.6679 51.8789C35.1627 52.8555 35.4101 54.0078 35.4101 55.3359C35.3971 56.1953 35.2408 57.0091 34.9413 57.7773C34.6549 58.5326 34.2252 59.1966 33.6523 59.7695C33.3398 60.082 32.9817 60.3685 32.5781 60.6289C32.1874 60.8893 31.7512 61.1107 31.2695 61.293V61.3125C32.207 61.5729 32.9492 61.9049 33.496 62.3086C34.0559 62.7122 34.5247 63.181 34.9023 63.7148C35.2929 64.2878 35.5794 64.9128 35.7617 65.5898C35.957 66.2539 36.0546 66.944 36.0546 67.6602C36.0546 69.0273 35.8203 70.2318 35.3515 71.2734C34.8828 72.3151 34.2122 73.1875 33.3398 73.8906C32.4674 74.5938 31.4062 75.1211 30.1562 75.4727C28.9062 75.8242 27.4999 76 25.9374 76H15.5663ZM21.0742 63.4609V71.5664H25.957C26.6731 71.5664 27.3111 71.4753 27.871 71.293C28.4439 71.1107 28.9192 70.8633 29.2968 70.5508C29.7135 70.1992 30.026 69.776 30.2343 69.2812C30.4557 68.7865 30.5663 68.2331 30.5663 67.6211C30.5663 66.9831 30.4817 66.4102 30.3124 65.9023C30.1562 65.3945 29.9023 64.9648 29.5507 64.6133C29.1992 64.2487 28.7434 63.9688 28.1835 63.7734C27.6236 63.5781 26.9596 63.474 26.1913 63.4609H21.0742ZM21.0742 59.4961H25.1562C25.9895 59.4831 26.7252 59.3854 27.3632 59.2031C28.0012 59.0078 28.5156 58.7214 28.9062 58.3438C29.2317 58.0443 29.4791 57.6797 29.6484 57.25C29.8307 56.8203 29.9218 56.332 29.9218 55.7852C29.9218 55.2122 29.8437 54.7109 29.6874 54.2812C29.5442 53.8516 29.3229 53.4935 29.0234 53.207C28.6328 52.8034 28.1054 52.5104 27.4413 52.3281C26.7903 52.1458 26.0221 52.0482 25.1367 52.0352H21.0742V59.4961Z" fill="black"/>
<path d="M83.496 63.8711C83.496 65.0951 83.3854 66.2604 83.164 67.3672C82.9426 68.4609 82.6236 69.4766 82.207 70.4141C81.7643 71.3516 81.2174 72.2109 80.5663 72.9922C79.9153 73.7734 79.1731 74.4245 78.3398 74.9453C77.5846 75.401 76.7512 75.7526 75.8398 76C74.9413 76.2604 73.9713 76.3906 72.9296 76.3906C71.8229 76.3906 70.8007 76.2474 69.8632 75.9609C68.9257 75.6745 68.0729 75.2708 67.3046 74.75C66.5494 74.2031 65.8723 73.5456 65.2734 72.7773C64.6744 71.9961 64.1731 71.1172 63.7695 70.1406C63.4049 69.2422 63.1249 68.2656 62.9296 67.2109C62.7473 66.1562 62.6562 65.043 62.6562 63.8711V59.7305C62.6562 58.4805 62.7604 57.2956 62.9687 56.1758C63.19 55.056 63.5091 54.0208 63.9257 53.0703C64.3294 52.1719 64.8176 51.3581 65.3906 50.6289C65.9765 49.8997 66.6471 49.2747 67.4023 48.7539C68.1445 48.2461 68.9778 47.8555 69.9023 47.582C70.8268 47.3086 71.8294 47.1719 72.9101 47.1719C74.0038 47.1719 75.026 47.3151 75.9765 47.6016C76.94 47.875 77.8059 48.2721 78.5742 48.793C79.3424 49.2878 80.013 49.8867 80.5859 50.5898C81.1718 51.293 81.6731 52.0677 82.0898 52.9141C82.5455 53.8776 82.8906 54.9323 83.1249 56.0781C83.3723 57.224 83.496 58.4414 83.496 59.7305V63.8711ZM77.9296 59.6914C77.9296 58.9622 77.8906 58.2721 77.8124 57.6211C77.7473 56.957 77.6367 56.3451 77.4804 55.7852C77.2851 55.082 77.0247 54.457 76.6992 53.9102C76.3736 53.3503 75.9895 52.8945 75.5468 52.543C75.1953 52.2826 74.7981 52.0807 74.3554 51.9375C73.9257 51.7943 73.4439 51.7227 72.9101 51.7227C72.4023 51.7227 71.94 51.7878 71.5234 51.918C71.1197 52.0482 70.7551 52.237 70.4296 52.4844C69.9869 52.849 69.6093 53.3047 69.2968 53.8516C68.9973 54.3984 68.763 55.0365 68.5937 55.7656C68.4635 56.3255 68.3658 56.9375 68.3007 57.6016C68.2486 58.2656 68.2226 58.9622 68.2226 59.6914V63.8711C68.2226 64.5612 68.2486 65.2253 68.3007 65.8633C68.3528 66.5013 68.4439 67.0938 68.5742 67.6406C68.7174 68.3307 68.9257 68.9622 69.1992 69.5352C69.4856 70.0951 69.8176 70.5508 70.1953 70.9023C70.5468 71.2148 70.9439 71.4557 71.3867 71.625C71.8424 71.7943 72.3567 71.8789 72.9296 71.8789C73.4765 71.8789 73.9778 71.8008 74.4335 71.6445C74.8893 71.4883 75.2929 71.2604 75.6445 70.9609C76.0872 70.5964 76.4583 70.1406 76.7578 69.5938C77.0703 69.0339 77.3176 68.4023 77.4999 67.6992C77.6432 67.1523 77.7473 66.5534 77.8124 65.9023C77.8906 65.2513 77.9296 64.5742 77.9296 63.8711V59.6914Z" fill="black"/>
<path d="M-13.4962 100.562L-13.4766 119.41C-13.4766 120.999 -13.698 122.411 -14.1407 123.648C-14.5704 124.885 -15.1954 125.927 -16.0157 126.773C-16.849 127.633 -17.8646 128.284 -19.0626 128.727C-20.2475 129.169 -21.6016 129.391 -23.1251 129.391C-24.5573 129.391 -25.8529 129.169 -27.0118 128.727C-28.1576 128.284 -29.1407 127.639 -29.961 126.793C-30.7813 125.947 -31.4193 124.905 -31.8751 123.668C-32.3178 122.418 -32.5391 120.999 -32.5391 119.41L-32.5196 100.562H-27.0313L-27.0118 119.41C-26.9988 120.361 -26.9076 121.194 -26.7383 121.91C-26.556 122.626 -26.2891 123.219 -25.9376 123.688C-25.612 124.117 -25.2149 124.443 -24.7462 124.664C-24.2774 124.872 -23.737 124.977 -23.1251 124.977C-22.461 124.977 -21.8751 124.866 -21.3672 124.645C-20.8464 124.41 -20.4167 124.065 -20.0782 123.609C-19.7136 123.141 -19.4402 122.555 -19.2579 121.852C-19.0756 121.148 -18.9779 120.335 -18.9649 119.41L-18.9454 100.562H-13.4962Z" fill="black"/>
<path d="M36.5038 105.035H27.7343V129H22.2265V105.035H13.5742V100.562H36.5038V105.035Z" fill="black"/>
</g>
<defs>
<clipPath id="clip0_121_81">
<rect width="25" height="29" fill="white"/>
</clipPath>
</defs>
</svg>
