<svg width="25" height="29" viewBox="0 0 25 29" fill="none" xmlns="http://www.w3.org/2000/svg">
<g clip-path="url(#clip0_121_135)">
<rect width="25" height="29" fill="white"/>
<path d="M-125 -116H25V58H-125V-116Z" fill="var(--background)"/>
<path fill-rule="evenodd" clip-rule="evenodd" d="M24 -115H-124V57H24V-115ZM-125 -116V58H25V-116H-125Z" fill="black"/>
<path d="M-93.4571 -45.9375H-101.992L-103.672 -40H-109.453L-100.137 -68.4375H-95.1563L-86.0157 -40H-91.7969L-93.4571 -45.9375ZM-100.645 -50.6055H-94.7462L-97.6563 -61.0742L-100.645 -50.6055Z" fill="black"/>
<path d="M-59.4337 -40V-68.4375H-49.8829C-48.3334 -68.4375 -46.9271 -68.2812 -45.6641 -67.9688C-44.3881 -67.6562 -43.3008 -67.181 -42.4024 -66.543C-41.504 -65.9049 -40.8139 -65.0977 -40.3321 -64.1211C-39.8373 -63.1445 -39.5899 -61.9922 -39.5899 -60.6641C-39.6029 -59.8047 -39.7592 -58.9909 -40.0587 -58.2227C-40.3451 -57.4674 -40.7748 -56.8034 -41.3477 -56.2305C-41.6602 -55.918 -42.0183 -55.6315 -42.4219 -55.3711C-42.8126 -55.1107 -43.2488 -54.8893 -43.7305 -54.707V-54.6875C-42.793 -54.4271 -42.0508 -54.0951 -41.504 -53.6914C-40.9441 -53.2878 -40.4753 -52.819 -40.0977 -52.2852C-39.7071 -51.7122 -39.4206 -51.0872 -39.2383 -50.4102C-39.043 -49.7461 -38.9454 -49.056 -38.9454 -48.3398C-38.9454 -46.9727 -39.1797 -45.7682 -39.6485 -44.7266C-40.1172 -43.6849 -40.7878 -42.8125 -41.6602 -42.1094C-42.5326 -41.4062 -43.5938 -40.8789 -44.8438 -40.5273C-46.0938 -40.1758 -47.5001 -40 -49.0626 -40H-59.4337ZM-53.9258 -52.5391V-44.4336H-49.043C-48.3269 -44.4336 -47.6889 -44.5247 -47.129 -44.707C-46.5561 -44.8893 -46.0808 -45.1367 -45.7032 -45.4492C-45.2865 -45.8008 -44.974 -46.224 -44.7657 -46.7188C-44.5443 -47.2135 -44.4337 -47.7669 -44.4337 -48.3789C-44.4337 -49.0169 -44.5183 -49.5898 -44.6876 -50.0977C-44.8438 -50.6055 -45.0977 -51.0352 -45.4493 -51.3867C-45.8008 -51.7513 -46.2566 -52.0312 -46.8165 -52.2266C-47.3764 -52.4219 -48.0404 -52.526 -48.8087 -52.5391H-53.9258ZM-53.9258 -56.5039H-49.8438C-49.0105 -56.5169 -48.2748 -56.6146 -47.6368 -56.7969C-46.9988 -56.9922 -46.4844 -57.2786 -46.0938 -57.6562C-45.7683 -57.9557 -45.5209 -58.3203 -45.3516 -58.75C-45.1693 -59.1797 -45.0782 -59.668 -45.0782 -60.2148C-45.0782 -60.7878 -45.1563 -61.2891 -45.3126 -61.7188C-45.4558 -62.1484 -45.6771 -62.5065 -45.9766 -62.793C-46.3672 -63.1966 -46.8946 -63.4896 -47.5587 -63.6719C-48.2097 -63.8542 -48.9779 -63.9518 -49.8633 -63.9648H-53.9258V-56.5039Z" fill="black"/>
<path d="M8.49603 -52.1289C8.49603 -50.9049 8.38536 -49.7396 8.164 -48.6328C7.94265 -47.5391 7.62364 -46.5234 7.20697 -45.5859C6.76426 -44.6484 6.21739 -43.7891 5.56635 -43.0078C4.9153 -42.2266 4.17312 -41.5755 3.33978 -41.0547C2.58457 -40.599 1.75124 -40.2474 0.839783 -40C-0.0586548 -39.7396 -1.02871 -39.6094 -2.07037 -39.6094C-3.17714 -39.6094 -4.19928 -39.7526 -5.13678 -40.0391C-6.07428 -40.3255 -6.92714 -40.7292 -7.69537 -41.25C-8.45058 -41.7969 -9.12767 -42.4544 -9.72662 -43.2227C-10.3256 -44.0039 -10.8269 -44.8828 -11.2305 -45.8594C-11.5951 -46.7578 -11.8751 -47.7344 -12.0704 -48.7891C-12.2527 -49.8438 -12.3438 -50.957 -12.3438 -52.1289V-56.2695C-12.3438 -57.5195 -12.2396 -58.7044 -12.0313 -59.8242C-11.81 -60.944 -11.4909 -61.9792 -11.0743 -62.9297C-10.6706 -63.8281 -10.1824 -64.6419 -9.60944 -65.3711C-9.0235 -66.1003 -8.35293 -66.7253 -7.59772 -67.2461C-6.85553 -67.7539 -6.0222 -68.1445 -5.09772 -68.418C-4.17324 -68.6914 -3.17063 -68.8281 -2.0899 -68.8281C-0.996155 -68.8281 0.0259807 -68.6849 0.976501 -68.3984C1.94004 -68.125 2.80593 -67.7279 3.57416 -67.207C4.34239 -66.7122 5.01296 -66.1133 5.58588 -65.4102C6.17181 -64.707 6.67312 -63.9323 7.08978 -63.0859C7.54551 -62.1224 7.89056 -61.0677 8.12494 -59.9219C8.37233 -58.776 8.49603 -57.5586 8.49603 -56.2695V-52.1289ZM2.92963 -56.3086C2.92963 -57.0378 2.89056 -57.7279 2.81244 -58.3789C2.74733 -59.043 2.63666 -59.6549 2.48041 -60.2148C2.2851 -60.918 2.02468 -61.543 1.69916 -62.0898C1.37364 -62.6497 0.989522 -63.1055 0.546814 -63.457C0.195251 -63.7174 -0.201884 -63.9193 -0.644592 -64.0625C-1.07428 -64.2057 -1.55605 -64.2773 -2.0899 -64.2773C-2.59772 -64.2773 -3.05996 -64.2122 -3.47662 -64.082C-3.88027 -63.9518 -4.24485 -63.763 -4.57037 -63.5156C-5.01308 -63.151 -5.39069 -62.6953 -5.70319 -62.1484C-6.00267 -61.6016 -6.23704 -60.9635 -6.40631 -60.2344C-6.53652 -59.6745 -6.63418 -59.0625 -6.69928 -58.3984C-6.75136 -57.7344 -6.7774 -57.0378 -6.7774 -56.3086V-52.1289C-6.7774 -51.4388 -6.75136 -50.7747 -6.69928 -50.1367C-6.6472 -49.4987 -6.55605 -48.9062 -6.42584 -48.3594C-6.28261 -47.6693 -6.07428 -47.0378 -5.80084 -46.4648C-5.51438 -45.9049 -5.18235 -45.4492 -4.80475 -45.0977C-4.45319 -44.7852 -4.05605 -44.5443 -3.61334 -44.375C-3.15761 -44.2057 -2.64329 -44.1211 -2.07037 -44.1211C-1.5235 -44.1211 -1.0222 -44.1992 -0.566467 -44.3555C-0.110738 -44.5117 0.292908 -44.7396 0.64447 -45.0391C1.08718 -45.4036 1.45827 -45.8594 1.75775 -46.4062C2.07025 -46.9661 2.31765 -47.5977 2.49994 -48.3008C2.64317 -48.8477 2.74733 -49.4466 2.81244 -50.0977C2.89056 -50.7487 2.92963 -51.4258 2.92963 -52.1289V-56.3086Z" fill="black"/>
<path d="M-88.4962 -15.4375L-88.4766 3.41016C-88.4766 4.9987 -88.698 6.41146 -89.1407 7.64844C-89.5704 8.88542 -90.1954 9.92708 -91.0157 10.7734C-91.849 11.6328 -92.8646 12.2839 -94.0626 12.7266C-95.2475 13.1693 -96.6016 13.3906 -98.1251 13.3906C-99.5573 13.3906 -100.853 13.1693 -102.012 12.7266C-103.158 12.2839 -104.141 11.6393 -104.961 10.793C-105.781 9.94661 -106.419 8.90495 -106.875 7.66797C-107.318 6.41797 -107.539 4.9987 -107.539 3.41016L-107.52 -15.4375H-102.031L-102.012 3.41016C-101.999 4.36068 -101.908 5.19401 -101.738 5.91016C-101.556 6.6263 -101.289 7.21875 -100.938 7.6875C-100.612 8.11719 -100.215 8.44271 -99.7462 8.66406C-99.2774 8.8724 -98.737 8.97656 -98.1251 8.97656C-97.461 8.97656 -96.8751 8.86589 -96.3672 8.64453C-95.8464 8.41016 -95.4167 8.0651 -95.0782 7.60938C-94.7136 7.14062 -94.4402 6.55469 -94.2579 5.85156C-94.0756 5.14844 -93.9779 4.33464 -93.9649 3.41016L-93.9454 -15.4375H-88.4962Z" fill="black"/>
<path d="M-38.4962 -10.9648H-47.2657V13H-52.7735V-10.9648H-61.4258V-15.4375H-38.4962V-10.9648Z" fill="black"/>
</g>
<defs>
<clipPath id="clip0_121_135">
<rect width="25" height="29" fill="white"/>
</clipPath>
</defs>
</svg>
