<svg width="25" height="29" viewBox="0 0 25 29" fill="none" xmlns="http://www.w3.org/2000/svg">
<g clip-path="url(#clip0_121_137)">
<rect width="25" height="29" fill="white"/>
<path d="M0 -145H150V29H0V-145Z" fill="var(--background)"/>
<path fill-rule="evenodd" clip-rule="evenodd" d="M149 -144H1V28H149V-144ZM0 -145V29H150V-145H0Z" fill="black"/>
<path d="M31.5429 -74.9375H23.0078L21.3281 -69H15.5468L24.8632 -97.4375H29.8437L38.9843 -69H33.2031L31.5429 -74.9375ZM24.3554 -79.6055H30.2538L27.3437 -90.0742L24.3554 -79.6055Z" fill="black"/>
<path d="M65.5663 -69V-97.4375H75.1171C76.6666 -97.4375 78.0729 -97.2812 79.3359 -96.9688C80.6119 -96.6562 81.6992 -96.181 82.5976 -95.543C83.496 -94.9049 84.1861 -94.0977 84.6679 -93.1211C85.1627 -92.1445 85.4101 -90.9922 85.4101 -89.6641C85.3971 -88.8047 85.2408 -87.9909 84.9413 -87.2227C84.6549 -86.4674 84.2252 -85.8034 83.6523 -85.2305C83.3398 -84.918 82.9817 -84.6315 82.5781 -84.3711C82.1874 -84.1107 81.7512 -83.8893 81.2695 -83.707V-83.6875C82.207 -83.4271 82.9492 -83.0951 83.496 -82.6914C84.0559 -82.2878 84.5247 -81.819 84.9023 -81.2852C85.2929 -80.7122 85.5794 -80.0872 85.7617 -79.4102C85.957 -78.7461 86.0546 -78.056 86.0546 -77.3398C86.0546 -75.9727 85.8203 -74.7682 85.3515 -73.7266C84.8828 -72.6849 84.2122 -71.8125 83.3398 -71.1094C82.4674 -70.4062 81.4062 -69.8789 80.1562 -69.5273C78.9062 -69.1758 77.4999 -69 75.9374 -69H65.5663ZM71.0742 -81.5391V-73.4336H75.957C76.6731 -73.4336 77.3111 -73.5247 77.871 -73.707C78.4439 -73.8893 78.9192 -74.1367 79.2968 -74.4492C79.7135 -74.8008 80.026 -75.224 80.2343 -75.7188C80.4557 -76.2135 80.5663 -76.7669 80.5663 -77.3789C80.5663 -78.0169 80.4817 -78.5898 80.3124 -79.0977C80.1562 -79.6055 79.9023 -80.0352 79.5507 -80.3867C79.1992 -80.7513 78.7434 -81.0312 78.1835 -81.2266C77.6236 -81.4219 76.9596 -81.526 76.1913 -81.5391H71.0742ZM71.0742 -85.5039H75.1562C75.9895 -85.5169 76.7252 -85.6146 77.3632 -85.7969C78.0012 -85.9922 78.5156 -86.2786 78.9062 -86.6562C79.2317 -86.9557 79.4791 -87.3203 79.6484 -87.75C79.8307 -88.1797 79.9218 -88.668 79.9218 -89.2148C79.9218 -89.7878 79.8437 -90.2891 79.6874 -90.7188C79.5442 -91.1484 79.3229 -91.5065 79.0234 -91.793C78.6328 -92.1966 78.1054 -92.4896 77.4413 -92.6719C76.7903 -92.8542 76.0221 -92.9518 75.1367 -92.9648H71.0742V-85.5039Z" fill="black"/>
<path d="M133.496 -81.1289C133.496 -79.9049 133.385 -78.7396 133.164 -77.6328C132.943 -76.5391 132.624 -75.5234 132.207 -74.5859C131.764 -73.6484 131.217 -72.7891 130.566 -72.0078C129.915 -71.2266 129.173 -70.5755 128.34 -70.0547C127.585 -69.599 126.751 -69.2474 125.84 -69C124.941 -68.7396 123.971 -68.6094 122.93 -68.6094C121.823 -68.6094 120.801 -68.7526 119.863 -69.0391C118.926 -69.3255 118.073 -69.7292 117.305 -70.25C116.549 -70.7969 115.872 -71.4544 115.273 -72.2227C114.674 -73.0039 114.173 -73.8828 113.769 -74.8594C113.405 -75.7578 113.125 -76.7344 112.93 -77.7891C112.747 -78.8438 112.656 -79.957 112.656 -81.1289V-85.2695C112.656 -86.5195 112.76 -87.7044 112.969 -88.8242C113.19 -89.944 113.509 -90.9792 113.926 -91.9297C114.329 -92.8281 114.818 -93.6419 115.391 -94.3711C115.977 -95.1003 116.647 -95.7253 117.402 -96.2461C118.144 -96.7539 118.978 -97.1445 119.902 -97.418C120.827 -97.6914 121.829 -97.8281 122.91 -97.8281C124.004 -97.8281 125.026 -97.6849 125.977 -97.3984C126.94 -97.125 127.806 -96.7279 128.574 -96.207C129.342 -95.7122 130.013 -95.1133 130.586 -94.4102C131.172 -93.707 131.673 -92.9323 132.09 -92.0859C132.546 -91.1224 132.891 -90.0677 133.125 -88.9219C133.372 -87.776 133.496 -86.5586 133.496 -85.2695V-81.1289ZM127.93 -85.3086C127.93 -86.0378 127.891 -86.7279 127.812 -87.3789C127.747 -88.043 127.637 -88.6549 127.48 -89.2148C127.285 -89.918 127.025 -90.543 126.699 -91.0898C126.374 -91.6497 125.99 -92.1055 125.547 -92.457C125.195 -92.7174 124.798 -92.9193 124.355 -93.0625C123.926 -93.2057 123.444 -93.2773 122.91 -93.2773C122.402 -93.2773 121.94 -93.2122 121.523 -93.082C121.12 -92.9518 120.755 -92.763 120.43 -92.5156C119.987 -92.151 119.609 -91.6953 119.297 -91.1484C118.997 -90.6016 118.763 -89.9635 118.594 -89.2344C118.463 -88.6745 118.366 -88.0625 118.301 -87.3984C118.249 -86.7344 118.223 -86.0378 118.223 -85.3086V-81.1289C118.223 -80.4388 118.249 -79.7747 118.301 -79.1367C118.353 -78.4987 118.444 -77.9062 118.574 -77.3594C118.717 -76.6693 118.926 -76.0378 119.199 -75.4648C119.486 -74.9049 119.818 -74.4492 120.195 -74.0977C120.547 -73.7852 120.944 -73.5443 121.387 -73.375C121.842 -73.2057 122.357 -73.1211 122.93 -73.1211C123.477 -73.1211 123.978 -73.1992 124.434 -73.3555C124.889 -73.5117 125.293 -73.7396 125.644 -74.0391C126.087 -74.4036 126.458 -74.8594 126.758 -75.4062C127.07 -75.9661 127.318 -76.5977 127.5 -77.3008C127.643 -77.8477 127.747 -78.4466 127.812 -79.0977C127.891 -79.7487 127.93 -80.4258 127.93 -81.1289V-85.3086Z" fill="black"/>
<path d="M36.5038 -44.4375L36.5234 -25.5898C36.5234 -24.0013 36.302 -22.5885 35.8593 -21.3516C35.4296 -20.1146 34.8046 -19.0729 33.9843 -18.2266C33.151 -17.3672 32.1354 -16.7161 30.9374 -16.2734C29.7525 -15.8307 28.3984 -15.6094 26.8749 -15.6094C25.4427 -15.6094 24.1471 -15.8307 22.9882 -16.2734C21.8424 -16.7161 20.8593 -17.3607 20.039 -18.207C19.2187 -19.0534 18.5807 -20.0951 18.1249 -21.332C17.6822 -22.582 17.4609 -24.0013 17.4609 -25.5898L17.4804 -44.4375H22.9687L22.9882 -25.5898C23.0012 -24.6393 23.0924 -23.806 23.2617 -23.0898C23.444 -22.3737 23.7109 -21.7812 24.0624 -21.3125C24.388 -20.8828 24.7851 -20.5573 25.2538 -20.3359C25.7226 -20.1276 26.263 -20.0234 26.8749 -20.0234C27.539 -20.0234 28.1249 -20.1341 28.6328 -20.3555C29.1536 -20.5898 29.5833 -20.9349 29.9218 -21.3906C30.2864 -21.8594 30.5598 -22.4453 30.7421 -23.1484C30.9244 -23.8516 31.0221 -24.6654 31.0351 -25.5898L31.0546 -44.4375H36.5038Z" fill="black"/>
<path d="M86.5038 -39.9648H77.7343V-16H72.2265V-39.9648H63.5742V-44.4375H86.5038V-39.9648Z" fill="black"/>
</g>
<defs>
<clipPath id="clip0_121_137">
<rect width="25" height="29" fill="white"/>
</clipPath>
</defs>
</svg>
