<svg width="25" height="29" viewBox="0 0 25 29" fill="none" xmlns="http://www.w3.org/2000/svg">
<g clip-path="url(#clip0_121_139)">
<rect width="25" height="29" fill="white"/>
<path d="M-25 -145H125V29H-25V-145Z" fill="#E3E3E3"/>
<path fill-rule="evenodd" clip-rule="evenodd" d="M124 -144H-24V28H124V-144ZM-25 -145V29H125V-145H-25Z" fill="black"/>
<path d="M6.54291 -74.9375H-1.99224L-3.67193 -69H-9.45318L-0.136776 -97.4375H4.84369L13.9843 -69H8.20307L6.54291 -74.9375ZM-0.644588 -79.6055H5.25385L2.34369 -90.0742L-0.644588 -79.6055Z" fill="black"/>
<path d="M40.5663 -69V-97.4375H50.1171C51.6666 -97.4375 53.0729 -97.2812 54.3359 -96.9688C55.6119 -96.6562 56.6992 -96.181 57.5976 -95.543C58.496 -94.9049 59.1861 -94.0977 59.6679 -93.1211C60.1627 -92.1445 60.4101 -90.9922 60.4101 -89.6641C60.3971 -88.8047 60.2408 -87.9909 59.9413 -87.2227C59.6549 -86.4674 59.2252 -85.8034 58.6523 -85.2305C58.3398 -84.918 57.9817 -84.6315 57.5781 -84.3711C57.1874 -84.1107 56.7512 -83.8893 56.2695 -83.707V-83.6875C57.207 -83.4271 57.9492 -83.0951 58.496 -82.6914C59.0559 -82.2878 59.5247 -81.819 59.9023 -81.2852C60.2929 -80.7122 60.5794 -80.0872 60.7617 -79.4102C60.957 -78.7461 61.0546 -78.056 61.0546 -77.3398C61.0546 -75.9727 60.8203 -74.7682 60.3515 -73.7266C59.8828 -72.6849 59.2122 -71.8125 58.3398 -71.1094C57.4674 -70.4062 56.4062 -69.8789 55.1562 -69.5273C53.9062 -69.1758 52.4999 -69 50.9374 -69H40.5663ZM46.0742 -81.5391V-73.4336H50.957C51.6731 -73.4336 52.3111 -73.5247 52.871 -73.707C53.4439 -73.8893 53.9192 -74.1367 54.2968 -74.4492C54.7135 -74.8008 55.026 -75.224 55.2343 -75.7188C55.4557 -76.2135 55.5663 -76.7669 55.5663 -77.3789C55.5663 -78.0169 55.4817 -78.5898 55.3124 -79.0977C55.1562 -79.6055 54.9023 -80.0352 54.5507 -80.3867C54.1992 -80.7513 53.7434 -81.0312 53.1835 -81.2266C52.6236 -81.4219 51.9596 -81.526 51.1913 -81.5391H46.0742ZM46.0742 -85.5039H50.1562C50.9895 -85.5169 51.7252 -85.6146 52.3632 -85.7969C53.0012 -85.9922 53.5156 -86.2786 53.9062 -86.6562C54.2317 -86.9557 54.4791 -87.3203 54.6484 -87.75C54.8307 -88.1797 54.9218 -88.668 54.9218 -89.2148C54.9218 -89.7878 54.8437 -90.2891 54.6874 -90.7188C54.5442 -91.1484 54.3229 -91.5065 54.0234 -91.793C53.6328 -92.1966 53.1054 -92.4896 52.4413 -92.6719C51.7903 -92.8542 51.0221 -92.9518 50.1367 -92.9648H46.0742V-85.5039Z" fill="black"/>
<path d="M108.496 -81.1289C108.496 -79.9049 108.385 -78.7396 108.164 -77.6328C107.943 -76.5391 107.624 -75.5234 107.207 -74.5859C106.764 -73.6484 106.217 -72.7891 105.566 -72.0078C104.915 -71.2266 104.173 -70.5755 103.34 -70.0547C102.585 -69.599 101.751 -69.2474 100.84 -69C99.9413 -68.7396 98.9713 -68.6094 97.9296 -68.6094C96.8229 -68.6094 95.8007 -68.7526 94.8632 -69.0391C93.9257 -69.3255 93.0729 -69.7292 92.3046 -70.25C91.5494 -70.7969 90.8723 -71.4544 90.2734 -72.2227C89.6744 -73.0039 89.1731 -73.8828 88.7695 -74.8594C88.4049 -75.7578 88.1249 -76.7344 87.9296 -77.7891C87.7473 -78.8438 87.6562 -79.957 87.6562 -81.1289V-85.2695C87.6562 -86.5195 87.7604 -87.7044 87.9687 -88.8242C88.19 -89.944 88.5091 -90.9792 88.9257 -91.9297C89.3294 -92.8281 89.8176 -93.6419 90.3906 -94.3711C90.9765 -95.1003 91.6471 -95.7253 92.4023 -96.2461C93.1445 -96.7539 93.9778 -97.1445 94.9023 -97.418C95.8268 -97.6914 96.8294 -97.8281 97.9101 -97.8281C99.0038 -97.8281 100.026 -97.6849 100.977 -97.3984C101.94 -97.125 102.806 -96.7279 103.574 -96.207C104.342 -95.7122 105.013 -95.1133 105.586 -94.4102C106.172 -93.707 106.673 -92.9323 107.09 -92.0859C107.546 -91.1224 107.891 -90.0677 108.125 -88.9219C108.372 -87.776 108.496 -86.5586 108.496 -85.2695V-81.1289ZM102.93 -85.3086C102.93 -86.0378 102.891 -86.7279 102.812 -87.3789C102.747 -88.043 102.637 -88.6549 102.48 -89.2148C102.285 -89.918 102.025 -90.543 101.699 -91.0898C101.374 -91.6497 100.99 -92.1055 100.547 -92.457C100.195 -92.7174 99.7981 -92.9193 99.3554 -93.0625C98.9257 -93.2057 98.4439 -93.2773 97.9101 -93.2773C97.4023 -93.2773 96.94 -93.2122 96.5234 -93.082C96.1197 -92.9518 95.7551 -92.763 95.4296 -92.5156C94.9869 -92.151 94.6093 -91.6953 94.2968 -91.1484C93.9973 -90.6016 93.763 -89.9635 93.5937 -89.2344C93.4635 -88.6745 93.3658 -88.0625 93.3007 -87.3984C93.2486 -86.7344 93.2226 -86.0378 93.2226 -85.3086V-81.1289C93.2226 -80.4388 93.2486 -79.7747 93.3007 -79.1367C93.3528 -78.4987 93.4439 -77.9062 93.5742 -77.3594C93.7174 -76.6693 93.9257 -76.0378 94.1992 -75.4648C94.4856 -74.9049 94.8176 -74.4492 95.1953 -74.0977C95.5468 -73.7852 95.9439 -73.5443 96.3867 -73.375C96.8424 -73.2057 97.3567 -73.1211 97.9296 -73.1211C98.4765 -73.1211 98.9778 -73.1992 99.4335 -73.3555C99.8893 -73.5117 100.293 -73.7396 100.644 -74.0391C101.087 -74.4036 101.458 -74.8594 101.758 -75.4062C102.07 -75.9661 102.318 -76.5977 102.5 -77.3008C102.643 -77.8477 102.747 -78.4466 102.812 -79.0977C102.891 -79.7487 102.93 -80.4258 102.93 -81.1289V-85.3086Z" fill="black"/>
<path d="M11.5038 -44.4375L11.5234 -25.5898C11.5234 -24.0013 11.302 -22.5885 10.8593 -21.3516C10.4296 -20.1146 9.80463 -19.0729 8.98432 -18.2266C8.15098 -17.3672 7.13536 -16.7161 5.93744 -16.2734C4.75255 -15.8307 3.39838 -15.6094 1.87494 -15.6094C0.442651 -15.6094 -0.852922 -15.8307 -2.01178 -16.2734C-3.15761 -16.7161 -4.14068 -17.3607 -4.96099 -18.207C-5.78131 -19.0534 -6.41933 -20.0951 -6.87506 -21.332C-7.31777 -22.582 -7.53912 -24.0013 -7.53912 -25.5898L-7.51959 -44.4375H-2.03131L-2.01178 -25.5898C-1.99876 -24.6393 -1.90761 -23.806 -1.73834 -23.0898C-1.55605 -22.3737 -1.28912 -21.7812 -0.937557 -21.3125C-0.612036 -20.8828 -0.214901 -20.5573 0.253849 -20.3359C0.722599 -20.1276 1.26296 -20.0234 1.87494 -20.0234C2.53901 -20.0234 3.12494 -20.1341 3.63276 -20.3555C4.15359 -20.5898 4.58328 -20.9349 4.92182 -21.3906C5.2864 -21.8594 5.55984 -22.4453 5.74213 -23.1484C5.92442 -23.8516 6.02208 -24.6654 6.0351 -25.5898L6.05463 -44.4375H11.5038Z" fill="black"/>
<path d="M61.5038 -39.9648H52.7343V-16H47.2265V-39.9648H38.5742V-44.4375H61.5038V-39.9648Z" fill="black"/>
</g>
<defs>
<clipPath id="clip0_121_139">
<rect width="25" height="29" fill="white"/>
</clipPath>
</defs>
</svg>
