<svg width="25" height="29" viewBox="0 0 25 29" fill="none" xmlns="http://www.w3.org/2000/svg">
<g clip-path="url(#clip0_121_141)">
<rect width="25" height="29" fill="white"/>
<path d="M-50 -145H100V29H-50V-145Z" fill="var(--background)"/>
<path fill-rule="evenodd" clip-rule="evenodd" d="M99 -144H-49V28H99V-144ZM-50 -145V29H100V-145H-50Z" fill="black"/>
<path d="M-18.4571 -74.9375H-26.9922L-28.6719 -69H-34.4532L-25.1368 -97.4375H-20.1563L-11.0157 -69H-16.7969L-18.4571 -74.9375ZM-25.6446 -79.6055H-19.7462L-22.6563 -90.0742L-25.6446 -79.6055Z" fill="black"/>
<path d="M15.5663 -69V-97.4375H25.1171C26.6666 -97.4375 28.0729 -97.2812 29.3359 -96.9688C30.6119 -96.6562 31.6992 -96.181 32.5976 -95.543C33.496 -94.9049 34.1861 -94.0977 34.6679 -93.1211C35.1627 -92.1445 35.4101 -90.9922 35.4101 -89.6641C35.3971 -88.8047 35.2408 -87.9909 34.9413 -87.2227C34.6549 -86.4674 34.2252 -85.8034 33.6523 -85.2305C33.3398 -84.918 32.9817 -84.6315 32.5781 -84.3711C32.1874 -84.1107 31.7512 -83.8893 31.2695 -83.707V-83.6875C32.207 -83.4271 32.9492 -83.0951 33.496 -82.6914C34.0559 -82.2878 34.5247 -81.819 34.9023 -81.2852C35.2929 -80.7122 35.5794 -80.0872 35.7617 -79.4102C35.957 -78.7461 36.0546 -78.056 36.0546 -77.3398C36.0546 -75.9727 35.8203 -74.7682 35.3515 -73.7266C34.8828 -72.6849 34.2122 -71.8125 33.3398 -71.1094C32.4674 -70.4062 31.4062 -69.8789 30.1562 -69.5273C28.9062 -69.1758 27.4999 -69 25.9374 -69H15.5663ZM21.0742 -81.5391V-73.4336H25.957C26.6731 -73.4336 27.3111 -73.5247 27.871 -73.707C28.4439 -73.8893 28.9192 -74.1367 29.2968 -74.4492C29.7135 -74.8008 30.026 -75.224 30.2343 -75.7188C30.4557 -76.2135 30.5663 -76.7669 30.5663 -77.3789C30.5663 -78.0169 30.4817 -78.5898 30.3124 -79.0977C30.1562 -79.6055 29.9023 -80.0352 29.5507 -80.3867C29.1992 -80.7513 28.7434 -81.0312 28.1835 -81.2266C27.6236 -81.4219 26.9596 -81.526 26.1913 -81.5391H21.0742ZM21.0742 -85.5039H25.1562C25.9895 -85.5169 26.7252 -85.6146 27.3632 -85.7969C28.0012 -85.9922 28.5156 -86.2786 28.9062 -86.6562C29.2317 -86.9557 29.4791 -87.3203 29.6484 -87.75C29.8307 -88.1797 29.9218 -88.668 29.9218 -89.2148C29.9218 -89.7878 29.8437 -90.2891 29.6874 -90.7188C29.5442 -91.1484 29.3229 -91.5065 29.0234 -91.793C28.6328 -92.1966 28.1054 -92.4896 27.4413 -92.6719C26.7903 -92.8542 26.0221 -92.9518 25.1367 -92.9648H21.0742V-85.5039Z" fill="black"/>
<path d="M83.496 -81.1289C83.496 -79.9049 83.3854 -78.7396 83.164 -77.6328C82.9426 -76.5391 82.6236 -75.5234 82.207 -74.5859C81.7643 -73.6484 81.2174 -72.7891 80.5663 -72.0078C79.9153 -71.2266 79.1731 -70.5755 78.3398 -70.0547C77.5846 -69.599 76.7512 -69.2474 75.8398 -69C74.9413 -68.7396 73.9713 -68.6094 72.9296 -68.6094C71.8229 -68.6094 70.8007 -68.7526 69.8632 -69.0391C68.9257 -69.3255 68.0729 -69.7292 67.3046 -70.25C66.5494 -70.7969 65.8723 -71.4544 65.2734 -72.2227C64.6744 -73.0039 64.1731 -73.8828 63.7695 -74.8594C63.4049 -75.7578 63.1249 -76.7344 62.9296 -77.7891C62.7473 -78.8438 62.6562 -79.957 62.6562 -81.1289V-85.2695C62.6562 -86.5195 62.7604 -87.7044 62.9687 -88.8242C63.19 -89.944 63.5091 -90.9792 63.9257 -91.9297C64.3294 -92.8281 64.8176 -93.6419 65.3906 -94.3711C65.9765 -95.1003 66.6471 -95.7253 67.4023 -96.2461C68.1445 -96.7539 68.9778 -97.1445 69.9023 -97.418C70.8268 -97.6914 71.8294 -97.8281 72.9101 -97.8281C74.0038 -97.8281 75.026 -97.6849 75.9765 -97.3984C76.94 -97.125 77.8059 -96.7279 78.5742 -96.207C79.3424 -95.7122 80.013 -95.1133 80.5859 -94.4102C81.1718 -93.707 81.6731 -92.9323 82.0898 -92.0859C82.5455 -91.1224 82.8906 -90.0677 83.1249 -88.9219C83.3723 -87.776 83.496 -86.5586 83.496 -85.2695V-81.1289ZM77.9296 -85.3086C77.9296 -86.0378 77.8906 -86.7279 77.8124 -87.3789C77.7473 -88.043 77.6367 -88.6549 77.4804 -89.2148C77.2851 -89.918 77.0247 -90.543 76.6992 -91.0898C76.3736 -91.6497 75.9895 -92.1055 75.5468 -92.457C75.1953 -92.7174 74.7981 -92.9193 74.3554 -93.0625C73.9257 -93.2057 73.4439 -93.2773 72.9101 -93.2773C72.4023 -93.2773 71.94 -93.2122 71.5234 -93.082C71.1197 -92.9518 70.7551 -92.763 70.4296 -92.5156C69.9869 -92.151 69.6093 -91.6953 69.2968 -91.1484C68.9973 -90.6016 68.763 -89.9635 68.5937 -89.2344C68.4635 -88.6745 68.3658 -88.0625 68.3007 -87.3984C68.2486 -86.7344 68.2226 -86.0378 68.2226 -85.3086V-81.1289C68.2226 -80.4388 68.2486 -79.7747 68.3007 -79.1367C68.3528 -78.4987 68.4439 -77.9062 68.5742 -77.3594C68.7174 -76.6693 68.9257 -76.0378 69.1992 -75.4648C69.4856 -74.9049 69.8176 -74.4492 70.1953 -74.0977C70.5468 -73.7852 70.9439 -73.5443 71.3867 -73.375C71.8424 -73.2057 72.3567 -73.1211 72.9296 -73.1211C73.4765 -73.1211 73.9778 -73.1992 74.4335 -73.3555C74.8893 -73.5117 75.2929 -73.7396 75.6445 -74.0391C76.0872 -74.4036 76.4583 -74.8594 76.7578 -75.4062C77.0703 -75.9661 77.3176 -76.5977 77.4999 -77.3008C77.6432 -77.8477 77.7473 -78.4466 77.8124 -79.0977C77.8906 -79.7487 77.9296 -80.4258 77.9296 -81.1289V-85.3086Z" fill="black"/>
<path d="M-13.4962 -44.4375L-13.4766 -25.5898C-13.4766 -24.0013 -13.698 -22.5885 -14.1407 -21.3516C-14.5704 -20.1146 -15.1954 -19.0729 -16.0157 -18.2266C-16.849 -17.3672 -17.8646 -16.7161 -19.0626 -16.2734C-20.2475 -15.8307 -21.6016 -15.6094 -23.1251 -15.6094C-24.5573 -15.6094 -25.8529 -15.8307 -27.0118 -16.2734C-28.1576 -16.7161 -29.1407 -17.3607 -29.961 -18.207C-30.7813 -19.0534 -31.4193 -20.0951 -31.8751 -21.332C-32.3178 -22.582 -32.5391 -24.0013 -32.5391 -25.5898L-32.5196 -44.4375H-27.0313L-27.0118 -25.5898C-26.9988 -24.6393 -26.9076 -23.806 -26.7383 -23.0898C-26.556 -22.3737 -26.2891 -21.7812 -25.9376 -21.3125C-25.612 -20.8828 -25.2149 -20.5573 -24.7462 -20.3359C-24.2774 -20.1276 -23.737 -20.0234 -23.1251 -20.0234C-22.461 -20.0234 -21.8751 -20.1341 -21.3672 -20.3555C-20.8464 -20.5898 -20.4167 -20.9349 -20.0782 -21.3906C-19.7136 -21.8594 -19.4402 -22.4453 -19.2579 -23.1484C-19.0756 -23.8516 -18.9779 -24.6654 -18.9649 -25.5898L-18.9454 -44.4375H-13.4962Z" fill="black"/>
<path d="M36.5038 -39.9648H27.7343V-16H22.2265V-39.9648H13.5742V-44.4375H36.5038V-39.9648Z" fill="black"/>
</g>
<defs>
<clipPath id="clip0_121_141">
<rect width="25" height="29" fill="white"/>
</clipPath>
</defs>
</svg>
