<svg width="25" height="29" viewBox="0 0 25 29" fill="none" xmlns="http://www.w3.org/2000/svg">
<g clip-path="url(#clip0_121_143)">
<rect width="25" height="29" fill="white"/>
<path d="M-75 -145H75V29H-75V-145Z" fill="var(--background)"/>
<path fill-rule="evenodd" clip-rule="evenodd" d="M74 -144H-74V28H74V-144ZM-75 -145V29H75V-145H-75Z" fill="black"/>
<path d="M-43.4571 -74.9375H-51.9923L-53.6719 -69H-59.4532L-50.1368 -97.4375H-45.1563L-36.0157 -69H-41.7969L-43.4571 -74.9375ZM-50.6446 -79.6055H-44.7462L-47.6563 -90.0742L-50.6446 -79.6055Z" fill="black"/>
<path d="M-9.43367 -69V-97.4375H0.117111C1.66659 -97.4375 3.07284 -97.2812 4.33586 -96.9688C5.6119 -96.6562 6.69914 -96.181 7.59758 -95.543C8.49602 -94.9049 9.18612 -94.0977 9.66789 -93.1211C10.1627 -92.1445 10.4101 -90.9922 10.4101 -89.6641C10.3971 -88.8047 10.2408 -87.9909 9.94133 -87.2227C9.65487 -86.4674 9.22518 -85.8034 8.65227 -85.2305C8.33977 -84.918 7.98169 -84.6315 7.57805 -84.3711C7.18742 -84.1107 6.75123 -83.8893 6.26945 -83.707V-83.6875C7.20695 -83.4271 7.94914 -83.0951 8.49602 -82.6914C9.05591 -82.2878 9.52466 -81.819 9.90227 -81.2852C10.2929 -80.7122 10.5794 -80.0872 10.7616 -79.4102C10.957 -78.7461 11.0546 -78.056 11.0546 -77.3398C11.0546 -75.9727 10.8202 -74.7682 10.3515 -73.7266C9.88274 -72.6849 9.21216 -71.8125 8.33977 -71.1094C7.46737 -70.4062 6.40617 -69.8789 5.15617 -69.5273C3.90617 -69.1758 2.49992 -69 0.937424 -69H-9.43367ZM-3.92586 -81.5391V-73.4336H0.956955C1.6731 -73.4336 2.31112 -73.5247 2.87102 -73.707C3.44393 -73.8893 3.91919 -74.1367 4.2968 -74.4492C4.71347 -74.8008 5.02597 -75.224 5.2343 -75.7188C5.45565 -76.2135 5.56633 -76.7669 5.56633 -77.3789C5.56633 -78.0169 5.48169 -78.5898 5.31242 -79.0977C5.15617 -79.6055 4.90227 -80.0352 4.5507 -80.3867C4.19914 -80.7513 3.74341 -81.0312 3.18352 -81.2266C2.62362 -81.4219 1.95956 -81.526 1.19133 -81.5391H-3.92586ZM-3.92586 -85.5039H0.156174C0.989507 -85.5169 1.72518 -85.6146 2.3632 -85.7969C3.00123 -85.9922 3.51555 -86.2786 3.90617 -86.6562C4.23169 -86.9557 4.47909 -87.3203 4.64836 -87.75C4.83065 -88.1797 4.9218 -88.668 4.9218 -89.2148C4.9218 -89.7878 4.84367 -90.2891 4.68742 -90.7188C4.54419 -91.1484 4.32284 -91.5065 4.02336 -91.793C3.63274 -92.1966 3.10539 -92.4896 2.44133 -92.6719C1.79029 -92.8542 1.02206 -92.9518 0.136642 -92.9648H-3.92586V-85.5039Z" fill="black"/>
<path d="M58.496 -81.1289C58.496 -79.9049 58.3853 -78.7396 58.164 -77.6328C57.9426 -76.5391 57.6236 -75.5234 57.207 -74.5859C56.7642 -73.6484 56.2174 -72.7891 55.5663 -72.0078C54.9153 -71.2266 54.1731 -70.5755 53.3398 -70.0547C52.5846 -69.599 51.7512 -69.2474 50.8398 -69C49.9413 -68.7396 48.9713 -68.6094 47.9296 -68.6094C46.8228 -68.6094 45.8007 -68.7526 44.8632 -69.0391C43.9257 -69.3255 43.0728 -69.7292 42.3046 -70.25C41.5494 -70.7969 40.8723 -71.4544 40.2734 -72.2227C39.6744 -73.0039 39.1731 -73.8828 38.7695 -74.8594C38.4049 -75.7578 38.1249 -76.7344 37.9296 -77.7891C37.7473 -78.8438 37.6562 -79.957 37.6562 -81.1289V-85.2695C37.6562 -86.5195 37.7603 -87.7044 37.9687 -88.8242C38.19 -89.944 38.509 -90.9792 38.9257 -91.9297C39.3294 -92.8281 39.8176 -93.6419 40.3905 -94.3711C40.9765 -95.1003 41.6471 -95.7253 42.4023 -96.2461C43.1445 -96.7539 43.9778 -97.1445 44.9023 -97.418C45.8267 -97.6914 46.8294 -97.8281 47.9101 -97.8281C49.0038 -97.8281 50.026 -97.6849 50.9765 -97.3984C51.94 -97.125 52.8059 -96.7279 53.5741 -96.207C54.3424 -95.7122 55.0129 -95.1133 55.5859 -94.4102C56.1718 -93.707 56.6731 -92.9323 57.0898 -92.0859C57.5455 -91.1224 57.8905 -90.0677 58.1249 -88.9219C58.3723 -87.776 58.496 -86.5586 58.496 -85.2695V-81.1289ZM52.9296 -85.3086C52.9296 -86.0378 52.8905 -86.7279 52.8124 -87.3789C52.7473 -88.043 52.6366 -88.6549 52.4804 -89.2148C52.2851 -89.918 52.0247 -90.543 51.6991 -91.0898C51.3736 -91.6497 50.9895 -92.1055 50.5468 -92.457C50.1952 -92.7174 49.7981 -92.9193 49.3554 -93.0625C48.9257 -93.2057 48.4439 -93.2773 47.9101 -93.2773C47.4023 -93.2773 46.94 -93.2122 46.5234 -93.082C46.1197 -92.9518 45.7551 -92.763 45.4296 -92.5156C44.9869 -92.151 44.6093 -91.6953 44.2968 -91.1484C43.9973 -90.6016 43.7629 -89.9635 43.5937 -89.2344C43.4635 -88.6745 43.3658 -88.0625 43.3007 -87.3984C43.2486 -86.7344 43.2226 -86.0378 43.2226 -85.3086V-81.1289C43.2226 -80.4388 43.2486 -79.7747 43.3007 -79.1367C43.3528 -78.4987 43.4439 -77.9062 43.5741 -77.3594C43.7174 -76.6693 43.9257 -76.0378 44.1991 -75.4648C44.4856 -74.9049 44.8176 -74.4492 45.1952 -74.0977C45.5468 -73.7852 45.9439 -73.5443 46.3866 -73.375C46.8424 -73.2057 47.3567 -73.1211 47.9296 -73.1211C48.4765 -73.1211 48.9778 -73.1992 49.4335 -73.3555C49.8892 -73.5117 50.2929 -73.7396 50.6445 -74.0391C51.0872 -74.4036 51.4583 -74.8594 51.7577 -75.4062C52.0702 -75.9661 52.3176 -76.5977 52.4999 -77.3008C52.6432 -77.8477 52.7473 -78.4466 52.8124 -79.0977C52.8905 -79.7487 52.9296 -80.4258 52.9296 -81.1289V-85.3086Z" fill="black"/>
<path d="M-38.4962 -44.4375L-38.4766 -25.5898C-38.4766 -24.0013 -38.698 -22.5885 -39.1407 -21.3516C-39.5704 -20.1146 -40.1954 -19.0729 -41.0157 -18.2266C-41.849 -17.3672 -42.8647 -16.7161 -44.0626 -16.2734C-45.2475 -15.8307 -46.6016 -15.6094 -48.1251 -15.6094C-49.5574 -15.6094 -50.8529 -15.8307 -52.0118 -16.2734C-53.1576 -16.7161 -54.1407 -17.3607 -54.961 -18.207C-55.7813 -19.0534 -56.4193 -20.0951 -56.8751 -21.332C-57.3178 -22.582 -57.5391 -24.0013 -57.5391 -25.5898L-57.5196 -44.4375H-52.0313L-52.0118 -25.5898C-51.9988 -24.6393 -51.9076 -23.806 -51.7384 -23.0898C-51.5561 -22.3737 -51.2891 -21.7812 -50.9376 -21.3125C-50.6121 -20.8828 -50.2149 -20.5573 -49.7462 -20.3359C-49.2774 -20.1276 -48.7371 -20.0234 -48.1251 -20.0234C-47.461 -20.0234 -46.8751 -20.1341 -46.3673 -20.3555C-45.8464 -20.5898 -45.4167 -20.9349 -45.0782 -21.3906C-44.7136 -21.8594 -44.4402 -22.4453 -44.2579 -23.1484C-44.0756 -23.8516 -43.9779 -24.6654 -43.9649 -25.5898L-43.9454 -44.4375H-38.4962Z" fill="black"/>
<path d="M11.5038 -39.9648H2.7343V-16H-2.77351V-39.9648H-11.4259V-44.4375H11.5038V-39.9648Z" fill="black"/>
</g>
<defs>
<clipPath id="clip0_121_143">
<rect width="25" height="29" fill="white"/>
</clipPath>
</defs>
</svg>
