<svg width="25" height="29" viewBox="0 0 25 29" fill="none" xmlns="http://www.w3.org/2000/svg">
<g clip-path="url(#clip0_121_145)">
<rect width="25" height="29" fill="white"/>
<path d="M-100 -145H50V29H-100V-145Z" fill="#E3E3E3"/>
<path fill-rule="evenodd" clip-rule="evenodd" d="M49 -144H-99V28H49V-144ZM-100 -145V29H50V-145H-100Z" fill="black"/>
<path d="M-68.4571 -74.9375H-76.9922L-78.6719 -69H-84.4532L-75.1368 -97.4375H-70.1563L-61.0157 -69H-66.7969L-68.4571 -74.9375ZM-75.6446 -79.6055H-69.7462L-72.6563 -90.0742L-75.6446 -79.6055Z" fill="black"/>
<path d="M-34.4337 -69V-97.4375H-24.8829C-23.3334 -97.4375 -21.9271 -97.2812 -20.6641 -96.9688C-19.3881 -96.6562 -18.3008 -96.181 -17.4024 -95.543C-16.504 -94.9049 -15.8139 -94.0977 -15.3321 -93.1211C-14.8373 -92.1445 -14.5899 -90.9922 -14.5899 -89.6641C-14.6029 -88.8047 -14.7592 -87.9909 -15.0587 -87.2227C-15.3451 -86.4674 -15.7748 -85.8034 -16.3477 -85.2305C-16.6602 -84.918 -17.0183 -84.6315 -17.4219 -84.3711C-17.8126 -84.1107 -18.2488 -83.8893 -18.7305 -83.707V-83.6875C-17.793 -83.4271 -17.0508 -83.0951 -16.504 -82.6914C-15.9441 -82.2878 -15.4753 -81.819 -15.0977 -81.2852C-14.7071 -80.7122 -14.4206 -80.0872 -14.2383 -79.4102C-14.043 -78.7461 -13.9454 -78.056 -13.9454 -77.3398C-13.9454 -75.9727 -14.1797 -74.7682 -14.6485 -73.7266C-15.1172 -72.6849 -15.7878 -71.8125 -16.6602 -71.1094C-17.5326 -70.4062 -18.5938 -69.8789 -19.8438 -69.5273C-21.0938 -69.1758 -22.5001 -69 -24.0626 -69H-34.4337ZM-28.9258 -81.5391V-73.4336H-24.043C-23.3269 -73.4336 -22.6889 -73.5247 -22.129 -73.707C-21.5561 -73.8893 -21.0808 -74.1367 -20.7032 -74.4492C-20.2865 -74.8008 -19.974 -75.224 -19.7657 -75.7188C-19.5443 -76.2135 -19.4337 -76.7669 -19.4337 -77.3789C-19.4337 -78.0169 -19.5183 -78.5898 -19.6876 -79.0977C-19.8438 -79.6055 -20.0977 -80.0352 -20.4493 -80.3867C-20.8008 -80.7513 -21.2566 -81.0312 -21.8165 -81.2266C-22.3764 -81.4219 -23.0404 -81.526 -23.8087 -81.5391H-28.9258ZM-28.9258 -85.5039H-24.8438C-24.0105 -85.5169 -23.2748 -85.6146 -22.6368 -85.7969C-21.9988 -85.9922 -21.4844 -86.2786 -21.0938 -86.6562C-20.7683 -86.9557 -20.5209 -87.3203 -20.3516 -87.75C-20.1693 -88.1797 -20.0782 -88.668 -20.0782 -89.2148C-20.0782 -89.7878 -20.1563 -90.2891 -20.3126 -90.7188C-20.4558 -91.1484 -20.6771 -91.5065 -20.9766 -91.793C-21.3672 -92.1966 -21.8946 -92.4896 -22.5587 -92.6719C-23.2097 -92.8542 -23.9779 -92.9518 -24.8633 -92.9648H-28.9258V-85.5039Z" fill="black"/>
<path d="M33.496 -81.1289C33.496 -79.9049 33.3854 -78.7396 33.164 -77.6328C32.9426 -76.5391 32.6236 -75.5234 32.207 -74.5859C31.7643 -73.6484 31.2174 -72.7891 30.5663 -72.0078C29.9153 -71.2266 29.1731 -70.5755 28.3398 -70.0547C27.5846 -69.599 26.7512 -69.2474 25.8398 -69C24.9413 -68.7396 23.9713 -68.6094 22.9296 -68.6094C21.8229 -68.6094 20.8007 -68.7526 19.8632 -69.0391C18.9257 -69.3255 18.0729 -69.7292 17.3046 -70.25C16.5494 -70.7969 15.8723 -71.4544 15.2734 -72.2227C14.6744 -73.0039 14.1731 -73.8828 13.7695 -74.8594C13.4049 -75.7578 13.1249 -76.7344 12.9296 -77.7891C12.7473 -78.8438 12.6562 -79.957 12.6562 -81.1289V-85.2695C12.6562 -86.5195 12.7604 -87.7044 12.9687 -88.8242C13.19 -89.944 13.5091 -90.9792 13.9257 -91.9297C14.3294 -92.8281 14.8176 -93.6419 15.3906 -94.3711C15.9765 -95.1003 16.6471 -95.7253 17.4023 -96.2461C18.1445 -96.7539 18.9778 -97.1445 19.9023 -97.418C20.8268 -97.6914 21.8294 -97.8281 22.9101 -97.8281C24.0038 -97.8281 25.026 -97.6849 25.9765 -97.3984C26.94 -97.125 27.8059 -96.7279 28.5742 -96.207C29.3424 -95.7122 30.013 -95.1133 30.5859 -94.4102C31.1718 -93.707 31.6731 -92.9323 32.0898 -92.0859C32.5455 -91.1224 32.8906 -90.0677 33.1249 -88.9219C33.3723 -87.776 33.496 -86.5586 33.496 -85.2695V-81.1289ZM27.9296 -85.3086C27.9296 -86.0378 27.8906 -86.7279 27.8124 -87.3789C27.7473 -88.043 27.6367 -88.6549 27.4804 -89.2148C27.2851 -89.918 27.0247 -90.543 26.6992 -91.0898C26.3736 -91.6497 25.9895 -92.1055 25.5468 -92.457C25.1953 -92.7174 24.7981 -92.9193 24.3554 -93.0625C23.9257 -93.2057 23.4439 -93.2773 22.9101 -93.2773C22.4023 -93.2773 21.94 -93.2122 21.5234 -93.082C21.1197 -92.9518 20.7551 -92.763 20.4296 -92.5156C19.9869 -92.151 19.6093 -91.6953 19.2968 -91.1484C18.9973 -90.6016 18.763 -89.9635 18.5937 -89.2344C18.4635 -88.6745 18.3658 -88.0625 18.3007 -87.3984C18.2486 -86.7344 18.2226 -86.0378 18.2226 -85.3086V-81.1289C18.2226 -80.4388 18.2486 -79.7747 18.3007 -79.1367C18.3528 -78.4987 18.4439 -77.9062 18.5742 -77.3594C18.7174 -76.6693 18.9257 -76.0378 19.1992 -75.4648C19.4856 -74.9049 19.8176 -74.4492 20.1953 -74.0977C20.5468 -73.7852 20.9439 -73.5443 21.3867 -73.375C21.8424 -73.2057 22.3567 -73.1211 22.9296 -73.1211C23.4765 -73.1211 23.9778 -73.1992 24.4335 -73.3555C24.8893 -73.5117 25.2929 -73.7396 25.6445 -74.0391C26.0872 -74.4036 26.4583 -74.8594 26.7578 -75.4062C27.0703 -75.9661 27.3176 -76.5977 27.4999 -77.3008C27.6432 -77.8477 27.7473 -78.4466 27.8124 -79.0977C27.8906 -79.7487 27.9296 -80.4258 27.9296 -81.1289V-85.3086Z" fill="black"/>
<path d="M-63.4962 -44.4375L-63.4766 -25.5898C-63.4766 -24.0013 -63.698 -22.5885 -64.1407 -21.3516C-64.5704 -20.1146 -65.1954 -19.0729 -66.0157 -18.2266C-66.849 -17.3672 -67.8646 -16.7161 -69.0626 -16.2734C-70.2475 -15.8307 -71.6016 -15.6094 -73.1251 -15.6094C-74.5573 -15.6094 -75.8529 -15.8307 -77.0118 -16.2734C-78.1576 -16.7161 -79.1407 -17.3607 -79.961 -18.207C-80.7813 -19.0534 -81.4193 -20.0951 -81.8751 -21.332C-82.3178 -22.582 -82.5391 -24.0013 -82.5391 -25.5898L-82.5196 -44.4375H-77.0313L-77.0118 -25.5898C-76.9988 -24.6393 -76.9076 -23.806 -76.7383 -23.0898C-76.556 -22.3737 -76.2891 -21.7812 -75.9376 -21.3125C-75.612 -20.8828 -75.2149 -20.5573 -74.7462 -20.3359C-74.2774 -20.1276 -73.737 -20.0234 -73.1251 -20.0234C-72.461 -20.0234 -71.8751 -20.1341 -71.3672 -20.3555C-70.8464 -20.5898 -70.4167 -20.9349 -70.0782 -21.3906C-69.7136 -21.8594 -69.4402 -22.4453 -69.2579 -23.1484C-69.0756 -23.8516 -68.9779 -24.6654 -68.9649 -25.5898L-68.9454 -44.4375H-63.4962Z" fill="black"/>
<path d="M-13.4962 -39.9648H-22.2657V-16H-27.7735V-39.9648H-36.4258V-44.4375H-13.4962V-39.9648Z" fill="black"/>
</g>
<defs>
<clipPath id="clip0_121_145">
<rect width="25" height="29" fill="white"/>
</clipPath>
</defs>
</svg>
