<svg width="25" height="29" viewBox="0 0 25 29" fill="none" xmlns="http://www.w3.org/2000/svg">
<g clip-path="url(#clip0_121_147)">
<rect width="25" height="29" fill="white"/>
<path d="M-125 -145H25V29H-125V-145Z" fill="#E3E3E3"/>
<path fill-rule="evenodd" clip-rule="evenodd" d="M24 -144H-124V28H24V-144ZM-125 -145V29H25V-145H-125Z" fill="black"/>
<path d="M-93.4571 -74.9375H-101.992L-103.672 -69H-109.453L-100.137 -97.4375H-95.1563L-86.0157 -69H-91.7969L-93.4571 -74.9375ZM-100.645 -79.6055H-94.7462L-97.6563 -90.0742L-100.645 -79.6055Z" fill="black"/>
<path d="M-59.4337 -69V-97.4375H-49.8829C-48.3334 -97.4375 -46.9271 -97.2812 -45.6641 -96.9688C-44.3881 -96.6562 -43.3008 -96.181 -42.4024 -95.543C-41.504 -94.9049 -40.8139 -94.0977 -40.3321 -93.1211C-39.8373 -92.1445 -39.5899 -90.9922 -39.5899 -89.6641C-39.6029 -88.8047 -39.7592 -87.9909 -40.0587 -87.2227C-40.3451 -86.4674 -40.7748 -85.8034 -41.3477 -85.2305C-41.6602 -84.918 -42.0183 -84.6315 -42.4219 -84.3711C-42.8126 -84.1107 -43.2488 -83.8893 -43.7305 -83.707V-83.6875C-42.793 -83.4271 -42.0508 -83.0951 -41.504 -82.6914C-40.9441 -82.2878 -40.4753 -81.819 -40.0977 -81.2852C-39.7071 -80.7122 -39.4206 -80.0872 -39.2383 -79.4102C-39.043 -78.7461 -38.9454 -78.056 -38.9454 -77.3398C-38.9454 -75.9727 -39.1797 -74.7682 -39.6485 -73.7266C-40.1172 -72.6849 -40.7878 -71.8125 -41.6602 -71.1094C-42.5326 -70.4062 -43.5938 -69.8789 -44.8438 -69.5273C-46.0938 -69.1758 -47.5001 -69 -49.0626 -69H-59.4337ZM-53.9258 -81.5391V-73.4336H-49.043C-48.3269 -73.4336 -47.6889 -73.5247 -47.129 -73.707C-46.5561 -73.8893 -46.0808 -74.1367 -45.7032 -74.4492C-45.2865 -74.8008 -44.974 -75.224 -44.7657 -75.7188C-44.5443 -76.2135 -44.4337 -76.7669 -44.4337 -77.3789C-44.4337 -78.0169 -44.5183 -78.5898 -44.6876 -79.0977C-44.8438 -79.6055 -45.0977 -80.0352 -45.4493 -80.3867C-45.8008 -80.7513 -46.2566 -81.0312 -46.8165 -81.2266C-47.3764 -81.4219 -48.0404 -81.526 -48.8087 -81.5391H-53.9258ZM-53.9258 -85.5039H-49.8438C-49.0105 -85.5169 -48.2748 -85.6146 -47.6368 -85.7969C-46.9988 -85.9922 -46.4844 -86.2786 -46.0938 -86.6562C-45.7683 -86.9557 -45.5209 -87.3203 -45.3516 -87.75C-45.1693 -88.1797 -45.0782 -88.668 -45.0782 -89.2148C-45.0782 -89.7878 -45.1563 -90.2891 -45.3126 -90.7188C-45.4558 -91.1484 -45.6771 -91.5065 -45.9766 -91.793C-46.3672 -92.1966 -46.8946 -92.4896 -47.5587 -92.6719C-48.2097 -92.8542 -48.9779 -92.9518 -49.8633 -92.9648H-53.9258V-85.5039Z" fill="black"/>
<path d="M8.49603 -81.1289C8.49603 -79.9049 8.38536 -78.7396 8.164 -77.6328C7.94265 -76.5391 7.62364 -75.5234 7.20697 -74.5859C6.76426 -73.6484 6.21739 -72.7891 5.56635 -72.0078C4.9153 -71.2266 4.17312 -70.5755 3.33978 -70.0547C2.58457 -69.599 1.75124 -69.2474 0.839783 -69C-0.0586548 -68.7396 -1.02871 -68.6094 -2.07037 -68.6094C-3.17714 -68.6094 -4.19928 -68.7526 -5.13678 -69.0391C-6.07428 -69.3255 -6.92714 -69.7292 -7.69537 -70.25C-8.45058 -70.7969 -9.12767 -71.4544 -9.72662 -72.2227C-10.3256 -73.0039 -10.8269 -73.8828 -11.2305 -74.8594C-11.5951 -75.7578 -11.8751 -76.7344 -12.0704 -77.7891C-12.2527 -78.8438 -12.3438 -79.957 -12.3438 -81.1289V-85.2695C-12.3438 -86.5195 -12.2396 -87.7044 -12.0313 -88.8242C-11.81 -89.944 -11.4909 -90.9792 -11.0743 -91.9297C-10.6706 -92.8281 -10.1824 -93.6419 -9.60944 -94.3711C-9.0235 -95.1003 -8.35293 -95.7253 -7.59772 -96.2461C-6.85553 -96.7539 -6.0222 -97.1445 -5.09772 -97.418C-4.17324 -97.6914 -3.17063 -97.8281 -2.0899 -97.8281C-0.996155 -97.8281 0.0259807 -97.6849 0.976501 -97.3984C1.94004 -97.125 2.80593 -96.7279 3.57416 -96.207C4.34239 -95.7122 5.01296 -95.1133 5.58588 -94.4102C6.17181 -93.707 6.67312 -92.9323 7.08978 -92.0859C7.54551 -91.1224 7.89056 -90.0677 8.12494 -88.9219C8.37233 -87.776 8.49603 -86.5586 8.49603 -85.2695V-81.1289ZM2.92963 -85.3086C2.92963 -86.0378 2.89056 -86.7279 2.81244 -87.3789C2.74733 -88.043 2.63666 -88.6549 2.48041 -89.2148C2.2851 -89.918 2.02468 -90.543 1.69916 -91.0898C1.37364 -91.6497 0.989522 -92.1055 0.546814 -92.457C0.195251 -92.7174 -0.201884 -92.9193 -0.644592 -93.0625C-1.07428 -93.2057 -1.55605 -93.2773 -2.0899 -93.2773C-2.59772 -93.2773 -3.05996 -93.2122 -3.47662 -93.082C-3.88027 -92.9518 -4.24485 -92.763 -4.57037 -92.5156C-5.01308 -92.151 -5.39069 -91.6953 -5.70319 -91.1484C-6.00267 -90.6016 -6.23704 -89.9635 -6.40631 -89.2344C-6.53652 -88.6745 -6.63418 -88.0625 -6.69928 -87.3984C-6.75136 -86.7344 -6.7774 -86.0378 -6.7774 -85.3086V-81.1289C-6.7774 -80.4388 -6.75136 -79.7747 -6.69928 -79.1367C-6.6472 -78.4987 -6.55605 -77.9062 -6.42584 -77.3594C-6.28261 -76.6693 -6.07428 -76.0378 -5.80084 -75.4648C-5.51438 -74.9049 -5.18235 -74.4492 -4.80475 -74.0977C-4.45319 -73.7852 -4.05605 -73.5443 -3.61334 -73.375C-3.15761 -73.2057 -2.64329 -73.1211 -2.07037 -73.1211C-1.5235 -73.1211 -1.0222 -73.1992 -0.566467 -73.3555C-0.110738 -73.5117 0.292908 -73.7396 0.64447 -74.0391C1.08718 -74.4036 1.45827 -74.8594 1.75775 -75.4062C2.07025 -75.9661 2.31765 -76.5977 2.49994 -77.3008C2.64317 -77.8477 2.74733 -78.4466 2.81244 -79.0977C2.89056 -79.7487 2.92963 -80.4258 2.92963 -81.1289V-85.3086Z" fill="black"/>
<path d="M-88.4962 -44.4375L-88.4766 -25.5898C-88.4766 -24.0013 -88.698 -22.5885 -89.1407 -21.3516C-89.5704 -20.1146 -90.1954 -19.0729 -91.0157 -18.2266C-91.849 -17.3672 -92.8646 -16.7161 -94.0626 -16.2734C-95.2475 -15.8307 -96.6016 -15.6094 -98.1251 -15.6094C-99.5573 -15.6094 -100.853 -15.8307 -102.012 -16.2734C-103.158 -16.7161 -104.141 -17.3607 -104.961 -18.207C-105.781 -19.0534 -106.419 -20.0951 -106.875 -21.332C-107.318 -22.582 -107.539 -24.0013 -107.539 -25.5898L-107.52 -44.4375H-102.031L-102.012 -25.5898C-101.999 -24.6393 -101.908 -23.806 -101.738 -23.0898C-101.556 -22.3737 -101.289 -21.7812 -100.938 -21.3125C-100.612 -20.8828 -100.215 -20.5573 -99.7462 -20.3359C-99.2774 -20.1276 -98.737 -20.0234 -98.1251 -20.0234C-97.461 -20.0234 -96.8751 -20.1341 -96.3672 -20.3555C-95.8464 -20.5898 -95.4167 -20.9349 -95.0782 -21.3906C-94.7136 -21.8594 -94.4402 -22.4453 -94.2579 -23.1484C-94.0756 -23.8516 -93.9779 -24.6654 -93.9649 -25.5898L-93.9454 -44.4375H-88.4962Z" fill="black"/>
<path d="M-38.4962 -39.9648H-47.2657V-16H-52.7735V-39.9648H-61.4258V-44.4375H-38.4962V-39.9648Z" fill="black"/>
</g>
<defs>
<clipPath id="clip0_121_147">
<rect width="25" height="29" fill="white"/>
</clipPath>
</defs>
</svg>
