<svg width="25" height="29" viewBox="0 0 25 29" fill="none" xmlns="http://www.w3.org/2000/svg">
<g clip-path="url(#clip0_121_83)">
<rect width="25" height="29" fill="white"/>
<path d="M-75 0H75V174H-75V0Z" fill="#E3E3E3"/>
<path fill-rule="evenodd" clip-rule="evenodd" d="M74 1H-74V173H74V1ZM-75 0V174H75V0H-75Z" fill="black"/>
<path d="M-43.4571 70.0625H-51.9923L-53.6719 76H-59.4532L-50.1368 47.5625H-45.1563L-36.0157 76H-41.7969L-43.4571 70.0625ZM-50.6446 65.3945H-44.7462L-47.6563 54.9258L-50.6446 65.3945Z" fill="black"/>
<path d="M-9.43367 76V47.5625H0.117111C1.66659 47.5625 3.07284 47.7188 4.33586 48.0312C5.6119 48.3438 6.69914 48.819 7.59758 49.457C8.49602 50.0951 9.18612 50.9023 9.66789 51.8789C10.1627 52.8555 10.4101 54.0078 10.4101 55.3359C10.3971 56.1953 10.2408 57.0091 9.94133 57.7773C9.65487 58.5326 9.22518 59.1966 8.65227 59.7695C8.33977 60.082 7.98169 60.3685 7.57805 60.6289C7.18742 60.8893 6.75123 61.1107 6.26945 61.293V61.3125C7.20695 61.5729 7.94914 61.9049 8.49602 62.3086C9.05591 62.7122 9.52466 63.181 9.90227 63.7148C10.2929 64.2878 10.5794 64.9128 10.7616 65.5898C10.957 66.2539 11.0546 66.944 11.0546 67.6602C11.0546 69.0273 10.8202 70.2318 10.3515 71.2734C9.88274 72.3151 9.21216 73.1875 8.33977 73.8906C7.46737 74.5938 6.40617 75.1211 5.15617 75.4727C3.90617 75.8242 2.49992 76 0.937424 76H-9.43367ZM-3.92586 63.4609V71.5664H0.956955C1.6731 71.5664 2.31112 71.4753 2.87102 71.293C3.44393 71.1107 3.91919 70.8633 4.2968 70.5508C4.71347 70.1992 5.02597 69.776 5.2343 69.2812C5.45565 68.7865 5.56633 68.2331 5.56633 67.6211C5.56633 66.9831 5.48169 66.4102 5.31242 65.9023C5.15617 65.3945 4.90227 64.9648 4.5507 64.6133C4.19914 64.2487 3.74341 63.9688 3.18352 63.7734C2.62362 63.5781 1.95956 63.474 1.19133 63.4609H-3.92586ZM-3.92586 59.4961H0.156174C0.989507 59.4831 1.72518 59.3854 2.3632 59.2031C3.00123 59.0078 3.51555 58.7214 3.90617 58.3438C4.23169 58.0443 4.47909 57.6797 4.64836 57.25C4.83065 56.8203 4.9218 56.332 4.9218 55.7852C4.9218 55.2122 4.84367 54.7109 4.68742 54.2812C4.54419 53.8516 4.32284 53.4935 4.02336 53.207C3.63274 52.8034 3.10539 52.5104 2.44133 52.3281C1.79029 52.1458 1.02206 52.0482 0.136642 52.0352H-3.92586V59.4961Z" fill="black"/>
<path d="M58.496 63.8711C58.496 65.0951 58.3853 66.2604 58.164 67.3672C57.9426 68.4609 57.6236 69.4766 57.207 70.4141C56.7642 71.3516 56.2174 72.2109 55.5663 72.9922C54.9153 73.7734 54.1731 74.4245 53.3398 74.9453C52.5846 75.401 51.7512 75.7526 50.8398 76C49.9413 76.2604 48.9713 76.3906 47.9296 76.3906C46.8228 76.3906 45.8007 76.2474 44.8632 75.9609C43.9257 75.6745 43.0728 75.2708 42.3046 74.75C41.5494 74.2031 40.8723 73.5456 40.2734 72.7773C39.6744 71.9961 39.1731 71.1172 38.7695 70.1406C38.4049 69.2422 38.1249 68.2656 37.9296 67.2109C37.7473 66.1562 37.6562 65.043 37.6562 63.8711V59.7305C37.6562 58.4805 37.7603 57.2956 37.9687 56.1758C38.19 55.056 38.509 54.0208 38.9257 53.0703C39.3294 52.1719 39.8176 51.3581 40.3905 50.6289C40.9765 49.8997 41.6471 49.2747 42.4023 48.7539C43.1445 48.2461 43.9778 47.8555 44.9023 47.582C45.8267 47.3086 46.8294 47.1719 47.9101 47.1719C49.0038 47.1719 50.026 47.3151 50.9765 47.6016C51.94 47.875 52.8059 48.2721 53.5741 48.793C54.3424 49.2878 55.0129 49.8867 55.5859 50.5898C56.1718 51.293 56.6731 52.0677 57.0898 52.9141C57.5455 53.8776 57.8905 54.9323 58.1249 56.0781C58.3723 57.224 58.496 58.4414 58.496 59.7305V63.8711ZM52.9296 59.6914C52.9296 58.9622 52.8905 58.2721 52.8124 57.6211C52.7473 56.957 52.6366 56.3451 52.4804 55.7852C52.2851 55.082 52.0247 54.457 51.6991 53.9102C51.3736 53.3503 50.9895 52.8945 50.5468 52.543C50.1952 52.2826 49.7981 52.0807 49.3554 51.9375C48.9257 51.7943 48.4439 51.7227 47.9101 51.7227C47.4023 51.7227 46.94 51.7878 46.5234 51.918C46.1197 52.0482 45.7551 52.237 45.4296 52.4844C44.9869 52.849 44.6093 53.3047 44.2968 53.8516C43.9973 54.3984 43.7629 55.0365 43.5937 55.7656C43.4635 56.3255 43.3658 56.9375 43.3007 57.6016C43.2486 58.2656 43.2226 58.9622 43.2226 59.6914V63.8711C43.2226 64.5612 43.2486 65.2253 43.3007 65.8633C43.3528 66.5013 43.4439 67.0938 43.5741 67.6406C43.7174 68.3307 43.9257 68.9622 44.1991 69.5352C44.4856 70.0951 44.8176 70.5508 45.1952 70.9023C45.5468 71.2148 45.9439 71.4557 46.3866 71.625C46.8424 71.7943 47.3567 71.8789 47.9296 71.8789C48.4765 71.8789 48.9778 71.8008 49.4335 71.6445C49.8892 71.4883 50.2929 71.2604 50.6445 70.9609C51.0872 70.5964 51.4583 70.1406 51.7577 69.5938C52.0702 69.0339 52.3176 68.4023 52.4999 67.6992C52.6432 67.1523 52.7473 66.5534 52.8124 65.9023C52.8905 65.2513 52.9296 64.5742 52.9296 63.8711V59.6914Z" fill="black"/>
<path d="M-38.4962 100.562L-38.4766 119.41C-38.4766 120.999 -38.698 122.411 -39.1407 123.648C-39.5704 124.885 -40.1954 125.927 -41.0157 126.773C-41.849 127.633 -42.8647 128.284 -44.0626 128.727C-45.2475 129.169 -46.6016 129.391 -48.1251 129.391C-49.5574 129.391 -50.8529 129.169 -52.0118 128.727C-53.1576 128.284 -54.1407 127.639 -54.961 126.793C-55.7813 125.947 -56.4193 124.905 -56.8751 123.668C-57.3178 122.418 -57.5391 120.999 -57.5391 119.41L-57.5196 100.562H-52.0313L-52.0118 119.41C-51.9988 120.361 -51.9076 121.194 -51.7384 121.91C-51.5561 122.626 -51.2891 123.219 -50.9376 123.688C-50.6121 124.117 -50.2149 124.443 -49.7462 124.664C-49.2774 124.872 -48.7371 124.977 -48.1251 124.977C-47.461 124.977 -46.8751 124.866 -46.3673 124.645C-45.8464 124.41 -45.4167 124.065 -45.0782 123.609C-44.7136 123.141 -44.4402 122.555 -44.2579 121.852C-44.0756 121.148 -43.9779 120.335 -43.9649 119.41L-43.9454 100.562H-38.4962Z" fill="black"/>
<path d="M11.5038 105.035H2.7343V129H-2.77351V105.035H-11.4259V100.562H11.5038V105.035Z" fill="black"/>
</g>
<defs>
<clipPath id="clip0_121_83">
<rect width="25" height="29" fill="white"/>
</clipPath>
</defs>
</svg>
