<svg width="25" height="29" viewBox="0 0 25 29" fill="none" xmlns="http://www.w3.org/2000/svg">
<g clip-path="url(#clip0_121_85)">
<rect width="25" height="29" fill="white"/>
<path d="M-100 0H50V174H-100V0Z" fill="#E3E3E3"/>
<path fill-rule="evenodd" clip-rule="evenodd" d="M49 1H-99V173H49V1ZM-100 0V174H50V0H-100Z" fill="black"/>
<path d="M-68.4571 70.0625H-76.9922L-78.6719 76H-84.4532L-75.1368 47.5625H-70.1563L-61.0157 76H-66.7969L-68.4571 70.0625ZM-75.6446 65.3945H-69.7462L-72.6563 54.9258L-75.6446 65.3945Z" fill="black"/>
<path d="M-34.4337 76V47.5625H-24.8829C-23.3334 47.5625 -21.9271 47.7188 -20.6641 48.0312C-19.3881 48.3438 -18.3008 48.819 -17.4024 49.457C-16.504 50.0951 -15.8139 50.9023 -15.3321 51.8789C-14.8373 52.8555 -14.5899 54.0078 -14.5899 55.3359C-14.6029 56.1953 -14.7592 57.0091 -15.0587 57.7773C-15.3451 58.5326 -15.7748 59.1966 -16.3477 59.7695C-16.6602 60.082 -17.0183 60.3685 -17.4219 60.6289C-17.8126 60.8893 -18.2488 61.1107 -18.7305 61.293V61.3125C-17.793 61.5729 -17.0508 61.9049 -16.504 62.3086C-15.9441 62.7122 -15.4753 63.181 -15.0977 63.7148C-14.7071 64.2878 -14.4206 64.9128 -14.2383 65.5898C-14.043 66.2539 -13.9454 66.944 -13.9454 67.6602C-13.9454 69.0273 -14.1797 70.2318 -14.6485 71.2734C-15.1172 72.3151 -15.7878 73.1875 -16.6602 73.8906C-17.5326 74.5938 -18.5938 75.1211 -19.8438 75.4727C-21.0938 75.8242 -22.5001 76 -24.0626 76H-34.4337ZM-28.9258 63.4609V71.5664H-24.043C-23.3269 71.5664 -22.6889 71.4753 -22.129 71.293C-21.5561 71.1107 -21.0808 70.8633 -20.7032 70.5508C-20.2865 70.1992 -19.974 69.776 -19.7657 69.2812C-19.5443 68.7865 -19.4337 68.2331 -19.4337 67.6211C-19.4337 66.9831 -19.5183 66.4102 -19.6876 65.9023C-19.8438 65.3945 -20.0977 64.9648 -20.4493 64.6133C-20.8008 64.2487 -21.2566 63.9688 -21.8165 63.7734C-22.3764 63.5781 -23.0404 63.474 -23.8087 63.4609H-28.9258ZM-28.9258 59.4961H-24.8438C-24.0105 59.4831 -23.2748 59.3854 -22.6368 59.2031C-21.9988 59.0078 -21.4844 58.7214 -21.0938 58.3438C-20.7683 58.0443 -20.5209 57.6797 -20.3516 57.25C-20.1693 56.8203 -20.0782 56.332 -20.0782 55.7852C-20.0782 55.2122 -20.1563 54.7109 -20.3126 54.2812C-20.4558 53.8516 -20.6771 53.4935 -20.9766 53.207C-21.3672 52.8034 -21.8946 52.5104 -22.5587 52.3281C-23.2097 52.1458 -23.9779 52.0482 -24.8633 52.0352H-28.9258V59.4961Z" fill="black"/>
<path d="M33.496 63.8711C33.496 65.0951 33.3854 66.2604 33.164 67.3672C32.9426 68.4609 32.6236 69.4766 32.207 70.4141C31.7643 71.3516 31.2174 72.2109 30.5663 72.9922C29.9153 73.7734 29.1731 74.4245 28.3398 74.9453C27.5846 75.401 26.7512 75.7526 25.8398 76C24.9413 76.2604 23.9713 76.3906 22.9296 76.3906C21.8229 76.3906 20.8007 76.2474 19.8632 75.9609C18.9257 75.6745 18.0729 75.2708 17.3046 74.75C16.5494 74.2031 15.8723 73.5456 15.2734 72.7773C14.6744 71.9961 14.1731 71.1172 13.7695 70.1406C13.4049 69.2422 13.1249 68.2656 12.9296 67.2109C12.7473 66.1562 12.6562 65.043 12.6562 63.8711V59.7305C12.6562 58.4805 12.7604 57.2956 12.9687 56.1758C13.19 55.056 13.5091 54.0208 13.9257 53.0703C14.3294 52.1719 14.8176 51.3581 15.3906 50.6289C15.9765 49.8997 16.6471 49.2747 17.4023 48.7539C18.1445 48.2461 18.9778 47.8555 19.9023 47.582C20.8268 47.3086 21.8294 47.1719 22.9101 47.1719C24.0038 47.1719 25.026 47.3151 25.9765 47.6016C26.94 47.875 27.8059 48.2721 28.5742 48.793C29.3424 49.2878 30.013 49.8867 30.5859 50.5898C31.1718 51.293 31.6731 52.0677 32.0898 52.9141C32.5455 53.8776 32.8906 54.9323 33.1249 56.0781C33.3723 57.224 33.496 58.4414 33.496 59.7305V63.8711ZM27.9296 59.6914C27.9296 58.9622 27.8906 58.2721 27.8124 57.6211C27.7473 56.957 27.6367 56.3451 27.4804 55.7852C27.2851 55.082 27.0247 54.457 26.6992 53.9102C26.3736 53.3503 25.9895 52.8945 25.5468 52.543C25.1953 52.2826 24.7981 52.0807 24.3554 51.9375C23.9257 51.7943 23.4439 51.7227 22.9101 51.7227C22.4023 51.7227 21.94 51.7878 21.5234 51.918C21.1197 52.0482 20.7551 52.237 20.4296 52.4844C19.9869 52.849 19.6093 53.3047 19.2968 53.8516C18.9973 54.3984 18.763 55.0365 18.5937 55.7656C18.4635 56.3255 18.3658 56.9375 18.3007 57.6016C18.2486 58.2656 18.2226 58.9622 18.2226 59.6914V63.8711C18.2226 64.5612 18.2486 65.2253 18.3007 65.8633C18.3528 66.5013 18.4439 67.0938 18.5742 67.6406C18.7174 68.3307 18.9257 68.9622 19.1992 69.5352C19.4856 70.0951 19.8176 70.5508 20.1953 70.9023C20.5468 71.2148 20.9439 71.4557 21.3867 71.625C21.8424 71.7943 22.3567 71.8789 22.9296 71.8789C23.4765 71.8789 23.9778 71.8008 24.4335 71.6445C24.8893 71.4883 25.2929 71.2604 25.6445 70.9609C26.0872 70.5964 26.4583 70.1406 26.7578 69.5938C27.0703 69.0339 27.3176 68.4023 27.4999 67.6992C27.6432 67.1523 27.7473 66.5534 27.8124 65.9023C27.8906 65.2513 27.9296 64.5742 27.9296 63.8711V59.6914Z" fill="black"/>
<path d="M-63.4962 100.562L-63.4766 119.41C-63.4766 120.999 -63.698 122.411 -64.1407 123.648C-64.5704 124.885 -65.1954 125.927 -66.0157 126.773C-66.849 127.633 -67.8646 128.284 -69.0626 128.727C-70.2475 129.169 -71.6016 129.391 -73.1251 129.391C-74.5573 129.391 -75.8529 129.169 -77.0118 128.727C-78.1576 128.284 -79.1407 127.639 -79.961 126.793C-80.7813 125.947 -81.4193 124.905 -81.8751 123.668C-82.3178 122.418 -82.5391 120.999 -82.5391 119.41L-82.5196 100.562H-77.0313L-77.0118 119.41C-76.9988 120.361 -76.9076 121.194 -76.7383 121.91C-76.556 122.626 -76.2891 123.219 -75.9376 123.688C-75.612 124.117 -75.2149 124.443 -74.7462 124.664C-74.2774 124.872 -73.737 124.977 -73.1251 124.977C-72.461 124.977 -71.8751 124.866 -71.3672 124.645C-70.8464 124.41 -70.4167 124.065 -70.0782 123.609C-69.7136 123.141 -69.4402 122.555 -69.2579 121.852C-69.0756 121.148 -68.9779 120.335 -68.9649 119.41L-68.9454 100.562H-63.4962Z" fill="black"/>
<path d="M-13.4962 105.035H-22.2657V129H-27.7735V105.035H-36.4258V100.562H-13.4962V105.035Z" fill="black"/>
</g>
<defs>
<clipPath id="clip0_121_85">
<rect width="25" height="29" fill="white"/>
</clipPath>
</defs>
</svg>
