<svg width="25" height="29" viewBox="0 0 25 29" fill="none" xmlns="http://www.w3.org/2000/svg">
<g clip-path="url(#clip0_121_87)">
<rect width="25" height="29" fill="white"/>
<path d="M-125 0H25V174H-125V0Z" fill="var(--background)"/>
<path fill-rule="evenodd" clip-rule="evenodd" d="M24 1H-124V173H24V1ZM-125 0V174H25V0H-125Z" fill="black"/>
<path d="M-93.4571 70.0625H-101.992L-103.672 76H-109.453L-100.137 47.5625H-95.1563L-86.0157 76H-91.7969L-93.4571 70.0625ZM-100.645 65.3945H-94.7462L-97.6563 54.9258L-100.645 65.3945Z" fill="black"/>
<path d="M-59.4337 76V47.5625H-49.8829C-48.3334 47.5625 -46.9271 47.7188 -45.6641 48.0312C-44.3881 48.3438 -43.3008 48.819 -42.4024 49.457C-41.504 50.0951 -40.8139 50.9023 -40.3321 51.8789C-39.8373 52.8555 -39.5899 54.0078 -39.5899 55.3359C-39.6029 56.1953 -39.7592 57.0091 -40.0587 57.7773C-40.3451 58.5326 -40.7748 59.1966 -41.3477 59.7695C-41.6602 60.082 -42.0183 60.3685 -42.4219 60.6289C-42.8126 60.8893 -43.2488 61.1107 -43.7305 61.293V61.3125C-42.793 61.5729 -42.0508 61.9049 -41.504 62.3086C-40.9441 62.7122 -40.4753 63.181 -40.0977 63.7148C-39.7071 64.2878 -39.4206 64.9128 -39.2383 65.5898C-39.043 66.2539 -38.9454 66.944 -38.9454 67.6602C-38.9454 69.0273 -39.1797 70.2318 -39.6485 71.2734C-40.1172 72.3151 -40.7878 73.1875 -41.6602 73.8906C-42.5326 74.5938 -43.5938 75.1211 -44.8438 75.4727C-46.0938 75.8242 -47.5001 76 -49.0626 76H-59.4337ZM-53.9258 63.4609V71.5664H-49.043C-48.3269 71.5664 -47.6889 71.4753 -47.129 71.293C-46.5561 71.1107 -46.0808 70.8633 -45.7032 70.5508C-45.2865 70.1992 -44.974 69.776 -44.7657 69.2812C-44.5443 68.7865 -44.4337 68.2331 -44.4337 67.6211C-44.4337 66.9831 -44.5183 66.4102 -44.6876 65.9023C-44.8438 65.3945 -45.0977 64.9648 -45.4493 64.6133C-45.8008 64.2487 -46.2566 63.9688 -46.8165 63.7734C-47.3764 63.5781 -48.0404 63.474 -48.8087 63.4609H-53.9258ZM-53.9258 59.4961H-49.8438C-49.0105 59.4831 -48.2748 59.3854 -47.6368 59.2031C-46.9988 59.0078 -46.4844 58.7214 -46.0938 58.3438C-45.7683 58.0443 -45.5209 57.6797 -45.3516 57.25C-45.1693 56.8203 -45.0782 56.332 -45.0782 55.7852C-45.0782 55.2122 -45.1563 54.7109 -45.3126 54.2812C-45.4558 53.8516 -45.6771 53.4935 -45.9766 53.207C-46.3672 52.8034 -46.8946 52.5104 -47.5587 52.3281C-48.2097 52.1458 -48.9779 52.0482 -49.8633 52.0352H-53.9258V59.4961Z" fill="black"/>
<path d="M8.49603 63.8711C8.49603 65.0951 8.38536 66.2604 8.164 67.3672C7.94265 68.4609 7.62364 69.4766 7.20697 70.4141C6.76426 71.3516 6.21739 72.2109 5.56635 72.9922C4.9153 73.7734 4.17312 74.4245 3.33978 74.9453C2.58457 75.401 1.75124 75.7526 0.839783 76C-0.0586548 76.2604 -1.02871 76.3906 -2.07037 76.3906C-3.17714 76.3906 -4.19928 76.2474 -5.13678 75.9609C-6.07428 75.6745 -6.92714 75.2708 -7.69537 74.75C-8.45058 74.2031 -9.12767 73.5456 -9.72662 72.7773C-10.3256 71.9961 -10.8269 71.1172 -11.2305 70.1406C-11.5951 69.2422 -11.8751 68.2656 -12.0704 67.2109C-12.2527 66.1562 -12.3438 65.043 -12.3438 63.8711V59.7305C-12.3438 58.4805 -12.2396 57.2956 -12.0313 56.1758C-11.81 55.056 -11.4909 54.0208 -11.0743 53.0703C-10.6706 52.1719 -10.1824 51.3581 -9.60944 50.6289C-9.0235 49.8997 -8.35293 49.2747 -7.59772 48.7539C-6.85553 48.2461 -6.0222 47.8555 -5.09772 47.582C-4.17324 47.3086 -3.17063 47.1719 -2.0899 47.1719C-0.996155 47.1719 0.0259807 47.3151 0.976501 47.6016C1.94004 47.875 2.80593 48.2721 3.57416 48.793C4.34239 49.2878 5.01296 49.8867 5.58588 50.5898C6.17181 51.293 6.67312 52.0677 7.08978 52.9141C7.54551 53.8776 7.89056 54.9323 8.12494 56.0781C8.37233 57.224 8.49603 58.4414 8.49603 59.7305V63.8711ZM2.92963 59.6914C2.92963 58.9622 2.89056 58.2721 2.81244 57.6211C2.74733 56.957 2.63666 56.3451 2.48041 55.7852C2.2851 55.082 2.02468 54.457 1.69916 53.9102C1.37364 53.3503 0.989522 52.8945 0.546814 52.543C0.195251 52.2826 -0.201884 52.0807 -0.644592 51.9375C-1.07428 51.7943 -1.55605 51.7227 -2.0899 51.7227C-2.59772 51.7227 -3.05996 51.7878 -3.47662 51.918C-3.88027 52.0482 -4.24485 52.237 -4.57037 52.4844C-5.01308 52.849 -5.39069 53.3047 -5.70319 53.8516C-6.00267 54.3984 -6.23704 55.0365 -6.40631 55.7656C-6.53652 56.3255 -6.63418 56.9375 -6.69928 57.6016C-6.75136 58.2656 -6.7774 58.9622 -6.7774 59.6914V63.8711C-6.7774 64.5612 -6.75136 65.2253 -6.69928 65.8633C-6.6472 66.5013 -6.55605 67.0938 -6.42584 67.6406C-6.28261 68.3307 -6.07428 68.9622 -5.80084 69.5352C-5.51438 70.0951 -5.18235 70.5508 -4.80475 70.9023C-4.45319 71.2148 -4.05605 71.4557 -3.61334 71.625C-3.15761 71.7943 -2.64329 71.8789 -2.07037 71.8789C-1.5235 71.8789 -1.0222 71.8008 -0.566467 71.6445C-0.110738 71.4883 0.292908 71.2604 0.64447 70.9609C1.08718 70.5964 1.45827 70.1406 1.75775 69.5938C2.07025 69.0339 2.31765 68.4023 2.49994 67.6992C2.64317 67.1523 2.74733 66.5534 2.81244 65.9023C2.89056 65.2513 2.92963 64.5742 2.92963 63.8711V59.6914Z" fill="black"/>
<path d="M-88.4962 100.562L-88.4766 119.41C-88.4766 120.999 -88.698 122.411 -89.1407 123.648C-89.5704 124.885 -90.1954 125.927 -91.0157 126.773C-91.849 127.633 -92.8646 128.284 -94.0626 128.727C-95.2475 129.169 -96.6016 129.391 -98.1251 129.391C-99.5573 129.391 -100.853 129.169 -102.012 128.727C-103.158 128.284 -104.141 127.639 -104.961 126.793C-105.781 125.947 -106.419 124.905 -106.875 123.668C-107.318 122.418 -107.539 120.999 -107.539 119.41L-107.52 100.562H-102.031L-102.012 119.41C-101.999 120.361 -101.908 121.194 -101.738 121.91C-101.556 122.626 -101.289 123.219 -100.938 123.688C-100.612 124.117 -100.215 124.443 -99.7462 124.664C-99.2774 124.872 -98.737 124.977 -98.1251 124.977C-97.461 124.977 -96.8751 124.866 -96.3672 124.645C-95.8464 124.41 -95.4167 124.065 -95.0782 123.609C-94.7136 123.141 -94.4402 122.555 -94.2579 121.852C-94.0756 121.148 -93.9779 120.335 -93.9649 119.41L-93.9454 100.562H-88.4962Z" fill="black"/>
<path d="M-38.4962 105.035H-47.2657V129H-52.7735V105.035H-61.4258V100.562H-38.4962V105.035Z" fill="black"/>
</g>
<defs>
<clipPath id="clip0_121_87">
<rect width="25" height="29" fill="white"/>
</clipPath>
</defs>
</svg>
