<svg width="25" height="29" viewBox="0 0 25 29" fill="none" xmlns="http://www.w3.org/2000/svg">
<g clip-path="url(#clip0_121_89)">
<rect width="25" height="29" fill="white"/>
<path d="M0 -29H150V145H0V-29Z" fill="#E3E3E3"/>
<path fill-rule="evenodd" clip-rule="evenodd" d="M149 -28H1V144H149V-28ZM0 -29V145H150V-29H0Z" fill="black"/>
<path d="M31.5429 41.0625H23.0078L21.3281 47H15.5468L24.8632 18.5625H29.8437L38.9843 47H33.2031L31.5429 41.0625ZM24.3554 36.3945H30.2538L27.3437 25.9258L24.3554 36.3945Z" fill="black"/>
<path d="M65.5663 47V18.5625H75.1171C76.6666 18.5625 78.0729 18.7188 79.3359 19.0312C80.6119 19.3438 81.6992 19.819 82.5976 20.457C83.496 21.0951 84.1861 21.9023 84.6679 22.8789C85.1627 23.8555 85.4101 25.0078 85.4101 26.3359C85.3971 27.1953 85.2408 28.0091 84.9413 28.7773C84.6549 29.5326 84.2252 30.1966 83.6523 30.7695C83.3398 31.082 82.9817 31.3685 82.5781 31.6289C82.1874 31.8893 81.7512 32.1107 81.2695 32.293V32.3125C82.207 32.5729 82.9492 32.9049 83.496 33.3086C84.0559 33.7122 84.5247 34.181 84.9023 34.7148C85.2929 35.2878 85.5794 35.9128 85.7617 36.5898C85.957 37.2539 86.0546 37.944 86.0546 38.6602C86.0546 40.0273 85.8203 41.2318 85.3515 42.2734C84.8828 43.3151 84.2122 44.1875 83.3398 44.8906C82.4674 45.5938 81.4062 46.1211 80.1562 46.4727C78.9062 46.8242 77.4999 47 75.9374 47H65.5663ZM71.0742 34.4609V42.5664H75.957C76.6731 42.5664 77.3111 42.4753 77.871 42.293C78.4439 42.1107 78.9192 41.8633 79.2968 41.5508C79.7135 41.1992 80.026 40.776 80.2343 40.2812C80.4557 39.7865 80.5663 39.2331 80.5663 38.6211C80.5663 37.9831 80.4817 37.4102 80.3124 36.9023C80.1562 36.3945 79.9023 35.9648 79.5507 35.6133C79.1992 35.2487 78.7434 34.9688 78.1835 34.7734C77.6236 34.5781 76.9596 34.474 76.1913 34.4609H71.0742ZM71.0742 30.4961H75.1562C75.9895 30.4831 76.7252 30.3854 77.3632 30.2031C78.0012 30.0078 78.5156 29.7214 78.9062 29.3438C79.2317 29.0443 79.4791 28.6797 79.6484 28.25C79.8307 27.8203 79.9218 27.332 79.9218 26.7852C79.9218 26.2122 79.8437 25.7109 79.6874 25.2812C79.5442 24.8516 79.3229 24.4935 79.0234 24.207C78.6328 23.8034 78.1054 23.5104 77.4413 23.3281C76.7903 23.1458 76.0221 23.0482 75.1367 23.0352H71.0742V30.4961Z" fill="black"/>
<path d="M133.496 34.8711C133.496 36.0951 133.385 37.2604 133.164 38.3672C132.943 39.4609 132.624 40.4766 132.207 41.4141C131.764 42.3516 131.217 43.2109 130.566 43.9922C129.915 44.7734 129.173 45.4245 128.34 45.9453C127.585 46.401 126.751 46.7526 125.84 47C124.941 47.2604 123.971 47.3906 122.93 47.3906C121.823 47.3906 120.801 47.2474 119.863 46.9609C118.926 46.6745 118.073 46.2708 117.305 45.75C116.549 45.2031 115.872 44.5456 115.273 43.7773C114.674 42.9961 114.173 42.1172 113.769 41.1406C113.405 40.2422 113.125 39.2656 112.93 38.2109C112.747 37.1562 112.656 36.043 112.656 34.8711V30.7305C112.656 29.4805 112.76 28.2956 112.969 27.1758C113.19 26.056 113.509 25.0208 113.926 24.0703C114.329 23.1719 114.818 22.3581 115.391 21.6289C115.977 20.8997 116.647 20.2747 117.402 19.7539C118.144 19.2461 118.978 18.8555 119.902 18.582C120.827 18.3086 121.829 18.1719 122.91 18.1719C124.004 18.1719 125.026 18.3151 125.977 18.6016C126.94 18.875 127.806 19.2721 128.574 19.793C129.342 20.2878 130.013 20.8867 130.586 21.5898C131.172 22.293 131.673 23.0677 132.09 23.9141C132.546 24.8776 132.891 25.9323 133.125 27.0781C133.372 28.224 133.496 29.4414 133.496 30.7305V34.8711ZM127.93 30.6914C127.93 29.9622 127.891 29.2721 127.812 28.6211C127.747 27.957 127.637 27.3451 127.48 26.7852C127.285 26.082 127.025 25.457 126.699 24.9102C126.374 24.3503 125.99 23.8945 125.547 23.543C125.195 23.2826 124.798 23.0807 124.355 22.9375C123.926 22.7943 123.444 22.7227 122.91 22.7227C122.402 22.7227 121.94 22.7878 121.523 22.918C121.12 23.0482 120.755 23.237 120.43 23.4844C119.987 23.849 119.609 24.3047 119.297 24.8516C118.997 25.3984 118.763 26.0365 118.594 26.7656C118.463 27.3255 118.366 27.9375 118.301 28.6016C118.249 29.2656 118.223 29.9622 118.223 30.6914V34.8711C118.223 35.5612 118.249 36.2253 118.301 36.8633C118.353 37.5013 118.444 38.0938 118.574 38.6406C118.717 39.3307 118.926 39.9622 119.199 40.5352C119.486 41.0951 119.818 41.5508 120.195 41.9023C120.547 42.2148 120.944 42.4557 121.387 42.625C121.842 42.7943 122.357 42.8789 122.93 42.8789C123.477 42.8789 123.978 42.8008 124.434 42.6445C124.889 42.4883 125.293 42.2604 125.644 41.9609C126.087 41.5964 126.458 41.1406 126.758 40.5938C127.07 40.0339 127.318 39.4023 127.5 38.6992C127.643 38.1523 127.747 37.5534 127.812 36.9023C127.891 36.2513 127.93 35.5742 127.93 34.8711V30.6914Z" fill="black"/>
<path d="M36.5038 71.5625L36.5234 90.4102C36.5234 91.9987 36.302 93.4115 35.8593 94.6484C35.4296 95.8854 34.8046 96.9271 33.9843 97.7734C33.151 98.6328 32.1354 99.2839 30.9374 99.7266C29.7525 100.169 28.3984 100.391 26.8749 100.391C25.4427 100.391 24.1471 100.169 22.9882 99.7266C21.8424 99.2839 20.8593 98.6393 20.039 97.793C19.2187 96.9466 18.5807 95.9049 18.1249 94.668C17.6822 93.418 17.4609 91.9987 17.4609 90.4102L17.4804 71.5625H22.9687L22.9882 90.4102C23.0012 91.3607 23.0924 92.194 23.2617 92.9102C23.444 93.6263 23.7109 94.2188 24.0624 94.6875C24.388 95.1172 24.7851 95.4427 25.2538 95.6641C25.7226 95.8724 26.263 95.9766 26.8749 95.9766C27.539 95.9766 28.1249 95.8659 28.6328 95.6445C29.1536 95.4102 29.5833 95.0651 29.9218 94.6094C30.2864 94.1406 30.5598 93.5547 30.7421 92.8516C30.9244 92.1484 31.0221 91.3346 31.0351 90.4102L31.0546 71.5625H36.5038Z" fill="black"/>
<path d="M86.5038 76.0352H77.7343V100H72.2265V76.0352H63.5742V71.5625H86.5038V76.0352Z" fill="black"/>
</g>
<defs>
<clipPath id="clip0_121_89">
<rect width="25" height="29" fill="white"/>
</clipPath>
</defs>
</svg>
