<svg width="25" height="29" viewBox="0 0 25 29" fill="none" xmlns="http://www.w3.org/2000/svg">
<g clip-path="url(#clip0_121_91)">
<rect width="25" height="29" fill="white"/>
<path d="M-25 -29H125V145H-25V-29Z" fill="var(--background)"/>
<path fill-rule="evenodd" clip-rule="evenodd" d="M124 -28H-24V144H124V-28ZM-25 -29V145H125V-29H-25Z" fill="black"/>
<path d="M6.54291 41.0625H-1.99224L-3.67193 47H-9.45318L-0.136776 18.5625H4.84369L13.9843 47H8.20307L6.54291 41.0625ZM-0.644588 36.3945H5.25385L2.34369 25.9258L-0.644588 36.3945Z" fill="black"/>
<path d="M40.5663 47V18.5625H50.1171C51.6666 18.5625 53.0729 18.7188 54.3359 19.0312C55.6119 19.3438 56.6992 19.819 57.5976 20.457C58.496 21.0951 59.1861 21.9023 59.6679 22.8789C60.1627 23.8555 60.4101 25.0078 60.4101 26.3359C60.3971 27.1953 60.2408 28.0091 59.9413 28.7773C59.6549 29.5326 59.2252 30.1966 58.6523 30.7695C58.3398 31.082 57.9817 31.3685 57.5781 31.6289C57.1874 31.8893 56.7512 32.1107 56.2695 32.293V32.3125C57.207 32.5729 57.9492 32.9049 58.496 33.3086C59.0559 33.7122 59.5247 34.181 59.9023 34.7148C60.2929 35.2878 60.5794 35.9128 60.7617 36.5898C60.957 37.2539 61.0546 37.944 61.0546 38.6602C61.0546 40.0273 60.8203 41.2318 60.3515 42.2734C59.8828 43.3151 59.2122 44.1875 58.3398 44.8906C57.4674 45.5938 56.4062 46.1211 55.1562 46.4727C53.9062 46.8242 52.4999 47 50.9374 47H40.5663ZM46.0742 34.4609V42.5664H50.957C51.6731 42.5664 52.3111 42.4753 52.871 42.293C53.4439 42.1107 53.9192 41.8633 54.2968 41.5508C54.7135 41.1992 55.026 40.776 55.2343 40.2812C55.4557 39.7865 55.5663 39.2331 55.5663 38.6211C55.5663 37.9831 55.4817 37.4102 55.3124 36.9023C55.1562 36.3945 54.9023 35.9648 54.5507 35.6133C54.1992 35.2487 53.7434 34.9688 53.1835 34.7734C52.6236 34.5781 51.9596 34.474 51.1913 34.4609H46.0742ZM46.0742 30.4961H50.1562C50.9895 30.4831 51.7252 30.3854 52.3632 30.2031C53.0012 30.0078 53.5156 29.7214 53.9062 29.3438C54.2317 29.0443 54.4791 28.6797 54.6484 28.25C54.8307 27.8203 54.9218 27.332 54.9218 26.7852C54.9218 26.2122 54.8437 25.7109 54.6874 25.2812C54.5442 24.8516 54.3229 24.4935 54.0234 24.207C53.6328 23.8034 53.1054 23.5104 52.4413 23.3281C51.7903 23.1458 51.0221 23.0482 50.1367 23.0352H46.0742V30.4961Z" fill="black"/>
<path d="M108.496 34.8711C108.496 36.0951 108.385 37.2604 108.164 38.3672C107.943 39.4609 107.624 40.4766 107.207 41.4141C106.764 42.3516 106.217 43.2109 105.566 43.9922C104.915 44.7734 104.173 45.4245 103.34 45.9453C102.585 46.401 101.751 46.7526 100.84 47C99.9413 47.2604 98.9713 47.3906 97.9296 47.3906C96.8229 47.3906 95.8007 47.2474 94.8632 46.9609C93.9257 46.6745 93.0729 46.2708 92.3046 45.75C91.5494 45.2031 90.8723 44.5456 90.2734 43.7773C89.6744 42.9961 89.1731 42.1172 88.7695 41.1406C88.4049 40.2422 88.1249 39.2656 87.9296 38.2109C87.7473 37.1562 87.6562 36.043 87.6562 34.8711V30.7305C87.6562 29.4805 87.7604 28.2956 87.9687 27.1758C88.19 26.056 88.5091 25.0208 88.9257 24.0703C89.3294 23.1719 89.8176 22.3581 90.3906 21.6289C90.9765 20.8997 91.6471 20.2747 92.4023 19.7539C93.1445 19.2461 93.9778 18.8555 94.9023 18.582C95.8268 18.3086 96.8294 18.1719 97.9101 18.1719C99.0038 18.1719 100.026 18.3151 100.977 18.6016C101.94 18.875 102.806 19.2721 103.574 19.793C104.342 20.2878 105.013 20.8867 105.586 21.5898C106.172 22.293 106.673 23.0677 107.09 23.9141C107.546 24.8776 107.891 25.9323 108.125 27.0781C108.372 28.224 108.496 29.4414 108.496 30.7305V34.8711ZM102.93 30.6914C102.93 29.9622 102.891 29.2721 102.812 28.6211C102.747 27.957 102.637 27.3451 102.48 26.7852C102.285 26.082 102.025 25.457 101.699 24.9102C101.374 24.3503 100.99 23.8945 100.547 23.543C100.195 23.2826 99.7981 23.0807 99.3554 22.9375C98.9257 22.7943 98.4439 22.7227 97.9101 22.7227C97.4023 22.7227 96.94 22.7878 96.5234 22.918C96.1197 23.0482 95.7551 23.237 95.4296 23.4844C94.9869 23.849 94.6093 24.3047 94.2968 24.8516C93.9973 25.3984 93.763 26.0365 93.5937 26.7656C93.4635 27.3255 93.3658 27.9375 93.3007 28.6016C93.2486 29.2656 93.2226 29.9622 93.2226 30.6914V34.8711C93.2226 35.5612 93.2486 36.2253 93.3007 36.8633C93.3528 37.5013 93.4439 38.0938 93.5742 38.6406C93.7174 39.3307 93.9257 39.9622 94.1992 40.5352C94.4856 41.0951 94.8176 41.5508 95.1953 41.9023C95.5468 42.2148 95.9439 42.4557 96.3867 42.625C96.8424 42.7943 97.3567 42.8789 97.9296 42.8789C98.4765 42.8789 98.9778 42.8008 99.4335 42.6445C99.8893 42.4883 100.293 42.2604 100.644 41.9609C101.087 41.5964 101.458 41.1406 101.758 40.5938C102.07 40.0339 102.318 39.4023 102.5 38.6992C102.643 38.1523 102.747 37.5534 102.812 36.9023C102.891 36.2513 102.93 35.5742 102.93 34.8711V30.6914Z" fill="black"/>
<path d="M11.5038 71.5625L11.5234 90.4102C11.5234 91.9987 11.302 93.4115 10.8593 94.6484C10.4296 95.8854 9.80463 96.9271 8.98432 97.7734C8.15098 98.6328 7.13536 99.2839 5.93744 99.7266C4.75255 100.169 3.39838 100.391 1.87494 100.391C0.442651 100.391 -0.852922 100.169 -2.01178 99.7266C-3.15761 99.2839 -4.14068 98.6393 -4.96099 97.793C-5.78131 96.9466 -6.41933 95.9049 -6.87506 94.668C-7.31777 93.418 -7.53912 91.9987 -7.53912 90.4102L-7.51959 71.5625H-2.03131L-2.01178 90.4102C-1.99876 91.3607 -1.90761 92.194 -1.73834 92.9102C-1.55605 93.6263 -1.28912 94.2188 -0.937557 94.6875C-0.612036 95.1172 -0.214901 95.4427 0.253849 95.6641C0.722599 95.8724 1.26296 95.9766 1.87494 95.9766C2.53901 95.9766 3.12494 95.8659 3.63276 95.6445C4.15359 95.4102 4.58328 95.0651 4.92182 94.6094C5.2864 94.1406 5.55984 93.5547 5.74213 92.8516C5.92442 92.1484 6.02208 91.3346 6.0351 90.4102L6.05463 71.5625H11.5038Z" fill="black"/>
<path d="M61.5038 76.0352H52.7343V100H47.2265V76.0352H38.5742V71.5625H61.5038V76.0352Z" fill="black"/>
</g>
<defs>
<clipPath id="clip0_121_91">
<rect width="25" height="29" fill="white"/>
</clipPath>
</defs>
</svg>
