<svg width="25" height="29" viewBox="0 0 25 29" fill="none" xmlns="http://www.w3.org/2000/svg">
<g clip-path="url(#clip0_121_93)">
<rect width="25" height="29" fill="white"/>
<path d="M-50 -29H100V145H-50V-29Z" fill="#E3E3E3"/>
<path fill-rule="evenodd" clip-rule="evenodd" d="M99 -28H-49V144H99V-28ZM-50 -29V145H100V-29H-50Z" fill="black"/>
<path d="M-18.4571 41.0625H-26.9922L-28.6719 47H-34.4532L-25.1368 18.5625H-20.1563L-11.0157 47H-16.7969L-18.4571 41.0625ZM-25.6446 36.3945H-19.7462L-22.6563 25.9258L-25.6446 36.3945Z" fill="black"/>
<path d="M15.5663 47V18.5625H25.1171C26.6666 18.5625 28.0729 18.7188 29.3359 19.0312C30.6119 19.3438 31.6992 19.819 32.5976 20.457C33.496 21.0951 34.1861 21.9023 34.6679 22.8789C35.1627 23.8555 35.4101 25.0078 35.4101 26.3359C35.3971 27.1953 35.2408 28.0091 34.9413 28.7773C34.6549 29.5326 34.2252 30.1966 33.6523 30.7695C33.3398 31.082 32.9817 31.3685 32.5781 31.6289C32.1874 31.8893 31.7512 32.1107 31.2695 32.293V32.3125C32.207 32.5729 32.9492 32.9049 33.496 33.3086C34.0559 33.7122 34.5247 34.181 34.9023 34.7148C35.2929 35.2878 35.5794 35.9128 35.7617 36.5898C35.957 37.2539 36.0546 37.944 36.0546 38.6602C36.0546 40.0273 35.8203 41.2318 35.3515 42.2734C34.8828 43.3151 34.2122 44.1875 33.3398 44.8906C32.4674 45.5938 31.4062 46.1211 30.1562 46.4727C28.9062 46.8242 27.4999 47 25.9374 47H15.5663ZM21.0742 34.4609V42.5664H25.957C26.6731 42.5664 27.3111 42.4753 27.871 42.293C28.4439 42.1107 28.9192 41.8633 29.2968 41.5508C29.7135 41.1992 30.026 40.776 30.2343 40.2812C30.4557 39.7865 30.5663 39.2331 30.5663 38.6211C30.5663 37.9831 30.4817 37.4102 30.3124 36.9023C30.1562 36.3945 29.9023 35.9648 29.5507 35.6133C29.1992 35.2487 28.7434 34.9688 28.1835 34.7734C27.6236 34.5781 26.9596 34.474 26.1913 34.4609H21.0742ZM21.0742 30.4961H25.1562C25.9895 30.4831 26.7252 30.3854 27.3632 30.2031C28.0012 30.0078 28.5156 29.7214 28.9062 29.3438C29.2317 29.0443 29.4791 28.6797 29.6484 28.25C29.8307 27.8203 29.9218 27.332 29.9218 26.7852C29.9218 26.2122 29.8437 25.7109 29.6874 25.2812C29.5442 24.8516 29.3229 24.4935 29.0234 24.207C28.6328 23.8034 28.1054 23.5104 27.4413 23.3281C26.7903 23.1458 26.0221 23.0482 25.1367 23.0352H21.0742V30.4961Z" fill="black"/>
<path d="M83.496 34.8711C83.496 36.0951 83.3854 37.2604 83.164 38.3672C82.9426 39.4609 82.6236 40.4766 82.207 41.4141C81.7643 42.3516 81.2174 43.2109 80.5663 43.9922C79.9153 44.7734 79.1731 45.4245 78.3398 45.9453C77.5846 46.401 76.7512 46.7526 75.8398 47C74.9413 47.2604 73.9713 47.3906 72.9296 47.3906C71.8229 47.3906 70.8007 47.2474 69.8632 46.9609C68.9257 46.6745 68.0729 46.2708 67.3046 45.75C66.5494 45.2031 65.8723 44.5456 65.2734 43.7773C64.6744 42.9961 64.1731 42.1172 63.7695 41.1406C63.4049 40.2422 63.1249 39.2656 62.9296 38.2109C62.7473 37.1562 62.6562 36.043 62.6562 34.8711V30.7305C62.6562 29.4805 62.7604 28.2956 62.9687 27.1758C63.19 26.056 63.5091 25.0208 63.9257 24.0703C64.3294 23.1719 64.8176 22.3581 65.3906 21.6289C65.9765 20.8997 66.6471 20.2747 67.4023 19.7539C68.1445 19.2461 68.9778 18.8555 69.9023 18.582C70.8268 18.3086 71.8294 18.1719 72.9101 18.1719C74.0038 18.1719 75.026 18.3151 75.9765 18.6016C76.94 18.875 77.8059 19.2721 78.5742 19.793C79.3424 20.2878 80.013 20.8867 80.5859 21.5898C81.1718 22.293 81.6731 23.0677 82.0898 23.9141C82.5455 24.8776 82.8906 25.9323 83.1249 27.0781C83.3723 28.224 83.496 29.4414 83.496 30.7305V34.8711ZM77.9296 30.6914C77.9296 29.9622 77.8906 29.2721 77.8124 28.6211C77.7473 27.957 77.6367 27.3451 77.4804 26.7852C77.2851 26.082 77.0247 25.457 76.6992 24.9102C76.3736 24.3503 75.9895 23.8945 75.5468 23.543C75.1953 23.2826 74.7981 23.0807 74.3554 22.9375C73.9257 22.7943 73.4439 22.7227 72.9101 22.7227C72.4023 22.7227 71.94 22.7878 71.5234 22.918C71.1197 23.0482 70.7551 23.237 70.4296 23.4844C69.9869 23.849 69.6093 24.3047 69.2968 24.8516C68.9973 25.3984 68.763 26.0365 68.5937 26.7656C68.4635 27.3255 68.3658 27.9375 68.3007 28.6016C68.2486 29.2656 68.2226 29.9622 68.2226 30.6914V34.8711C68.2226 35.5612 68.2486 36.2253 68.3007 36.8633C68.3528 37.5013 68.4439 38.0938 68.5742 38.6406C68.7174 39.3307 68.9257 39.9622 69.1992 40.5352C69.4856 41.0951 69.8176 41.5508 70.1953 41.9023C70.5468 42.2148 70.9439 42.4557 71.3867 42.625C71.8424 42.7943 72.3567 42.8789 72.9296 42.8789C73.4765 42.8789 73.9778 42.8008 74.4335 42.6445C74.8893 42.4883 75.2929 42.2604 75.6445 41.9609C76.0872 41.5964 76.4583 41.1406 76.7578 40.5938C77.0703 40.0339 77.3176 39.4023 77.4999 38.6992C77.6432 38.1523 77.7473 37.5534 77.8124 36.9023C77.8906 36.2513 77.9296 35.5742 77.9296 34.8711V30.6914Z" fill="black"/>
<path d="M-13.4962 71.5625L-13.4766 90.4102C-13.4766 91.9987 -13.698 93.4115 -14.1407 94.6484C-14.5704 95.8854 -15.1954 96.9271 -16.0157 97.7734C-16.849 98.6328 -17.8646 99.2839 -19.0626 99.7266C-20.2475 100.169 -21.6016 100.391 -23.1251 100.391C-24.5573 100.391 -25.8529 100.169 -27.0118 99.7266C-28.1576 99.2839 -29.1407 98.6393 -29.961 97.793C-30.7813 96.9466 -31.4193 95.9049 -31.8751 94.668C-32.3178 93.418 -32.5391 91.9987 -32.5391 90.4102L-32.5196 71.5625H-27.0313L-27.0118 90.4102C-26.9988 91.3607 -26.9076 92.194 -26.7383 92.9102C-26.556 93.6263 -26.2891 94.2188 -25.9376 94.6875C-25.612 95.1172 -25.2149 95.4427 -24.7462 95.6641C-24.2774 95.8724 -23.737 95.9766 -23.1251 95.9766C-22.461 95.9766 -21.8751 95.8659 -21.3672 95.6445C-20.8464 95.4102 -20.4167 95.0651 -20.0782 94.6094C-19.7136 94.1406 -19.4402 93.5547 -19.2579 92.8516C-19.0756 92.1484 -18.9779 91.3346 -18.9649 90.4102L-18.9454 71.5625H-13.4962Z" fill="black"/>
<path d="M36.5038 76.0352H27.7343V100H22.2265V76.0352H13.5742V71.5625H36.5038V76.0352Z" fill="black"/>
</g>
<defs>
<clipPath id="clip0_121_93">
<rect width="25" height="29" fill="white"/>
</clipPath>
</defs>
</svg>
