<svg width="25" height="29" viewBox="0 0 25 29" fill="none" xmlns="http://www.w3.org/2000/svg">
<g clip-path="url(#clip0_118_11380)">
<rect width="25" height="29" fill="white"/>
<path d="M0 0H150V174H0V0Z" fill="#E3E3E3"/>
<path fill-rule="evenodd" clip-rule="evenodd" d="M149 1H1V173H149V1ZM0 0V174H150V0H0Z" fill="black"/>
<path d="M54.2592 68.0172H45.5717V48.2985H32.6967V68.0172H23.978V22.5172H32.6967V41.1735H45.5717V22.5172H54.2592V68.0172Z" fill="black"/>
<path d="M35.0092 108L39.3217 125.094L44.228 108H55.1342V153.5H47.0717V140.031L47.4467 118.75L41.478 138.5H37.1342L31.7905 119.594L32.1655 140.031V153.5H24.103V108H35.0092Z" fill="black"/>
<path d="M126.448 48.611C126.448 50.5693 126.271 52.4339 125.917 54.2047C125.562 55.9547 125.052 57.5797 124.385 59.0797C123.677 60.5797 122.802 61.9547 121.76 63.2047C120.719 64.4547 119.531 65.4964 118.198 66.3297C116.989 67.0589 115.656 67.6214 114.198 68.0172C112.76 68.4339 111.208 68.6422 109.542 68.6422C107.771 68.6422 106.135 68.4131 104.635 67.9547C103.135 67.4964 101.771 66.8506 100.542 66.0172C99.3332 65.1422 98.2498 64.0902 97.2915 62.861C96.3332 61.611 95.5311 60.2047 94.8853 58.6422C94.3019 57.2047 93.854 55.6422 93.5415 53.9547C93.2498 52.2672 93.104 50.486 93.104 48.611V41.986C93.104 39.986 93.2707 38.0902 93.604 36.2985C93.9582 34.5068 94.4686 32.8506 95.1353 31.3297C95.7811 29.8922 96.5623 28.5902 97.479 27.4235C98.4165 26.2568 99.4894 25.2568 100.698 24.4235C101.885 23.611 103.219 22.986 104.698 22.5485C106.177 22.111 107.781 21.8922 109.51 21.8922C111.26 21.8922 112.896 22.1214 114.417 22.5797C115.958 23.0172 117.344 23.6527 118.573 24.486C119.802 25.2777 120.875 26.236 121.792 27.361C122.729 28.486 123.531 29.7256 124.198 31.0797C124.927 32.6214 125.479 34.3089 125.854 36.1422C126.25 37.9756 126.448 39.9235 126.448 41.986V48.611ZM117.542 41.9235C117.542 40.7568 117.479 39.6527 117.354 38.611C117.25 37.5485 117.073 36.5693 116.823 35.6735C116.51 34.5485 116.094 33.5485 115.573 32.6735C115.052 31.7777 114.437 31.0485 113.729 30.486C113.167 30.0693 112.531 29.7464 111.823 29.5172C111.135 29.2881 110.364 29.1735 109.51 29.1735C108.698 29.1735 107.958 29.2777 107.292 29.486C106.646 29.6943 106.062 29.9964 105.542 30.3922C104.833 30.9756 104.229 31.7047 103.729 32.5797C103.25 33.4547 102.875 34.4756 102.604 35.6422C102.396 36.5381 102.239 37.5172 102.135 38.5797C102.052 39.6422 102.01 40.7568 102.01 41.9235V48.611C102.01 49.7152 102.052 50.7777 102.135 51.7985C102.219 52.8193 102.364 53.7672 102.573 54.6422C102.802 55.7464 103.135 56.7568 103.573 57.6735C104.031 58.5693 104.562 59.2985 105.167 59.861C105.729 60.361 106.364 60.7464 107.073 61.0172C107.802 61.2881 108.625 61.4235 109.542 61.4235C110.417 61.4235 111.219 61.2985 111.948 61.0485C112.677 60.7985 113.323 60.4339 113.885 59.9547C114.594 59.3714 115.187 58.6422 115.667 57.7672C116.167 56.8714 116.562 55.861 116.854 54.736C117.083 53.861 117.25 52.9027 117.354 51.861C117.479 50.8193 117.542 49.736 117.542 48.611V41.9235Z" fill="black"/>
<path d="M122.698 132.562H104.01V145.406H125.854V152.5H95.1978V107H125.76V114.156H104.01V125.625H122.698V132.562Z" fill="black"/>
</g>
<defs>
<clipPath id="clip0_118_11380">
<rect width="25" height="29" fill="white"/>
</clipPath>
</defs>
</svg>
