<svg xmlns="http://www.w3.org/2000/svg" width="25" height="29" fill="none">
  <g clip-path="url(#a)">
    <path fill="var(--white)" d="M0 0h25v29H0z" />
    <path fill="var(--background)" d="M0 0h150v174H0z" />
    <path fill="var(--black)" fill-rule="evenodd" d="M149 1H1v172h148zM0 0v174h150V0z" clip-rule="evenodd" />
    <path fill="var(--black)"
      d="M21.031 70V24.5h15.282c2.479 0 4.729.25 6.75.75 2.041.5 3.78 1.26 5.218 2.281a10.25 10.25 0 0 1 3.313 3.875c.791 1.563 1.187 3.407 1.187 5.532a11.13 11.13 0 0 1-.75 3.906 8.946 8.946 0 0 1-2.062 3.187c-.5.5-1.073.959-1.719 1.375-.625.417-1.323.771-2.094 1.063v.031c1.5.417 2.688.948 3.563 1.594a9.61 9.61 0 0 1 2.25 2.25 9.816 9.816 0 0 1 1.375 3 11.68 11.68 0 0 1 .468 3.312c0 2.188-.374 4.115-1.124 5.782a11.199 11.199 0 0 1-3.22 4.187c-1.395 1.125-3.093 1.969-5.093 2.531-2 .563-4.25.844-6.75.844zm8.813-20.062v12.968h7.812c1.146 0 2.167-.146 3.063-.437.916-.292 1.677-.688 2.281-1.188a5.33 5.33 0 0 0 1.5-2.031c.354-.792.531-1.677.531-2.656 0-1.021-.135-1.938-.406-2.75a4.9 4.9 0 0 0-1.219-2.063c-.562-.583-1.291-1.031-2.187-1.343-.896-.313-1.959-.48-3.188-.5zm0-6.344h6.531c1.333-.021 2.51-.177 3.531-.469 1.021-.312 1.844-.77 2.469-1.375.52-.48.917-1.062 1.188-1.75.291-.687.437-1.469.437-2.344 0-.916-.125-1.718-.375-2.406-.23-.687-.583-1.26-1.062-1.719-.626-.646-1.47-1.114-2.532-1.406-1.041-.292-2.27-.448-3.687-.469h-6.5zM107.375 62.906h21.313V70H98.563V24.5h8.812zM52.844 134.594c0 1.958-.177 3.823-.532 5.594a23.38 23.38 0 0 1-1.53 4.874 19.263 19.263 0 0 1-2.626 4.126 14.887 14.887 0 0 1-3.562 3.124 15.59 15.59 0 0 1-4 1.688c-1.438.417-2.99.625-4.657.625-1.77 0-3.406-.229-4.906-.687A15.147 15.147 0 0 1 26.938 152a16.057 16.057 0 0 1-3.25-3.156 18.514 18.514 0 0 1-2.407-4.219c-.583-1.437-1.031-3-1.343-4.687a31.36 31.36 0 0 1-.438-5.344v-6.625c0-2 .167-3.896.5-5.688.354-1.791.865-3.448 1.531-4.969a18.702 18.702 0 0 1 2.344-3.906 15.173 15.173 0 0 1 3.219-3c1.187-.812 2.52-1.437 4-1.875 1.479-.437 3.083-.656 4.812-.656 1.75 0 3.386.229 4.907.687 1.541.438 2.927 1.073 4.156 1.907 1.229.791 2.302 1.75 3.218 2.875a18.651 18.651 0 0 1 2.407 3.718c.729 1.542 1.281 3.23 1.656 5.063.396 1.833.594 3.781.594 5.844zm-8.907-6.688c0-1.166-.062-2.271-.187-3.312a17.169 17.169 0 0 0-.531-2.938c-.313-1.125-.73-2.125-1.25-3-.521-.896-1.136-1.625-1.844-2.187a6.565 6.565 0 0 0-1.906-.969c-.688-.229-1.459-.344-2.313-.344-.812 0-1.552.104-2.218.313a5.81 5.81 0 0 0-1.75.906c-.709.583-1.313 1.313-1.813 2.187-.48.876-.854 1.896-1.125 3.063a22.856 22.856 0 0 0-.469 2.937 42.855 42.855 0 0 0-.125 3.344v6.688c0 1.104.042 2.166.125 3.187.084 1.021.23 1.969.438 2.844.229 1.104.562 2.115 1 3.031.458.896.99 1.625 1.593 2.188.563.5 1.198.885 1.907 1.156.729.271 1.552.406 2.468.406.876 0 1.678-.125 2.407-.375a5.914 5.914 0 0 0 1.937-1.093 7.405 7.405 0 0 0 1.782-2.188c.5-.896.895-1.906 1.187-3.031.23-.875.396-1.834.5-2.875a27.28 27.28 0 0 0 .188-3.25zM129.25 148.688c-.562.687-1.333 1.385-2.312 2.093-.98.709-2.136 1.344-3.469 1.907-1.354.583-2.865 1.052-4.531 1.406-1.667.354-3.459.531-5.376.531-1.666 0-3.239-.198-4.718-.594a15.356 15.356 0 0 1-4.032-1.656 15.949 15.949 0 0 1-3.312-2.75 16.144 16.144 0 0 1-2.5-3.719c-.792-1.541-1.396-3.281-1.812-5.218-.396-1.938-.594-4.042-.594-6.313v-6.187c0-2.167.198-4.178.594-6.032.395-1.875.958-3.573 1.687-5.094a19.733 19.733 0 0 1 2.375-3.656 17.315 17.315 0 0 1 3-2.812 14.557 14.557 0 0 1 4.156-2.032 16.18 16.18 0 0 1 4.75-.687c2.563 0 4.792.323 6.688.969 1.916.646 3.531 1.573 4.844 2.781 1.312 1.229 2.333 2.719 3.062 4.469.75 1.75 1.24 3.718 1.469 5.906h-8.563c-.146-1.104-.375-2.083-.687-2.938-.292-.854-.698-1.572-1.219-2.156-.583-.646-1.323-1.125-2.219-1.437-.875-.334-1.927-.5-3.156-.5-.667 0-1.313.104-1.937.312a6.351 6.351 0 0 0-1.75.907c-.709.541-1.355 1.25-1.938 2.124-.562.876-1.031 1.907-1.406 3.094a19.604 19.604 0 0 0-.688 3.063 28.483 28.483 0 0 0-.218 3.656v6.25c0 1.646.104 3.146.312 4.5.229 1.354.542 2.552.938 3.594.25.604.531 1.166.843 1.687.334.5.698.948 1.094 1.344a6.885 6.885 0 0 0 2.313 1.531c.895.334 1.906.511 3.031.531.687 0 1.364-.052 2.031-.156.667-.104 1.292-.25 1.875-.437a9.775 9.775 0 0 0 1.531-.625c.459-.25.802-.511 1.032-.782l.031-8.25h-7.531v-6.562h16.281z" />
  </g>
  <defs>
    <clipPath id="a">
      <path fill="var(--white)" d="M0 0h25v29H0z" />
    </clipPath>
  </defs>
</svg>