<svg width="25" height="29" viewBox="0 0 25 29" fill="none" xmlns="http://www.w3.org/2000/svg">
<g clip-path="url(#clip0_118_11400)">
<rect width="25" height="29" fill="white"/>
<path d="M-100 -29H50V145H-100V-29Z" fill="var(--background)"/>
<path fill-rule="evenodd" clip-rule="evenodd" d="M49 -28H-99V144H49V-28ZM-100 -29V145H50V-29H-100Z" fill="black"/>
<path d="M-45.7408 39.0172H-54.4283V19.2985H-67.3033V39.0172H-76.022V-6.48276H-67.3033V12.1735H-54.4283V-6.48276H-45.7408V39.0172Z" fill="black"/>
<path d="M-64.9908 79L-60.6783 96.0938L-55.772 79H-44.8658V124.5H-52.9283V111.031L-52.5533 89.75L-58.522 109.5H-62.8658L-68.2095 90.5938L-67.8345 111.031V124.5H-75.897V79H-64.9908Z" fill="black"/>
<path d="M26.4478 19.611C26.4478 21.5693 26.2707 23.4339 25.9165 25.2047C25.5623 26.9547 25.0519 28.5797 24.3853 30.0797C23.6769 31.5797 22.8019 32.9547 21.7603 34.2047C20.7186 35.4547 19.5311 36.4964 18.1978 37.3297C16.9894 38.0589 15.6561 38.6214 14.1978 39.0172C12.7603 39.4339 11.2082 39.6422 9.5415 39.6422C7.77067 39.6422 6.13525 39.4131 4.63525 38.9547C3.13525 38.4964 1.77067 37.8506 0.541504 37.0172C-0.666832 36.1422 -1.75016 35.0902 -2.7085 33.861C-3.66683 32.611 -4.46891 31.2047 -5.11475 29.6422C-5.69808 28.2047 -6.146 26.6422 -6.4585 24.9547C-6.75016 23.2672 -6.896 21.486 -6.896 19.611V12.986C-6.896 10.986 -6.72933 9.09016 -6.396 7.29849C-6.04183 5.50682 -5.53141 3.85057 -4.86475 2.32974C-4.21891 0.892242 -3.43766 -0.409842 -2.521 -1.57651C-1.5835 -2.74317 -0.510582 -3.74317 0.697754 -4.57651C1.88525 -5.38901 3.21859 -6.01401 4.69775 -6.45151C6.17692 -6.88901 7.78109 -7.10776 9.51025 -7.10776C11.2603 -7.10776 12.8957 -6.87859 14.4165 -6.42026C15.9582 -5.98276 17.3436 -5.34734 18.5728 -4.51401C19.8019 -3.72234 20.8748 -2.76401 21.7915 -1.63901C22.729 -0.514008 23.5311 0.725576 24.1978 2.07974C24.9269 3.62141 25.479 5.30891 25.854 7.14224C26.2498 8.97557 26.4478 10.9235 26.4478 12.986V19.611ZM17.5415 12.9235C17.5415 11.7568 17.479 10.6527 17.354 9.61099C17.2498 8.54849 17.0728 7.56932 16.8228 6.67349C16.5103 5.54849 16.0936 4.54849 15.5728 3.67349C15.0519 2.77766 14.4373 2.04849 13.729 1.48599C13.1665 1.06933 12.5311 0.746408 11.8228 0.517242C11.1353 0.288076 10.3644 0.173492 9.51025 0.173492C8.69775 0.173492 7.95817 0.277658 7.2915 0.485992C6.64567 0.694326 6.06234 0.996408 5.5415 1.39224C4.83317 1.97558 4.229 2.70474 3.729 3.57974C3.24984 4.45474 2.87484 5.47557 2.604 6.64224C2.39567 7.53807 2.23942 8.51724 2.13525 9.57974C2.05192 10.6422 2.01025 11.7568 2.01025 12.9235V19.611C2.01025 20.7152 2.05192 21.7777 2.13525 22.7985C2.21859 23.8193 2.36442 24.7672 2.57275 25.6422C2.80192 26.7464 3.13525 27.7568 3.57275 28.6735C4.03109 29.5693 4.56234 30.2985 5.1665 30.861C5.729 31.361 6.36442 31.7464 7.07275 32.0172C7.80192 32.2881 8.62484 32.4235 9.5415 32.4235C10.4165 32.4235 11.2186 32.2985 11.9478 32.0485C12.6769 31.7985 13.3228 31.4339 13.8853 30.9547C14.5936 30.3714 15.1873 29.6422 15.6665 28.7672C16.1665 27.8714 16.5623 26.861 16.854 25.736C17.0832 24.861 17.2498 23.9027 17.354 22.861C17.479 21.8193 17.5415 20.736 17.5415 19.611V12.9235Z" fill="black"/>
<path d="M22.6978 103.562H4.01025V116.406H25.854V123.5H-4.80225V78H25.7603V85.1562H4.01025V96.625H22.6978V103.562Z" fill="black"/>
</g>
<defs>
<clipPath id="clip0_118_11400">
<rect width="25" height="29" fill="white"/>
</clipPath>
</defs>
</svg>
