<svg xmlns="http://www.w3.org/2000/svg" width="25" height="29" fill="none"><g clip-path="url(#a)"><path fill="var(--white)" d="M0 0h25v29H0z"/><path fill="var(--background)" d="M-125-29H25v174h-150z"/><path fill="var(--black)" fill-rule="evenodd" d="M24-28h-148v172H24zm-149-1v174H25V-29z" clip-rule="evenodd"/><path fill="var(--black)" d="M-103.969 41V-4.5h15.281c2.48 0 4.73.25 6.75.75 2.042.5 3.782 1.26 5.22 2.281a10.249 10.249 0 0 1 3.312 3.875c.791 1.563 1.187 3.407 1.187 5.531a11.13 11.13 0 0 1-.75 3.907 8.946 8.946 0 0 1-2.062 3.187c-.5.5-1.073.959-1.719 1.375-.625.417-1.323.771-2.094 1.063v.031c1.5.417 2.688.948 3.563 1.594a9.61 9.61 0 0 1 2.25 2.25 9.816 9.816 0 0 1 1.375 3 11.68 11.68 0 0 1 .469 3.312c0 2.188-.376 4.115-1.126 5.782a11.199 11.199 0 0 1-3.218 4.187c-1.396 1.125-3.094 1.969-5.094 2.531-2 .563-4.25.844-6.75.844zm8.813-20.062v12.968h7.812c1.146 0 2.167-.146 3.063-.437.916-.292 1.677-.688 2.281-1.188a5.33 5.33 0 0 0 1.5-2.031c.354-.792.531-1.677.531-2.656 0-1.021-.135-1.938-.406-2.75a4.9 4.9 0 0 0-1.219-2.063c-.562-.583-1.291-1.031-2.187-1.343-.896-.313-1.959-.48-3.188-.5zm0-6.344h6.531c1.333-.021 2.51-.177 3.531-.469 1.021-.312 1.844-.77 2.469-1.375.52-.48.917-1.062 1.188-1.75.291-.687.437-1.469.437-2.344 0-.916-.125-1.719-.375-2.406-.23-.687-.583-1.26-1.062-1.719-.626-.646-1.47-1.114-2.532-1.406-1.041-.292-2.27-.448-3.687-.469h-6.5zM-17.625 33.906H3.688V41h-30.125V-4.5h8.812zM-72.156 105.594c0 1.958-.177 3.823-.531 5.594a23.38 23.38 0 0 1-1.532 4.874 19.263 19.263 0 0 1-2.625 4.126 14.887 14.887 0 0 1-3.562 3.124 15.59 15.59 0 0 1-4 1.688c-1.438.417-2.99.625-4.656.625-1.771 0-3.407-.229-4.907-.687A15.147 15.147 0 0 1-98.063 123a16.047 16.047 0 0 1-3.249-3.156 18.493 18.493 0 0 1-2.407-4.219c-.583-1.437-1.031-3-1.343-4.687a31.329 31.329 0 0 1-.438-5.344v-6.625c0-2 .167-3.896.5-5.688.354-1.791.865-3.448 1.531-4.969a18.676 18.676 0 0 1 2.344-3.906 15.13 15.13 0 0 1 3.219-3c1.187-.812 2.52-1.437 4-1.875 1.479-.437 3.083-.656 4.812-.656 1.75 0 3.386.23 4.906.688 1.542.437 2.928 1.072 4.157 1.906 1.229.791 2.302 1.75 3.219 2.875a18.65 18.65 0 0 1 2.406 3.719c.729 1.541 1.281 3.229 1.656 5.062.396 1.833.594 3.781.594 5.844zm-8.906-6.688c0-1.166-.063-2.27-.188-3.312a17.17 17.17 0 0 0-.531-2.938c-.313-1.125-.73-2.125-1.25-3-.521-.896-1.136-1.625-1.844-2.187a6.577 6.577 0 0 0-1.906-.969c-.688-.23-1.459-.344-2.313-.344-.812 0-1.552.104-2.219.313-.645.208-1.229.51-1.75.906-.708.583-1.312 1.313-1.812 2.188-.48.874-.854 1.895-1.125 3.062a22.845 22.845 0 0 0-.469 2.938 42.826 42.826 0 0 0-.125 3.343v6.688c0 1.104.042 2.166.125 3.187.084 1.021.23 1.969.438 2.844.229 1.104.562 2.115 1 3.031.458.896.99 1.625 1.594 2.188.562.5 1.197.885 1.906 1.156.729.271 1.552.406 2.469.406.874 0 1.677-.125 2.406-.375a5.914 5.914 0 0 0 1.937-1.093 7.405 7.405 0 0 0 1.781-2.188c.5-.896.896-1.906 1.188-3.031.23-.875.396-1.834.5-2.875a27.28 27.28 0 0 0 .188-3.25zM4.25 119.688c-.562.687-1.333 1.385-2.312 2.093-.98.709-2.136 1.344-3.47 1.907-1.353.583-2.864 1.052-4.53 1.406-1.667.354-3.459.531-5.375.531-1.667 0-3.24-.198-4.72-.594a15.348 15.348 0 0 1-4.03-1.656 15.944 15.944 0 0 1-3.313-2.75 16.137 16.137 0 0 1-2.5-3.719c-.792-1.541-1.396-3.281-1.812-5.218-.396-1.938-.594-4.042-.594-6.313v-6.187c0-2.167.198-4.178.593-6.032.396-1.875.959-3.573 1.688-5.094a19.72 19.72 0 0 1 2.375-3.656 17.308 17.308 0 0 1 3-2.812 14.538 14.538 0 0 1 4.156-2.031c1.5-.459 3.084-.688 4.75-.688 2.563 0 4.792.323 6.688.969 1.916.646 3.531 1.573 4.844 2.781C1 83.855 2.02 85.344 2.75 87.094c.75 1.75 1.24 3.719 1.469 5.906h-8.563c-.146-1.104-.375-2.083-.687-2.937-.292-.855-.698-1.573-1.219-2.157-.583-.646-1.323-1.125-2.219-1.437-.875-.334-1.927-.5-3.156-.5-.667 0-1.312.104-1.937.312a6.362 6.362 0 0 0-1.75.906c-.709.542-1.355 1.25-1.938 2.126-.562.874-1.031 1.906-1.406 3.093-.292.917-.521 1.938-.688 3.063a28.523 28.523 0 0 0-.218 3.656v6.25c0 1.646.104 3.146.312 4.5.23 1.354.542 2.552.938 3.594.25.604.53 1.166.843 1.687.334.5.698.948 1.094 1.344a6.89 6.89 0 0 0 2.313 1.531c.895.334 1.906.511 3.03.531.688 0 1.365-.052 2.032-.156.667-.104 1.292-.25 1.875-.437a9.786 9.786 0 0 0 1.531-.625c.459-.25.802-.511 1.032-.782l.03-8.25h-7.53v-6.562h16.28z"/></g><defs><clipPath id="a"><path fill="var(--white)" d="M0 0h25v29H0z"/></clipPath></defs></svg>