<svg width="25" height="29" viewBox="0 0 25 29" fill="none" xmlns="http://www.w3.org/2000/svg">
<g clip-path="url(#clip0_118_11404)">
<rect width="25" height="29" fill="white"/>
<path d="M0 -58H150V116H0V-58Z" fill="var(--background)"/>
<path fill-rule="evenodd" clip-rule="evenodd" d="M149 -57H1V115H149V-57ZM0 -58V116H150V-58H0Z" fill="black"/>
<path d="M54.2592 10.0172H45.5717V-9.70151H32.6967V10.0172H23.978V-35.4828H32.6967V-16.8265H45.5717V-35.4828H54.2592V10.0172Z" fill="black"/>
<path d="M35.0092 50L39.3217 67.0938L44.228 50H55.1342V95.5H47.0717V82.0312L47.4467 60.75L41.478 80.5H37.1342L31.7905 61.5938L32.1655 82.0312V95.5H24.103V50H35.0092Z" fill="black"/>
<path d="M126.448 -9.38901C126.448 -7.43068 126.271 -5.56609 125.917 -3.79526C125.562 -2.04526 125.052 -0.420258 124.385 1.07974C123.677 2.57974 122.802 3.95474 121.76 5.20474C120.719 6.45474 119.531 7.49641 118.198 8.32974C116.989 9.05891 115.656 9.62141 114.198 10.0172C112.76 10.4339 111.208 10.6422 109.542 10.6422C107.771 10.6422 106.135 10.4131 104.635 9.95474C103.135 9.49641 101.771 8.85058 100.542 8.01724C99.3332 7.14224 98.2498 6.09016 97.2915 4.86099C96.3332 3.61099 95.5311 2.20474 94.8853 0.642242C94.3019 -0.795258 93.854 -2.35776 93.5415 -4.04526C93.2498 -5.73276 93.104 -7.51401 93.104 -9.38901V-16.014C93.104 -18.014 93.2707 -19.9098 93.604 -21.7015C93.9582 -23.4932 94.4686 -25.1494 95.1353 -26.6703C95.7811 -28.1078 96.5623 -29.4098 97.479 -30.5765C98.4165 -31.7432 99.4894 -32.7432 100.698 -33.5765C101.885 -34.389 103.219 -35.014 104.698 -35.4515C106.177 -35.889 107.781 -36.1078 109.51 -36.1078C111.26 -36.1078 112.896 -35.8786 114.417 -35.4203C115.958 -34.9828 117.344 -34.3473 118.573 -33.514C119.802 -32.7223 120.875 -31.764 121.792 -30.639C122.729 -29.514 123.531 -28.2744 124.198 -26.9203C124.927 -25.3786 125.479 -23.6911 125.854 -21.8578C126.25 -20.0244 126.448 -18.0765 126.448 -16.014V-9.38901ZM117.542 -16.0765C117.542 -17.2432 117.479 -18.3473 117.354 -19.389C117.25 -20.4515 117.073 -21.4307 116.823 -22.3265C116.51 -23.4515 116.094 -24.4515 115.573 -25.3265C115.052 -26.2223 114.437 -26.9515 113.729 -27.514C113.167 -27.9307 112.531 -28.2536 111.823 -28.4828C111.135 -28.7119 110.364 -28.8265 109.51 -28.8265C108.698 -28.8265 107.958 -28.7223 107.292 -28.514C106.646 -28.3057 106.062 -28.0036 105.542 -27.6078C104.833 -27.0244 104.229 -26.2953 103.729 -25.4203C103.25 -24.5453 102.875 -23.5244 102.604 -22.3578C102.396 -21.4619 102.239 -20.4828 102.135 -19.4203C102.052 -18.3578 102.01 -17.2432 102.01 -16.0765V-9.38901C102.01 -8.28484 102.052 -7.22234 102.135 -6.20151C102.219 -5.18068 102.364 -4.23276 102.573 -3.35776C102.802 -2.25359 103.135 -1.24318 103.573 -0.326508C104.031 0.569324 104.562 1.29849 105.167 1.86099C105.729 2.36099 106.364 2.74641 107.073 3.01724C107.802 3.28807 108.625 3.42349 109.542 3.42349C110.417 3.42349 111.219 3.29849 111.948 3.04849C112.677 2.79849 113.323 2.43391 113.885 1.95474C114.594 1.37141 115.187 0.642242 115.667 -0.232758C116.167 -1.12859 116.562 -2.13901 116.854 -3.26401C117.083 -4.13901 117.25 -5.09734 117.354 -6.13901C117.479 -7.18068 117.542 -8.26401 117.542 -9.38901V-16.0765Z" fill="black"/>
<path d="M122.698 74.5625H104.01V87.4062H125.854V94.5H95.1978V49H125.76V56.1562H104.01V67.625H122.698V74.5625Z" fill="black"/>
</g>
<defs>
<clipPath id="clip0_118_11404">
<rect width="25" height="29" fill="white"/>
</clipPath>
</defs>
</svg>
