<svg width="25" height="29" viewBox="0 0 25 29" fill="none" xmlns="http://www.w3.org/2000/svg">
<g clip-path="url(#clip0_118_11408)">
<rect width="25" height="29" fill="white"/>
<path d="M-50 -58H100V116H-50V-58Z" fill="var(--background)"/>
<path fill-rule="evenodd" clip-rule="evenodd" d="M99 -57H-49V115H99V-57ZM-50 -58V116H100V-58H-50Z" fill="black"/>
<path d="M4.25922 10.0172H-4.42828V-9.70151H-17.3033V10.0172H-26.022V-35.4828H-17.3033V-16.8265H-4.42828V-35.4828H4.25922V10.0172Z" fill="black"/>
<path d="M-14.9908 50L-10.6783 67.0938L-5.77203 50H5.13422V95.5H-2.92828V82.0312L-2.55328 60.75L-8.52203 80.5H-12.8658L-18.2095 61.5938L-17.8345 82.0312V95.5H-25.897V50H-14.9908Z" fill="black"/>
<path d="M76.4478 -9.38901C76.4478 -7.43068 76.2707 -5.56609 75.9165 -3.79526C75.5623 -2.04526 75.0519 -0.420258 74.3853 1.07974C73.6769 2.57974 72.8019 3.95474 71.7603 5.20474C70.7186 6.45474 69.5311 7.49641 68.1978 8.32974C66.9894 9.05891 65.6561 9.62141 64.1978 10.0172C62.7603 10.4339 61.2082 10.6422 59.5415 10.6422C57.7707 10.6422 56.1353 10.4131 54.6353 9.95474C53.1353 9.49641 51.7707 8.85058 50.5415 8.01724C49.3332 7.14224 48.2498 6.09016 47.2915 4.86099C46.3332 3.61099 45.5311 2.20474 44.8853 0.642242C44.3019 -0.795258 43.854 -2.35776 43.5415 -4.04526C43.2498 -5.73276 43.104 -7.51401 43.104 -9.38901V-16.014C43.104 -18.014 43.2707 -19.9098 43.604 -21.7015C43.9582 -23.4932 44.4686 -25.1494 45.1353 -26.6703C45.7811 -28.1078 46.5623 -29.4098 47.479 -30.5765C48.4165 -31.7432 49.4894 -32.7432 50.6978 -33.5765C51.8853 -34.389 53.2186 -35.014 54.6978 -35.4515C56.1769 -35.889 57.7811 -36.1078 59.5103 -36.1078C61.2603 -36.1078 62.8957 -35.8786 64.4165 -35.4203C65.9582 -34.9828 67.3436 -34.3473 68.5728 -33.514C69.8019 -32.7223 70.8748 -31.764 71.7915 -30.639C72.729 -29.514 73.5311 -28.2744 74.1978 -26.9203C74.9269 -25.3786 75.479 -23.6911 75.854 -21.8578C76.2498 -20.0244 76.4478 -18.0765 76.4478 -16.014V-9.38901ZM67.5415 -16.0765C67.5415 -17.2432 67.479 -18.3473 67.354 -19.389C67.2498 -20.4515 67.0728 -21.4307 66.8228 -22.3265C66.5103 -23.4515 66.0936 -24.4515 65.5728 -25.3265C65.0519 -26.2223 64.4373 -26.9515 63.729 -27.514C63.1665 -27.9307 62.5311 -28.2536 61.8228 -28.4828C61.1353 -28.7119 60.3644 -28.8265 59.5103 -28.8265C58.6978 -28.8265 57.9582 -28.7223 57.2915 -28.514C56.6457 -28.3057 56.0623 -28.0036 55.5415 -27.6078C54.8332 -27.0244 54.229 -26.2953 53.729 -25.4203C53.2498 -24.5453 52.8748 -23.5244 52.604 -22.3578C52.3957 -21.4619 52.2394 -20.4828 52.1353 -19.4203C52.0519 -18.3578 52.0103 -17.2432 52.0103 -16.0765V-9.38901C52.0103 -8.28484 52.0519 -7.22234 52.1353 -6.20151C52.2186 -5.18068 52.3644 -4.23276 52.5728 -3.35776C52.8019 -2.25359 53.1353 -1.24318 53.5728 -0.326508C54.0311 0.569324 54.5623 1.29849 55.1665 1.86099C55.729 2.36099 56.3644 2.74641 57.0728 3.01724C57.8019 3.28807 58.6248 3.42349 59.5415 3.42349C60.4165 3.42349 61.2186 3.29849 61.9478 3.04849C62.6769 2.79849 63.3228 2.43391 63.8853 1.95474C64.5936 1.37141 65.1873 0.642242 65.6665 -0.232758C66.1665 -1.12859 66.5623 -2.13901 66.854 -3.26401C67.0832 -4.13901 67.2498 -5.09734 67.354 -6.13901C67.479 -7.18068 67.5415 -8.26401 67.5415 -9.38901V-16.0765Z" fill="black"/>
<path d="M72.6978 74.5625H54.0103V87.4062H75.854V94.5H45.1978V49H75.7603V56.1562H54.0103V67.625H72.6978V74.5625Z" fill="black"/>
</g>
<defs>
<clipPath id="clip0_118_11408">
<rect width="25" height="29" fill="white"/>
</clipPath>
</defs>
</svg>
