<svg width="25" height="29" viewBox="0 0 25 29" fill="none" xmlns="http://www.w3.org/2000/svg">
<g clip-path="url(#clip0_118_11414)">
<rect width="25" height="29" fill="white"/>
<path d="M-125 -58H25V116H-125V-58Z" fill="var(--background)"/>
<path fill-rule="evenodd" clip-rule="evenodd" d="M24 -57H-124V115H24V-57ZM-125 -58V116H25V-58H-125Z" fill="black"/>
<path d="M-70.7408 10.0172H-79.4283V-9.70151H-92.3033V10.0172H-101.022V-35.4828H-92.3033V-16.8265H-79.4283V-35.4828H-70.7408V10.0172Z" fill="black"/>
<path d="M-89.9908 50L-85.6783 67.0938L-80.772 50H-69.8658V95.5H-77.9283V82.0312L-77.5533 60.75L-83.522 80.5H-87.8658L-93.2095 61.5938L-92.8345 82.0312V95.5H-100.897V50H-89.9908Z" fill="black"/>
<path d="M1.44775 -9.38901C1.44775 -7.43068 1.27067 -5.56609 0.916504 -3.79526C0.56234 -2.04526 0.051918 -0.420258 -0.614746 1.07974C-1.32308 2.57974 -2.19808 3.95474 -3.23975 5.20474C-4.28141 6.45474 -5.46891 7.49641 -6.80225 8.32974C-8.01058 9.05891 -9.34391 9.62141 -10.8022 10.0172C-12.2397 10.4339 -13.7918 10.6422 -15.4585 10.6422C-17.2293 10.6422 -18.8647 10.4131 -20.3647 9.95474C-21.8647 9.49641 -23.2293 8.85058 -24.4585 8.01724C-25.6668 7.14224 -26.7502 6.09016 -27.7085 4.86099C-28.6668 3.61099 -29.4689 2.20474 -30.1147 0.642242C-30.6981 -0.795258 -31.146 -2.35776 -31.4585 -4.04526C-31.7502 -5.73276 -31.896 -7.51401 -31.896 -9.38901V-16.014C-31.896 -18.014 -31.7293 -19.9098 -31.396 -21.7015C-31.0418 -23.4932 -30.5314 -25.1494 -29.8647 -26.6703C-29.2189 -28.1078 -28.4377 -29.4098 -27.521 -30.5765C-26.5835 -31.7432 -25.5106 -32.7432 -24.3022 -33.5765C-23.1147 -34.389 -21.7814 -35.014 -20.3022 -35.4515C-18.8231 -35.889 -17.2189 -36.1078 -15.4897 -36.1078C-13.7397 -36.1078 -12.1043 -35.8786 -10.5835 -35.4203C-9.04183 -34.9828 -7.65641 -34.3473 -6.42725 -33.514C-5.19808 -32.7223 -4.12516 -31.764 -3.2085 -30.639C-2.271 -29.514 -1.46891 -28.2744 -0.802246 -26.9203C-0.073082 -25.3786 0.479004 -23.6911 0.854004 -21.8578C1.24984 -20.0244 1.44775 -18.0765 1.44775 -16.014V-9.38901ZM-7.4585 -16.0765C-7.4585 -17.2432 -7.521 -18.3473 -7.646 -19.389C-7.75016 -20.4515 -7.92725 -21.4307 -8.17725 -22.3265C-8.48975 -23.4515 -8.90641 -24.4515 -9.42725 -25.3265C-9.94808 -26.2223 -10.5627 -26.9515 -11.271 -27.514C-11.8335 -27.9307 -12.4689 -28.2536 -13.1772 -28.4828C-13.8647 -28.7119 -14.6356 -28.8265 -15.4897 -28.8265C-16.3022 -28.8265 -17.0418 -28.7223 -17.7085 -28.514C-18.3543 -28.3057 -18.9377 -28.0036 -19.4585 -27.6078C-20.1668 -27.0244 -20.771 -26.2953 -21.271 -25.4203C-21.7502 -24.5453 -22.1252 -23.5244 -22.396 -22.3578C-22.6043 -21.4619 -22.7606 -20.4828 -22.8647 -19.4203C-22.9481 -18.3578 -22.9897 -17.2432 -22.9897 -16.0765V-9.38901C-22.9897 -8.28484 -22.9481 -7.22234 -22.8647 -6.20151C-22.7814 -5.18068 -22.6356 -4.23276 -22.4272 -3.35776C-22.1981 -2.25359 -21.8647 -1.24318 -21.4272 -0.326508C-20.9689 0.569324 -20.4377 1.29849 -19.8335 1.86099C-19.271 2.36099 -18.6356 2.74641 -17.9272 3.01724C-17.1981 3.28807 -16.3752 3.42349 -15.4585 3.42349C-14.5835 3.42349 -13.7814 3.29849 -13.0522 3.04849C-12.3231 2.79849 -11.6772 2.43391 -11.1147 1.95474C-10.4064 1.37141 -9.81266 0.642242 -9.3335 -0.232758C-8.8335 -1.12859 -8.43766 -2.13901 -8.146 -3.26401C-7.91683 -4.13901 -7.75016 -5.09734 -7.646 -6.13901C-7.521 -7.18068 -7.4585 -8.26401 -7.4585 -9.38901V-16.0765Z" fill="black"/>
<path d="M-2.30225 74.5625H-20.9897V87.4062H0.854004V94.5H-29.8022V49H0.760254V56.1562H-20.9897V67.625H-2.30225V74.5625Z" fill="black"/>
</g>
<defs>
<clipPath id="clip0_118_11414">
<rect width="25" height="29" fill="white"/>
</clipPath>
</defs>
</svg>
