<svg width="25" height="29" viewBox="0 0 25 29" fill="none" xmlns="http://www.w3.org/2000/svg">
<g clip-path="url(#clip0_118_11416)">
<rect width="25" height="29" fill="white"/>
<path d="M0 -87H150V87H0V-87Z" fill="var(--background)"/>
<path fill-rule="evenodd" clip-rule="evenodd" d="M149 -86H1V86H149V-86ZM0 -87V87H150V-87H0Z" fill="black"/>
<path d="M54.2592 -18.9828H45.5717V-38.7015H32.6967V-18.9828H23.978V-64.4828H32.6967V-45.8265H45.5717V-64.4828H54.2592V-18.9828Z" fill="black"/>
<path d="M35.0092 21L39.3217 38.0938L44.228 21H55.1342V66.5H47.0717V53.0312L47.4467 31.75L41.478 51.5H37.1342L31.7905 32.5938L32.1655 53.0312V66.5H24.103V21H35.0092Z" fill="black"/>
<path d="M126.448 -38.389C126.448 -36.4307 126.271 -34.5661 125.917 -32.7953C125.562 -31.0453 125.052 -29.4203 124.385 -27.9203C123.677 -26.4203 122.802 -25.0453 121.76 -23.7953C120.719 -22.5453 119.531 -21.5036 118.198 -20.6703C116.989 -19.9411 115.656 -19.3786 114.198 -18.9828C112.76 -18.5661 111.208 -18.3578 109.542 -18.3578C107.771 -18.3578 106.135 -18.5869 104.635 -19.0453C103.135 -19.5036 101.771 -20.1494 100.542 -20.9828C99.3332 -21.8578 98.2498 -22.9098 97.2915 -24.139C96.3332 -25.389 95.5311 -26.7953 94.8853 -28.3578C94.3019 -29.7953 93.854 -31.3578 93.5415 -33.0453C93.2498 -34.7328 93.104 -36.514 93.104 -38.389V-45.014C93.104 -47.014 93.2707 -48.9098 93.604 -50.7015C93.9582 -52.4932 94.4686 -54.1494 95.1353 -55.6703C95.7811 -57.1078 96.5623 -58.4098 97.479 -59.5765C98.4165 -60.7432 99.4894 -61.7432 100.698 -62.5765C101.885 -63.389 103.219 -64.014 104.698 -64.4515C106.177 -64.889 107.781 -65.1078 109.51 -65.1078C111.26 -65.1078 112.896 -64.8786 114.417 -64.4203C115.958 -63.9828 117.344 -63.3473 118.573 -62.514C119.802 -61.7223 120.875 -60.764 121.792 -59.639C122.729 -58.514 123.531 -57.2744 124.198 -55.9203C124.927 -54.3786 125.479 -52.6911 125.854 -50.8578C126.25 -49.0244 126.448 -47.0765 126.448 -45.014V-38.389ZM117.542 -45.0765C117.542 -46.2432 117.479 -47.3473 117.354 -48.389C117.25 -49.4515 117.073 -50.4307 116.823 -51.3265C116.51 -52.4515 116.094 -53.4515 115.573 -54.3265C115.052 -55.2223 114.437 -55.9515 113.729 -56.514C113.167 -56.9307 112.531 -57.2536 111.823 -57.4828C111.135 -57.7119 110.364 -57.8265 109.51 -57.8265C108.698 -57.8265 107.958 -57.7223 107.292 -57.514C106.646 -57.3057 106.062 -57.0036 105.542 -56.6078C104.833 -56.0244 104.229 -55.2953 103.729 -54.4203C103.25 -53.5453 102.875 -52.5244 102.604 -51.3578C102.396 -50.4619 102.239 -49.4828 102.135 -48.4203C102.052 -47.3578 102.01 -46.2432 102.01 -45.0765V-38.389C102.01 -37.2848 102.052 -36.2223 102.135 -35.2015C102.219 -34.1807 102.364 -33.2328 102.573 -32.3578C102.802 -31.2536 103.135 -30.2432 103.573 -29.3265C104.031 -28.4307 104.562 -27.7015 105.167 -27.139C105.729 -26.639 106.364 -26.2536 107.073 -25.9828C107.802 -25.7119 108.625 -25.5765 109.542 -25.5765C110.417 -25.5765 111.219 -25.7015 111.948 -25.9515C112.677 -26.2015 113.323 -26.5661 113.885 -27.0453C114.594 -27.6286 115.187 -28.3578 115.667 -29.2328C116.167 -30.1286 116.562 -31.139 116.854 -32.264C117.083 -33.139 117.25 -34.0973 117.354 -35.139C117.479 -36.1807 117.542 -37.264 117.542 -38.389V-45.0765Z" fill="black"/>
<path d="M122.698 45.5625H104.01V58.4062H125.854V65.5H95.1978V20H125.76V27.1562H104.01V38.625H122.698V45.5625Z" fill="black"/>
</g>
<defs>
<clipPath id="clip0_118_11416">
<rect width="25" height="29" fill="white"/>
</clipPath>
</defs>
</svg>
