<svg width="25" height="29" viewBox="0 0 25 29" fill="none" xmlns="http://www.w3.org/2000/svg">
<g clip-path="url(#clip0_118_11430)">
<rect width="25" height="29" fill="white"/>
<path d="M-25 -116H125V58H-25V-116Z" fill="#E3E3E3"/>
<path fill-rule="evenodd" clip-rule="evenodd" d="M124 -115H-24V57H124V-115ZM-25 -116V58H125V-116H-25Z" fill="black"/>
<path d="M29.2592 -47.9828H20.5717V-67.7015H7.69672V-47.9828H-1.02203V-93.4828H7.69672V-74.8265H20.5717V-93.4828H29.2592V-47.9828Z" fill="black"/>
<path d="M10.0092 -8L14.3217 9.09375L19.228 -8H30.1342V37.5H22.0717V24.0312L22.4467 2.75L16.478 22.5H12.1342L6.79047 3.59375L7.16547 24.0312V37.5H-0.897034V-8H10.0092Z" fill="black"/>
<path d="M101.448 -67.389C101.448 -65.4307 101.271 -63.5661 100.917 -61.7953C100.562 -60.0453 100.052 -58.4203 99.3853 -56.9203C98.6769 -55.4203 97.8019 -54.0453 96.7603 -52.7953C95.7186 -51.5453 94.5311 -50.5036 93.1978 -49.6703C91.9894 -48.9411 90.6561 -48.3786 89.1978 -47.9828C87.7603 -47.5661 86.2082 -47.3578 84.5415 -47.3578C82.7707 -47.3578 81.1353 -47.5869 79.6353 -48.0453C78.1353 -48.5036 76.7707 -49.1494 75.5415 -49.9828C74.3332 -50.8578 73.2498 -51.9098 72.2915 -53.139C71.3332 -54.389 70.5311 -55.7953 69.8853 -57.3578C69.3019 -58.7953 68.854 -60.3578 68.5415 -62.0453C68.2498 -63.7328 68.104 -65.514 68.104 -67.389V-74.014C68.104 -76.014 68.2707 -77.9098 68.604 -79.7015C68.9582 -81.4932 69.4686 -83.1494 70.1353 -84.6703C70.7811 -86.1078 71.5623 -87.4098 72.479 -88.5765C73.4165 -89.7432 74.4894 -90.7432 75.6978 -91.5765C76.8853 -92.389 78.2186 -93.014 79.6978 -93.4515C81.1769 -93.889 82.7811 -94.1078 84.5103 -94.1078C86.2603 -94.1078 87.8957 -93.8786 89.4165 -93.4203C90.9582 -92.9828 92.3436 -92.3473 93.5728 -91.514C94.8019 -90.7223 95.8748 -89.764 96.7915 -88.639C97.729 -87.514 98.5311 -86.2744 99.1978 -84.9203C99.9269 -83.3786 100.479 -81.6911 100.854 -79.8578C101.25 -78.0244 101.448 -76.0765 101.448 -74.014V-67.389ZM92.5415 -74.0765C92.5415 -75.2432 92.479 -76.3473 92.354 -77.389C92.2498 -78.4515 92.0728 -79.4307 91.8228 -80.3265C91.5103 -81.4515 91.0936 -82.4515 90.5728 -83.3265C90.0519 -84.2223 89.4373 -84.9515 88.729 -85.514C88.1665 -85.9307 87.5311 -86.2536 86.8228 -86.4828C86.1353 -86.7119 85.3644 -86.8265 84.5103 -86.8265C83.6978 -86.8265 82.9582 -86.7223 82.2915 -86.514C81.6457 -86.3057 81.0623 -86.0036 80.5415 -85.6078C79.8332 -85.0244 79.229 -84.2953 78.729 -83.4203C78.2498 -82.5453 77.8748 -81.5244 77.604 -80.3578C77.3957 -79.4619 77.2394 -78.4828 77.1353 -77.4203C77.0519 -76.3578 77.0103 -75.2432 77.0103 -74.0765V-67.389C77.0103 -66.2848 77.0519 -65.2223 77.1353 -64.2015C77.2186 -63.1807 77.3644 -62.2328 77.5728 -61.3578C77.8019 -60.2536 78.1353 -59.2432 78.5728 -58.3265C79.0311 -57.4307 79.5623 -56.7015 80.1665 -56.139C80.729 -55.639 81.3644 -55.2536 82.0728 -54.9828C82.8019 -54.7119 83.6248 -54.5765 84.5415 -54.5765C85.4165 -54.5765 86.2186 -54.7015 86.9478 -54.9515C87.6769 -55.2015 88.3228 -55.5661 88.8853 -56.0453C89.5936 -56.6286 90.1873 -57.3578 90.6665 -58.2328C91.1665 -59.1286 91.5623 -60.139 91.854 -61.264C92.0832 -62.139 92.2498 -63.0973 92.354 -64.139C92.479 -65.1807 92.5415 -66.264 92.5415 -67.389V-74.0765Z" fill="black"/>
<path d="M97.6978 16.5625H79.0103V29.4062H100.854V36.5H70.1978V-9H100.76V-1.84375H79.0103V9.625H97.6978V16.5625Z" fill="black"/>
</g>
<defs>
<clipPath id="clip0_118_11430">
<rect width="25" height="29" fill="white"/>
</clipPath>
</defs>
</svg>
