<svg xmlns="http://www.w3.org/2000/svg" width="25" height="29" fill="none"><g clip-path="url(#a)"><path fill="var(--white)" d="M0 0h25v29H0z"/><path fill="var(--background)" d="M-50-116h150V58H-50z"/><path fill="var(--black)" fill-rule="evenodd" d="M99-115H-49V57H99zm-149-1V58h150v-174z" clip-rule="evenodd"/><path fill="var(--black)" d="M-28.969-46v-45.5h15.282c2.479 0 4.729.25 6.75.75 2.041.5 3.78 1.26 5.218 2.281a10.25 10.25 0 0 1 3.313 3.875c.791 1.563 1.187 3.406 1.187 5.531a11.13 11.13 0 0 1-.75 3.907A8.945 8.945 0 0 1-.03-71.97c-.5.5-1.073.959-1.719 1.375-.625.417-1.323.771-2.094 1.063v.031c1.5.417 2.688.948 3.563 1.594a9.61 9.61 0 0 1 2.25 2.25 9.815 9.815 0 0 1 1.375 3c.312 1.062.469 2.166.469 3.312 0 2.188-.376 4.115-1.126 5.782A11.199 11.199 0 0 1-.53-49.375c-1.396 1.125-3.094 1.969-5.094 2.531-2 .563-4.25.844-6.75.844zm8.813-20.062v12.968h7.812c1.146 0 2.167-.146 3.063-.437.916-.292 1.677-.688 2.281-1.188a5.332 5.332 0 0 0 1.5-2.031c.354-.792.531-1.677.531-2.656 0-1.021-.135-1.938-.406-2.75a4.902 4.902 0 0 0-1.219-2.063c-.562-.583-1.291-1.031-2.187-1.344-.896-.312-1.959-.479-3.188-.5zm0-6.344h6.531c1.333-.021 2.51-.177 3.531-.469 1.021-.312 1.844-.77 2.469-1.375.52-.48.917-1.062 1.188-1.75.291-.687.437-1.469.437-2.344 0-.916-.125-1.719-.375-2.406-.23-.687-.583-1.26-1.062-1.719-.625-.646-1.47-1.114-2.532-1.406-1.041-.292-2.27-.448-3.687-.469h-6.5zM57.375-53.094h21.313V-46H48.561v-45.5h8.813zM2.844 18.594c0 1.958-.177 3.823-.531 5.593A23.39 23.39 0 0 1 .78 29.063a19.259 19.259 0 0 1-2.625 4.125 14.9 14.9 0 0 1-3.562 3.126 15.608 15.608 0 0 1-4 1.687c-1.438.417-2.99.625-4.656.625-1.771 0-3.407-.23-4.907-.687A15.116 15.116 0 0 1-23.062 36a16.056 16.056 0 0 1-3.25-3.156 18.523 18.523 0 0 1-2.407-4.219c-.583-1.437-1.031-3-1.343-4.687a31.353 31.353 0 0 1-.438-5.344v-6.625c0-2 .167-3.896.5-5.688.354-1.791.865-3.448 1.531-4.968a18.683 18.683 0 0 1 2.344-3.907 15.139 15.139 0 0 1 3.219-3c1.187-.812 2.52-1.437 4-1.875 1.479-.437 3.083-.656 4.812-.656 1.75 0 3.386.23 4.906.688C-7.645-7-6.26-6.365-5.03-5.531c1.229.791 2.302 1.75 3.218 2.875A18.65 18.65 0 0 1 .595 1.063c.729 1.541 1.281 3.229 1.656 5.062.396 1.833.594 3.781.594 5.844zm-8.906-6.688c0-1.166-.063-2.27-.188-3.312a17.166 17.166 0 0 0-.531-2.938c-.313-1.125-.73-2.125-1.25-3C-8.552 1.76-9.167 1.031-9.875.47A6.577 6.577 0 0 0-11.781-.5c-.688-.23-1.459-.344-2.313-.344-.812 0-1.552.104-2.219.313-.645.208-1.229.51-1.75.906-.708.583-1.312 1.313-1.812 2.188-.48.874-.854 1.895-1.125 3.062a22.846 22.846 0 0 0-.469 2.938 42.826 42.826 0 0 0-.125 3.343v6.688c0 1.104.042 2.166.125 3.187.084 1.021.23 1.969.438 2.844.229 1.104.562 2.115 1 3.031.458.896.99 1.625 1.593 2.188A6.15 6.15 0 0 0-16.53 31c.729.27 1.552.406 2.468.406.876 0 1.678-.125 2.407-.375a5.913 5.913 0 0 0 1.937-1.093 7.395 7.395 0 0 0 1.781-2.188c.5-.896.896-1.906 1.188-3.031.23-.875.396-1.834.5-2.875.125-1.042.188-2.125.188-3.25zM79.25 32.688c-.562.687-1.333 1.385-2.312 2.093-.98.709-2.136 1.344-3.47 1.907-1.353.583-2.864 1.052-4.53 1.406-1.667.354-3.459.531-5.376.531-1.666 0-3.24-.198-4.718-.594a15.342 15.342 0 0 1-4.032-1.656 15.934 15.934 0 0 1-3.312-2.75 16.145 16.145 0 0 1-2.5-3.719c-.792-1.541-1.396-3.281-1.812-5.218-.396-1.938-.594-4.042-.594-6.313v-6.187c0-2.167.198-4.178.593-6.032.396-1.875.959-3.573 1.688-5.093a19.718 19.718 0 0 1 2.375-3.657 17.31 17.31 0 0 1 3-2.812 14.541 14.541 0 0 1 4.156-2.032c1.5-.458 3.084-.687 4.75-.687 2.563 0 4.792.323 6.688.969 1.916.646 3.531 1.573 4.844 2.781C76-3.145 77.02-1.656 77.75.094c.75 1.75 1.24 3.719 1.469 5.906h-8.563c-.146-1.104-.375-2.083-.687-2.937-.292-.855-.698-1.573-1.219-2.157C68.167.26 67.427-.219 66.531-.53c-.875-.334-1.927-.5-3.156-.5-.667 0-1.312.104-1.937.312a6.36 6.36 0 0 0-1.75.907c-.709.541-1.355 1.25-1.938 2.125-.562.874-1.031 1.906-1.406 3.093a19.59 19.59 0 0 0-.688 3.063 28.524 28.524 0 0 0-.218 3.656v6.25c0 1.646.104 3.146.312 4.5.23 1.354.542 2.552.938 3.594.25.604.53 1.166.843 1.687.334.5.698.948 1.094 1.344a6.896 6.896 0 0 0 2.313 1.531c.895.334 1.906.51 3.03.532.688 0 1.365-.053 2.032-.157a12.36 12.36 0 0 0 1.875-.437 9.734 9.734 0 0 0 1.531-.625c.459-.25.802-.51 1.031-.782l.032-8.25h-7.531V14.75h16.28z"/></g><defs><clipPath id="a"><path fill="var(--white)" d="M0 0h25v29H0z"/></clipPath></defs></svg>