<svg width="25" height="29" viewBox="0 0 25 29" fill="none" xmlns="http://www.w3.org/2000/svg">
<g clip-path="url(#clip0_118_11434)">
<rect width="25" height="29" fill="white"/>
<path d="M-75 -116H75V58H-75V-116Z" fill="var(--background)"/>
<path fill-rule="evenodd" clip-rule="evenodd" d="M74 -115H-74V57H74V-115ZM-75 -116V58H75V-116H-75Z" fill="black"/>
<path d="M-20.7408 -47.9828H-29.4283V-67.7015H-42.3033V-47.9828H-51.022V-93.4828H-42.3033V-74.8265H-29.4283V-93.4828H-20.7408V-47.9828Z" fill="black"/>
<path d="M-39.9908 -8L-35.6783 9.09375L-30.772 -8H-19.8658V37.5H-27.9283V24.0312L-27.5533 2.75L-33.522 22.5H-37.8658L-43.2095 3.59375L-42.8345 24.0312V37.5H-50.897V-8H-39.9908Z" fill="black"/>
<path d="M51.4478 -67.389C51.4478 -65.4307 51.2707 -63.5661 50.9165 -61.7953C50.5623 -60.0453 50.0519 -58.4203 49.3853 -56.9203C48.6769 -55.4203 47.8019 -54.0453 46.7603 -52.7953C45.7186 -51.5453 44.5311 -50.5036 43.1978 -49.6703C41.9894 -48.9411 40.6561 -48.3786 39.1978 -47.9828C37.7603 -47.5661 36.2082 -47.3578 34.5415 -47.3578C32.7707 -47.3578 31.1353 -47.5869 29.6353 -48.0453C28.1353 -48.5036 26.7707 -49.1494 25.5415 -49.9828C24.3332 -50.8578 23.2498 -51.9098 22.2915 -53.139C21.3332 -54.389 20.5311 -55.7953 19.8853 -57.3578C19.3019 -58.7953 18.854 -60.3578 18.5415 -62.0453C18.2498 -63.7328 18.104 -65.514 18.104 -67.389V-74.014C18.104 -76.014 18.2707 -77.9098 18.604 -79.7015C18.9582 -81.4932 19.4686 -83.1494 20.1353 -84.6703C20.7811 -86.1078 21.5623 -87.4098 22.479 -88.5765C23.4165 -89.7432 24.4894 -90.7432 25.6978 -91.5765C26.8853 -92.389 28.2186 -93.014 29.6978 -93.4515C31.1769 -93.889 32.7811 -94.1078 34.5103 -94.1078C36.2603 -94.1078 37.8957 -93.8786 39.4165 -93.4203C40.9582 -92.9828 42.3436 -92.3473 43.5728 -91.514C44.8019 -90.7223 45.8748 -89.764 46.7915 -88.639C47.729 -87.514 48.5311 -86.2744 49.1978 -84.9203C49.9269 -83.3786 50.479 -81.6911 50.854 -79.8578C51.2498 -78.0244 51.4478 -76.0765 51.4478 -74.014V-67.389ZM42.5415 -74.0765C42.5415 -75.2432 42.479 -76.3473 42.354 -77.389C42.2498 -78.4515 42.0728 -79.4307 41.8228 -80.3265C41.5103 -81.4515 41.0936 -82.4515 40.5728 -83.3265C40.0519 -84.2223 39.4373 -84.9515 38.729 -85.514C38.1665 -85.9307 37.5311 -86.2536 36.8228 -86.4828C36.1353 -86.7119 35.3644 -86.8265 34.5103 -86.8265C33.6978 -86.8265 32.9582 -86.7223 32.2915 -86.514C31.6457 -86.3057 31.0623 -86.0036 30.5415 -85.6078C29.8332 -85.0244 29.229 -84.2953 28.729 -83.4203C28.2498 -82.5453 27.8748 -81.5244 27.604 -80.3578C27.3957 -79.4619 27.2394 -78.4828 27.1353 -77.4203C27.0519 -76.3578 27.0103 -75.2432 27.0103 -74.0765V-67.389C27.0103 -66.2848 27.0519 -65.2223 27.1353 -64.2015C27.2186 -63.1807 27.3644 -62.2328 27.5728 -61.3578C27.8019 -60.2536 28.1353 -59.2432 28.5728 -58.3265C29.0311 -57.4307 29.5623 -56.7015 30.1665 -56.139C30.729 -55.639 31.3644 -55.2536 32.0728 -54.9828C32.8019 -54.7119 33.6248 -54.5765 34.5415 -54.5765C35.4165 -54.5765 36.2186 -54.7015 36.9478 -54.9515C37.6769 -55.2015 38.3228 -55.5661 38.8853 -56.0453C39.5936 -56.6286 40.1873 -57.3578 40.6665 -58.2328C41.1665 -59.1286 41.5623 -60.139 41.854 -61.264C42.0832 -62.139 42.2498 -63.0973 42.354 -64.139C42.479 -65.1807 42.5415 -66.264 42.5415 -67.389V-74.0765Z" fill="black"/>
<path d="M47.6978 16.5625H29.0103V29.4062H50.854V36.5H20.1978V-9H50.7603V-1.84375H29.0103V9.625H47.6978V16.5625Z" fill="black"/>
</g>
<defs>
<clipPath id="clip0_118_11434">
<rect width="25" height="29" fill="white"/>
</clipPath>
</defs>
</svg>
