<svg xmlns="http://www.w3.org/2000/svg" width="25" height="29" fill="none"><g clip-path="url(#a)"><path fill="var(--white)" d="M0 0h25v29H0z"/><path fill="var(--background)" d="M-100-116H50V58h-150z"/><path fill="var(--black)" fill-rule="evenodd" d="M49-115H-99V57H49zm-149-1V58H50v-174z" clip-rule="evenodd"/><path fill="var(--black)" d="M-78.969-46v-45.5h15.281c2.48 0 4.73.25 6.75.75 2.042.5 3.782 1.26 5.22 2.281a10.25 10.25 0 0 1 3.312 3.875c.791 1.563 1.187 3.406 1.187 5.531a11.13 11.13 0 0 1-.75 3.907 8.946 8.946 0 0 1-2.062 3.187c-.5.5-1.073.959-1.719 1.375-.625.417-1.323.771-2.094 1.063v.031c1.5.417 2.688.948 3.563 1.594a9.61 9.61 0 0 1 2.25 2.25 9.816 9.816 0 0 1 1.375 3 11.68 11.68 0 0 1 .468 3.312c0 2.188-.374 4.115-1.124 5.782a11.199 11.199 0 0 1-3.22 4.187c-1.395 1.125-3.093 1.969-5.093 2.531-2 .563-4.25.844-6.75.844zm8.813-20.062v12.968h7.812c1.146 0 2.167-.146 3.063-.437.916-.292 1.677-.688 2.281-1.188a5.33 5.33 0 0 0 1.5-2.031c.354-.792.531-1.677.531-2.656 0-1.021-.135-1.938-.406-2.75a4.9 4.9 0 0 0-1.219-2.063c-.562-.583-1.291-1.031-2.187-1.344-.896-.312-1.959-.479-3.188-.5zm0-6.344h6.531c1.333-.021 2.51-.177 3.531-.469 1.021-.312 1.844-.77 2.469-1.375.52-.48.917-1.062 1.188-1.75.291-.687.437-1.469.437-2.344 0-.916-.125-1.719-.375-2.406-.23-.687-.583-1.26-1.062-1.719-.626-.646-1.47-1.114-2.532-1.406-1.041-.292-2.27-.448-3.687-.469h-6.5zM7.375-53.094h21.313V-46H-1.437v-45.5h8.812zM-47.156 18.594c0 1.958-.177 3.823-.532 5.593a23.39 23.39 0 0 1-1.53 4.875 19.256 19.256 0 0 1-2.626 4.125 14.898 14.898 0 0 1-3.562 3.126 15.61 15.61 0 0 1-4 1.687c-1.438.417-2.99.625-4.657.625-1.77 0-3.406-.23-4.906-.687A15.116 15.116 0 0 1-73.063 36a16.056 16.056 0 0 1-3.25-3.156 18.523 18.523 0 0 1-2.406-4.219c-.583-1.437-1.031-3-1.344-4.687a31.353 31.353 0 0 1-.437-5.344v-6.625c0-2 .167-3.896.5-5.688.354-1.791.865-3.448 1.531-4.968a18.683 18.683 0 0 1 2.344-3.907 15.139 15.139 0 0 1 3.219-3c1.187-.812 2.52-1.437 4-1.875 1.479-.437 3.083-.656 4.812-.656 1.75 0 3.386.23 4.906.688 1.542.437 2.928 1.072 4.157 1.906a13.68 13.68 0 0 1 3.218 2.875 18.652 18.652 0 0 1 2.407 3.719c.729 1.541 1.281 3.229 1.656 5.062.396 1.833.594 3.781.594 5.844zm-8.907-6.688c0-1.166-.062-2.27-.187-3.312a17.169 17.169 0 0 0-.531-2.938c-.313-1.125-.73-2.125-1.25-3-.521-.896-1.136-1.625-1.844-2.187A6.577 6.577 0 0 0-61.781-.5c-.688-.23-1.459-.344-2.313-.344-.812 0-1.552.104-2.219.313-.645.208-1.229.51-1.75.906-.708.583-1.312 1.313-1.812 2.188-.48.874-.854 1.895-1.125 3.062a22.846 22.846 0 0 0-.469 2.938 42.826 42.826 0 0 0-.125 3.343v6.688c0 1.104.042 2.166.125 3.187.084 1.021.23 1.969.438 2.844.229 1.104.562 2.115 1 3.031.458.896.99 1.625 1.594 2.188A6.15 6.15 0 0 0-66.531 31c.729.27 1.552.406 2.469.406.874 0 1.677-.125 2.406-.375a5.912 5.912 0 0 0 1.937-1.093 7.394 7.394 0 0 0 1.782-2.188c.5-.896.895-1.906 1.187-3.031.23-.875.396-1.834.5-2.875.125-1.042.188-2.125.188-3.25zM29.25 32.688c-.562.687-1.333 1.385-2.312 2.093-.98.709-2.136 1.344-3.47 1.907-1.353.583-2.864 1.052-4.53 1.406-1.667.354-3.459.531-5.375.531-1.667 0-3.24-.198-4.72-.594a15.342 15.342 0 0 1-4.03-1.656 15.933 15.933 0 0 1-3.313-2.75A16.146 16.146 0 0 1-1 29.906c-.792-1.541-1.396-3.281-1.812-5.218-.396-1.938-.594-4.042-.594-6.313v-6.187c0-2.167.198-4.178.594-6.032.395-1.875.958-3.573 1.687-5.093A19.716 19.716 0 0 1 1.25-2.594a17.308 17.308 0 0 1 3-2.812 14.542 14.542 0 0 1 4.156-2.032c1.5-.458 3.084-.687 4.75-.687 2.563 0 4.792.323 6.688.969 1.916.646 3.531 1.573 4.843 2.781C26-3.145 27.022-1.656 27.75.094c.75 1.75 1.24 3.719 1.469 5.906h-8.563c-.146-1.104-.375-2.083-.687-2.937-.292-.855-.698-1.573-1.219-2.157C18.167.26 17.427-.219 16.531-.53c-.875-.334-1.927-.5-3.156-.5-.667 0-1.312.104-1.937.312a6.36 6.36 0 0 0-1.75.907c-.709.541-1.355 1.25-1.938 2.125-.562.874-1.031 1.906-1.406 3.093a19.59 19.59 0 0 0-.688 3.063 28.518 28.518 0 0 0-.218 3.656v6.25c0 1.646.104 3.146.312 4.5.23 1.354.542 2.552.938 3.594.25.604.53 1.166.843 1.687.334.5.698.948 1.094 1.344a6.896 6.896 0 0 0 2.313 1.531c.895.334 1.906.51 3.03.532.688 0 1.365-.053 2.032-.157a12.36 12.36 0 0 0 1.875-.437 9.734 9.734 0 0 0 1.531-.625c.459-.25.802-.51 1.032-.782l.03-8.25h-7.53V14.75h16.28z"/></g><defs><clipPath id="a"><path fill="var(--white)" d="M0 0h25v29H0z"/></clipPath></defs></svg>