<svg width="25" height="29" viewBox="0 0 25 29" fill="none" xmlns="http://www.w3.org/2000/svg">
<g clip-path="url(#clip0_118_11438)">
<rect width="25" height="29" fill="white"/>
<path d="M-125 -116H25V58H-125V-116Z" fill="var(--background)"/>
<path fill-rule="evenodd" clip-rule="evenodd" d="M24 -115H-124V57H24V-115ZM-125 -116V58H25V-116H-125Z" fill="black"/>
<path d="M-70.7408 -47.9828H-79.4283V-67.7015H-92.3033V-47.9828H-101.022V-93.4828H-92.3033V-74.8265H-79.4283V-93.4828H-70.7408V-47.9828Z" fill="black"/>
<path d="M-89.9908 -8L-85.6783 9.09375L-80.772 -8H-69.8658V37.5H-77.9283V24.0312L-77.5533 2.75L-83.522 22.5H-87.8658L-93.2095 3.59375L-92.8345 24.0312V37.5H-100.897V-8H-89.9908Z" fill="black"/>
<path d="M1.44775 -67.389C1.44775 -65.4307 1.27067 -63.5661 0.916504 -61.7953C0.56234 -60.0453 0.051918 -58.4203 -0.614746 -56.9203C-1.32308 -55.4203 -2.19808 -54.0453 -3.23975 -52.7953C-4.28141 -51.5453 -5.46891 -50.5036 -6.80225 -49.6703C-8.01058 -48.9411 -9.34391 -48.3786 -10.8022 -47.9828C-12.2397 -47.5661 -13.7918 -47.3578 -15.4585 -47.3578C-17.2293 -47.3578 -18.8647 -47.5869 -20.3647 -48.0453C-21.8647 -48.5036 -23.2293 -49.1494 -24.4585 -49.9828C-25.6668 -50.8578 -26.7502 -51.9098 -27.7085 -53.139C-28.6668 -54.389 -29.4689 -55.7953 -30.1147 -57.3578C-30.6981 -58.7953 -31.146 -60.3578 -31.4585 -62.0453C-31.7502 -63.7328 -31.896 -65.514 -31.896 -67.389V-74.014C-31.896 -76.014 -31.7293 -77.9098 -31.396 -79.7015C-31.0418 -81.4932 -30.5314 -83.1494 -29.8647 -84.6703C-29.2189 -86.1078 -28.4377 -87.4098 -27.521 -88.5765C-26.5835 -89.7432 -25.5106 -90.7432 -24.3022 -91.5765C-23.1147 -92.389 -21.7814 -93.014 -20.3022 -93.4515C-18.8231 -93.889 -17.2189 -94.1078 -15.4897 -94.1078C-13.7397 -94.1078 -12.1043 -93.8786 -10.5835 -93.4203C-9.04183 -92.9828 -7.65641 -92.3473 -6.42725 -91.514C-5.19808 -90.7223 -4.12516 -89.764 -3.2085 -88.639C-2.271 -87.514 -1.46891 -86.2744 -0.802246 -84.9203C-0.073082 -83.3786 0.479004 -81.6911 0.854004 -79.8578C1.24984 -78.0244 1.44775 -76.0765 1.44775 -74.014V-67.389ZM-7.4585 -74.0765C-7.4585 -75.2432 -7.521 -76.3473 -7.646 -77.389C-7.75016 -78.4515 -7.92725 -79.4307 -8.17725 -80.3265C-8.48975 -81.4515 -8.90641 -82.4515 -9.42725 -83.3265C-9.94808 -84.2223 -10.5627 -84.9515 -11.271 -85.514C-11.8335 -85.9307 -12.4689 -86.2536 -13.1772 -86.4828C-13.8647 -86.7119 -14.6356 -86.8265 -15.4897 -86.8265C-16.3022 -86.8265 -17.0418 -86.7223 -17.7085 -86.514C-18.3543 -86.3057 -18.9377 -86.0036 -19.4585 -85.6078C-20.1668 -85.0244 -20.771 -84.2953 -21.271 -83.4203C-21.7502 -82.5453 -22.1252 -81.5244 -22.396 -80.3578C-22.6043 -79.4619 -22.7606 -78.4828 -22.8647 -77.4203C-22.9481 -76.3578 -22.9897 -75.2432 -22.9897 -74.0765V-67.389C-22.9897 -66.2848 -22.9481 -65.2223 -22.8647 -64.2015C-22.7814 -63.1807 -22.6356 -62.2328 -22.4272 -61.3578C-22.1981 -60.2536 -21.8647 -59.2432 -21.4272 -58.3265C-20.9689 -57.4307 -20.4377 -56.7015 -19.8335 -56.139C-19.271 -55.639 -18.6356 -55.2536 -17.9272 -54.9828C-17.1981 -54.7119 -16.3752 -54.5765 -15.4585 -54.5765C-14.5835 -54.5765 -13.7814 -54.7015 -13.0522 -54.9515C-12.3231 -55.2015 -11.6772 -55.5661 -11.1147 -56.0453C-10.4064 -56.6286 -9.81266 -57.3578 -9.3335 -58.2328C-8.8335 -59.1286 -8.43766 -60.139 -8.146 -61.264C-7.91683 -62.139 -7.75016 -63.0973 -7.646 -64.139C-7.521 -65.1807 -7.4585 -66.264 -7.4585 -67.389V-74.0765Z" fill="black"/>
<path d="M-2.30225 16.5625H-20.9897V29.4062H0.854004V36.5H-29.8022V-9H0.760254V-1.84375H-20.9897V9.625H-2.30225V16.5625Z" fill="black"/>
</g>
<defs>
<clipPath id="clip0_118_11438">
<rect width="25" height="29" fill="white"/>
</clipPath>
</defs>
</svg>
