<svg width="25" height="29" viewBox="0 0 25 29" fill="none" xmlns="http://www.w3.org/2000/svg">
<g clip-path="url(#clip0_118_11444)">
<rect width="25" height="29" fill="white"/>
<path d="M-50 -145H100V29H-50V-145Z" fill="#E3E3E3"/>
<path fill-rule="evenodd" clip-rule="evenodd" d="M99 -144H-49V28H99V-144ZM-50 -145V29H100V-145H-50Z" fill="black"/>
<path d="M4.25922 -76.9828H-4.42828V-96.7015H-17.3033V-76.9828H-26.022V-122.483H-17.3033V-103.827H-4.42828V-122.483H4.25922V-76.9828Z" fill="black"/>
<path d="M-14.9908 -37L-10.6783 -19.9062L-5.77203 -37H5.13422V8.5H-2.92828V-4.96875L-2.55328 -26.25L-8.52203 -6.5H-12.8658L-18.2095 -25.4062L-17.8345 -4.96875V8.5H-25.897V-37H-14.9908Z" fill="black"/>
<path d="M76.4478 -96.389C76.4478 -94.4307 76.2707 -92.5661 75.9165 -90.7953C75.5623 -89.0453 75.0519 -87.4203 74.3853 -85.9203C73.6769 -84.4203 72.8019 -83.0453 71.7603 -81.7953C70.7186 -80.5453 69.5311 -79.5036 68.1978 -78.6703C66.9894 -77.9411 65.6561 -77.3786 64.1978 -76.9828C62.7603 -76.5661 61.2082 -76.3578 59.5415 -76.3578C57.7707 -76.3578 56.1353 -76.5869 54.6353 -77.0453C53.1353 -77.5036 51.7707 -78.1494 50.5415 -78.9828C49.3332 -79.8578 48.2498 -80.9098 47.2915 -82.139C46.3332 -83.389 45.5311 -84.7953 44.8853 -86.3578C44.3019 -87.7953 43.854 -89.3578 43.5415 -91.0453C43.2498 -92.7328 43.104 -94.514 43.104 -96.389V-103.014C43.104 -105.014 43.2707 -106.91 43.604 -108.702C43.9582 -110.493 44.4686 -112.149 45.1353 -113.67C45.7811 -115.108 46.5623 -116.41 47.479 -117.577C48.4165 -118.743 49.4894 -119.743 50.6978 -120.577C51.8853 -121.389 53.2186 -122.014 54.6978 -122.452C56.1769 -122.889 57.7811 -123.108 59.5103 -123.108C61.2603 -123.108 62.8957 -122.879 64.4165 -122.42C65.9582 -121.983 67.3436 -121.347 68.5728 -120.514C69.8019 -119.722 70.8748 -118.764 71.7915 -117.639C72.729 -116.514 73.5311 -115.274 74.1978 -113.92C74.9269 -112.379 75.479 -110.691 75.854 -108.858C76.2498 -107.024 76.4478 -105.077 76.4478 -103.014V-96.389ZM67.5415 -103.077C67.5415 -104.243 67.479 -105.347 67.354 -106.389C67.2498 -107.452 67.0728 -108.431 66.8228 -109.327C66.5103 -110.452 66.0936 -111.452 65.5728 -112.327C65.0519 -113.222 64.4373 -113.952 63.729 -114.514C63.1665 -114.931 62.5311 -115.254 61.8228 -115.483C61.1353 -115.712 60.3644 -115.827 59.5103 -115.827C58.6978 -115.827 57.9582 -115.722 57.2915 -115.514C56.6457 -115.306 56.0623 -115.004 55.5415 -114.608C54.8332 -114.024 54.229 -113.295 53.729 -112.42C53.2498 -111.545 52.8748 -110.524 52.604 -109.358C52.3957 -108.462 52.2394 -107.483 52.1353 -106.42C52.0519 -105.358 52.0103 -104.243 52.0103 -103.077V-96.389C52.0103 -95.2848 52.0519 -94.2223 52.1353 -93.2015C52.2186 -92.1807 52.3644 -91.2328 52.5728 -90.3578C52.8019 -89.2536 53.1353 -88.2432 53.5728 -87.3265C54.0311 -86.4307 54.5623 -85.7015 55.1665 -85.139C55.729 -84.639 56.3644 -84.2536 57.0728 -83.9828C57.8019 -83.7119 58.6248 -83.5765 59.5415 -83.5765C60.4165 -83.5765 61.2186 -83.7015 61.9478 -83.9515C62.6769 -84.2015 63.3228 -84.5661 63.8853 -85.0453C64.5936 -85.6286 65.1873 -86.3578 65.6665 -87.2328C66.1665 -88.1286 66.5623 -89.139 66.854 -90.264C67.0832 -91.139 67.2498 -92.0973 67.354 -93.139C67.479 -94.1807 67.5415 -95.264 67.5415 -96.389V-103.077Z" fill="black"/>
<path d="M72.6978 -12.4375H54.0103V0.40625H75.854V7.5H45.1978V-38H75.7603V-30.8438H54.0103V-19.375H72.6978V-12.4375Z" fill="black"/>
</g>
<defs>
<clipPath id="clip0_118_11444">
<rect width="25" height="29" fill="white"/>
</clipPath>
</defs>
</svg>
