<svg width="25" height="29" viewBox="0 0 25 29" fill="none" xmlns="http://www.w3.org/2000/svg">
<g clip-path="url(#clip0_118_11450)">
<rect width="25" height="29" fill="white"/>
<path d="M-125 -145H25V29H-125V-145Z" fill="#E3E3E3"/>
<path fill-rule="evenodd" clip-rule="evenodd" d="M24 -144H-124V28H24V-144ZM-125 -145V29H25V-145H-125Z" fill="black"/>
<path d="M-70.7408 -76.9828H-79.4283V-96.7015H-92.3033V-76.9828H-101.022V-122.483H-92.3033V-103.827H-79.4283V-122.483H-70.7408V-76.9828Z" fill="black"/>
<path d="M-89.9908 -37L-85.6783 -19.9062L-80.772 -37H-69.8658V8.5H-77.9283V-4.96875L-77.5533 -26.25L-83.522 -6.5H-87.8658L-93.2095 -25.4062L-92.8345 -4.96875V8.5H-100.897V-37H-89.9908Z" fill="black"/>
<path d="M1.44775 -96.389C1.44775 -94.4307 1.27067 -92.5661 0.916504 -90.7953C0.56234 -89.0453 0.051918 -87.4203 -0.614746 -85.9203C-1.32308 -84.4203 -2.19808 -83.0453 -3.23975 -81.7953C-4.28141 -80.5453 -5.46891 -79.5036 -6.80225 -78.6703C-8.01058 -77.9411 -9.34391 -77.3786 -10.8022 -76.9828C-12.2397 -76.5661 -13.7918 -76.3578 -15.4585 -76.3578C-17.2293 -76.3578 -18.8647 -76.5869 -20.3647 -77.0453C-21.8647 -77.5036 -23.2293 -78.1494 -24.4585 -78.9828C-25.6668 -79.8578 -26.7502 -80.9098 -27.7085 -82.139C-28.6668 -83.389 -29.4689 -84.7953 -30.1147 -86.3578C-30.6981 -87.7953 -31.146 -89.3578 -31.4585 -91.0453C-31.7502 -92.7328 -31.896 -94.514 -31.896 -96.389V-103.014C-31.896 -105.014 -31.7293 -106.91 -31.396 -108.702C-31.0418 -110.493 -30.5314 -112.149 -29.8647 -113.67C-29.2189 -115.108 -28.4377 -116.41 -27.521 -117.577C-26.5835 -118.743 -25.5106 -119.743 -24.3022 -120.577C-23.1147 -121.389 -21.7814 -122.014 -20.3022 -122.452C-18.8231 -122.889 -17.2189 -123.108 -15.4897 -123.108C-13.7397 -123.108 -12.1043 -122.879 -10.5835 -122.42C-9.04183 -121.983 -7.65641 -121.347 -6.42725 -120.514C-5.19808 -119.722 -4.12516 -118.764 -3.2085 -117.639C-2.271 -116.514 -1.46891 -115.274 -0.802246 -113.92C-0.073082 -112.379 0.479004 -110.691 0.854004 -108.858C1.24984 -107.024 1.44775 -105.077 1.44775 -103.014V-96.389ZM-7.4585 -103.077C-7.4585 -104.243 -7.521 -105.347 -7.646 -106.389C-7.75016 -107.452 -7.92725 -108.431 -8.17725 -109.327C-8.48975 -110.452 -8.90641 -111.452 -9.42725 -112.327C-9.94808 -113.222 -10.5627 -113.952 -11.271 -114.514C-11.8335 -114.931 -12.4689 -115.254 -13.1772 -115.483C-13.8647 -115.712 -14.6356 -115.827 -15.4897 -115.827C-16.3022 -115.827 -17.0418 -115.722 -17.7085 -115.514C-18.3543 -115.306 -18.9377 -115.004 -19.4585 -114.608C-20.1668 -114.024 -20.771 -113.295 -21.271 -112.42C-21.7502 -111.545 -22.1252 -110.524 -22.396 -109.358C-22.6043 -108.462 -22.7606 -107.483 -22.8647 -106.42C-22.9481 -105.358 -22.9897 -104.243 -22.9897 -103.077V-96.389C-22.9897 -95.2848 -22.9481 -94.2223 -22.8647 -93.2015C-22.7814 -92.1807 -22.6356 -91.2328 -22.4272 -90.3578C-22.1981 -89.2536 -21.8647 -88.2432 -21.4272 -87.3265C-20.9689 -86.4307 -20.4377 -85.7015 -19.8335 -85.139C-19.271 -84.639 -18.6356 -84.2536 -17.9272 -83.9828C-17.1981 -83.7119 -16.3752 -83.5765 -15.4585 -83.5765C-14.5835 -83.5765 -13.7814 -83.7015 -13.0522 -83.9515C-12.3231 -84.2015 -11.6772 -84.5661 -11.1147 -85.0453C-10.4064 -85.6286 -9.81266 -86.3578 -9.3335 -87.2328C-8.8335 -88.1286 -8.43766 -89.139 -8.146 -90.264C-7.91683 -91.139 -7.75016 -92.0973 -7.646 -93.139C-7.521 -94.1807 -7.4585 -95.264 -7.4585 -96.389V-103.077Z" fill="black"/>
<path d="M-2.30225 -12.4375H-20.9897V0.40625H0.854004V7.5H-29.8022V-38H0.760254V-30.8438H-20.9897V-19.375H-2.30225V-12.4375Z" fill="black"/>
</g>
<defs>
<clipPath id="clip0_118_11450">
<rect width="25" height="29" fill="white"/>
</clipPath>
</defs>
</svg>
