<svg width="25" height="29" viewBox="0 0 25 29" fill="none" xmlns="http://www.w3.org/2000/svg">
<g clip-path="url(#clip0_118_11390)">
<rect width="25" height="29" fill="white"/>
<path d="M-125 0H25V174H-125V0Z" fill="#E3E3E3"/>
<path fill-rule="evenodd" clip-rule="evenodd" d="M24 1H-124V173H24V1ZM-125 0V174H25V0H-125Z" fill="black"/>
<path d="M-70.7408 68.0172H-79.4283V48.2985H-92.3033V68.0172H-101.022V22.5172H-92.3033V41.1735H-79.4283V22.5172H-70.7408V68.0172Z" fill="black"/>
<path d="M-89.9908 108L-85.6783 125.094L-80.772 108H-69.8658V153.5H-77.9283V140.031L-77.5533 118.75L-83.522 138.5H-87.8658L-93.2095 119.594L-92.8345 140.031V153.5H-100.897V108H-89.9908Z" fill="black"/>
<path d="M1.44775 48.611C1.44775 50.5693 1.27067 52.4339 0.916504 54.2047C0.56234 55.9547 0.051918 57.5797 -0.614746 59.0797C-1.32308 60.5797 -2.19808 61.9547 -3.23975 63.2047C-4.28141 64.4547 -5.46891 65.4964 -6.80225 66.3297C-8.01058 67.0589 -9.34391 67.6214 -10.8022 68.0172C-12.2397 68.4339 -13.7918 68.6422 -15.4585 68.6422C-17.2293 68.6422 -18.8647 68.4131 -20.3647 67.9547C-21.8647 67.4964 -23.2293 66.8506 -24.4585 66.0172C-25.6668 65.1422 -26.7502 64.0902 -27.7085 62.861C-28.6668 61.611 -29.4689 60.2047 -30.1147 58.6422C-30.6981 57.2047 -31.146 55.6422 -31.4585 53.9547C-31.7502 52.2672 -31.896 50.486 -31.896 48.611V41.986C-31.896 39.986 -31.7293 38.0902 -31.396 36.2985C-31.0418 34.5068 -30.5314 32.8506 -29.8647 31.3297C-29.2189 29.8922 -28.4377 28.5902 -27.521 27.4235C-26.5835 26.2568 -25.5106 25.2568 -24.3022 24.4235C-23.1147 23.611 -21.7814 22.986 -20.3022 22.5485C-18.8231 22.111 -17.2189 21.8922 -15.4897 21.8922C-13.7397 21.8922 -12.1043 22.1214 -10.5835 22.5797C-9.04183 23.0172 -7.65641 23.6527 -6.42725 24.486C-5.19808 25.2777 -4.12516 26.236 -3.2085 27.361C-2.271 28.486 -1.46891 29.7256 -0.802246 31.0797C-0.073082 32.6214 0.479004 34.3089 0.854004 36.1422C1.24984 37.9756 1.44775 39.9235 1.44775 41.986V48.611ZM-7.4585 41.9235C-7.4585 40.7568 -7.521 39.6527 -7.646 38.611C-7.75016 37.5485 -7.92725 36.5693 -8.17725 35.6735C-8.48975 34.5485 -8.90641 33.5485 -9.42725 32.6735C-9.94808 31.7777 -10.5627 31.0485 -11.271 30.486C-11.8335 30.0693 -12.4689 29.7464 -13.1772 29.5172C-13.8647 29.2881 -14.6356 29.1735 -15.4897 29.1735C-16.3022 29.1735 -17.0418 29.2777 -17.7085 29.486C-18.3543 29.6943 -18.9377 29.9964 -19.4585 30.3922C-20.1668 30.9756 -20.771 31.7047 -21.271 32.5797C-21.7502 33.4547 -22.1252 34.4756 -22.396 35.6422C-22.6043 36.5381 -22.7606 37.5172 -22.8647 38.5797C-22.9481 39.6422 -22.9897 40.7568 -22.9897 41.9235V48.611C-22.9897 49.7152 -22.9481 50.7777 -22.8647 51.7985C-22.7814 52.8193 -22.6356 53.7672 -22.4272 54.6422C-22.1981 55.7464 -21.8647 56.7568 -21.4272 57.6735C-20.9689 58.5693 -20.4377 59.2985 -19.8335 59.861C-19.271 60.361 -18.6356 60.7464 -17.9272 61.0172C-17.1981 61.2881 -16.3752 61.4235 -15.4585 61.4235C-14.5835 61.4235 -13.7814 61.2985 -13.0522 61.0485C-12.3231 60.7985 -11.6772 60.4339 -11.1147 59.9547C-10.4064 59.3714 -9.81266 58.6422 -9.3335 57.7672C-8.8335 56.8714 -8.43766 55.861 -8.146 54.736C-7.91683 53.861 -7.75016 52.9027 -7.646 51.861C-7.521 50.8193 -7.4585 49.736 -7.4585 48.611V41.9235Z" fill="black"/>
<path d="M-2.30225 132.562H-20.9897V145.406H0.854004V152.5H-29.8022V107H0.760254V114.156H-20.9897V125.625H-2.30225V132.562Z" fill="black"/>
</g>
<defs>
<clipPath id="clip0_118_11390">
<rect width="25" height="29" fill="white"/>
</clipPath>
</defs>
</svg>
