<svg width="25" height="29" viewBox="0 0 25 29" fill="none" xmlns="http://www.w3.org/2000/svg">
<g clip-path="url(#clip0_118_11392)">
<rect width="25" height="29" fill="white"/>
<path d="M0 -29H150V145H0V-29Z" fill="var(--background)"/>
<path fill-rule="evenodd" clip-rule="evenodd" d="M149 -28H1V144H149V-28ZM0 -29V145H150V-29H0Z" fill="black"/>
<path d="M54.2592 39.0172H45.5717V19.2985H32.6967V39.0172H23.978V-6.48276H32.6967V12.1735H45.5717V-6.48276H54.2592V39.0172Z" fill="black"/>
<path d="M35.0092 79L39.3217 96.0938L44.228 79H55.1342V124.5H47.0717V111.031L47.4467 89.75L41.478 109.5H37.1342L31.7905 90.5938L32.1655 111.031V124.5H24.103V79H35.0092Z" fill="black"/>
<path d="M126.448 19.611C126.448 21.5693 126.271 23.4339 125.917 25.2047C125.562 26.9547 125.052 28.5797 124.385 30.0797C123.677 31.5797 122.802 32.9547 121.76 34.2047C120.719 35.4547 119.531 36.4964 118.198 37.3297C116.989 38.0589 115.656 38.6214 114.198 39.0172C112.76 39.4339 111.208 39.6422 109.542 39.6422C107.771 39.6422 106.135 39.4131 104.635 38.9547C103.135 38.4964 101.771 37.8506 100.542 37.0172C99.3332 36.1422 98.2498 35.0902 97.2915 33.861C96.3332 32.611 95.5311 31.2047 94.8853 29.6422C94.3019 28.2047 93.854 26.6422 93.5415 24.9547C93.2498 23.2672 93.104 21.486 93.104 19.611V12.986C93.104 10.986 93.2707 9.09016 93.604 7.29849C93.9582 5.50682 94.4686 3.85057 95.1353 2.32974C95.7811 0.892242 96.5623 -0.409842 97.479 -1.57651C98.4165 -2.74317 99.4894 -3.74317 100.698 -4.57651C101.885 -5.38901 103.219 -6.01401 104.698 -6.45151C106.177 -6.88901 107.781 -7.10776 109.51 -7.10776C111.26 -7.10776 112.896 -6.87859 114.417 -6.42026C115.958 -5.98276 117.344 -5.34734 118.573 -4.51401C119.802 -3.72234 120.875 -2.76401 121.792 -1.63901C122.729 -0.514008 123.531 0.725576 124.198 2.07974C124.927 3.62141 125.479 5.30891 125.854 7.14224C126.25 8.97557 126.448 10.9235 126.448 12.986V19.611ZM117.542 12.9235C117.542 11.7568 117.479 10.6527 117.354 9.61099C117.25 8.54849 117.073 7.56932 116.823 6.67349C116.51 5.54849 116.094 4.54849 115.573 3.67349C115.052 2.77766 114.437 2.04849 113.729 1.48599C113.167 1.06933 112.531 0.746408 111.823 0.517242C111.135 0.288076 110.364 0.173492 109.51 0.173492C108.698 0.173492 107.958 0.277658 107.292 0.485992C106.646 0.694326 106.062 0.996408 105.542 1.39224C104.833 1.97558 104.229 2.70474 103.729 3.57974C103.25 4.45474 102.875 5.47557 102.604 6.64224C102.396 7.53807 102.239 8.51724 102.135 9.57974C102.052 10.6422 102.01 11.7568 102.01 12.9235V19.611C102.01 20.7152 102.052 21.7777 102.135 22.7985C102.219 23.8193 102.364 24.7672 102.573 25.6422C102.802 26.7464 103.135 27.7568 103.573 28.6735C104.031 29.5693 104.562 30.2985 105.167 30.861C105.729 31.361 106.364 31.7464 107.073 32.0172C107.802 32.2881 108.625 32.4235 109.542 32.4235C110.417 32.4235 111.219 32.2985 111.948 32.0485C112.677 31.7985 113.323 31.4339 113.885 30.9547C114.594 30.3714 115.187 29.6422 115.667 28.7672C116.167 27.8714 116.562 26.861 116.854 25.736C117.083 24.861 117.25 23.9027 117.354 22.861C117.479 21.8193 117.542 20.736 117.542 19.611V12.9235Z" fill="black"/>
<path d="M122.698 103.562H104.01V116.406H125.854V123.5H95.1978V78H125.76V85.1562H104.01V96.625H122.698V103.562Z" fill="black"/>
</g>
<defs>
<clipPath id="clip0_118_11392">
<rect width="25" height="29" fill="white"/>
</clipPath>
</defs>
</svg>
