<svg xmlns="http://www.w3.org/2000/svg" width="900" height="2" fill="none">
  <path fill="var(--background)" fill-rule="evenodd"
    d="M897 0h3v1h-3V0Zm-12 0h6v1h-6V0Zm-12 0h6v1h-6V0Zm-12 0h6v1h-6V0Zm-12 0h6v1h-6V0Zm-12 0h6v1h-6V0Zm-12 0h6v1h-6V0Zm-12 0h6v1h-6V0Zm-12 0h6v1h-6V0Zm-12 0h6v1h-6V0Zm-12 0h6v1h-6V0Zm-12 0h6v1h-6V0Zm-12 0h6v1h-6V0Zm-12 0h6v1h-6V0Zm-12 0h6v1h-6V0Zm-12 0h6v1h-6V0Zm-12 0h6v1h-6V0Zm-12 0h6v1h-6V0Zm-12 0h6v1h-6V0Zm-12 0h6v1h-6V0Zm-12 0h6v1h-6V0Zm-12 0h6v1h-6V0Zm-12 0h6v1h-6V0Zm-12 0h6v1h-6V0Zm-12 0h6v1h-6V0Zm-12 0h6v1h-6V0Zm-12 0h6v1h-6V0Zm-12 0h6v1h-6V0Zm-12 0h6v1h-6V0Zm-12 0h6v1h-6V0Zm-12 0h6v1h-6V0Zm-12 0h6v1h-6V0Zm-12 0h6v1h-6V0Zm-12 0h6v1h-6V0Zm-12 0h6v1h-6V0Zm-12 0h6v1h-6V0Zm-12 0h6v1h-6V0Zm-12 0h6v1h-6V0Zm-12 0h6v1h-6V0Zm-12 0h6v1h-6V0Zm-12 0h6v1h-6V0Zm-12 0h6v1h-6V0Zm-12 0h6v1h-6V0Zm-12 0h6v1h-6V0Zm-12 0h6v1h-6V0Zm-12 0h6v1h-6V0Zm-12 0h6v1h-6V0Zm-12 0h6v1h-6V0Zm-12 0h6v1h-6V0Zm-12 0h6v1h-6V0Zm-12 0h6v1h-6V0Zm-12 0h6v1h-6V0Zm-12 0h6v1h-6V0Zm-12 0h6v1h-6V0Zm-12 0h6v1h-6V0Zm-12 0h6v1h-6V0Zm-12 0h6v1h-6V0Zm-12 0h6v1h-6V0Zm-12 0h6v1h-6V0Zm-12 0h6v1h-6V0Zm-12 0h6v1h-6V0Zm-12 0h6v1h-6V0Zm-12 0h6v1h-6V0Zm-12 0h6v1h-6V0Zm-12 0h6v1h-6V0Zm-12 0h6v1h-6V0Zm-12 0h6v1h-6V0ZM93 0h6v1h-6V0ZM81 0h6v1h-6V0ZM69 0h6v1h-6V0ZM57 0h6v1h-6V0ZM45 0h6v1h-6V0ZM33 0h6v1h-6V0ZM21 0h6v1h-6V0ZM9 0h6v1H9V0ZM0 0h3v1H0V0Z"
    clip-rule="evenodd" />
</svg>