<svg width="32" height="32" viewBox="0 0 32 32" fill="none" xmlns="http://www.w3.org/2000/svg">
  <path
    d="M16 32C24.8366 32 32 24.8366 32 16C32 7.16344 24.8366 0 16 0C7.16344 0 0 7.16344 0 16C0 24.8366 7.16344 32 16 32Z"
    fill="var(--black)" />
  <path
    d="M12.5628 8.96118C9.31214 8.36918 6.74189 8.98881 5.71751 10.7631C4.95314 12.0871 5.17164 13.8424 6.24751 15.7188C6.26876 15.7578 6.29757 15.7921 6.33226 15.8198C6.36695 15.8475 6.40682 15.868 6.44953 15.88C6.49225 15.8921 6.53694 15.8955 6.58099 15.8901C6.62504 15.8847 6.66757 15.8705 6.70607 15.8484C6.74457 15.8264 6.77828 15.7968 6.80521 15.7615C6.83214 15.7262 6.85176 15.6859 6.86291 15.643C6.87406 15.6 6.87651 15.5553 6.87013 15.5113C6.86376 15.4674 6.84867 15.4252 6.82576 15.3872C5.85676 13.6969 5.66814 12.1821 6.29489 11.0964C7.14589 9.62256 9.43839 9.06981 12.4433 9.61706C12.5296 9.63144 12.6181 9.61127 12.6898 9.56093C12.7614 9.51058 12.8103 9.43409 12.826 9.34797C12.8417 9.26185 12.8229 9.17301 12.7736 9.10065C12.7244 9.02828 12.6486 8.97819 12.5628 8.96118ZM7.93789 17.9996C9.25226 19.4439 10.9599 20.7988 12.9074 21.9231C17.6228 24.6456 22.6428 25.3732 25.1168 23.6863C25.1538 23.662 25.1856 23.6306 25.2103 23.5939C25.235 23.5571 25.2522 23.5159 25.2608 23.4724C25.2694 23.429 25.2693 23.3843 25.2604 23.3409C25.2515 23.2976 25.2341 23.2564 25.2092 23.2198C25.1842 23.1832 25.1523 23.152 25.1151 23.1279C25.078 23.1038 25.0364 23.0874 24.9928 23.0795C24.9493 23.0717 24.9046 23.0726 24.8613 23.0822C24.8181 23.0919 24.7773 23.11 24.7411 23.1356C22.5269 24.6453 17.7584 23.9541 13.2408 21.3458C11.3515 20.2551 9.69789 18.9431 8.43101 17.5508C8.4016 17.5182 8.36604 17.4918 8.32639 17.473C8.28673 17.4542 8.24375 17.4434 8.19991 17.4413C8.15608 17.4391 8.11225 17.4456 8.07094 17.4605C8.02963 17.4753 7.99166 17.4981 7.9592 17.5277C7.92674 17.5572 7.90043 17.5929 7.88179 17.6326C7.86314 17.6723 7.85252 17.7153 7.85054 17.7592C7.84856 17.803 7.85526 17.8468 7.87025 17.8881C7.88524 17.9293 7.90822 17.9672 7.93789 17.9996Z"
    fill="var(--background)" />
  <path
    d="M24.3275 17.5942C26.456 15.0797 27.1991 12.5507 26.1769 10.7802C25.4247 9.47734 23.8346 8.78946 21.7212 8.76196C21.6336 8.76209 21.5496 8.79668 21.4873 8.85826C21.4251 8.91983 21.3895 9.00345 21.3884 9.09102C21.3872 9.1786 21.4206 9.26311 21.4813 9.32627C21.542 9.38944 21.6251 9.42619 21.7126 9.42859C23.6132 9.45334 24.9832 10.046 25.5996 11.1136C26.4486 12.5842 25.7859 14.8395 23.8186 17.1635C23.7897 17.1968 23.7678 17.2355 23.754 17.2774C23.7402 17.3193 23.7348 17.3635 23.7382 17.4075C23.7416 17.4514 23.7537 17.4943 23.7738 17.5335C23.7939 17.5728 23.8216 17.6077 23.8552 17.6362C23.8889 17.6646 23.9279 17.6862 23.9699 17.6995C24.0119 17.7128 24.0562 17.7177 24.1001 17.7138C24.144 17.7099 24.1867 17.6973 24.2258 17.6768C24.2648 17.6562 24.2994 17.6282 24.3275 17.5942ZM18.8574 9.07234C16.9329 9.48471 14.8844 10.291 12.9171 11.4267C8.04936 14.2371 4.87398 18.3812 5.31498 21.3861C5.32086 21.4298 5.33536 21.4719 5.35764 21.51C5.37993 21.5481 5.40954 21.5814 5.44478 21.6079C5.48002 21.6345 5.52018 21.6538 5.56293 21.6647C5.60568 21.6756 5.65017 21.6779 5.69382 21.6715C5.73748 21.6651 5.77942 21.6501 5.81723 21.6273C5.85503 21.6046 5.88795 21.5746 5.91407 21.539C5.94019 21.5034 5.95899 21.4631 5.96938 21.4202C5.97977 21.3773 5.98155 21.3328 5.97461 21.2892C5.58298 18.6212 8.59298 14.6931 13.2505 12.0041C15.1589 10.9022 17.1424 10.1216 18.997 9.72421C19.0404 9.71566 19.0817 9.69855 19.1184 9.67388C19.1551 9.64922 19.1866 9.61749 19.2109 9.58055C19.2352 9.54361 19.252 9.50219 19.2601 9.45871C19.2683 9.41524 19.2678 9.37057 19.2585 9.32731C19.2492 9.28405 19.2314 9.24307 19.2062 9.20675C19.1809 9.17044 19.1487 9.13951 19.1113 9.11578C19.074 9.09205 19.0323 9.07599 18.9887 9.06853C18.9451 9.06107 18.9005 9.06236 18.8574 9.07234Z"
    fill="var(--background)" />
  <path
    d="M10.9713 23.4692C12.0843 26.5767 13.9049 28.4901 15.9521 28.4901C17.4453 28.4901 18.8266 27.4722 19.9039 25.6804C19.9272 25.6428 19.9428 25.601 19.9498 25.5574C19.9569 25.5138 19.9551 25.4692 19.9448 25.4262C19.9344 25.3833 19.9156 25.3428 19.8895 25.3072C19.8633 25.2716 19.8303 25.2415 19.7925 25.2187C19.7546 25.196 19.7126 25.181 19.6689 25.1746C19.6251 25.1682 19.5806 25.1706 19.5378 25.1816C19.495 25.1925 19.4548 25.2119 19.4196 25.2386C19.3843 25.2653 19.3547 25.2987 19.3325 25.3369C18.3644 26.9472 17.1753 27.8234 15.9521 27.8234C14.2515 27.8234 12.6276 26.1169 11.599 23.2446C11.5849 23.2025 11.5626 23.1637 11.5333 23.1304C11.504 23.0971 11.4684 23.07 11.4285 23.0506C11.3886 23.0312 11.3452 23.02 11.3009 23.0176C11.2567 23.0152 11.2123 23.0217 11.1706 23.0366C11.1288 23.0516 11.0905 23.0747 11.0577 23.1046C11.025 23.1346 10.9986 23.1708 10.9801 23.2111C10.9615 23.2514 10.9512 23.2949 10.9497 23.3393C10.9482 23.3836 10.9556 23.4278 10.9714 23.4692H10.9713ZM21.1365 22.8614C21.7128 21.0204 22.0221 18.8966 22.0221 16.6835C22.0221 11.1611 20.0893 6.4006 17.3363 5.17823C17.2558 5.14454 17.1654 5.14371 17.0844 5.1759C17.0034 5.20809 16.9382 5.27075 16.9028 5.35044C16.8674 5.43013 16.8646 5.52051 16.8951 5.60221C16.9256 5.6839 16.9868 5.75041 17.0658 5.78748C19.5211 6.87785 21.3554 11.3957 21.3554 16.6835C21.3554 18.8306 21.0558 20.8872 20.5004 22.6622C20.4866 22.7042 20.4813 22.7485 20.4847 22.7925C20.4882 22.8366 20.5004 22.8795 20.5206 22.9188C20.5408 22.9581 20.5686 22.993 20.6024 23.0214C20.6362 23.0499 20.6754 23.0713 20.7175 23.0845C20.7597 23.0977 20.8041 23.1024 20.848 23.0983C20.892 23.0942 20.9348 23.0814 20.9738 23.0606C21.0128 23.0398 21.0472 23.0115 21.0752 22.9773C21.1032 22.9431 21.124 22.9037 21.1366 22.8614H21.1365ZM27.4145 22.5349C27.4145 21.6537 26.7003 20.9395 25.8191 20.9395C24.938 20.9395 24.2238 21.6537 24.2238 22.5349C24.2238 23.416 24.938 24.1302 25.8191 24.1302C26.7003 24.1302 27.4145 23.416 27.4145 22.5349ZM26.7479 22.5349C26.7479 22.6568 26.7239 22.7776 26.6772 22.8903C26.6305 23.003 26.5621 23.1053 26.4759 23.1916C26.3896 23.2778 26.2872 23.3462 26.1746 23.3929C26.0619 23.4396 25.9411 23.4636 25.8191 23.4636C25.6972 23.4636 25.5764 23.4396 25.4637 23.3929C25.351 23.3462 25.2487 23.2778 25.1624 23.1916C25.0762 23.1053 25.0078 23.003 24.9611 22.8903C24.9144 22.7776 24.8904 22.6568 24.8904 22.5349C24.8904 22.2885 24.9882 22.0523 25.1624 21.8781C25.3366 21.704 25.5728 21.6061 25.8191 21.6061C26.0655 21.6061 26.3017 21.704 26.4759 21.8781C26.65 22.0523 26.7479 22.2885 26.7479 22.5349ZM6.06214 24.1302C6.94339 24.1302 7.65764 23.416 7.65764 22.5349C7.65764 21.6537 6.94327 20.9395 6.06214 20.9395C5.18114 20.9395 4.46677 21.6537 4.46677 22.5349C4.46677 23.416 5.18114 24.1302 6.06214 24.1302ZM6.06214 23.4636C5.81582 23.4636 5.57959 23.3658 5.40542 23.1916C5.23124 23.0174 5.13339 22.7812 5.13339 22.5349C5.13339 22.2885 5.23124 22.0523 5.40542 21.8781C5.57959 21.704 5.81582 21.6061 6.06214 21.6061C6.30846 21.6061 6.54469 21.704 6.71887 21.8781C6.89304 22.0523 6.99089 22.2885 6.99089 22.5349C6.99089 22.7812 6.89304 23.0174 6.71887 23.1916C6.54469 23.3658 6.30846 23.4636 6.06214 23.4636Z"
    fill="var(--background)" />
  <path
    d="M15.9522 6.80574C16.8333 6.80574 17.5475 6.09149 17.5475 5.21037C17.5475 4.32924 16.8333 3.61499 15.9522 3.61499C15.071 3.61499 14.3568 4.32924 14.3568 5.21037C14.3568 6.09149 15.071 6.80574 15.9522 6.80574ZM15.9522 6.13912C15.7058 6.13912 15.4696 6.04127 15.2954 5.86709C15.1213 5.69292 15.0234 5.45669 15.0234 5.21037C15.0234 4.96405 15.1213 4.72781 15.2954 4.55364C15.4696 4.37947 15.7058 4.28162 15.9522 4.28162C16.1985 4.28162 16.4347 4.37947 16.6089 4.55364C16.7831 4.72781 16.8809 4.96405 16.8809 5.21037C16.8809 5.45669 16.7831 5.69292 16.6089 5.86709C16.4347 6.04127 16.1985 6.13912 15.9522 6.13912ZM16.1958 17.8119C15.5727 17.9465 14.9588 17.5505 14.8239 16.9274C14.7593 16.6281 14.8162 16.3155 14.9821 16.0582C15.1479 15.8009 15.4092 15.6201 15.7084 15.5554C16.3315 15.4207 16.9454 15.8167 17.0804 16.4399C17.215 17.063 16.819 17.677 16.1958 17.8119Z"
    fill="var(--background)" />
</svg>