<svg width="32" height="32" viewBox="0 0 32 32" fill="none" xmlns="http://www.w3.org/2000/svg">
<rect width="32" height="32" fill="black"/>
<path d="M14.4778 14.7292H16.2005V23.9622C16.1883 24.576 16.0699 25.1411 15.845 25.6576C15.6263 26.174 15.3255 26.6176 14.9427 26.9883C14.5599 27.365 14.1072 27.6597 13.5846 27.8724C13.0681 28.079 12.503 28.1823 11.8893 28.1823C11.2695 28.1823 10.7044 28.0881 10.194 27.8997C9.68965 27.7114 9.25215 27.441 8.88149 27.0885C8.50475 26.7422 8.20397 26.3229 7.97915 25.8307C7.75432 25.3325 7.61456 24.7765 7.55988 24.1628H9.27342C9.29165 24.5334 9.36456 24.8767 9.49217 25.1927C9.62585 25.5087 9.8051 25.7821 10.0299 26.013C10.2548 26.25 10.5221 26.4323 10.832 26.5599C11.148 26.6875 11.5004 26.7513 11.8893 26.7513C12.2903 26.7513 12.6489 26.6784 12.9648 26.5326C13.2808 26.3806 13.5512 26.1771 13.776 25.9219C13.9948 25.6667 14.1619 25.372 14.2773 25.0378C14.3989 24.6975 14.4657 24.339 14.4778 23.9622V14.7292Z" fill="#E3E3E3"/>
<path d="M26.4088 24.6458C26.4088 24.2387 26.3146 23.8954 26.1263 23.6159C25.944 23.3364 25.707 23.0994 25.4153 22.9049C25.1237 22.7166 24.8016 22.5586 24.4492 22.431C24.1028 22.3034 23.7686 22.1879 23.4466 22.0846C22.9787 21.9327 22.5017 21.7504 22.0156 21.5378C21.5356 21.319 21.0981 21.0577 20.7031 20.7539C20.3021 20.444 19.9739 20.0794 19.7187 19.6602C19.4696 19.2348 19.345 18.7365 19.345 18.1654C19.345 17.5942 19.4696 17.0838 19.7187 16.6341C19.9739 16.1845 20.3051 15.8047 20.7122 15.4948C21.1193 15.1849 21.5811 14.951 22.0976 14.793C22.6141 14.6289 23.1337 14.5469 23.6562 14.5469C24.2335 14.5469 24.7895 14.6441 25.3242 14.8385C25.8589 15.0269 26.3329 15.2943 26.7461 15.6406C27.1593 15.987 27.4904 16.4063 27.7396 16.8984C27.9887 17.3906 28.1193 17.9405 28.1315 18.5482H26.3997C26.3511 18.1654 26.2569 17.819 26.1172 17.5091C25.9774 17.1931 25.7921 16.9227 25.5612 16.6979C25.3303 16.4731 25.0538 16.2999 24.7317 16.1784C24.4158 16.0508 24.0573 15.987 23.6562 15.987C23.3342 15.987 23.0182 16.0326 22.7083 16.1237C22.4045 16.2148 22.1341 16.3516 21.8971 16.5339C21.6541 16.7161 21.4596 16.941 21.3138 17.2083C21.174 17.4757 21.1041 17.7856 21.1041 18.138C21.1102 18.5208 21.2074 18.8459 21.3958 19.1133C21.5842 19.3746 21.8242 19.5964 22.1159 19.7786C22.4015 19.9609 22.7114 20.1128 23.0456 20.2344C23.3858 20.3559 23.7048 20.4622 24.0026 20.5534C24.4948 20.7053 24.987 20.8906 25.4791 21.1094C25.9713 21.322 26.421 21.5955 26.8281 21.9297C27.2291 22.2396 27.5512 22.6194 27.7942 23.069C28.0434 23.5187 28.1679 24.0382 28.1679 24.6276C28.1679 25.2231 28.0343 25.7426 27.7669 26.1862C27.5056 26.6298 27.1653 26.9974 26.7461 27.2891C26.3268 27.5868 25.8528 27.8116 25.3242 27.9635C24.7956 28.1094 24.2669 28.1823 23.7383 28.1823C23.1063 28.1823 22.4835 28.076 21.8698 27.8633C21.2621 27.6506 20.7335 27.3438 20.2838 26.9427C19.8828 26.5964 19.5638 26.1923 19.3268 25.7305C19.0959 25.2626 18.9713 24.7431 18.9531 24.1719H20.6758C20.7304 24.5851 20.8429 24.9527 21.013 25.2747C21.1831 25.5907 21.4019 25.8581 21.6692 26.0768C21.9366 26.3016 22.2435 26.4718 22.5898 26.5872C22.9423 26.6966 23.3251 26.7513 23.7383 26.7513C24.0664 26.7513 24.3884 26.7118 24.7044 26.6328C25.0265 26.5477 25.312 26.4171 25.5612 26.2409C25.8103 26.0707 26.0139 25.855 26.1719 25.5938C26.3298 25.3264 26.4088 25.0104 26.4088 24.6458Z" fill="#E3E3E3"/>
</svg>
