<svg width="32" height="32" viewBox="0 0 32 32" fill="none" xmlns="http://www.w3.org/2000/svg">
<rect width="32" height="32" rx="16" fill="black"/>
<path fill-rule="evenodd" clip-rule="evenodd" d="M16.6791 24.0855C16.6504 24.1073 16.612 24.1355 16.5837 24.1577V24.1577C16.5678 24.1703 16.558 24.1887 16.5567 24.2089C16.5097 24.9321 16.4149 25.855 16.3629 26.3381C16.3427 26.5258 16.1842 26.6667 15.9954 26.6667V26.6667C15.8066 26.6667 15.6481 26.5256 15.6279 26.3379C15.5771 25.8651 15.4852 24.9719 15.4363 24.2614C15.4327 24.2084 15.4048 24.16 15.3607 24.1303V24.1303C15.3585 24.1288 15.3591 24.1294 15.3569 24.1278C15.287 24.0755 6.48919 17.4745 14.1467 7.71074C15.0413 6.64941 15.8133 5.57074 15.9707 5.34674C15.9867 5.32941 16.012 5.32941 16.028 5.34674C16.1853 5.57074 16.9573 6.64941 17.8533 7.71074C25.2205 17.1043 17.3565 23.5704 16.6791 24.0855ZM16.4919 23.4785C16.4983 23.4691 16.5013 23.4581 16.5013 23.4467V23.4467L16.02 12.7734C16.02 12.7414 15.9707 12.7414 15.9707 12.7734L15.4893 23.4467V23.4467C15.4893 23.4581 15.4924 23.4691 15.4987 23.4785C15.524 23.5159 15.5607 23.5597 15.6029 23.6056C15.814 23.8352 16.1777 23.8349 16.3885 23.605C16.4304 23.5593 16.4668 23.5157 16.4919 23.4785Z" fill="var(--background)"/>
</svg>
