<svg width="32" height="32" viewBox="0 0 32 32" fill="none" xmlns="http://www.w3.org/2000/svg">
<rect width="32" height="32" fill="black"/>
<path fill-rule="evenodd" clip-rule="evenodd" d="M25.2067 21.8345C24.0173 21.8012 23.0947 21.9225 22.3213 22.2478C22.1 22.3372 21.7413 22.3372 21.712 22.6172C21.8307 22.7358 21.8453 22.9278 21.9493 23.0905C22.128 23.3865 22.4413 23.7852 22.7227 23.9918L23.6747 24.6718C24.2547 25.0265 24.9093 25.2332 25.4733 25.5878C25.8013 25.7945 26.128 26.0612 26.4547 26.2825C26.6213 26.4012 26.724 26.5932 26.9307 26.6665V26.6225C26.828 26.4892 26.7973 26.2972 26.6933 26.1492L26.2467 25.7212C25.816 25.1452 25.2813 24.6412 24.7013 24.2278C24.224 23.9025 23.184 23.4598 22.9907 22.9132L22.9613 22.8798C23.288 22.8465 23.6747 22.7332 23.988 22.6438C24.4933 22.5118 24.9533 22.5398 25.4733 22.4078L26.188 22.2012V22.0678C25.92 21.8012 25.728 21.4478 25.4453 21.1958C24.6867 20.5465 23.8533 19.9105 22.9907 19.3785C22.5293 19.0825 21.936 18.8905 21.444 18.6398C21.2653 18.5505 20.968 18.5065 20.864 18.3585C20.596 18.0345 20.448 17.6052 20.2547 17.2198L19.036 14.6492C18.768 14.0732 18.604 13.4972 18.2773 12.9638C16.7453 10.4532 15.08 8.93051 12.5213 7.43718C11.972 7.12785 11.3173 6.99318 10.6227 6.83185L9.50668 6.77185C9.26801 6.66918 9.03068 6.38785 8.82268 6.25451C7.97468 5.72251 5.78934 4.56918 5.16401 6.08918C4.76268 7.05051 5.75868 7.99585 6.09734 8.48251C6.35068 8.82251 6.67734 9.20785 6.85601 9.59185C6.95601 9.84251 6.98934 10.1078 7.09334 10.3745C7.33201 11.0252 7.55468 11.7492 7.86668 12.3558C8.03334 12.6652 8.20801 12.9905 8.41734 13.2718C8.53601 13.4372 8.74401 13.5092 8.78801 13.7745C8.58001 14.0705 8.56668 14.5132 8.44668 14.8825C7.91068 16.5532 8.12001 18.6225 8.87868 19.8505C9.11601 20.2212 9.67734 21.0345 10.44 20.7225C11.1093 20.4572 10.96 19.6145 11.1533 18.8758C11.1973 18.6985 11.168 18.5798 11.2573 18.4625V18.4945L11.8667 19.7212C12.328 20.4452 13.132 21.1998 13.8 21.7012C14.156 21.9678 14.4387 22.4265 14.8853 22.5892V22.5438H14.856C14.7667 22.4118 14.6333 22.3518 14.5133 22.2478C14.2467 21.9825 13.9493 21.6572 13.74 21.3612C13.116 20.5345 12.5667 19.6172 12.0747 18.6718C11.836 18.2145 11.628 17.7118 11.436 17.2532C11.3467 17.0758 11.3467 16.8105 11.1973 16.7212C10.9747 17.0465 10.648 17.3278 10.484 17.7265C10.2013 18.3625 10.1707 19.1452 10.068 19.9585C10.0067 19.9732 10.0347 19.9585 10.0067 19.9905C9.53201 19.8732 9.36801 19.3852 9.18934 18.9718C8.74401 17.9225 8.66934 16.2385 9.05601 15.0265C9.16001 14.7158 9.60668 13.7398 9.42801 13.4438C9.33868 13.1638 9.04268 13.0012 8.87868 12.7798C8.68401 12.4985 8.47734 12.1452 8.34268 11.8332C7.98668 11.0065 7.80801 10.0905 7.42134 9.26251C7.24134 8.87851 6.92934 8.47851 6.67734 8.12385C6.39468 7.72518 6.08268 7.44385 5.86001 6.97185C5.78534 6.80651 5.68134 6.54385 5.80001 6.36518C5.82934 6.24785 5.88934 6.19985 6.00801 6.17318C6.20134 6.00785 6.75201 6.21851 6.94534 6.30651C7.49468 6.52785 7.95601 6.73451 8.41734 7.04518C8.62534 7.19318 8.84801 7.47318 9.11601 7.54785H9.42934C9.90534 7.65185 10.44 7.58118 10.8853 7.71318C11.6733 7.96518 12.3867 8.33318 13.0267 8.73318C14.9747 9.95985 16.5813 11.7038 17.6653 13.7878C17.844 14.1278 17.9187 14.4372 18.0827 14.7932C18.3947 15.5172 18.7827 16.2558 19.0933 16.9665C19.4067 17.6598 19.704 18.3705 20.1493 18.9465C20.3733 19.2572 21.2653 19.4185 21.6667 19.5825C21.964 19.7145 22.424 19.8332 22.6933 19.9958C23.1973 20.3065 23.7027 20.6612 24.1787 21.0012C24.416 21.1772 25.16 21.5465 25.2053 21.8412L25.2067 21.8345ZM10.0427 8.99185C9.83601 8.99051 9.63201 9.01451 9.43201 9.06518V9.09851H9.46268C9.58134 9.33585 9.78934 9.49718 9.93868 9.70518L10.28 10.4145L10.3093 10.3812C10.5173 10.2345 10.6227 9.99718 10.6227 9.64251C10.532 9.53985 10.5173 9.43585 10.444 9.33185C10.3547 9.18385 10.1613 9.11051 10.0427 8.99185Z" fill="#E3E3E3"/>
</svg>
