<svg width="32" height="32" viewBox="0 0 32 32" fill="none" xmlns="http://www.w3.org/2000/svg">
<rect width="32" height="32" fill="black"/>
<path d="M15.1265 5.56085C15.6555 5.25807 16.3445 5.2567 16.873 5.56085C19.5319 7.06328 22.1917 8.56335 24.8502 10.0667C25.3502 10.3484 25.6846 10.9048 25.6796 11.481V20.5202C25.6833 21.1202 25.3158 21.69 24.7882 21.9652C22.138 23.4594 19.4892 24.9554 16.8395 26.4495C16.2996 26.7582 15.5968 26.7344 15.0737 26.4004C14.2792 25.9398 13.4833 25.4815 12.6887 25.0214C12.5263 24.9246 12.3433 24.8475 12.2287 24.6901C12.33 24.5535 12.5112 24.5365 12.6585 24.4768C12.9901 24.3714 13.2947 24.2021 13.5994 24.0378C13.6765 23.9851 13.7705 24.0053 13.8444 24.0525C14.5238 24.442 15.1972 24.8429 15.8789 25.2287C16.0243 25.3127 16.1716 25.2012 16.2959 25.1319C18.8965 23.6621 21.5003 22.1978 24.1005 20.7275C24.1969 20.6812 24.2501 20.5789 24.2423 20.4734C24.2441 17.4915 24.2428 14.5092 24.2432 11.5273C24.2542 11.4076 24.185 11.2975 24.0767 11.2485C21.4357 9.76118 18.7961 8.27159 16.1555 6.7839C16.1098 6.75245 16.0556 6.73557 16.0001 6.73549C15.9446 6.73541 15.8903 6.75213 15.8445 6.78344C13.2039 8.27159 10.5648 9.76254 7.92424 11.2498C7.81635 11.2989 7.74394 11.4071 7.75678 11.5273C7.75724 14.5092 7.75678 17.4915 7.75678 20.4738C7.7522 20.5253 7.76351 20.577 7.78919 20.6218C7.81486 20.6667 7.85367 20.7026 7.90038 20.7248C8.60502 21.1244 9.31057 21.5211 10.0157 21.9193C10.4129 22.1332 10.9006 22.2602 11.3382 22.0964C11.7245 21.9579 11.9952 21.5638 11.9878 21.1537C11.9914 18.1893 11.986 15.2244 11.9905 12.2604C11.9809 12.1288 12.1057 12.0201 12.2337 12.0324C12.5722 12.0302 12.9113 12.0279 13.2498 12.0334C13.3912 12.0302 13.4884 12.1719 13.4709 12.3045C13.4696 15.2877 13.4746 18.2709 13.4687 21.2541C13.4696 22.0492 13.1429 22.9143 12.4075 23.3033C11.5015 23.7726 10.3817 23.6731 9.48669 23.2231C8.71185 22.8363 7.97241 22.3799 7.21132 21.9656C6.68242 21.6919 6.31673 21.1198 6.32045 20.5202V11.481C6.31491 10.8929 6.66267 10.3263 7.17827 10.0488C9.828 8.5534 12.4773 7.0569 15.1265 5.56085Z" fill="var(--background)"/>
<path d="M17.4382 11.8224C18.5938 11.748 19.831 11.7784 20.8709 12.3477C21.6761 12.784 22.1225 13.6996 22.1367 14.5941C22.1142 14.7148 21.9881 14.7813 21.8729 14.773C21.5376 14.7726 21.2022 14.7776 20.8669 14.7708C20.7247 14.7762 20.642 14.6451 20.6242 14.5193C20.5278 14.0913 20.2944 13.6675 19.8916 13.461C19.2732 13.1514 18.5561 13.167 17.8818 13.1734C17.3895 13.1996 16.8602 13.2422 16.4431 13.5317C16.1229 13.751 16.0257 14.1936 16.14 14.5501C16.2477 14.8061 16.5432 14.8887 16.785 14.9648C18.1777 15.3291 19.6535 15.2928 21.0196 15.7722C21.5852 15.9676 22.1385 16.3475 22.3321 16.9397C22.5854 17.7334 22.4743 18.6821 21.9097 19.3192C21.4517 19.8436 20.7848 20.1289 20.1196 20.2839C19.2346 20.4813 18.3163 20.4863 17.4176 20.3987C16.5725 20.3023 15.6931 20.0803 15.0408 19.5045C14.4829 19.0202 14.2105 18.2655 14.2375 17.537C14.244 17.414 14.3664 17.3282 14.4843 17.3384C14.8219 17.3356 15.1596 17.3347 15.4973 17.3388C15.6321 17.3292 15.7321 17.4457 15.739 17.5728C15.8013 17.9806 15.9546 18.4086 16.3102 18.6504C16.9964 19.0931 17.8575 19.0628 18.6433 19.0752C19.2943 19.0463 20.0251 19.0376 20.5563 18.6073C20.8366 18.3619 20.9196 17.9513 20.8439 17.5981C20.7618 17.2998 20.4499 17.1609 20.182 17.07C18.8071 16.6351 17.3148 16.7929 15.9532 16.3011C15.4005 16.1057 14.8659 15.7364 14.6536 15.1685C14.3572 14.3648 14.493 13.3707 15.1169 12.755C15.7252 12.1426 16.6033 11.9068 17.4382 11.8224Z" fill="var(--background)"/>
</svg>
