<svg width="45" height="25" viewBox="0 0 45 25" fill="none" xmlns="http://www.w3.org/2000/svg">
  <ellipse cx="22.5" cy="12.5" rx="22.5" ry="12.5" fill="var(--black)" />
  <path
    d="M16.4124 11.6699C16.3725 12.0231 16.3041 12.3792 16.2073 12.738C16.1161 13.0969 15.9965 13.4416 15.8484 13.772C15.6718 14.1935 15.4439 14.5894 15.1648 14.9597C14.8857 15.33 14.5638 15.6319 14.1992 15.8655C13.9201 16.0478 13.6125 16.1873 13.2764 16.2842C12.946 16.3867 12.5871 16.4351 12.1997 16.4294C11.9092 16.4237 11.6243 16.3867 11.3452 16.3184C11.0718 16.25 10.8154 16.1475 10.5762 16.0107C10.4338 15.931 10.297 15.837 10.166 15.7288C10.035 15.6148 9.91252 15.4895 9.79858 15.3528L8.96973 19.8047H7.4231L9.64478 7.00439L11.0461 6.99585L10.8838 8.0127C11.0205 7.85889 11.1658 7.71932 11.3196 7.59399C11.4734 7.46867 11.6329 7.36043 11.7981 7.26929C12.0601 7.12118 12.3393 7.01009 12.6355 6.93604C12.9317 6.86198 13.245 6.8278 13.5754 6.8335C13.997 6.84489 14.3644 6.91895 14.6777 7.05566C14.991 7.19238 15.2616 7.37467 15.4895 7.60254C15.7117 7.8361 15.8911 8.10384 16.0278 8.40576C16.1702 8.70768 16.2785 9.02954 16.3525 9.37134C16.4209 9.71313 16.4608 10.0663 16.4722 10.4309C16.4836 10.7898 16.4693 11.143 16.4294 11.4905L16.4124 11.6699ZM14.8828 11.4905C14.917 11.2 14.9284 10.8952 14.917 10.5762C14.9113 10.2572 14.8714 9.95524 14.7974 9.67041C14.7404 9.47103 14.672 9.29443 14.5923 9.14062C14.5182 8.98682 14.4271 8.8444 14.3188 8.71338C14.1707 8.55387 13.9913 8.4257 13.7805 8.32886C13.5754 8.23201 13.3276 8.18075 13.0371 8.17505C12.7637 8.16935 12.5073 8.20353 12.2681 8.27759C12.0345 8.35164 11.818 8.45988 11.6187 8.60229C11.4591 8.70483 11.3082 8.82731 11.1658 8.96973C11.0291 9.11214 10.898 9.26595 10.7727 9.43115L9.99512 13.9001C10.0806 14.0995 10.1831 14.2761 10.3027 14.4299C10.4224 14.578 10.5562 14.7034 10.7043 14.8059C10.8525 14.9084 11.0205 14.9882 11.2085 15.0452C11.3965 15.0964 11.5987 15.1278 11.8152 15.1392C12.1171 15.1449 12.3962 15.1078 12.6526 15.0281C12.9089 14.9426 13.1396 14.823 13.3447 14.6692C13.5897 14.4983 13.8005 14.2847 13.9771 14.0283C14.1593 13.772 14.3132 13.5042 14.4385 13.2251C14.5467 12.9744 14.635 12.7181 14.7034 12.4561C14.7774 12.1883 14.8315 11.9263 14.8657 11.6699L14.8828 11.4905Z"
    fill="var(--background)" />
  <path
    d="M21.1548 8.38867C21.3428 8.16081 21.545 7.95003 21.7615 7.75635C21.9836 7.56266 22.2201 7.39746 22.4707 7.26074C22.7157 7.12402 22.9749 7.01864 23.2483 6.94458C23.5274 6.86483 23.8208 6.8278 24.1284 6.8335C24.6525 6.84489 25.0911 6.95028 25.4443 7.14966C25.7975 7.34904 26.0767 7.61393 26.2817 7.94434C26.4868 8.27474 26.6235 8.65641 26.6919 9.08936C26.7603 9.5166 26.7688 9.96379 26.7175 10.4309L25.7434 16.25H24.1968L25.1794 10.4053C25.2136 10.1034 25.2136 9.82137 25.1794 9.55933C25.1453 9.29159 25.0655 9.05518 24.9402 8.8501C24.8149 8.65072 24.6411 8.49406 24.4189 8.38013C24.2025 8.2605 23.9262 8.19499 23.5901 8.18359C23.328 8.1779 23.0774 8.20923 22.8381 8.27759C22.6046 8.34025 22.3824 8.4314 22.1716 8.55103C21.9552 8.67635 21.7501 8.82161 21.5564 8.98682C21.3684 9.15202 21.1947 9.33146 21.0352 9.52515L19.8645 16.25H18.3179L20.5994 3.125H22.146L21.1548 8.38867Z"
    fill="var(--background)" />
  <path
    d="M36.9543 11.6699C36.9145 12.0231 36.8461 12.3792 36.7493 12.738C36.6581 13.0969 36.5385 13.4416 36.3904 13.772C36.2138 14.1935 35.9859 14.5894 35.7068 14.9597C35.4277 15.33 35.1058 15.6319 34.7412 15.8655C34.4621 16.0478 34.1545 16.1873 33.8184 16.2842C33.488 16.3867 33.1291 16.4351 32.7417 16.4294C32.4512 16.4237 32.1663 16.3867 31.8872 16.3184C31.6138 16.25 31.3574 16.1475 31.1182 16.0107C30.9757 15.931 30.839 15.837 30.708 15.7288C30.577 15.6148 30.4545 15.4895 30.3406 15.3528L29.5117 19.8047H27.9651L30.1868 7.00439L31.5881 6.99585L31.4258 8.0127C31.5625 7.85889 31.7078 7.71932 31.8616 7.59399C32.0154 7.46867 32.1749 7.36043 32.3401 7.26929C32.6021 7.12118 32.8813 7.01009 33.1775 6.93604C33.4737 6.86198 33.787 6.8278 34.1174 6.8335C34.539 6.84489 34.9064 6.91895 35.2197 7.05566C35.533 7.19238 35.8036 7.37467 36.0315 7.60254C36.2537 7.8361 36.4331 8.10384 36.5698 8.40576C36.7122 8.70768 36.8205 9.02954 36.8945 9.37134C36.9629 9.71313 37.0028 10.0663 37.0142 10.4309C37.0256 10.7898 37.0113 11.143 36.9714 11.4905L36.9543 11.6699ZM35.4248 11.4905C35.459 11.2 35.4704 10.8952 35.459 10.5762C35.4533 10.2572 35.4134 9.95524 35.3394 9.67041C35.2824 9.47103 35.214 9.29443 35.1343 9.14062C35.0602 8.98682 34.9691 8.8444 34.8608 8.71338C34.7127 8.55387 34.5333 8.4257 34.3225 8.32886C34.1174 8.23201 33.8696 8.18075 33.5791 8.17505C33.3057 8.16935 33.0493 8.20353 32.8101 8.27759C32.5765 8.35164 32.36 8.45988 32.1606 8.60229C32.0011 8.70483 31.8502 8.82731 31.7078 8.96973C31.571 9.11214 31.44 9.26595 31.3147 9.43115L30.5371 13.9001C30.6226 14.0995 30.7251 14.2761 30.8447 14.4299C30.9644 14.578 31.0982 14.7034 31.2463 14.8059C31.3944 14.9084 31.5625 14.9882 31.7505 15.0452C31.9385 15.0964 32.1407 15.1278 32.3572 15.1392C32.6591 15.1449 32.9382 15.1078 33.1946 15.0281C33.4509 14.9426 33.6816 14.823 33.8867 14.6692C34.1317 14.4983 34.3424 14.2847 34.519 14.0283C34.7013 13.772 34.8551 13.5042 34.9805 13.2251C35.0887 12.9744 35.177 12.7181 35.2454 12.4561C35.3194 12.1883 35.3735 11.9263 35.4077 11.6699L35.4248 11.4905Z"
    fill="var(--background)" />
</svg>