<svg width="94" height="32" viewBox="0 0 94 32" fill="none" xmlns="http://www.w3.org/2000/svg">
<path d="M93.3333 0H0V32H93.3333V0Z" fill="black"/>
<path d="M40.4844 21.3333H39.0156L34.6016 12.8333L34.5781 21.3333H33.1172V9.95825H34.5859L39 18.4426L39.0234 9.95825H40.4844V21.3333Z" fill="var(--background)"/>
<path d="M48.5234 21.3333C48.4661 21.2239 48.4193 21.0885 48.3828 20.927C48.3516 20.7603 48.3281 20.5885 48.3125 20.4114C48.1667 20.5572 48.0026 20.6952 47.8203 20.8254C47.6432 20.9556 47.4479 21.0702 47.2344 21.1692C47.0156 21.2681 46.7839 21.3463 46.5391 21.4036C46.2943 21.4609 46.0339 21.4895 45.7578 21.4895C45.3099 21.4895 44.9036 21.4244 44.5391 21.2942C44.1797 21.164 43.875 20.9869 43.625 20.7629C43.3698 20.5442 43.1719 20.2838 43.0313 19.9817C42.8958 19.6744 42.8281 19.3437 42.8281 18.9895C42.8281 18.526 42.9193 18.1197 43.1016 17.7708C43.2891 17.4218 43.5521 17.1301 43.8906 16.8958C44.2292 16.6666 44.6354 16.4947 45.1094 16.3801C45.5885 16.2655 46.1224 16.2083 46.7109 16.2083H48.2891V15.5442C48.2891 15.289 48.2422 15.0598 48.1484 14.8567C48.0547 14.6536 47.9219 14.4791 47.75 14.3333C47.5781 14.1926 47.3672 14.0833 47.1172 14.0051C46.8724 13.927 46.5964 13.8879 46.2891 13.8879C46.0026 13.8879 45.7448 13.9244 45.5156 13.9973C45.2917 14.0702 45.1016 14.1666 44.9453 14.2864C44.7891 14.4062 44.6667 14.5494 44.5781 14.7161C44.4948 14.8775 44.4531 15.0468 44.4531 15.2239H43C43.0052 14.9166 43.0833 14.6145 43.2344 14.3176C43.3906 14.0208 43.6146 13.7525 43.9063 13.5129C44.1927 13.2786 44.5417 13.0885 44.9531 12.9426C45.3698 12.7968 45.8411 12.7239 46.3672 12.7239C46.8464 12.7239 47.2917 12.7838 47.7031 12.9036C48.1146 13.0181 48.4714 13.1926 48.7734 13.427C49.0703 13.6666 49.3047 13.9635 49.4766 14.3176C49.6484 14.6718 49.7344 15.0859 49.7344 15.5598V19.4895C49.7344 19.7708 49.7604 20.0702 49.8125 20.3879C49.8646 20.7004 49.9375 20.9739 50.0313 21.2083V21.3333H48.5234ZM45.9688 20.2317C46.25 20.2317 46.513 20.1952 46.7578 20.1223C47.0026 20.0494 47.2266 19.953 47.4297 19.8333C47.6276 19.7135 47.7995 19.578 47.9453 19.427C48.0911 19.2708 48.2057 19.1093 48.2891 18.9426V17.2317H46.9453C46.4453 17.2317 46.0078 17.276 45.6328 17.3645C45.263 17.4478 44.9688 17.578 44.75 17.7551C44.5938 17.8801 44.474 18.0286 44.3906 18.2004C44.3125 18.3723 44.2734 18.5676 44.2734 18.7864C44.2734 18.9947 44.3073 19.1874 44.375 19.3645C44.4479 19.5416 44.5547 19.6926 44.6953 19.8176C44.8359 19.9478 45.013 20.0494 45.2266 20.1223C45.4401 20.1952 45.6875 20.2317 45.9688 20.2317Z" fill="var(--background)"/>
<path d="M56 10.8333V12.8801H59.2188V13.9973H56V18.5911C56 18.9192 56.0417 19.19 56.125 19.4036C56.2083 19.6171 56.3229 19.7864 56.4688 19.9114C56.6146 20.0416 56.7813 20.1327 56.9688 20.1848C57.1615 20.2369 57.3646 20.2629 57.5781 20.2629C57.7344 20.2629 57.8958 20.2551 58.0625 20.2395C58.2292 20.2187 58.3932 20.1952 58.5547 20.1692C58.7109 20.1431 58.8568 20.1171 58.9922 20.0911C59.1328 20.0598 59.2474 20.0338 59.3359 20.0129L59.5391 21.0364C59.4193 21.1093 59.2734 21.1744 59.1016 21.2317C58.9297 21.2838 58.7422 21.328 58.5391 21.3645C58.3359 21.4062 58.1198 21.4374 57.8906 21.4583C57.6667 21.4791 57.4427 21.4895 57.2188 21.4895C56.8438 21.4895 56.4922 21.4374 56.1641 21.3333C55.8411 21.2239 55.5599 21.052 55.3203 20.8176C55.0807 20.5885 54.8906 20.2916 54.75 19.927C54.6146 19.5572 54.5469 19.1119 54.5469 18.5911V13.9973H52.3281V12.8801H54.5469V10.8333H56Z" fill="var(--background)"/>
<path d="M62.4141 12.8801H66.7344V20.0833H69.4922V21.3333H62.4141V20.0833H65.2891V14.1379H62.4141V12.8801ZM65.1016 10.6614C65.1016 10.5364 65.1198 10.4192 65.1563 10.3098C65.1979 10.2004 65.2604 10.1067 65.3438 10.0286C65.4115 9.96086 65.4974 9.90877 65.6016 9.87231C65.7109 9.83065 65.8333 9.80981 65.9688 9.80981C66.1042 9.80981 66.224 9.83065 66.3281 9.87231C66.4323 9.90877 66.5182 9.96086 66.5859 10.0286C66.6693 10.1015 66.7318 10.1926 66.7734 10.302C66.8151 10.4114 66.8359 10.5312 66.8359 10.6614C66.8359 10.8958 66.763 11.0911 66.6172 11.2473C66.4714 11.4036 66.2552 11.4817 65.9688 11.4817C65.6771 11.4817 65.4583 11.4036 65.3125 11.2473C65.1719 11.0911 65.1016 10.8958 65.1016 10.6614Z" fill="var(--background)"/>
<path d="M74.6797 21.3333L71.2031 12.8801H72.6875L75.1094 19.2551L75.2422 19.7786L75.3828 19.2551L77.75 12.8801H79.2266L75.7813 21.3333H74.6797Z" fill="var(--background)"/>
<path d="M85.1406 21.4895C84.5469 21.4895 84 21.3879 83.5 21.1848C83.0052 20.9817 82.5807 20.6978 82.2266 20.3333C81.8724 19.9687 81.5964 19.5364 81.3984 19.0364C81.2005 18.5364 81.1016 17.9921 81.1016 17.4036V17.0754C81.1016 16.3931 81.2109 15.7838 81.4297 15.2473C81.6484 14.7056 81.9401 14.2473 82.3047 13.8723C82.6641 13.5025 83.0729 13.2187 83.5313 13.0208C83.9948 12.8228 84.4688 12.7239 84.9531 12.7239C85.5625 12.7239 86.0938 12.8306 86.5469 13.0442C87.0052 13.2525 87.3854 13.5416 87.6875 13.9114C87.9896 14.2864 88.2135 14.7265 88.3594 15.2317C88.5104 15.7369 88.5859 16.2838 88.5859 16.8723V17.5208H82.5469V17.5754C82.5833 17.9869 82.6641 18.3489 82.7891 18.6614C82.9193 18.9739 83.0964 19.2499 83.3203 19.4895C83.5495 19.7447 83.8255 19.9452 84.1484 20.0911C84.4714 20.2369 84.8281 20.3098 85.2188 20.3098C85.7344 20.3098 86.1927 20.2056 86.5938 19.9973C86.9948 19.789 87.3281 19.5129 87.5938 19.1692L88.4766 19.8567C88.1953 20.2838 87.7734 20.664 87.2109 20.9973C86.6536 21.3254 85.9635 21.4895 85.1406 21.4895ZM84.9531 13.9114C84.6615 13.9114 84.3854 13.9661 84.125 14.0754C83.8646 14.1796 83.6302 14.3333 83.4219 14.5364C83.2135 14.7447 83.0365 14.9999 82.8906 15.302C82.75 15.5989 82.651 15.9426 82.5938 16.3333H87.1406V16.2629C87.1406 16.0025 87.0911 15.7239 86.9922 15.427C86.8932 15.1249 86.7552 14.8645 86.5781 14.6458C86.401 14.427 86.1771 14.2499 85.9063 14.1145C85.6406 13.9791 85.3229 13.9114 84.9531 13.9114Z" fill="var(--background)"/>
<path d="M27.9554 16.0024C27.9554 14.4154 25.9681 12.9115 22.9212 11.9789C23.6243 8.87335 23.3118 6.4026 21.9348 5.61158C21.6175 5.42603 21.2464 5.33813 20.8411 5.33813V6.42702C21.0657 6.42702 21.2464 6.47096 21.3977 6.55397C22.0618 6.93484 22.3499 8.38506 22.1253 10.2503C22.0716 10.7093 21.9837 11.1927 21.8762 11.6859C20.9192 11.4515 19.8743 11.2708 18.7756 11.1537C18.1164 10.2503 17.4328 9.42999 16.7443 8.71221C18.3362 7.23269 19.8303 6.42214 20.846 6.42214V5.33325C19.5032 5.33325 17.7453 6.2903 15.968 7.95048C14.1906 6.30006 12.4327 5.35278 11.09 5.35278V6.44167C12.1007 6.44167 13.5998 7.24734 15.1916 8.71709C14.508 9.43488 13.8244 10.2503 13.1749 11.1537C12.0714 11.2708 11.0265 11.4515 10.0694 11.6908C9.95712 11.2025 9.87411 10.7288 9.81552 10.2747C9.58602 8.40947 9.86923 6.95925 10.5284 6.57351C10.6749 6.48561 10.8653 6.44655 11.09 6.44655V5.35767C10.6798 5.35767 10.3087 5.44556 9.98642 5.63111C8.61433 6.42214 8.30671 8.88799 9.01472 11.9837C5.97757 12.9213 4 14.4203 4 16.0024C4 17.5893 5.98733 19.0932 9.03426 20.0259C8.33112 23.1314 8.64363 25.6021 10.0206 26.3931C10.338 26.5787 10.7091 26.6666 11.1192 26.6666C12.462 26.6666 14.2199 25.7095 15.9973 24.0494C17.7746 25.6998 19.5325 26.6471 20.8753 26.6471C21.2854 26.6471 21.6565 26.5592 21.9788 26.3736C23.3509 25.5826 23.6585 23.1167 22.9505 20.021C25.9779 19.0883 27.9554 17.5844 27.9554 16.0024ZM21.5979 12.7455C21.4173 13.3754 21.1926 14.0248 20.9387 14.6742C20.7385 14.2836 20.5286 13.893 20.2991 13.5023C20.0745 13.1117 19.8352 12.7308 19.5959 12.3597C20.2893 12.4623 20.9583 12.5892 21.5979 12.7455ZM19.3616 17.9457C18.9807 18.6049 18.5901 19.2299 18.1848 19.811C17.4572 19.8745 16.7199 19.9087 15.9777 19.9087C15.2404 19.9087 14.5031 19.8745 13.7804 19.8159C13.3751 19.2348 12.9796 18.6147 12.5988 17.9604C12.2277 17.3207 11.8907 16.6713 11.5831 16.017C11.8859 15.3627 12.2277 14.7084 12.5939 14.0687C12.9747 13.4095 13.3654 12.7845 13.7707 12.2035C14.4982 12.14 15.2355 12.1058 15.9777 12.1058C16.715 12.1058 17.4524 12.14 18.175 12.1986C18.5803 12.7797 18.9758 13.3998 19.3567 14.0541C19.7278 14.6937 20.0647 15.3432 20.3723 15.9975C20.0647 16.6518 19.7278 17.3061 19.3616 17.9457ZM20.9387 17.311C21.2024 17.9653 21.427 18.6196 21.6126 19.2544C20.9729 19.4106 20.2991 19.5425 19.6008 19.645C19.8401 19.269 20.0793 18.8833 20.304 18.4877C20.5286 18.0971 20.7385 17.7016 20.9387 17.311ZM15.9875 22.521C15.5334 22.0523 15.0793 21.5298 14.63 20.9585C15.0695 20.978 15.5187 20.9927 15.9728 20.9927C16.4318 20.9927 16.8859 20.9829 17.3303 20.9585C16.8908 21.5298 16.4367 22.0523 15.9875 22.521ZM12.3546 19.645C11.6612 19.5425 10.9923 19.4155 10.3526 19.2592C10.5333 18.6294 10.7579 17.9799 11.0118 17.3305C11.212 17.7211 11.422 18.1118 11.6515 18.5024C11.881 18.893 12.1154 19.2739 12.3546 19.645ZM15.9631 9.48371C16.4172 9.95246 16.8713 10.4749 17.3205 11.0462C16.8811 11.0267 16.4318 11.012 15.9777 11.012C15.5187 11.012 15.0646 11.0218 14.6203 11.0462C15.0597 10.4749 15.5138 9.95246 15.9631 9.48371ZM12.3497 12.3597C12.1105 12.7357 11.8712 13.1215 11.6466 13.517C11.422 13.9076 11.212 14.2982 11.0118 14.6889C10.7481 14.0346 10.5235 13.3802 10.338 12.7455C10.9776 12.5941 11.6515 12.4623 12.3497 12.3597ZM7.93072 18.4731C6.20218 17.7358 5.084 16.769 5.084 16.0024C5.084 15.2357 6.20218 14.2641 7.93072 13.5316C8.35065 13.351 8.80964 13.1898 9.28328 13.0384C9.56161 13.9955 9.92782 14.9916 10.3819 16.0121C9.93271 17.0278 9.57137 18.019 9.29793 18.9712C8.81453 18.8198 8.35554 18.6538 7.93072 18.4731ZM10.5577 25.4507C9.89364 25.0699 9.60555 23.6197 9.83017 21.7544C9.88388 21.2954 9.97177 20.812 10.0792 20.3188C11.0362 20.5532 12.0812 20.7339 13.1798 20.8511C13.839 21.7544 14.5226 22.5747 15.2111 23.2925C13.6193 24.772 12.1251 25.5826 11.1095 25.5826C10.8898 25.5777 10.7042 25.5338 10.5577 25.4507ZM22.1399 21.73C22.3694 23.5952 22.0862 25.0455 21.427 25.4312C21.2805 25.5191 21.0901 25.5582 20.8655 25.5582C19.8547 25.5582 18.3557 24.7525 16.7639 23.2827C17.4475 22.565 18.1311 21.7495 18.7805 20.8462C19.884 20.729 20.929 20.5483 21.886 20.3091C21.9983 20.8022 22.0862 21.2759 22.1399 21.73ZM24.0198 18.4731C23.5999 18.6538 23.1409 18.8149 22.6673 18.9663C22.389 18.0092 22.0227 17.0131 21.5686 15.9926C22.0179 14.977 22.3792 13.9857 22.6526 13.0336C23.136 13.1849 23.595 13.351 24.0247 13.5316C25.7533 14.2689 26.8714 15.2357 26.8714 16.0024C26.8666 16.769 25.7484 17.7407 24.0198 18.4731Z" fill="var(--background)"/>
<path d="M15.9728 18.2337C17.2053 18.2337 18.2043 17.2346 18.2043 16.0022C18.2043 14.7698 17.2053 13.7708 15.9728 13.7708C14.7404 13.7708 13.7414 14.7698 13.7414 16.0022C13.7414 17.2346 14.7404 18.2337 15.9728 18.2337Z" fill="var(--background)"/>
</svg>
