<svg width="32" height="32" viewBox="0 0 32 32" fill="none" xmlns="http://www.w3.org/2000/svg">
  <path d="M32 0H0V32H32V0Z" fill="var(--black)" />
  <path
    d="M28 15.8329C28 14.2628 26.009 12.7748 22.9564 11.8521C23.6608 8.77944 23.3477 6.33488 21.9682 5.55223C21.6502 5.36865 21.2784 5.28169 20.8724 5.28169V6.35903C21.0974 6.35903 21.2784 6.40251 21.4301 6.48464C22.0954 6.86147 22.384 8.29633 22.159 10.1418C22.1052 10.596 22.0171 11.0742 21.9095 11.5622C20.9507 11.3303 19.9038 11.1515 18.8031 11.0356C18.1427 10.1418 17.4578 9.33019 16.768 8.62001C18.3628 7.15617 19.8598 6.3542 20.8773 6.3542V5.27686C19.532 5.27686 17.7709 6.22376 15.9902 7.86635C14.2095 6.23342 12.4484 5.29618 11.1031 5.29618V6.37353C12.1158 6.37353 13.6176 7.17067 15.2124 8.62484C14.5275 9.33502 13.8426 10.1418 13.192 11.0356C12.0864 11.1515 11.0395 11.3303 10.0807 11.567C9.9682 11.0839 9.88504 10.6153 9.82633 10.166C9.59641 8.32048 9.88015 6.88563 10.5406 6.50397C10.6873 6.41701 10.8781 6.37836 11.1031 6.37836V5.30101C10.6922 5.30101 10.3204 5.38797 9.99755 5.57156C8.62291 6.3542 8.31472 8.79393 9.02405 11.8569C5.98125 12.7845 4 14.2676 4 15.8329C4 17.403 5.99103 18.891 9.04362 19.8138C8.33918 22.8864 8.65226 25.331 10.0318 26.1136C10.3498 26.2972 10.7216 26.3842 11.1325 26.3842C12.4778 26.3842 14.2389 25.4373 16.0196 23.7947C17.8002 25.4276 19.5614 26.3648 20.9066 26.3648C21.3176 26.3648 21.6894 26.2779 22.0122 26.0943C23.3869 25.3116 23.6951 22.8719 22.9857 19.809C26.0188 18.8862 28 17.3982 28 15.8329ZM21.6307 12.6105C21.4497 13.2338 21.2246 13.8763 20.9702 14.5189C20.7697 14.1324 20.5593 13.7459 20.3294 13.3594C20.1044 12.9729 19.8647 12.5961 19.625 12.2289C20.3196 12.3303 20.9898 12.4559 21.6307 12.6105ZM19.3901 17.7557C19.0086 18.4079 18.6172 19.0263 18.2112 19.6012C17.4823 19.664 16.7436 19.6978 16 19.6978C15.2613 19.6978 14.5226 19.664 13.7986 19.6061C13.3926 19.0311 12.9963 18.4176 12.6148 17.7702C12.243 17.1373 11.9054 16.4948 11.5972 15.8474C11.9005 15.2 12.243 14.5527 12.6099 13.9198C12.9914 13.2676 13.3828 12.6492 13.7888 12.0743C14.5177 12.0115 15.2564 11.9777 16 11.9777C16.7387 11.9777 17.4774 12.0115 18.2014 12.0695C18.6074 12.6444 19.0037 13.2579 19.3852 13.9053C19.757 14.5382 20.0946 15.1807 20.4028 15.8281C20.0946 16.4755 19.757 17.1228 19.3901 17.7557ZM20.9702 17.1277C21.2344 17.775 21.4594 18.4224 21.6453 19.0505C21.0045 19.2051 20.3294 19.3355 19.6298 19.437C19.8695 19.065 20.1093 18.6833 20.3343 18.292C20.5593 17.9055 20.7697 17.5142 20.9702 17.1277ZM16.0098 22.2825C15.5548 21.8187 15.0999 21.3018 14.6498 20.7365C15.0901 20.7559 15.5402 20.7704 15.9951 20.7704C16.455 20.7704 16.9099 20.7607 17.3551 20.7365C16.9148 21.3018 16.4598 21.8187 16.0098 22.2825ZM12.3702 19.437C11.6755 19.3355 11.0053 19.2099 10.3645 19.0553C10.5455 18.4321 10.7705 17.7895 11.0249 17.147C11.2254 17.5335 11.4358 17.92 11.6657 18.3065C11.8956 18.693 12.1305 19.0698 12.3702 19.437ZM15.9853 9.38334C16.4403 9.84713 16.8952 10.3641 17.3453 10.9293C16.905 10.91 16.455 10.8955 16 10.8955C15.5402 10.8955 15.0852 10.9051 14.64 10.9293C15.0803 10.3641 15.5353 9.84713 15.9853 9.38334ZM12.3653 12.2289C12.1256 12.6009 11.8859 12.9825 11.6608 13.3739C11.4358 13.7604 11.2254 14.1469 11.0249 14.5333C10.7607 13.886 10.5357 13.2386 10.3498 12.6105C10.9906 12.4608 11.6657 12.3303 12.3653 12.2289ZM7.93804 18.2775C6.20628 17.548 5.08602 16.5914 5.08602 15.8329C5.08602 15.0744 6.20628 14.113 7.93804 13.3884C8.35875 13.2096 8.81859 13.0502 9.29311 12.9004C9.57195 13.8473 9.93885 14.8329 10.3938 15.8426C9.94374 16.8475 9.58174 17.8282 9.30779 18.7703C8.82348 18.6205 8.36364 18.4562 7.93804 18.2775ZM10.5699 25.1812C9.90461 24.8044 9.61598 23.3695 9.84101 21.524C9.89482 21.0699 9.98288 20.5916 10.0905 20.1037C11.0493 20.3356 12.0962 20.5143 13.1969 20.6303C13.8573 21.524 14.5422 22.3357 15.232 23.0458C13.6372 24.5097 12.1402 25.3116 11.1227 25.3116C10.9026 25.3068 10.7167 25.2633 10.5699 25.1812ZM22.1737 21.4999C22.4036 23.3454 22.1199 24.7802 21.4594 25.1619C21.3127 25.2488 21.1219 25.2875 20.8969 25.2875C19.8842 25.2875 18.3824 24.4904 16.7876 23.0362C17.4725 22.326 18.1574 21.5192 18.808 20.6254C19.9136 20.5095 20.9605 20.3307 21.9193 20.094C22.0318 20.5819 22.1199 21.0506 22.1737 21.4999ZM24.0571 18.2775C23.6364 18.4562 23.1765 18.6157 22.702 18.7654C22.4232 17.8185 22.0563 16.833 21.6013 15.8233C22.0514 14.8184 22.4134 13.8377 22.6873 12.8956C23.1716 13.0453 23.6315 13.2096 24.062 13.3884C25.7937 14.1179 26.914 15.0744 26.914 15.8329C26.9091 16.5914 25.7888 17.5528 24.0571 18.2775Z"
    fill="var(--background)" />
  <path
    d="M15.995 18.0407C17.2297 18.0407 18.2307 17.0522 18.2307 15.8328C18.2307 14.6135 17.2297 13.625 15.995 13.625C14.7603 13.625 13.7594 14.6135 13.7594 15.8328C13.7594 17.0522 14.7603 18.0407 15.995 18.0407Z"
    fill="var(--background)" />
</svg>