<svg width="32" height="32" viewBox="0 0 32 32" fill="none" xmlns="http://www.w3.org/2000/svg">
<path d="M32 0H0V32H32V0Z" fill="black"/>
<path d="M20.7582 20.2322C21.5809 20.1469 22.2058 19.431 22.1776 18.5741C22.1493 17.7161 21.4396 17.0298 20.5876 17.0298H20.5311C19.6496 17.0583 18.9682 17.8014 18.9976 18.6879C19.0258 19.117 19.1965 19.4891 19.4519 19.7463C18.4856 21.6615 17.0098 23.0636 14.7949 24.2358C13.2896 25.037 11.7279 25.3226 10.1661 25.1223C8.88803 24.9504 7.89473 24.3792 7.2698 23.4346C6.36123 22.0337 6.27532 20.5178 7.04266 19.0032C7.58168 17.9164 8.43375 17.1152 8.97395 16.7146C8.85979 16.3436 8.68914 15.7143 8.6044 15.2568C4.48643 18.2589 4.91247 22.3193 6.16234 24.2358C7.09915 25.6651 9.00219 26.5516 11.103 26.5516C11.6714 26.5516 12.2387 26.4947 12.8071 26.3525C16.4414 25.6367 19.1965 23.4642 20.7582 20.2322ZM25.7553 16.6861C23.5969 14.1415 20.4169 12.7395 16.7827 12.7395H16.3284C16.0718 12.2251 15.5328 11.8826 14.9361 11.8826H14.8796C13.9993 11.911 13.3179 12.6541 13.3461 13.5407C13.3744 14.3987 14.084 15.085 14.9361 15.085H14.9926C15.6175 15.0565 16.1577 14.6559 16.3849 14.1131H16.8956C19.0541 14.1131 21.0983 14.7413 22.9437 15.9715C24.3642 16.9149 25.3858 18.1451 25.9542 19.6313C26.4368 20.8331 26.4085 22.0053 25.8977 23.0055C25.1022 24.5214 23.7676 25.351 22.0069 25.351C20.8712 25.351 19.792 25.0073 19.2247 24.7501C18.9117 25.037 18.3444 25.4944 17.9466 25.7801C19.1671 26.3525 20.4169 26.6666 21.6091 26.6666C24.336 26.6666 26.352 25.1507 27.1182 23.6349C27.942 21.9768 27.8855 19.117 25.7553 16.6861ZM11.3301 20.7181C11.3583 21.5762 12.068 22.2624 12.9201 22.2624H12.9778C13.8569 22.234 14.5395 21.4909 14.5101 20.6044C14.4818 19.7463 13.7722 19.0601 12.9201 19.0601H12.8636C12.8071 19.0601 12.7212 19.0601 12.6647 19.0885C11.5007 17.1436 11.0182 15.0281 11.1889 12.7395C11.3018 11.0233 11.8703 9.5371 12.8636 8.30688C13.6874 7.2497 15.2774 6.73414 16.3566 6.7057C19.366 6.64881 20.6441 10.4236 20.7288 11.9395C21.0983 12.0248 21.7233 12.2251 22.1493 12.3685C21.808 7.73562 18.9682 5.33325 16.2425 5.33325C13.6874 5.33325 11.3301 7.19162 10.3933 9.9377C9.08693 13.5975 9.939 17.1152 11.529 19.8897C11.3866 20.0888 11.3018 20.4041 11.3301 20.7181Z" fill="var(--background)"/>
</svg>
