<svg width="32" height="32" viewBox="0 0 32 32" fill="none" xmlns="http://www.w3.org/2000/svg">
<path fill-rule="evenodd" clip-rule="evenodd" d="M16 0C24.8365 0 32 7.16346 32 16C32 24.8365 24.8364 32 16 32C7.16356 32.0001 0 24.8366 0 16C0 7.16356 7.16356 0 16 0Z" fill="black"/>
<path d="M24.8552 7.94305C24.2162 5.4369 20.0607 4.61309 16.1278 6.01023C13.7873 6.84177 11.2534 8.14685 9.4316 9.851C7.26539 11.8771 6.91995 13.6406 7.06227 14.3775C7.56451 16.9776 11.1272 18.6771 12.5917 19.938V19.9457C12.1599 20.1582 8.99914 21.7579 8.25945 23.3932C7.47895 25.1184 8.38359 26.3564 8.98263 26.5229C10.8384 27.0394 12.743 26.1106 13.7664 24.584C14.754 23.1108 14.6718 21.2084 14.2426 20.2621C14.8346 20.1059 15.5249 20.0359 16.4021 20.1383C18.8774 20.4274 19.3631 21.973 19.2703 22.6198C19.1774 23.2667 18.6583 23.6223 18.4846 23.7297C18.3111 23.8371 18.258 23.8742 18.2726 23.9541C18.2937 24.0701 18.3741 24.0659 18.5221 24.0408C18.7259 24.0065 19.8219 23.5147 19.8687 22.3206C19.9283 20.8047 18.4757 19.109 15.9034 19.1533C14.844 19.1716 14.1779 19.2723 13.6967 19.4514C13.6611 19.4108 13.6249 19.3706 13.5874 19.3306C11.9973 17.634 9.05745 16.4338 9.18216 14.1529C9.22749 13.3237 9.51572 11.1402 14.8309 8.49166C19.1851 6.32202 22.6707 6.91913 23.273 8.24223C24.1335 10.1327 21.4102 13.6461 16.8884 14.1529C15.1657 14.3461 14.2585 13.6784 14.0329 13.4298C13.7954 13.1679 13.76 13.1561 13.6712 13.2053C13.5268 13.2853 13.6184 13.5164 13.6712 13.6542C13.8063 14.0055 14.3603 14.6286 15.3048 14.9385C16.1357 15.2112 18.1583 15.361 20.6046 14.4148C23.3442 13.3552 25.4836 10.4071 24.8552 7.94305ZM13.1996 20.7147C13.4049 21.4741 13.3824 22.1823 13.1703 22.8236C13.1468 22.8948 13.1209 22.9653 13.0927 23.0349C13.0645 23.1045 13.034 23.1732 13.0013 23.2411C12.8377 23.5803 12.6184 23.898 12.3496 24.1912C11.5296 25.0855 10.3842 25.4238 9.89304 25.1389C9.36265 24.8313 9.62823 23.5703 10.5789 22.5655C11.6014 21.4845 13.0728 20.7894 13.0728 20.7894L13.0706 20.785C13.1129 20.7621 13.156 20.7387 13.1996 20.7147Z" fill="#E3E3E3"/>
</svg>
