<svg width="32" height="32" viewBox="0 0 32 32" fill="none" xmlns="http://www.w3.org/2000/svg">
<rect width="32" height="32" fill="black"/>
<path d="M23.732 8.15442C21.7613 5.31709 17.84 4.48509 15.02 6.27442L10.0493 9.45576C8.69334 10.3051 7.75334 11.6971 7.48267 13.2691C7.248 14.5891 7.44667 15.9451 8.07867 17.1198C7.64534 17.7704 7.356 18.4931 7.22934 19.2531C6.94 20.8611 7.32 22.5238 8.26 23.8438C10.248 26.6811 14.152 27.5131 16.972 25.7238L21.9427 22.5598C23.2987 21.7104 24.2373 20.3184 24.5093 18.7464C24.744 17.4264 24.5453 16.0718 23.912 14.8958C24.3467 14.2451 24.636 13.5224 24.7627 12.7638C25.0693 11.1371 24.6893 9.47442 23.732 8.15442Z" fill="var(--background)"/>
<path d="M14.532 24.1147C12.9227 24.5307 11.2427 23.8974 10.3027 22.5427C9.72402 21.7467 9.50669 20.7534 9.66935 19.7774C9.70535 19.6147 9.74135 19.4694 9.77735 19.3067L9.86802 19.0174L10.1214 19.1987C10.7174 19.6321 11.368 19.9574 12.0734 20.1747L12.2547 20.2294L12.236 20.4094C12.2187 20.6627 12.2907 20.9334 12.4347 21.1507C12.724 21.5667 13.2307 21.7654 13.7187 21.6387C13.8267 21.6027 13.9347 21.5667 14.0254 21.5121L18.9787 18.3494C19.2307 18.1867 19.3934 17.9507 19.448 17.6627C19.5027 17.3734 19.4294 17.0654 19.2667 16.8307C18.9787 16.4147 18.472 16.2347 17.984 16.3614C17.876 16.3974 17.7667 16.4334 17.6774 16.4867L15.7787 17.6987C15.472 17.8974 15.128 18.0414 14.7667 18.1321C13.1574 18.5481 11.4774 17.9147 10.5374 16.5601C9.97735 15.7641 9.74135 14.7707 9.92269 13.7947C10.0854 12.8547 10.664 12.0041 11.4774 11.4987L16.448 8.33607C16.7547 8.13607 17.0987 7.99207 17.46 7.88407C19.068 7.46807 20.7494 8.10007 21.6894 9.45607C22.268 10.2521 22.484 11.2454 22.3214 12.2214C22.2854 12.3841 22.2494 12.5294 22.196 12.6921L22.1054 12.9814L21.852 12.8001C21.256 12.3667 20.6054 12.0414 19.9 11.8241L19.7187 11.7694L19.7374 11.5894C19.7547 11.3361 19.6827 11.0654 19.5387 10.8481C19.2494 10.4321 18.7427 10.2521 18.2547 10.3774C18.1467 10.4147 18.0387 10.4507 17.948 10.5041L12.9947 13.6681C12.7427 13.8307 12.58 14.0654 12.5254 14.3547C12.4707 14.6441 12.544 14.9507 12.7067 15.1854C12.9947 15.6014 13.5014 15.7827 13.9894 15.6561C14.0974 15.6201 14.2067 15.5841 14.2974 15.5294L16.1947 14.3187C16.5014 14.1201 16.8454 13.9747 17.2067 13.8667C18.816 13.4507 20.496 14.0827 21.436 15.4387C22.0147 16.2347 22.232 17.2281 22.0694 18.2041C21.9067 19.1441 21.328 19.9934 20.5147 20.5001L15.544 23.6627C15.236 23.8614 14.8934 24.0067 14.532 24.1147Z" fill="black"/>
</svg>
