<svg width="32" height="32" viewBox="0 0 32 32" fill="none" xmlns="http://www.w3.org/2000/svg">
<circle cx="16" cy="16" r="16" fill="black"/>
<mask id="mask0_177_27" style="mask-type:luminance" maskUnits="userSpaceOnUse" x="5" y="9" width="22" height="14">
<path d="M5.33331 9.59985H26.6666V22.3998H5.33331V9.59985Z" fill="white"/>
</mask>
<g mask="url(#mask0_177_27)">
<path fill-rule="evenodd" clip-rule="evenodd" d="M16 9.59985C13.1555 9.59985 11.3778 11.0221 10.6666 13.8665C11.7333 12.4443 12.9778 11.911 14.4 12.2665C15.2114 12.4692 15.7914 13.0582 16.4334 13.7097C17.4791 14.7712 18.6895 15.9998 21.3333 15.9998C24.1777 15.9998 25.9555 14.5776 26.6666 11.7332C25.6 13.1554 24.3555 13.6887 22.9333 13.3332C22.1218 13.1305 21.5419 12.5415 20.8999 11.89C19.8542 10.8285 18.6437 9.59985 16 9.59985ZM10.6666 15.9998C7.8222 15.9998 6.04442 17.4221 5.33331 20.2665C6.39998 18.8443 7.64442 18.311 9.06664 18.6665C9.8781 18.8696 10.458 19.4582 11.1 20.1097C12.1458 21.1712 13.3562 22.3998 16 22.3998C18.8444 22.3998 20.6222 20.9776 21.3333 18.1332C20.2666 19.5554 19.0222 20.0887 17.6 19.7332C16.7885 19.5305 16.2086 18.9415 15.5666 18.29C14.5209 17.2285 13.3104 15.9998 10.6666 15.9998Z" fill="#E3E3E3"/>
</g>
</svg>
