<svg width="32" height="32" viewBox="0 0 32 32" fill="none" xmlns="http://www.w3.org/2000/svg">
<rect width="32" height="32" fill="black"/>
<path d="M17.2031 16.1693H13.1016V28H11.4609V16.1693H7.35938V14.7292H17.2031V16.1693Z" fill="#E3E3E3"/>
<path d="M26.4089 24.6458C26.4089 24.2387 26.3147 23.8954 26.1263 23.6159C25.944 23.3364 25.707 23.0994 25.4154 22.9049C25.1237 22.7166 24.8016 22.5586 24.4492 22.431C24.1029 22.3034 23.7687 22.1879 23.4466 22.0846C22.9787 21.9327 22.5017 21.7504 22.0156 21.5378C21.5356 21.319 21.0981 21.0577 20.7031 20.7539C20.3021 20.444 19.974 20.0794 19.7188 19.6602C19.4696 19.2348 19.3451 18.7365 19.3451 18.1654C19.3451 17.5942 19.4696 17.0838 19.7188 16.6341C19.974 16.1845 20.3051 15.8047 20.7122 15.4948C21.1194 15.1849 21.5812 14.951 22.0977 14.793C22.6141 14.6289 23.1337 14.5469 23.6563 14.5469C24.2335 14.5469 24.7895 14.6441 25.3242 14.8385C25.8589 15.0269 26.3329 15.2943 26.7461 15.6406C27.1593 15.987 27.4905 16.4063 27.7396 16.8984C27.9887 17.3906 28.1194 17.9405 28.1315 18.5482H26.3997C26.3511 18.1654 26.2569 17.819 26.1172 17.5091C25.9774 17.1931 25.7921 16.9227 25.5612 16.6979C25.3303 16.4731 25.0538 16.2999 24.7318 16.1784C24.4158 16.0508 24.0573 15.987 23.6563 15.987C23.3342 15.987 23.0182 16.0326 22.7083 16.1237C22.4045 16.2148 22.1341 16.3516 21.8971 16.5339C21.6541 16.7161 21.4596 16.941 21.3138 17.2083C21.174 17.4757 21.1042 17.7856 21.1042 18.138C21.1102 18.5208 21.2075 18.8459 21.3958 19.1133C21.5842 19.3746 21.8242 19.5964 22.1159 19.7786C22.4015 19.9609 22.7114 20.1128 23.0456 20.2344C23.3859 20.3559 23.7049 20.4622 24.0026 20.5534C24.4948 20.7053 24.987 20.8906 25.4792 21.1094C25.9714 21.322 26.421 21.5955 26.8281 21.9297C27.2292 22.2396 27.5512 22.6194 27.7943 23.069C28.0434 23.5187 28.168 24.0382 28.168 24.6276C28.168 25.2231 28.0343 25.7426 27.7669 26.1862C27.5056 26.6298 27.1654 26.9974 26.7461 27.2891C26.3268 27.5868 25.8529 27.8116 25.3242 27.9635C24.7956 28.1094 24.2669 28.1823 23.7383 28.1823C23.1063 28.1823 22.4835 28.076 21.8698 27.8633C21.2622 27.6506 20.7335 27.3438 20.2839 26.9427C19.8828 26.5964 19.5638 26.1923 19.3268 25.7305C19.0959 25.2626 18.9714 24.7431 18.9531 24.1719H20.6758C20.7305 24.5851 20.8429 24.9527 21.013 25.2747C21.1832 25.5907 21.4019 25.8581 21.6693 26.0768C21.9366 26.3016 22.2435 26.4718 22.5898 26.5872C22.9423 26.6966 23.3251 26.7513 23.7383 26.7513C24.0664 26.7513 24.3885 26.7118 24.7044 26.6328C25.0265 26.5477 25.3121 26.4171 25.5612 26.2409C25.8103 26.0707 26.0139 25.855 26.1719 25.5938C26.3299 25.3264 26.4089 25.0104 26.4089 24.6458Z" fill="#E3E3E3"/>
</svg>
