<svg width="25" height="29" viewBox="0 0 25 29" fill="none" xmlns="http://www.w3.org/2000/svg">
<g clip-path="url(#clip0_118_11398)">
<rect width="25" height="29" fill="white"/>
<path d="M-75 -29H75V145H-75V-29Z" fill="var(--background)"/>
<path fill-rule="evenodd" clip-rule="evenodd" d="M74 -28H-74V144H74V-28ZM-75 -29V145H75V-29H-75Z" fill="black"/>
<path d="M-20.7408 39.0172H-29.4283V19.2985H-42.3033V39.0172H-51.022V-6.48276H-42.3033V12.1735H-29.4283V-6.48276H-20.7408V39.0172Z" fill="black"/>
<path d="M-39.9908 79L-35.6783 96.0938L-30.772 79H-19.8658V124.5H-27.9283V111.031L-27.5533 89.75L-33.522 109.5H-37.8658L-43.2095 90.5938L-42.8345 111.031V124.5H-50.897V79H-39.9908Z" fill="black"/>
<path d="M51.4478 19.611C51.4478 21.5693 51.2707 23.4339 50.9165 25.2047C50.5623 26.9547 50.0519 28.5797 49.3853 30.0797C48.6769 31.5797 47.8019 32.9547 46.7603 34.2047C45.7186 35.4547 44.5311 36.4964 43.1978 37.3297C41.9894 38.0589 40.6561 38.6214 39.1978 39.0172C37.7603 39.4339 36.2082 39.6422 34.5415 39.6422C32.7707 39.6422 31.1353 39.4131 29.6353 38.9547C28.1353 38.4964 26.7707 37.8506 25.5415 37.0172C24.3332 36.1422 23.2498 35.0902 22.2915 33.861C21.3332 32.611 20.5311 31.2047 19.8853 29.6422C19.3019 28.2047 18.854 26.6422 18.5415 24.9547C18.2498 23.2672 18.104 21.486 18.104 19.611V12.986C18.104 10.986 18.2707 9.09016 18.604 7.29849C18.9582 5.50682 19.4686 3.85057 20.1353 2.32974C20.7811 0.892242 21.5623 -0.409842 22.479 -1.57651C23.4165 -2.74317 24.4894 -3.74317 25.6978 -4.57651C26.8853 -5.38901 28.2186 -6.01401 29.6978 -6.45151C31.1769 -6.88901 32.7811 -7.10776 34.5103 -7.10776C36.2603 -7.10776 37.8957 -6.87859 39.4165 -6.42026C40.9582 -5.98276 42.3436 -5.34734 43.5728 -4.51401C44.8019 -3.72234 45.8748 -2.76401 46.7915 -1.63901C47.729 -0.514008 48.5311 0.725576 49.1978 2.07974C49.9269 3.62141 50.479 5.30891 50.854 7.14224C51.2498 8.97557 51.4478 10.9235 51.4478 12.986V19.611ZM42.5415 12.9235C42.5415 11.7568 42.479 10.6527 42.354 9.61099C42.2498 8.54849 42.0728 7.56932 41.8228 6.67349C41.5103 5.54849 41.0936 4.54849 40.5728 3.67349C40.0519 2.77766 39.4373 2.04849 38.729 1.48599C38.1665 1.06933 37.5311 0.746408 36.8228 0.517242C36.1353 0.288076 35.3644 0.173492 34.5103 0.173492C33.6978 0.173492 32.9582 0.277658 32.2915 0.485992C31.6457 0.694326 31.0623 0.996408 30.5415 1.39224C29.8332 1.97558 29.229 2.70474 28.729 3.57974C28.2498 4.45474 27.8748 5.47557 27.604 6.64224C27.3957 7.53807 27.2394 8.51724 27.1353 9.57974C27.0519 10.6422 27.0103 11.7568 27.0103 12.9235V19.611C27.0103 20.7152 27.0519 21.7777 27.1353 22.7985C27.2186 23.8193 27.3644 24.7672 27.5728 25.6422C27.8019 26.7464 28.1353 27.7568 28.5728 28.6735C29.0311 29.5693 29.5623 30.2985 30.1665 30.861C30.729 31.361 31.3644 31.7464 32.0728 32.0172C32.8019 32.2881 33.6248 32.4235 34.5415 32.4235C35.4165 32.4235 36.2186 32.2985 36.9478 32.0485C37.6769 31.7985 38.3228 31.4339 38.8853 30.9547C39.5936 30.3714 40.1873 29.6422 40.6665 28.7672C41.1665 27.8714 41.5623 26.861 41.854 25.736C42.0832 24.861 42.2498 23.9027 42.354 22.861C42.479 21.8193 42.5415 20.736 42.5415 19.611V12.9235Z" fill="black"/>
<path d="M47.6978 103.562H29.0103V116.406H50.854V123.5H20.1978V78H50.7603V85.1562H29.0103V96.625H47.6978V103.562Z" fill="black"/>
</g>
<defs>
<clipPath id="clip0_118_11398">
<rect width="25" height="29" fill="white"/>
</clipPath>
</defs>
</svg>
