<svg xmlns="http://www.w3.org/2000/svg" width="25" height="29" fill="none"><g clip-path="url(#a)"><path fill="var(--white)" d="M0 0h25v29H0z"/><path fill="var(--background)" d="M-75-29H75v174H-75z"/><path fill="var(--black)" fill-rule="evenodd" d="M74-28H-74v172H74zm-149-1v174H75V-29z" clip-rule="evenodd"/><path fill="var(--black)" d="m-50.937 41-6.25-45.5h8.03l3.032 25.438.219 1.78.281-1.874L-42.031-4.5h6.281l4.094 27.406.218-1.906 3.094-25.5h8.063L-26.594 41h-7.937L-38.5 16.438l-.344-2.313-.343 2.313L-43 41zM54.719 21.594c0 1.958-.177 3.823-.532 5.593a23.39 23.39 0 0 1-1.53 4.875 19.256 19.256 0 0 1-2.626 4.126 14.898 14.898 0 0 1-3.562 3.124 15.61 15.61 0 0 1-4 1.688c-1.438.417-2.99.625-4.657.625-1.77 0-3.406-.23-4.906-.687A15.116 15.116 0 0 1 28.813 39a16.056 16.056 0 0 1-3.25-3.156 18.523 18.523 0 0 1-2.407-4.219c-.583-1.437-1.031-3-1.343-4.687a31.353 31.353 0 0 1-.438-5.344v-6.625c0-2 .167-3.896.5-5.688.354-1.791.865-3.448 1.531-4.969A18.683 18.683 0 0 1 25.75.406a15.14 15.14 0 0 1 3.219-3c1.187-.812 2.52-1.437 4-1.875 1.479-.437 3.083-.656 4.812-.656 1.75 0 3.386.23 4.907.688 1.541.437 2.927 1.072 4.156 1.906A13.68 13.68 0 0 1 50.062.344a18.652 18.652 0 0 1 2.407 3.719c.729 1.541 1.281 3.229 1.656 5.062.396 1.833.594 3.781.594 5.844zm-8.907-6.688c0-1.166-.062-2.27-.187-3.312a17.167 17.167 0 0 0-.531-2.938c-.313-1.125-.73-2.125-1.25-3C43.323 4.76 42.708 4.031 42 3.47a6.577 6.577 0 0 0-1.906-.969c-.688-.23-1.459-.344-2.313-.344-.812 0-1.552.104-2.218.313-.646.208-1.23.51-1.75.906-.709.583-1.313 1.313-1.813 2.188-.48.875-.854 1.895-1.125 3.062a22.846 22.846 0 0 0-.469 2.938 42.826 42.826 0 0 0-.125 3.343v6.688c0 1.104.042 2.166.125 3.187.084 1.021.23 1.969.438 2.844.229 1.104.562 2.115 1 3.031.458.896.99 1.625 1.593 2.188A6.15 6.15 0 0 0 35.345 34c.729.27 1.552.406 2.468.406.876 0 1.678-.125 2.407-.375a5.912 5.912 0 0 0 1.937-1.093 7.394 7.394 0 0 0 1.782-2.188c.5-.896.895-1.906 1.187-3.031.23-.875.396-1.834.5-2.875.125-1.042.188-2.125.188-3.25zM-38.469 108h-6.656v17h-8.781V79.5h15.25c2.52 0 4.802.302 6.843.906 2.042.584 3.792 1.448 5.25 2.594a11.37 11.37 0 0 1 3.313 4.281c.792 1.709 1.188 3.688 1.188 5.938 0 1.625-.198 3.094-.594 4.406-.375 1.292-.917 2.448-1.625 3.469a12.033 12.033 0 0 1-2.625 2.718c-1 .771-2.125 1.438-3.375 2l9.781 18.782V125h-9.406zm-6.656-7.125h6.5c1.354 0 2.542-.187 3.563-.563 1.041-.395 1.885-.958 2.53-1.687a5.663 5.663 0 0 0 1.22-2.094c.291-.812.437-1.719.437-2.719 0-1.208-.187-2.27-.562-3.187-.355-.937-.896-1.708-1.625-2.312-.646-.542-1.438-.959-2.376-1.25-.937-.292-2.01-.438-3.218-.438h-6.469zM36.531 106.312l-4.812 5.282V125h-8.813V79.5h8.813v20.844l4.125-5.563L46.906 79.5h10.75L42.344 99.625 58.219 125H47.78z"/></g><defs><clipPath id="a"><path fill="var(--white)" d="M0 0h25v29H0z"/></clipPath></defs></svg>