<svg xmlns="http://www.w3.org/2000/svg" width="25" height="29" fill="none"><g clip-path="url(#a)"><path fill="var(--white)" d="M0 0h25v29H0z"/><path fill="var(--background)" d="M-125-29H25v174h-150z"/><path fill="var(--black)" fill-rule="evenodd" d="M24-28h-148v172H24zm-149-1v174H25V-29z" clip-rule="evenodd"/><path fill="var(--black)" d="m-100.938 41-6.25-45.5h8.032l3.031 25.438.219 1.78.281-1.874L-92.031-4.5h6.281l4.094 27.406.219-1.906 3.093-25.5h8.063L-76.594 41h-7.937L-88.5 16.438l-.344-2.313-.344 2.313L-93 41zM4.719 21.594c0 1.958-.177 3.823-.532 5.593a23.39 23.39 0 0 1-1.53 4.875A19.259 19.259 0 0 1 .03 36.189a14.9 14.9 0 0 1-3.562 3.124 15.608 15.608 0 0 1-4 1.688c-1.438.417-2.99.625-4.656.625-1.771 0-3.407-.23-4.907-.687A15.116 15.116 0 0 1-21.187 39a16.056 16.056 0 0 1-3.25-3.156 18.523 18.523 0 0 1-2.407-4.219c-.583-1.437-1.031-3-1.343-4.687a31.353 31.353 0 0 1-.438-5.344v-6.625c0-2 .167-3.896.5-5.688.354-1.791.865-3.448 1.531-4.969A18.683 18.683 0 0 1-24.25.406a15.14 15.14 0 0 1 3.219-3c1.187-.812 2.52-1.437 4-1.875 1.479-.437 3.083-.656 4.812-.656 1.75 0 3.386.23 4.906.688C-5.77-4-4.384-3.365-3.155-2.532-1.927-1.74-.854-.781.063.344a18.65 18.65 0 0 1 2.406 3.719c.729 1.541 1.281 3.229 1.656 5.062.396 1.833.594 3.781.594 5.844zm-8.907-6.688c0-1.166-.062-2.27-.187-3.312a17.164 17.164 0 0 0-.531-2.938c-.313-1.125-.73-2.125-1.25-3C-6.677 4.76-7.292 4.031-8 3.47A6.577 6.577 0 0 0-9.906 2.5c-.688-.23-1.459-.344-2.313-.344-.812 0-1.552.104-2.219.313-.645.208-1.229.51-1.75.906-.708.583-1.312 1.313-1.812 2.188-.48.875-.854 1.895-1.125 3.062a22.846 22.846 0 0 0-.469 2.938 42.826 42.826 0 0 0-.125 3.343v6.688c0 1.104.042 2.166.125 3.187.084 1.021.23 1.969.438 2.844.229 1.104.562 2.115 1 3.031.458.896.99 1.625 1.593 2.188A6.15 6.15 0 0 0-14.655 34c.729.27 1.552.406 2.469.406.874 0 1.677-.125 2.406-.375a5.913 5.913 0 0 0 1.937-1.093 7.395 7.395 0 0 0 1.782-2.188c.5-.896.895-1.906 1.187-3.031.23-.875.396-1.834.5-2.875.125-1.042.188-2.125.188-3.25zM-88.469 108h-6.656v17h-8.781V79.5h15.25c2.52 0 4.802.302 6.844.906 2.041.584 3.791 1.448 5.25 2.594a11.37 11.37 0 0 1 3.312 4.281c.792 1.709 1.188 3.688 1.188 5.938 0 1.625-.198 3.094-.594 4.406-.375 1.292-.917 2.448-1.625 3.469a12.033 12.033 0 0 1-2.625 2.718c-1 .771-2.125 1.438-3.375 2l9.781 18.782V125h-9.406zm-6.656-7.125h6.5c1.354 0 2.542-.187 3.563-.563 1.041-.395 1.885-.958 2.53-1.687a5.663 5.663 0 0 0 1.22-2.094c.291-.812.437-1.719.437-2.719 0-1.208-.187-2.27-.562-3.187-.355-.937-.896-1.708-1.626-2.312-.645-.542-1.437-.959-2.374-1.25-.938-.292-2.01-.438-3.22-.438h-6.468zM-13.469 106.312l-4.812 5.282V125h-8.813V79.5h8.813v20.844l4.125-5.563L-3.094 79.5h10.75L-7.656 99.625 8.219 125H-2.22z"/></g><defs><clipPath id="a"><path fill="var(--white)" d="M0 0h25v29H0z"/></clipPath></defs></svg>