<svg width="25" height="29" viewBox="0 0 25 29" fill="none" xmlns="http://www.w3.org/2000/svg">
<g clip-path="url(#clip0_118_11406)">
<rect width="25" height="29" fill="white"/>
<path d="M-25 -58H125V116H-25V-58Z" fill="var(--background)"/>
<path fill-rule="evenodd" clip-rule="evenodd" d="M124 -57H-24V115H124V-57ZM-25 -58V116H125V-58H-25Z" fill="black"/>
<path d="M29.2592 10.0172H20.5717V-9.70151H7.69672V10.0172H-1.02203V-35.4828H7.69672V-16.8265H20.5717V-35.4828H29.2592V10.0172Z" fill="black"/>
<path d="M10.0092 50L14.3217 67.0938L19.228 50H30.1342V95.5H22.0717V82.0312L22.4467 60.75L16.478 80.5H12.1342L6.79047 61.5938L7.16547 82.0312V95.5H-0.897034V50H10.0092Z" fill="black"/>
<path d="M101.448 -9.38901C101.448 -7.43068 101.271 -5.56609 100.917 -3.79526C100.562 -2.04526 100.052 -0.420258 99.3853 1.07974C98.6769 2.57974 97.8019 3.95474 96.7603 5.20474C95.7186 6.45474 94.5311 7.49641 93.1978 8.32974C91.9894 9.05891 90.6561 9.62141 89.1978 10.0172C87.7603 10.4339 86.2082 10.6422 84.5415 10.6422C82.7707 10.6422 81.1353 10.4131 79.6353 9.95474C78.1353 9.49641 76.7707 8.85058 75.5415 8.01724C74.3332 7.14224 73.2498 6.09016 72.2915 4.86099C71.3332 3.61099 70.5311 2.20474 69.8853 0.642242C69.3019 -0.795258 68.854 -2.35776 68.5415 -4.04526C68.2498 -5.73276 68.104 -7.51401 68.104 -9.38901V-16.014C68.104 -18.014 68.2707 -19.9098 68.604 -21.7015C68.9582 -23.4932 69.4686 -25.1494 70.1353 -26.6703C70.7811 -28.1078 71.5623 -29.4098 72.479 -30.5765C73.4165 -31.7432 74.4894 -32.7432 75.6978 -33.5765C76.8853 -34.389 78.2186 -35.014 79.6978 -35.4515C81.1769 -35.889 82.7811 -36.1078 84.5103 -36.1078C86.2603 -36.1078 87.8957 -35.8786 89.4165 -35.4203C90.9582 -34.9828 92.3436 -34.3473 93.5728 -33.514C94.8019 -32.7223 95.8748 -31.764 96.7915 -30.639C97.729 -29.514 98.5311 -28.2744 99.1978 -26.9203C99.9269 -25.3786 100.479 -23.6911 100.854 -21.8578C101.25 -20.0244 101.448 -18.0765 101.448 -16.014V-9.38901ZM92.5415 -16.0765C92.5415 -17.2432 92.479 -18.3473 92.354 -19.389C92.2498 -20.4515 92.0728 -21.4307 91.8228 -22.3265C91.5103 -23.4515 91.0936 -24.4515 90.5728 -25.3265C90.0519 -26.2223 89.4373 -26.9515 88.729 -27.514C88.1665 -27.9307 87.5311 -28.2536 86.8228 -28.4828C86.1353 -28.7119 85.3644 -28.8265 84.5103 -28.8265C83.6978 -28.8265 82.9582 -28.7223 82.2915 -28.514C81.6457 -28.3057 81.0623 -28.0036 80.5415 -27.6078C79.8332 -27.0244 79.229 -26.2953 78.729 -25.4203C78.2498 -24.5453 77.8748 -23.5244 77.604 -22.3578C77.3957 -21.4619 77.2394 -20.4828 77.1353 -19.4203C77.0519 -18.3578 77.0103 -17.2432 77.0103 -16.0765V-9.38901C77.0103 -8.28484 77.0519 -7.22234 77.1353 -6.20151C77.2186 -5.18068 77.3644 -4.23276 77.5728 -3.35776C77.8019 -2.25359 78.1353 -1.24318 78.5728 -0.326508C79.0311 0.569324 79.5623 1.29849 80.1665 1.86099C80.729 2.36099 81.3644 2.74641 82.0728 3.01724C82.8019 3.28807 83.6248 3.42349 84.5415 3.42349C85.4165 3.42349 86.2186 3.29849 86.9478 3.04849C87.6769 2.79849 88.3228 2.43391 88.8853 1.95474C89.5936 1.37141 90.1873 0.642242 90.6665 -0.232758C91.1665 -1.12859 91.5623 -2.13901 91.854 -3.26401C92.0832 -4.13901 92.2498 -5.09734 92.354 -6.13901C92.479 -7.18068 92.5415 -8.26401 92.5415 -9.38901V-16.0765Z" fill="black"/>
<path d="M97.6978 74.5625H79.0103V87.4062H100.854V94.5H70.1978V49H100.76V56.1562H79.0103V67.625H97.6978V74.5625Z" fill="black"/>
</g>
<defs>
<clipPath id="clip0_118_11406">
<rect width="25" height="29" fill="white"/>
</clipPath>
</defs>
</svg>
