<svg xmlns="http://www.w3.org/2000/svg" width="25" height="29" fill="none"><g clip-path="url(#a)"><path fill="var(--white)" d="M0 0h25v29H0z"/><path fill="var(--background)" d="M-75-58H75v174H-75z"/><path fill="var(--black)" fill-rule="evenodd" d="M74-57H-74v172H74zm-149-1v174H75V-58z" clip-rule="evenodd"/><path fill="var(--black)" d="m-50.937 12-6.25-45.5h8.03l3.032 25.438.219 1.78.281-1.874 3.594-25.344h6.281l4.094 27.406.218-1.906 3.094-25.5h8.063L-26.594 12h-7.937L-38.5-12.562l-.344-2.313-.343 2.313L-43 12zM54.719-7.406c0 1.958-.177 3.823-.532 5.594a23.39 23.39 0 0 1-1.53 4.875 19.256 19.256 0 0 1-2.626 4.124 14.899 14.899 0 0 1-3.562 3.125 15.61 15.61 0 0 1-4 1.688c-1.438.417-2.99.625-4.657.625-1.77 0-3.406-.23-4.906-.687A15.116 15.116 0 0 1 28.813 10a16.054 16.054 0 0 1-3.25-3.156 18.523 18.523 0 0 1-2.407-4.219c-.583-1.437-1.031-3-1.343-4.687a31.353 31.353 0 0 1-.438-5.344v-6.625c0-2 .167-3.896.5-5.688.354-1.791.865-3.448 1.531-4.968a18.684 18.684 0 0 1 2.344-3.907 15.143 15.143 0 0 1 3.219-3c1.187-.812 2.52-1.437 4-1.875 1.479-.437 3.083-.656 4.812-.656 1.75 0 3.386.23 4.907.688 1.541.437 2.927 1.072 4.156 1.906 1.229.791 2.302 1.75 3.218 2.875a18.65 18.65 0 0 1 2.407 3.718c.729 1.542 1.281 3.23 1.656 5.063.396 1.833.594 3.781.594 5.844zm-8.907-6.688c0-1.166-.062-2.27-.187-3.312a17.17 17.17 0 0 0-.531-2.938c-.313-1.125-.73-2.125-1.25-3-.521-.896-1.136-1.625-1.844-2.187a6.577 6.577 0 0 0-1.906-.969c-.688-.23-1.459-.344-2.313-.344-.812 0-1.552.104-2.218.313-.646.208-1.23.51-1.75.906-.709.583-1.313 1.313-1.813 2.188-.48.875-.854 1.895-1.125 3.062a22.845 22.845 0 0 0-.469 2.938 42.826 42.826 0 0 0-.125 3.343v6.688c0 1.104.042 2.166.125 3.187.084 1.021.23 1.969.438 2.844.229 1.104.562 2.115 1 3.031.458.896.99 1.625 1.593 2.188.563.5 1.198.885 1.907 1.156.729.27 1.552.406 2.468.406.876 0 1.678-.125 2.407-.375a5.913 5.913 0 0 0 1.937-1.093 7.395 7.395 0 0 0 1.782-2.188c.5-.896.895-1.906 1.187-3.031.23-.875.396-1.834.5-2.875.125-1.042.188-2.125.188-3.25zM-38.469 79h-6.656v17h-8.781V50.5h15.25c2.52 0 4.802.302 6.843.906 2.042.584 3.792 1.448 5.25 2.594a11.37 11.37 0 0 1 3.313 4.281c.792 1.709 1.188 3.688 1.188 5.938 0 1.625-.198 3.094-.594 4.406-.375 1.292-.917 2.448-1.625 3.469a12.04 12.04 0 0 1-2.625 2.719 16.78 16.78 0 0 1-3.375 2l9.781 18.78V96h-9.406zm-6.656-7.125h6.5c1.354 0 2.542-.187 3.563-.562 1.041-.396 1.885-.959 2.53-1.688a5.663 5.663 0 0 0 1.22-2.094c.291-.812.437-1.719.437-2.719 0-1.208-.187-2.27-.562-3.187-.355-.937-.896-1.708-1.625-2.312-.646-.542-1.438-.959-2.376-1.25-.937-.292-2.01-.438-3.218-.438h-6.469zM36.531 77.313l-4.812 5.28V96h-8.813V50.5h8.813v20.844l4.125-5.563L46.906 50.5h10.75L42.344 70.625 58.219 96H47.78z"/></g><defs><clipPath id="a"><path fill="var(--white)" d="M0 0h25v29H0z"/></clipPath></defs></svg>