<svg width="25" height="29" viewBox="0 0 25 29" fill="none" xmlns="http://www.w3.org/2000/svg">
<g clip-path="url(#clip0_118_11410)">
<rect width="25" height="29" fill="white"/>
<path d="M-75 -58H75V116H-75V-58Z" fill="var(--background)"/>
<path fill-rule="evenodd" clip-rule="evenodd" d="M74 -57H-74V115H74V-57ZM-75 -58V116H75V-58H-75Z" fill="black"/>
<path d="M-20.7408 10.0172H-29.4283V-9.70151H-42.3033V10.0172H-51.022V-35.4828H-42.3033V-16.8265H-29.4283V-35.4828H-20.7408V10.0172Z" fill="black"/>
<path d="M-39.9908 50L-35.6783 67.0938L-30.772 50H-19.8658V95.5H-27.9283V82.0312L-27.5533 60.75L-33.522 80.5H-37.8658L-43.2095 61.5938L-42.8345 82.0312V95.5H-50.897V50H-39.9908Z" fill="black"/>
<path d="M51.4478 -9.38901C51.4478 -7.43068 51.2707 -5.56609 50.9165 -3.79526C50.5623 -2.04526 50.0519 -0.420258 49.3853 1.07974C48.6769 2.57974 47.8019 3.95474 46.7603 5.20474C45.7186 6.45474 44.5311 7.49641 43.1978 8.32974C41.9894 9.05891 40.6561 9.62141 39.1978 10.0172C37.7603 10.4339 36.2082 10.6422 34.5415 10.6422C32.7707 10.6422 31.1353 10.4131 29.6353 9.95474C28.1353 9.49641 26.7707 8.85058 25.5415 8.01724C24.3332 7.14224 23.2498 6.09016 22.2915 4.86099C21.3332 3.61099 20.5311 2.20474 19.8853 0.642242C19.3019 -0.795258 18.854 -2.35776 18.5415 -4.04526C18.2498 -5.73276 18.104 -7.51401 18.104 -9.38901V-16.014C18.104 -18.014 18.2707 -19.9098 18.604 -21.7015C18.9582 -23.4932 19.4686 -25.1494 20.1353 -26.6703C20.7811 -28.1078 21.5623 -29.4098 22.479 -30.5765C23.4165 -31.7432 24.4894 -32.7432 25.6978 -33.5765C26.8853 -34.389 28.2186 -35.014 29.6978 -35.4515C31.1769 -35.889 32.7811 -36.1078 34.5103 -36.1078C36.2603 -36.1078 37.8957 -35.8786 39.4165 -35.4203C40.9582 -34.9828 42.3436 -34.3473 43.5728 -33.514C44.8019 -32.7223 45.8748 -31.764 46.7915 -30.639C47.729 -29.514 48.5311 -28.2744 49.1978 -26.9203C49.9269 -25.3786 50.479 -23.6911 50.854 -21.8578C51.2498 -20.0244 51.4478 -18.0765 51.4478 -16.014V-9.38901ZM42.5415 -16.0765C42.5415 -17.2432 42.479 -18.3473 42.354 -19.389C42.2498 -20.4515 42.0728 -21.4307 41.8228 -22.3265C41.5103 -23.4515 41.0936 -24.4515 40.5728 -25.3265C40.0519 -26.2223 39.4373 -26.9515 38.729 -27.514C38.1665 -27.9307 37.5311 -28.2536 36.8228 -28.4828C36.1353 -28.7119 35.3644 -28.8265 34.5103 -28.8265C33.6978 -28.8265 32.9582 -28.7223 32.2915 -28.514C31.6457 -28.3057 31.0623 -28.0036 30.5415 -27.6078C29.8332 -27.0244 29.229 -26.2953 28.729 -25.4203C28.2498 -24.5453 27.8748 -23.5244 27.604 -22.3578C27.3957 -21.4619 27.2394 -20.4828 27.1353 -19.4203C27.0519 -18.3578 27.0103 -17.2432 27.0103 -16.0765V-9.38901C27.0103 -8.28484 27.0519 -7.22234 27.1353 -6.20151C27.2186 -5.18068 27.3644 -4.23276 27.5728 -3.35776C27.8019 -2.25359 28.1353 -1.24318 28.5728 -0.326508C29.0311 0.569324 29.5623 1.29849 30.1665 1.86099C30.729 2.36099 31.3644 2.74641 32.0728 3.01724C32.8019 3.28807 33.6248 3.42349 34.5415 3.42349C35.4165 3.42349 36.2186 3.29849 36.9478 3.04849C37.6769 2.79849 38.3228 2.43391 38.8853 1.95474C39.5936 1.37141 40.1873 0.642242 40.6665 -0.232758C41.1665 -1.12859 41.5623 -2.13901 41.854 -3.26401C42.0832 -4.13901 42.2498 -5.09734 42.354 -6.13901C42.479 -7.18068 42.5415 -8.26401 42.5415 -9.38901V-16.0765Z" fill="black"/>
<path d="M47.6978 74.5625H29.0103V87.4062H50.854V94.5H20.1978V49H50.7603V56.1562H29.0103V67.625H47.6978V74.5625Z" fill="black"/>
</g>
<defs>
<clipPath id="clip0_118_11410">
<rect width="25" height="29" fill="white"/>
</clipPath>
</defs>
</svg>
