<svg width="25" height="29" viewBox="0 0 25 29" fill="none" xmlns="http://www.w3.org/2000/svg">
<g clip-path="url(#clip0_118_11382)">
<rect width="25" height="29" fill="white"/>
<path d="M-25 0H125V174H-25V0Z" fill="var(--background)"/>
<path fill-rule="evenodd" clip-rule="evenodd" d="M124 1H-24V173H124V1ZM-25 0V174H125V0H-25Z" fill="black"/>
<path d="M29.2592 68.0172H20.5717V48.2985H7.69672V68.0172H-1.02203V22.5172H7.69672V41.1735H20.5717V22.5172H29.2592V68.0172Z" fill="black"/>
<path d="M10.0092 108L14.3217 125.094L19.228 108H30.1342V153.5H22.0717V140.031L22.4467 118.75L16.478 138.5H12.1342L6.79047 119.594L7.16547 140.031V153.5H-0.897034V108H10.0092Z" fill="black"/>
<path d="M101.448 48.611C101.448 50.5693 101.271 52.4339 100.917 54.2047C100.562 55.9547 100.052 57.5797 99.3853 59.0797C98.6769 60.5797 97.8019 61.9547 96.7603 63.2047C95.7186 64.4547 94.5311 65.4964 93.1978 66.3297C91.9894 67.0589 90.6561 67.6214 89.1978 68.0172C87.7603 68.4339 86.2082 68.6422 84.5415 68.6422C82.7707 68.6422 81.1353 68.4131 79.6353 67.9547C78.1353 67.4964 76.7707 66.8506 75.5415 66.0172C74.3332 65.1422 73.2498 64.0902 72.2915 62.861C71.3332 61.611 70.5311 60.2047 69.8853 58.6422C69.3019 57.2047 68.854 55.6422 68.5415 53.9547C68.2498 52.2672 68.104 50.486 68.104 48.611V41.986C68.104 39.986 68.2707 38.0902 68.604 36.2985C68.9582 34.5068 69.4686 32.8506 70.1353 31.3297C70.7811 29.8922 71.5623 28.5902 72.479 27.4235C73.4165 26.2568 74.4894 25.2568 75.6978 24.4235C76.8853 23.611 78.2186 22.986 79.6978 22.5485C81.1769 22.111 82.7811 21.8922 84.5103 21.8922C86.2603 21.8922 87.8957 22.1214 89.4165 22.5797C90.9582 23.0172 92.3436 23.6527 93.5728 24.486C94.8019 25.2777 95.8748 26.236 96.7915 27.361C97.729 28.486 98.5311 29.7256 99.1978 31.0797C99.9269 32.6214 100.479 34.3089 100.854 36.1422C101.25 37.9756 101.448 39.9235 101.448 41.986V48.611ZM92.5415 41.9235C92.5415 40.7568 92.479 39.6527 92.354 38.611C92.2498 37.5485 92.0728 36.5693 91.8228 35.6735C91.5103 34.5485 91.0936 33.5485 90.5728 32.6735C90.0519 31.7777 89.4373 31.0485 88.729 30.486C88.1665 30.0693 87.5311 29.7464 86.8228 29.5172C86.1353 29.2881 85.3644 29.1735 84.5103 29.1735C83.6978 29.1735 82.9582 29.2777 82.2915 29.486C81.6457 29.6943 81.0623 29.9964 80.5415 30.3922C79.8332 30.9756 79.229 31.7047 78.729 32.5797C78.2498 33.4547 77.8748 34.4756 77.604 35.6422C77.3957 36.5381 77.2394 37.5172 77.1353 38.5797C77.0519 39.6422 77.0103 40.7568 77.0103 41.9235V48.611C77.0103 49.7152 77.0519 50.7777 77.1353 51.7985C77.2186 52.8193 77.3644 53.7672 77.5728 54.6422C77.8019 55.7464 78.1353 56.7568 78.5728 57.6735C79.0311 58.5693 79.5623 59.2985 80.1665 59.861C80.729 60.361 81.3644 60.7464 82.0728 61.0172C82.8019 61.2881 83.6248 61.4235 84.5415 61.4235C85.4165 61.4235 86.2186 61.2985 86.9478 61.0485C87.6769 60.7985 88.3228 60.4339 88.8853 59.9547C89.5936 59.3714 90.1873 58.6422 90.6665 57.7672C91.1665 56.8714 91.5623 55.861 91.854 54.736C92.0832 53.861 92.2498 52.9027 92.354 51.861C92.479 50.8193 92.5415 49.736 92.5415 48.611V41.9235Z" fill="black"/>
<path d="M97.6978 132.562H79.0103V145.406H100.854V152.5H70.1978V107H100.76V114.156H79.0103V125.625H97.6978V132.562Z" fill="black"/>
</g>
<defs>
<clipPath id="clip0_118_11382">
<rect width="25" height="29" fill="white"/>
</clipPath>
</defs>
</svg>
