<svg xmlns="http://www.w3.org/2000/svg" width="25" height="29" fill="none"><g clip-path="url(#a)"><path fill="var(--white)" d="M0 0h25v29H0z"/><path fill="var(--background)" d="M-25 0h150v174H-25z"/><path fill="var(--black)" fill-rule="evenodd" d="M124 1H-24v172h148zM-25 0v174h150V0z" clip-rule="evenodd"/><path fill="var(--black)" d="m-.937 70-6.25-45.5h8.03l3.032 25.438.219 1.78.281-1.874L7.969 24.5h6.281l4.094 27.406.218-1.906 3.094-25.5h8.063L23.406 70H15.47L11.5 45.438l-.344-2.313-.344 2.313L7 70zM104.719 50.594a28.49 28.49 0 0 1-.531 5.593 23.42 23.42 0 0 1-1.532 4.876 19.233 19.233 0 0 1-2.625 4.124 14.894 14.894 0 0 1-3.562 3.126 15.61 15.61 0 0 1-4 1.687c-1.438.417-2.99.625-4.656.625-1.771 0-3.407-.23-4.907-.687A15.116 15.116 0 0 1 78.812 68a16.056 16.056 0 0 1-3.25-3.156 18.523 18.523 0 0 1-2.406-4.219c-.583-1.437-1.031-3-1.344-4.687a31.353 31.353 0 0 1-.437-5.344v-6.625c0-2 .167-3.896.5-5.688.354-1.791.865-3.448 1.531-4.968a18.684 18.684 0 0 1 2.344-3.907 15.143 15.143 0 0 1 3.219-3c1.187-.812 2.52-1.437 4-1.875 1.479-.437 3.083-.656 4.812-.656 1.75 0 3.386.23 4.906.688 1.542.437 2.928 1.072 4.157 1.906 1.229.791 2.302 1.75 3.218 2.875a18.644 18.644 0 0 1 2.407 3.718c.729 1.542 1.281 3.23 1.656 5.063.396 1.833.594 3.781.594 5.844zm-8.906-6.688c0-1.166-.063-2.27-.188-3.312a17.17 17.17 0 0 0-.531-2.938c-.313-1.125-.73-2.125-1.25-3-.521-.896-1.136-1.625-1.844-2.187a6.577 6.577 0 0 0-1.906-.969c-.688-.23-1.459-.344-2.313-.344-.812 0-1.552.104-2.219.313-.645.208-1.229.51-1.75.906-.708.583-1.312 1.313-1.812 2.188-.48.874-.854 1.895-1.125 3.062a22.845 22.845 0 0 0-.469 2.938 42.826 42.826 0 0 0-.125 3.343v6.688c0 1.104.042 2.166.125 3.187.084 1.021.23 1.969.438 2.844.229 1.104.562 2.115 1 3.031.458.896.99 1.625 1.594 2.188A6.15 6.15 0 0 0 85.344 63c.729.27 1.552.406 2.469.406.874 0 1.677-.125 2.406-.375a5.912 5.912 0 0 0 1.937-1.093 7.394 7.394 0 0 0 1.781-2.188c.5-.896.896-1.906 1.188-3.031.23-.875.396-1.834.5-2.875.125-1.042.188-2.125.188-3.25zM11.531 137H4.875v17h-8.781v-45.5h15.25c2.52 0 4.802.302 6.844.906 2.041.584 3.791 1.448 5.25 2.594a11.373 11.373 0 0 1 3.312 4.281c.792 1.709 1.188 3.688 1.188 5.938 0 1.625-.198 3.093-.594 4.406-.375 1.292-.917 2.448-1.625 3.469a12.033 12.033 0 0 1-2.625 2.718c-1 .771-2.125 1.438-3.375 2l9.781 18.782V154h-9.406zm-6.656-7.125h6.5c1.354 0 2.542-.187 3.563-.563 1.041-.395 1.885-.958 2.53-1.687a5.658 5.658 0 0 0 1.22-2.094c.291-.812.437-1.719.437-2.719 0-1.208-.187-2.27-.562-3.187-.355-.937-.896-1.708-1.625-2.313-.646-.541-1.438-.958-2.375-1.25-.938-.291-2.01-.437-3.22-.437H4.876zM86.531 135.312l-4.812 5.282V154h-8.813v-45.5h8.813v20.844l4.125-5.563L96.906 108.5h10.75l-15.312 20.125L108.219 154H97.781z"/></g><defs><clipPath id="a"><path fill="var(--white)" d="M0 0h25v29H0z"/></clipPath></defs></svg>