<svg width="25" height="29" viewBox="0 0 25 29" fill="none" xmlns="http://www.w3.org/2000/svg">
<g clip-path="url(#clip0_118_11420)">
<rect width="25" height="29" fill="white"/>
<path d="M-50 -87H100V87H-50V-87Z" fill="#E3E3E3"/>
<path fill-rule="evenodd" clip-rule="evenodd" d="M99 -86H-49V86H99V-86ZM-50 -87V87H100V-87H-50Z" fill="black"/>
<path d="M4.25922 -18.9828H-4.42828V-38.7015H-17.3033V-18.9828H-26.022V-64.4828H-17.3033V-45.8265H-4.42828V-64.4828H4.25922V-18.9828Z" fill="black"/>
<path d="M-14.9908 21L-10.6783 38.0938L-5.77203 21H5.13422V66.5H-2.92828V53.0312L-2.55328 31.75L-8.52203 51.5H-12.8658L-18.2095 32.5938L-17.8345 53.0312V66.5H-25.897V21H-14.9908Z" fill="black"/>
<path d="M76.4478 -38.389C76.4478 -36.4307 76.2707 -34.5661 75.9165 -32.7953C75.5623 -31.0453 75.0519 -29.4203 74.3853 -27.9203C73.6769 -26.4203 72.8019 -25.0453 71.7603 -23.7953C70.7186 -22.5453 69.5311 -21.5036 68.1978 -20.6703C66.9894 -19.9411 65.6561 -19.3786 64.1978 -18.9828C62.7603 -18.5661 61.2082 -18.3578 59.5415 -18.3578C57.7707 -18.3578 56.1353 -18.5869 54.6353 -19.0453C53.1353 -19.5036 51.7707 -20.1494 50.5415 -20.9828C49.3332 -21.8578 48.2498 -22.9098 47.2915 -24.139C46.3332 -25.389 45.5311 -26.7953 44.8853 -28.3578C44.3019 -29.7953 43.854 -31.3578 43.5415 -33.0453C43.2498 -34.7328 43.104 -36.514 43.104 -38.389V-45.014C43.104 -47.014 43.2707 -48.9098 43.604 -50.7015C43.9582 -52.4932 44.4686 -54.1494 45.1353 -55.6703C45.7811 -57.1078 46.5623 -58.4098 47.479 -59.5765C48.4165 -60.7432 49.4894 -61.7432 50.6978 -62.5765C51.8853 -63.389 53.2186 -64.014 54.6978 -64.4515C56.1769 -64.889 57.7811 -65.1078 59.5103 -65.1078C61.2603 -65.1078 62.8957 -64.8786 64.4165 -64.4203C65.9582 -63.9828 67.3436 -63.3473 68.5728 -62.514C69.8019 -61.7223 70.8748 -60.764 71.7915 -59.639C72.729 -58.514 73.5311 -57.2744 74.1978 -55.9203C74.9269 -54.3786 75.479 -52.6911 75.854 -50.8578C76.2498 -49.0244 76.4478 -47.0765 76.4478 -45.014V-38.389ZM67.5415 -45.0765C67.5415 -46.2432 67.479 -47.3473 67.354 -48.389C67.2498 -49.4515 67.0728 -50.4307 66.8228 -51.3265C66.5103 -52.4515 66.0936 -53.4515 65.5728 -54.3265C65.0519 -55.2223 64.4373 -55.9515 63.729 -56.514C63.1665 -56.9307 62.5311 -57.2536 61.8228 -57.4828C61.1353 -57.7119 60.3644 -57.8265 59.5103 -57.8265C58.6978 -57.8265 57.9582 -57.7223 57.2915 -57.514C56.6457 -57.3057 56.0623 -57.0036 55.5415 -56.6078C54.8332 -56.0244 54.229 -55.2953 53.729 -54.4203C53.2498 -53.5453 52.8748 -52.5244 52.604 -51.3578C52.3957 -50.4619 52.2394 -49.4828 52.1353 -48.4203C52.0519 -47.3578 52.0103 -46.2432 52.0103 -45.0765V-38.389C52.0103 -37.2848 52.0519 -36.2223 52.1353 -35.2015C52.2186 -34.1807 52.3644 -33.2328 52.5728 -32.3578C52.8019 -31.2536 53.1353 -30.2432 53.5728 -29.3265C54.0311 -28.4307 54.5623 -27.7015 55.1665 -27.139C55.729 -26.639 56.3644 -26.2536 57.0728 -25.9828C57.8019 -25.7119 58.6248 -25.5765 59.5415 -25.5765C60.4165 -25.5765 61.2186 -25.7015 61.9478 -25.9515C62.6769 -26.2015 63.3228 -26.5661 63.8853 -27.0453C64.5936 -27.6286 65.1873 -28.3578 65.6665 -29.2328C66.1665 -30.1286 66.5623 -31.139 66.854 -32.264C67.0832 -33.139 67.2498 -34.0973 67.354 -35.139C67.479 -36.1807 67.5415 -37.264 67.5415 -38.389V-45.0765Z" fill="black"/>
<path d="M72.6978 45.5625H54.0103V58.4062H75.854V65.5H45.1978V20H75.7603V27.1562H54.0103V38.625H72.6978V45.5625Z" fill="black"/>
</g>
<defs>
<clipPath id="clip0_118_11420">
<rect width="25" height="29" fill="white"/>
</clipPath>
</defs>
</svg>
