<svg width="25" height="29" viewBox="0 0 25 29" fill="none" xmlns="http://www.w3.org/2000/svg">
<g clip-path="url(#clip0_118_11422)">
<rect width="25" height="29" fill="white"/>
<path d="M-75 -87H75V87H-75V-87Z" fill="var(--background)"/>
<path fill-rule="evenodd" clip-rule="evenodd" d="M74 -86H-74V86H74V-86ZM-75 -87V87H75V-87H-75Z" fill="black"/>
<path d="M-20.7408 -18.9828H-29.4283V-38.7015H-42.3033V-18.9828H-51.022V-64.4828H-42.3033V-45.8265H-29.4283V-64.4828H-20.7408V-18.9828Z" fill="black"/>
<path d="M-39.9908 21L-35.6783 38.0938L-30.772 21H-19.8658V66.5H-27.9283V53.0312L-27.5533 31.75L-33.522 51.5H-37.8658L-43.2095 32.5938L-42.8345 53.0312V66.5H-50.897V21H-39.9908Z" fill="black"/>
<path d="M51.4478 -38.389C51.4478 -36.4307 51.2707 -34.5661 50.9165 -32.7953C50.5623 -31.0453 50.0519 -29.4203 49.3853 -27.9203C48.6769 -26.4203 47.8019 -25.0453 46.7603 -23.7953C45.7186 -22.5453 44.5311 -21.5036 43.1978 -20.6703C41.9894 -19.9411 40.6561 -19.3786 39.1978 -18.9828C37.7603 -18.5661 36.2082 -18.3578 34.5415 -18.3578C32.7707 -18.3578 31.1353 -18.5869 29.6353 -19.0453C28.1353 -19.5036 26.7707 -20.1494 25.5415 -20.9828C24.3332 -21.8578 23.2498 -22.9098 22.2915 -24.139C21.3332 -25.389 20.5311 -26.7953 19.8853 -28.3578C19.3019 -29.7953 18.854 -31.3578 18.5415 -33.0453C18.2498 -34.7328 18.104 -36.514 18.104 -38.389V-45.014C18.104 -47.014 18.2707 -48.9098 18.604 -50.7015C18.9582 -52.4932 19.4686 -54.1494 20.1353 -55.6703C20.7811 -57.1078 21.5623 -58.4098 22.479 -59.5765C23.4165 -60.7432 24.4894 -61.7432 25.6978 -62.5765C26.8853 -63.389 28.2186 -64.014 29.6978 -64.4515C31.1769 -64.889 32.7811 -65.1078 34.5103 -65.1078C36.2603 -65.1078 37.8957 -64.8786 39.4165 -64.4203C40.9582 -63.9828 42.3436 -63.3473 43.5728 -62.514C44.8019 -61.7223 45.8748 -60.764 46.7915 -59.639C47.729 -58.514 48.5311 -57.2744 49.1978 -55.9203C49.9269 -54.3786 50.479 -52.6911 50.854 -50.8578C51.2498 -49.0244 51.4478 -47.0765 51.4478 -45.014V-38.389ZM42.5415 -45.0765C42.5415 -46.2432 42.479 -47.3473 42.354 -48.389C42.2498 -49.4515 42.0728 -50.4307 41.8228 -51.3265C41.5103 -52.4515 41.0936 -53.4515 40.5728 -54.3265C40.0519 -55.2223 39.4373 -55.9515 38.729 -56.514C38.1665 -56.9307 37.5311 -57.2536 36.8228 -57.4828C36.1353 -57.7119 35.3644 -57.8265 34.5103 -57.8265C33.6978 -57.8265 32.9582 -57.7223 32.2915 -57.514C31.6457 -57.3057 31.0623 -57.0036 30.5415 -56.6078C29.8332 -56.0244 29.229 -55.2953 28.729 -54.4203C28.2498 -53.5453 27.8748 -52.5244 27.604 -51.3578C27.3957 -50.4619 27.2394 -49.4828 27.1353 -48.4203C27.0519 -47.3578 27.0103 -46.2432 27.0103 -45.0765V-38.389C27.0103 -37.2848 27.0519 -36.2223 27.1353 -35.2015C27.2186 -34.1807 27.3644 -33.2328 27.5728 -32.3578C27.8019 -31.2536 28.1353 -30.2432 28.5728 -29.3265C29.0311 -28.4307 29.5623 -27.7015 30.1665 -27.139C30.729 -26.639 31.3644 -26.2536 32.0728 -25.9828C32.8019 -25.7119 33.6248 -25.5765 34.5415 -25.5765C35.4165 -25.5765 36.2186 -25.7015 36.9478 -25.9515C37.6769 -26.2015 38.3228 -26.5661 38.8853 -27.0453C39.5936 -27.6286 40.1873 -28.3578 40.6665 -29.2328C41.1665 -30.1286 41.5623 -31.139 41.854 -32.264C42.0832 -33.139 42.2498 -34.0973 42.354 -35.139C42.479 -36.1807 42.5415 -37.264 42.5415 -38.389V-45.0765Z" fill="black"/>
<path d="M47.6978 45.5625H29.0103V58.4062H50.854V65.5H20.1978V20H50.7603V27.1562H29.0103V38.625H47.6978V45.5625Z" fill="black"/>
</g>
<defs>
<clipPath id="clip0_118_11422">
<rect width="25" height="29" fill="white"/>
</clipPath>
</defs>
</svg>
