<svg width="25" height="29" viewBox="0 0 25 29" fill="none" xmlns="http://www.w3.org/2000/svg">
<g clip-path="url(#clip0_118_11426)">
<rect width="25" height="29" fill="white"/>
<path d="M-125 -87H25V87H-125V-87Z" fill="var(--background)"/>
<path fill-rule="evenodd" clip-rule="evenodd" d="M24 -86H-124V86H24V-86ZM-125 -87V87H25V-87H-125Z" fill="black"/>
<path d="M-70.7408 -18.9828H-79.4283V-38.7015H-92.3033V-18.9828H-101.022V-64.4828H-92.3033V-45.8265H-79.4283V-64.4828H-70.7408V-18.9828Z" fill="black"/>
<path d="M-89.9908 21L-85.6783 38.0938L-80.772 21H-69.8658V66.5H-77.9283V53.0312L-77.5533 31.75L-83.522 51.5H-87.8658L-93.2095 32.5938L-92.8345 53.0312V66.5H-100.897V21H-89.9908Z" fill="black"/>
<path d="M1.44775 -38.389C1.44775 -36.4307 1.27067 -34.5661 0.916504 -32.7953C0.56234 -31.0453 0.051918 -29.4203 -0.614746 -27.9203C-1.32308 -26.4203 -2.19808 -25.0453 -3.23975 -23.7953C-4.28141 -22.5453 -5.46891 -21.5036 -6.80225 -20.6703C-8.01058 -19.9411 -9.34391 -19.3786 -10.8022 -18.9828C-12.2397 -18.5661 -13.7918 -18.3578 -15.4585 -18.3578C-17.2293 -18.3578 -18.8647 -18.5869 -20.3647 -19.0453C-21.8647 -19.5036 -23.2293 -20.1494 -24.4585 -20.9828C-25.6668 -21.8578 -26.7502 -22.9098 -27.7085 -24.139C-28.6668 -25.389 -29.4689 -26.7953 -30.1147 -28.3578C-30.6981 -29.7953 -31.146 -31.3578 -31.4585 -33.0453C-31.7502 -34.7328 -31.896 -36.514 -31.896 -38.389V-45.014C-31.896 -47.014 -31.7293 -48.9098 -31.396 -50.7015C-31.0418 -52.4932 -30.5314 -54.1494 -29.8647 -55.6703C-29.2189 -57.1078 -28.4377 -58.4098 -27.521 -59.5765C-26.5835 -60.7432 -25.5106 -61.7432 -24.3022 -62.5765C-23.1147 -63.389 -21.7814 -64.014 -20.3022 -64.4515C-18.8231 -64.889 -17.2189 -65.1078 -15.4897 -65.1078C-13.7397 -65.1078 -12.1043 -64.8786 -10.5835 -64.4203C-9.04183 -63.9828 -7.65641 -63.3473 -6.42725 -62.514C-5.19808 -61.7223 -4.12516 -60.764 -3.2085 -59.639C-2.271 -58.514 -1.46891 -57.2744 -0.802246 -55.9203C-0.073082 -54.3786 0.479004 -52.6911 0.854004 -50.8578C1.24984 -49.0244 1.44775 -47.0765 1.44775 -45.014V-38.389ZM-7.4585 -45.0765C-7.4585 -46.2432 -7.521 -47.3473 -7.646 -48.389C-7.75016 -49.4515 -7.92725 -50.4307 -8.17725 -51.3265C-8.48975 -52.4515 -8.90641 -53.4515 -9.42725 -54.3265C-9.94808 -55.2223 -10.5627 -55.9515 -11.271 -56.514C-11.8335 -56.9307 -12.4689 -57.2536 -13.1772 -57.4828C-13.8647 -57.7119 -14.6356 -57.8265 -15.4897 -57.8265C-16.3022 -57.8265 -17.0418 -57.7223 -17.7085 -57.514C-18.3543 -57.3057 -18.9377 -57.0036 -19.4585 -56.6078C-20.1668 -56.0244 -20.771 -55.2953 -21.271 -54.4203C-21.7502 -53.5453 -22.1252 -52.5244 -22.396 -51.3578C-22.6043 -50.4619 -22.7606 -49.4828 -22.8647 -48.4203C-22.9481 -47.3578 -22.9897 -46.2432 -22.9897 -45.0765V-38.389C-22.9897 -37.2848 -22.9481 -36.2223 -22.8647 -35.2015C-22.7814 -34.1807 -22.6356 -33.2328 -22.4272 -32.3578C-22.1981 -31.2536 -21.8647 -30.2432 -21.4272 -29.3265C-20.9689 -28.4307 -20.4377 -27.7015 -19.8335 -27.139C-19.271 -26.639 -18.6356 -26.2536 -17.9272 -25.9828C-17.1981 -25.7119 -16.3752 -25.5765 -15.4585 -25.5765C-14.5835 -25.5765 -13.7814 -25.7015 -13.0522 -25.9515C-12.3231 -26.2015 -11.6772 -26.5661 -11.1147 -27.0453C-10.4064 -27.6286 -9.81266 -28.3578 -9.3335 -29.2328C-8.8335 -30.1286 -8.43766 -31.139 -8.146 -32.264C-7.91683 -33.139 -7.75016 -34.0973 -7.646 -35.139C-7.521 -36.1807 -7.4585 -37.264 -7.4585 -38.389V-45.0765Z" fill="black"/>
<path d="M-2.30225 45.5625H-20.9897V58.4062H0.854004V65.5H-29.8022V20H0.760254V27.1562H-20.9897V38.625H-2.30225V45.5625Z" fill="black"/>
</g>
<defs>
<clipPath id="clip0_118_11426">
<rect width="25" height="29" fill="white"/>
</clipPath>
</defs>
</svg>
