<svg width="25" height="29" viewBox="0 0 25 29" fill="none" xmlns="http://www.w3.org/2000/svg">
<g clip-path="url(#clip0_118_11428)">
<rect width="25" height="29" fill="white"/>
<path d="M0 -116H150V58H0V-116Z" fill="#E3E3E3"/>
<path fill-rule="evenodd" clip-rule="evenodd" d="M149 -115H1V57H149V-115ZM0 -116V58H150V-116H0Z" fill="black"/>
<path d="M54.2592 -47.9828H45.5717V-67.7015H32.6967V-47.9828H23.978V-93.4828H32.6967V-74.8265H45.5717V-93.4828H54.2592V-47.9828Z" fill="black"/>
<path d="M35.0092 -8L39.3217 9.09375L44.228 -8H55.1342V37.5H47.0717V24.0312L47.4467 2.75L41.478 22.5H37.1342L31.7905 3.59375L32.1655 24.0312V37.5H24.103V-8H35.0092Z" fill="black"/>
<path d="M126.448 -67.389C126.448 -65.4307 126.271 -63.5661 125.917 -61.7953C125.562 -60.0453 125.052 -58.4203 124.385 -56.9203C123.677 -55.4203 122.802 -54.0453 121.76 -52.7953C120.719 -51.5453 119.531 -50.5036 118.198 -49.6703C116.989 -48.9411 115.656 -48.3786 114.198 -47.9828C112.76 -47.5661 111.208 -47.3578 109.542 -47.3578C107.771 -47.3578 106.135 -47.5869 104.635 -48.0453C103.135 -48.5036 101.771 -49.1494 100.542 -49.9828C99.3332 -50.8578 98.2498 -51.9098 97.2915 -53.139C96.3332 -54.389 95.5311 -55.7953 94.8853 -57.3578C94.3019 -58.7953 93.854 -60.3578 93.5415 -62.0453C93.2498 -63.7328 93.104 -65.514 93.104 -67.389V-74.014C93.104 -76.014 93.2707 -77.9098 93.604 -79.7015C93.9582 -81.4932 94.4686 -83.1494 95.1353 -84.6703C95.7811 -86.1078 96.5623 -87.4098 97.479 -88.5765C98.4165 -89.7432 99.4894 -90.7432 100.698 -91.5765C101.885 -92.389 103.219 -93.014 104.698 -93.4515C106.177 -93.889 107.781 -94.1078 109.51 -94.1078C111.26 -94.1078 112.896 -93.8786 114.417 -93.4203C115.958 -92.9828 117.344 -92.3473 118.573 -91.514C119.802 -90.7223 120.875 -89.764 121.792 -88.639C122.729 -87.514 123.531 -86.2744 124.198 -84.9203C124.927 -83.3786 125.479 -81.6911 125.854 -79.8578C126.25 -78.0244 126.448 -76.0765 126.448 -74.014V-67.389ZM117.542 -74.0765C117.542 -75.2432 117.479 -76.3473 117.354 -77.389C117.25 -78.4515 117.073 -79.4307 116.823 -80.3265C116.51 -81.4515 116.094 -82.4515 115.573 -83.3265C115.052 -84.2223 114.437 -84.9515 113.729 -85.514C113.167 -85.9307 112.531 -86.2536 111.823 -86.4828C111.135 -86.7119 110.364 -86.8265 109.51 -86.8265C108.698 -86.8265 107.958 -86.7223 107.292 -86.514C106.646 -86.3057 106.062 -86.0036 105.542 -85.6078C104.833 -85.0244 104.229 -84.2953 103.729 -83.4203C103.25 -82.5453 102.875 -81.5244 102.604 -80.3578C102.396 -79.4619 102.239 -78.4828 102.135 -77.4203C102.052 -76.3578 102.01 -75.2432 102.01 -74.0765V-67.389C102.01 -66.2848 102.052 -65.2223 102.135 -64.2015C102.219 -63.1807 102.364 -62.2328 102.573 -61.3578C102.802 -60.2536 103.135 -59.2432 103.573 -58.3265C104.031 -57.4307 104.562 -56.7015 105.167 -56.139C105.729 -55.639 106.364 -55.2536 107.073 -54.9828C107.802 -54.7119 108.625 -54.5765 109.542 -54.5765C110.417 -54.5765 111.219 -54.7015 111.948 -54.9515C112.677 -55.2015 113.323 -55.5661 113.885 -56.0453C114.594 -56.6286 115.187 -57.3578 115.667 -58.2328C116.167 -59.1286 116.562 -60.139 116.854 -61.264C117.083 -62.139 117.25 -63.0973 117.354 -64.139C117.479 -65.1807 117.542 -66.264 117.542 -67.389V-74.0765Z" fill="black"/>
<path d="M122.698 16.5625H104.01V29.4062H125.854V36.5H95.1978V-9H125.76V-1.84375H104.01V9.625H122.698V16.5625Z" fill="black"/>
</g>
<defs>
<clipPath id="clip0_118_11428">
<rect width="25" height="29" fill="white"/>
</clipPath>
</defs>
</svg>
