<svg width="25" height="29" viewBox="0 0 25 29" fill="none" xmlns="http://www.w3.org/2000/svg">
<g clip-path="url(#clip0_118_11432)">
<rect width="25" height="29" fill="white"/>
<path d="M-50 -116H100V58H-50V-116Z" fill="#E3E3E3"/>
<path fill-rule="evenodd" clip-rule="evenodd" d="M99 -115H-49V57H99V-115ZM-50 -116V58H100V-116H-50Z" fill="black"/>
<path d="M4.25922 -47.9828H-4.42828V-67.7015H-17.3033V-47.9828H-26.022V-93.4828H-17.3033V-74.8265H-4.42828V-93.4828H4.25922V-47.9828Z" fill="black"/>
<path d="M-14.9908 -8L-10.6783 9.09375L-5.77203 -8H5.13422V37.5H-2.92828V24.0312L-2.55328 2.75L-8.52203 22.5H-12.8658L-18.2095 3.59375L-17.8345 24.0312V37.5H-25.897V-8H-14.9908Z" fill="black"/>
<path d="M76.4478 -67.389C76.4478 -65.4307 76.2707 -63.5661 75.9165 -61.7953C75.5623 -60.0453 75.0519 -58.4203 74.3853 -56.9203C73.6769 -55.4203 72.8019 -54.0453 71.7603 -52.7953C70.7186 -51.5453 69.5311 -50.5036 68.1978 -49.6703C66.9894 -48.9411 65.6561 -48.3786 64.1978 -47.9828C62.7603 -47.5661 61.2082 -47.3578 59.5415 -47.3578C57.7707 -47.3578 56.1353 -47.5869 54.6353 -48.0453C53.1353 -48.5036 51.7707 -49.1494 50.5415 -49.9828C49.3332 -50.8578 48.2498 -51.9098 47.2915 -53.139C46.3332 -54.389 45.5311 -55.7953 44.8853 -57.3578C44.3019 -58.7953 43.854 -60.3578 43.5415 -62.0453C43.2498 -63.7328 43.104 -65.514 43.104 -67.389V-74.014C43.104 -76.014 43.2707 -77.9098 43.604 -79.7015C43.9582 -81.4932 44.4686 -83.1494 45.1353 -84.6703C45.7811 -86.1078 46.5623 -87.4098 47.479 -88.5765C48.4165 -89.7432 49.4894 -90.7432 50.6978 -91.5765C51.8853 -92.389 53.2186 -93.014 54.6978 -93.4515C56.1769 -93.889 57.7811 -94.1078 59.5103 -94.1078C61.2603 -94.1078 62.8957 -93.8786 64.4165 -93.4203C65.9582 -92.9828 67.3436 -92.3473 68.5728 -91.514C69.8019 -90.7223 70.8748 -89.764 71.7915 -88.639C72.729 -87.514 73.5311 -86.2744 74.1978 -84.9203C74.9269 -83.3786 75.479 -81.6911 75.854 -79.8578C76.2498 -78.0244 76.4478 -76.0765 76.4478 -74.014V-67.389ZM67.5415 -74.0765C67.5415 -75.2432 67.479 -76.3473 67.354 -77.389C67.2498 -78.4515 67.0728 -79.4307 66.8228 -80.3265C66.5103 -81.4515 66.0936 -82.4515 65.5728 -83.3265C65.0519 -84.2223 64.4373 -84.9515 63.729 -85.514C63.1665 -85.9307 62.5311 -86.2536 61.8228 -86.4828C61.1353 -86.7119 60.3644 -86.8265 59.5103 -86.8265C58.6978 -86.8265 57.9582 -86.7223 57.2915 -86.514C56.6457 -86.3057 56.0623 -86.0036 55.5415 -85.6078C54.8332 -85.0244 54.229 -84.2953 53.729 -83.4203C53.2498 -82.5453 52.8748 -81.5244 52.604 -80.3578C52.3957 -79.4619 52.2394 -78.4828 52.1353 -77.4203C52.0519 -76.3578 52.0103 -75.2432 52.0103 -74.0765V-67.389C52.0103 -66.2848 52.0519 -65.2223 52.1353 -64.2015C52.2186 -63.1807 52.3644 -62.2328 52.5728 -61.3578C52.8019 -60.2536 53.1353 -59.2432 53.5728 -58.3265C54.0311 -57.4307 54.5623 -56.7015 55.1665 -56.139C55.729 -55.639 56.3644 -55.2536 57.0728 -54.9828C57.8019 -54.7119 58.6248 -54.5765 59.5415 -54.5765C60.4165 -54.5765 61.2186 -54.7015 61.9478 -54.9515C62.6769 -55.2015 63.3228 -55.5661 63.8853 -56.0453C64.5936 -56.6286 65.1873 -57.3578 65.6665 -58.2328C66.1665 -59.1286 66.5623 -60.139 66.854 -61.264C67.0832 -62.139 67.2498 -63.0973 67.354 -64.139C67.479 -65.1807 67.5415 -66.264 67.5415 -67.389V-74.0765Z" fill="black"/>
<path d="M72.6978 16.5625H54.0103V29.4062H75.854V36.5H45.1978V-9H75.7603V-1.84375H54.0103V9.625H72.6978V16.5625Z" fill="black"/>
</g>
<defs>
<clipPath id="clip0_118_11432">
<rect width="25" height="29" fill="white"/>
</clipPath>
</defs>
</svg>
