<svg xmlns="http://www.w3.org/2000/svg" width="25" height="29" fill="none"><g clip-path="url(#a)"><path fill="var(--white)" d="M0 0h25v29H0z"/><path fill="var(--background)" d="M0-145h150V29H0z"/><path fill="var(--black)" fill-rule="evenodd" d="M149-144H1V28h148zM0-145V29h150v-174z" clip-rule="evenodd"/><path fill="var(--black)" d="m24.063-75-6.25-45.5h8.03l3.032 25.438.219 1.78.281-1.874 3.594-25.344h6.281l4.094 27.406.218-1.906 3.094-25.5h8.063L48.406-75H40.47L36.5-99.562l-.344-2.313-.343 2.313L32-75zM129.719-94.406a28.49 28.49 0 0 1-.531 5.594 23.42 23.42 0 0 1-1.532 4.874 19.233 19.233 0 0 1-2.625 4.126 14.89 14.89 0 0 1-3.562 3.124 15.623 15.623 0 0 1-4 1.688c-1.438.417-2.99.625-4.657.625-1.77 0-3.406-.23-4.906-.687A15.13 15.13 0 0 1 103.812-77a16.081 16.081 0 0 1-3.25-3.156 18.54 18.54 0 0 1-2.406-4.219c-.583-1.437-1.031-3-1.344-4.687a31.353 31.353 0 0 1-.437-5.344v-6.625c0-2 .167-3.896.5-5.688.354-1.791.865-3.448 1.531-4.969a18.702 18.702 0 0 1 2.344-3.906 15.172 15.172 0 0 1 3.219-3c1.187-.812 2.521-1.437 4-1.875 1.479-.437 3.083-.656 4.812-.656 1.75 0 3.386.229 4.907.687 1.541.438 2.927 1.073 4.156 1.907a13.65 13.65 0 0 1 3.218 2.875 18.645 18.645 0 0 1 2.407 3.718c.729 1.542 1.281 3.23 1.656 5.063.396 1.833.594 3.781.594 5.844zm-8.907-6.688c0-1.166-.062-2.271-.187-3.312a17.15 17.15 0 0 0-.531-2.938c-.313-1.125-.729-2.125-1.25-3-.521-.896-1.136-1.625-1.844-2.187a6.562 6.562 0 0 0-1.906-.969c-.688-.229-1.459-.344-2.313-.344-.812 0-1.552.104-2.219.313a5.821 5.821 0 0 0-1.75.906c-.708.583-1.312 1.313-1.812 2.187-.479.876-.854 1.896-1.125 3.063a22.872 22.872 0 0 0-.469 2.937 43.003 43.003 0 0 0-.125 3.344v6.688c0 1.104.042 2.166.125 3.187.084 1.021.229 1.969.438 2.844a13.24 13.24 0 0 0 1 3.031c.458.896.989 1.625 1.594 2.188.562.5 1.197.885 1.906 1.156.729.27 1.552.406 2.468.406.876 0 1.678-.125 2.407-.375a5.907 5.907 0 0 0 1.937-1.094c.709-.583 1.302-1.312 1.782-2.187.5-.896.895-1.906 1.187-3.031.229-.875.396-1.834.5-2.875.125-1.042.187-2.125.187-3.25zM36.531-8h-6.656V9h-8.781v-45.5h15.25c2.52 0 4.802.302 6.843.906 2.042.584 3.792 1.448 5.25 2.594a11.37 11.37 0 0 1 3.313 4.281c.792 1.709 1.188 3.688 1.188 5.938 0 1.625-.198 3.093-.594 4.406-.375 1.292-.917 2.448-1.625 3.469a12.04 12.04 0 0 1-2.625 2.719 16.78 16.78 0 0 1-3.375 2L54.5 8.593V9h-9.406zm-6.656-7.125h6.5c1.354 0 2.542-.187 3.563-.562 1.041-.396 1.885-.959 2.53-1.688a5.663 5.663 0 0 0 1.22-2.094c.291-.812.437-1.718.437-2.718 0-1.209-.187-2.271-.562-3.188-.355-.937-.896-1.708-1.626-2.312-.645-.542-1.437-.959-2.374-1.25-.938-.292-2.01-.438-3.22-.438h-6.468zM111.531-9.687l-4.812 5.28V9h-8.813v-45.5h8.813v20.844l4.125-5.563L121.906-36.5h10.75l-15.312 20.125L133.219 9h-10.438z"/></g><defs><clipPath id="a"><path fill="var(--white)" d="M0 0h25v29H0z"/></clipPath></defs></svg>