<svg width="25" height="29" viewBox="0 0 25 29" fill="none" xmlns="http://www.w3.org/2000/svg">
<g clip-path="url(#clip0_118_11442)">
<rect width="25" height="29" fill="white"/>
<path d="M-25 -145H125V29H-25V-145Z" fill="#E3E3E3"/>
<path fill-rule="evenodd" clip-rule="evenodd" d="M124 -144H-24V28H124V-144ZM-25 -145V29H125V-145H-25Z" fill="black"/>
<path d="M29.2592 -76.9828H20.5717V-96.7015H7.69672V-76.9828H-1.02203V-122.483H7.69672V-103.827H20.5717V-122.483H29.2592V-76.9828Z" fill="black"/>
<path d="M10.0092 -37L14.3217 -19.9062L19.228 -37H30.1342V8.5H22.0717V-4.96875L22.4467 -26.25L16.478 -6.5H12.1342L6.79047 -25.4062L7.16547 -4.96875V8.5H-0.897034V-37H10.0092Z" fill="black"/>
<path d="M101.448 -96.389C101.448 -94.4307 101.271 -92.5661 100.917 -90.7953C100.562 -89.0453 100.052 -87.4203 99.3853 -85.9203C98.6769 -84.4203 97.8019 -83.0453 96.7603 -81.7953C95.7186 -80.5453 94.5311 -79.5036 93.1978 -78.6703C91.9894 -77.9411 90.6561 -77.3786 89.1978 -76.9828C87.7603 -76.5661 86.2082 -76.3578 84.5415 -76.3578C82.7707 -76.3578 81.1353 -76.5869 79.6353 -77.0453C78.1353 -77.5036 76.7707 -78.1494 75.5415 -78.9828C74.3332 -79.8578 73.2498 -80.9098 72.2915 -82.139C71.3332 -83.389 70.5311 -84.7953 69.8853 -86.3578C69.3019 -87.7953 68.854 -89.3578 68.5415 -91.0453C68.2498 -92.7328 68.104 -94.514 68.104 -96.389V-103.014C68.104 -105.014 68.2707 -106.91 68.604 -108.702C68.9582 -110.493 69.4686 -112.149 70.1353 -113.67C70.7811 -115.108 71.5623 -116.41 72.479 -117.577C73.4165 -118.743 74.4894 -119.743 75.6978 -120.577C76.8853 -121.389 78.2186 -122.014 79.6978 -122.452C81.1769 -122.889 82.7811 -123.108 84.5103 -123.108C86.2603 -123.108 87.8957 -122.879 89.4165 -122.42C90.9582 -121.983 92.3436 -121.347 93.5728 -120.514C94.8019 -119.722 95.8748 -118.764 96.7915 -117.639C97.729 -116.514 98.5311 -115.274 99.1978 -113.92C99.9269 -112.379 100.479 -110.691 100.854 -108.858C101.25 -107.024 101.448 -105.077 101.448 -103.014V-96.389ZM92.5415 -103.077C92.5415 -104.243 92.479 -105.347 92.354 -106.389C92.2498 -107.452 92.0728 -108.431 91.8228 -109.327C91.5103 -110.452 91.0936 -111.452 90.5728 -112.327C90.0519 -113.222 89.4373 -113.952 88.729 -114.514C88.1665 -114.931 87.5311 -115.254 86.8228 -115.483C86.1353 -115.712 85.3644 -115.827 84.5103 -115.827C83.6978 -115.827 82.9582 -115.722 82.2915 -115.514C81.6457 -115.306 81.0623 -115.004 80.5415 -114.608C79.8332 -114.024 79.229 -113.295 78.729 -112.42C78.2498 -111.545 77.8748 -110.524 77.604 -109.358C77.3957 -108.462 77.2394 -107.483 77.1353 -106.42C77.0519 -105.358 77.0103 -104.243 77.0103 -103.077V-96.389C77.0103 -95.2848 77.0519 -94.2223 77.1353 -93.2015C77.2186 -92.1807 77.3644 -91.2328 77.5728 -90.3578C77.8019 -89.2536 78.1353 -88.2432 78.5728 -87.3265C79.0311 -86.4307 79.5623 -85.7015 80.1665 -85.139C80.729 -84.639 81.3644 -84.2536 82.0728 -83.9828C82.8019 -83.7119 83.6248 -83.5765 84.5415 -83.5765C85.4165 -83.5765 86.2186 -83.7015 86.9478 -83.9515C87.6769 -84.2015 88.3228 -84.5661 88.8853 -85.0453C89.5936 -85.6286 90.1873 -86.3578 90.6665 -87.2328C91.1665 -88.1286 91.5623 -89.139 91.854 -90.264C92.0832 -91.139 92.2498 -92.0973 92.354 -93.139C92.479 -94.1807 92.5415 -95.264 92.5415 -96.389V-103.077Z" fill="black"/>
<path d="M97.6978 -12.4375H79.0103V0.40625H100.854V7.5H70.1978V-38H100.76V-30.8438H79.0103V-19.375H97.6978V-12.4375Z" fill="black"/>
</g>
<defs>
<clipPath id="clip0_118_11442">
<rect width="25" height="29" fill="white"/>
</clipPath>
</defs>
</svg>
