<svg width="25" height="29" viewBox="0 0 25 29" fill="none" xmlns="http://www.w3.org/2000/svg">
<g clip-path="url(#clip0_118_11446)">
<rect width="25" height="29" fill="white"/>
<path d="M-75 -145H75V29H-75V-145Z" fill="var(--background)"/>
<path fill-rule="evenodd" clip-rule="evenodd" d="M74 -144H-74V28H74V-144ZM-75 -145V29H75V-145H-75Z" fill="black"/>
<path d="M-20.7408 -76.9828H-29.4283V-96.7015H-42.3033V-76.9828H-51.022V-122.483H-42.3033V-103.827H-29.4283V-122.483H-20.7408V-76.9828Z" fill="black"/>
<path d="M-39.9908 -37L-35.6783 -19.9062L-30.772 -37H-19.8658V8.5H-27.9283V-4.96875L-27.5533 -26.25L-33.522 -6.5H-37.8658L-43.2095 -25.4062L-42.8345 -4.96875V8.5H-50.897V-37H-39.9908Z" fill="black"/>
<path d="M51.4478 -96.389C51.4478 -94.4307 51.2707 -92.5661 50.9165 -90.7953C50.5623 -89.0453 50.0519 -87.4203 49.3853 -85.9203C48.6769 -84.4203 47.8019 -83.0453 46.7603 -81.7953C45.7186 -80.5453 44.5311 -79.5036 43.1978 -78.6703C41.9894 -77.9411 40.6561 -77.3786 39.1978 -76.9828C37.7603 -76.5661 36.2082 -76.3578 34.5415 -76.3578C32.7707 -76.3578 31.1353 -76.5869 29.6353 -77.0453C28.1353 -77.5036 26.7707 -78.1494 25.5415 -78.9828C24.3332 -79.8578 23.2498 -80.9098 22.2915 -82.139C21.3332 -83.389 20.5311 -84.7953 19.8853 -86.3578C19.3019 -87.7953 18.854 -89.3578 18.5415 -91.0453C18.2498 -92.7328 18.104 -94.514 18.104 -96.389V-103.014C18.104 -105.014 18.2707 -106.91 18.604 -108.702C18.9582 -110.493 19.4686 -112.149 20.1353 -113.67C20.7811 -115.108 21.5623 -116.41 22.479 -117.577C23.4165 -118.743 24.4894 -119.743 25.6978 -120.577C26.8853 -121.389 28.2186 -122.014 29.6978 -122.452C31.1769 -122.889 32.7811 -123.108 34.5103 -123.108C36.2603 -123.108 37.8957 -122.879 39.4165 -122.42C40.9582 -121.983 42.3436 -121.347 43.5728 -120.514C44.8019 -119.722 45.8748 -118.764 46.7915 -117.639C47.729 -116.514 48.5311 -115.274 49.1978 -113.92C49.9269 -112.379 50.479 -110.691 50.854 -108.858C51.2498 -107.024 51.4478 -105.077 51.4478 -103.014V-96.389ZM42.5415 -103.077C42.5415 -104.243 42.479 -105.347 42.354 -106.389C42.2498 -107.452 42.0728 -108.431 41.8228 -109.327C41.5103 -110.452 41.0936 -111.452 40.5728 -112.327C40.0519 -113.222 39.4373 -113.952 38.729 -114.514C38.1665 -114.931 37.5311 -115.254 36.8228 -115.483C36.1353 -115.712 35.3644 -115.827 34.5103 -115.827C33.6978 -115.827 32.9582 -115.722 32.2915 -115.514C31.6457 -115.306 31.0623 -115.004 30.5415 -114.608C29.8332 -114.024 29.229 -113.295 28.729 -112.42C28.2498 -111.545 27.8748 -110.524 27.604 -109.358C27.3957 -108.462 27.2394 -107.483 27.1353 -106.42C27.0519 -105.358 27.0103 -104.243 27.0103 -103.077V-96.389C27.0103 -95.2848 27.0519 -94.2223 27.1353 -93.2015C27.2186 -92.1807 27.3644 -91.2328 27.5728 -90.3578C27.8019 -89.2536 28.1353 -88.2432 28.5728 -87.3265C29.0311 -86.4307 29.5623 -85.7015 30.1665 -85.139C30.729 -84.639 31.3644 -84.2536 32.0728 -83.9828C32.8019 -83.7119 33.6248 -83.5765 34.5415 -83.5765C35.4165 -83.5765 36.2186 -83.7015 36.9478 -83.9515C37.6769 -84.2015 38.3228 -84.5661 38.8853 -85.0453C39.5936 -85.6286 40.1873 -86.3578 40.6665 -87.2328C41.1665 -88.1286 41.5623 -89.139 41.854 -90.264C42.0832 -91.139 42.2498 -92.0973 42.354 -93.139C42.479 -94.1807 42.5415 -95.264 42.5415 -96.389V-103.077Z" fill="black"/>
<path d="M47.6978 -12.4375H29.0103V0.40625H50.854V7.5H20.1978V-38H50.7603V-30.8438H29.0103V-19.375H47.6978V-12.4375Z" fill="black"/>
</g>
<defs>
<clipPath id="clip0_118_11446">
<rect width="25" height="29" fill="white"/>
</clipPath>
</defs>
</svg>
