<svg width="25" height="29" viewBox="0 0 25 29" fill="none" xmlns="http://www.w3.org/2000/svg">
<g clip-path="url(#clip0_118_11448)">
<rect width="25" height="29" fill="white"/>
<path d="M-100 -145H50V29H-100V-145Z" fill="var(--background)"/>
<path fill-rule="evenodd" clip-rule="evenodd" d="M49 -144H-99V28H49V-144ZM-100 -145V29H50V-145H-100Z" fill="black"/>
<path d="M-45.7408 -76.9828H-54.4283V-96.7015H-67.3033V-76.9828H-76.022V-122.483H-67.3033V-103.827H-54.4283V-122.483H-45.7408V-76.9828Z" fill="black"/>
<path d="M-64.9908 -37L-60.6783 -19.9062L-55.772 -37H-44.8658V8.5H-52.9283V-4.96875L-52.5533 -26.25L-58.522 -6.5H-62.8658L-68.2095 -25.4062L-67.8345 -4.96875V8.5H-75.897V-37H-64.9908Z" fill="black"/>
<path d="M26.4478 -96.389C26.4478 -94.4307 26.2707 -92.5661 25.9165 -90.7953C25.5623 -89.0453 25.0519 -87.4203 24.3853 -85.9203C23.6769 -84.4203 22.8019 -83.0453 21.7603 -81.7953C20.7186 -80.5453 19.5311 -79.5036 18.1978 -78.6703C16.9894 -77.9411 15.6561 -77.3786 14.1978 -76.9828C12.7603 -76.5661 11.2082 -76.3578 9.5415 -76.3578C7.77067 -76.3578 6.13525 -76.5869 4.63525 -77.0453C3.13525 -77.5036 1.77067 -78.1494 0.541504 -78.9828C-0.666832 -79.8578 -1.75016 -80.9098 -2.7085 -82.139C-3.66683 -83.389 -4.46891 -84.7953 -5.11475 -86.3578C-5.69808 -87.7953 -6.146 -89.3578 -6.4585 -91.0453C-6.75016 -92.7328 -6.896 -94.514 -6.896 -96.389V-103.014C-6.896 -105.014 -6.72933 -106.91 -6.396 -108.702C-6.04183 -110.493 -5.53141 -112.149 -4.86475 -113.67C-4.21891 -115.108 -3.43766 -116.41 -2.521 -117.577C-1.5835 -118.743 -0.510582 -119.743 0.697754 -120.577C1.88525 -121.389 3.21859 -122.014 4.69775 -122.452C6.17692 -122.889 7.78109 -123.108 9.51025 -123.108C11.2603 -123.108 12.8957 -122.879 14.4165 -122.42C15.9582 -121.983 17.3436 -121.347 18.5728 -120.514C19.8019 -119.722 20.8748 -118.764 21.7915 -117.639C22.729 -116.514 23.5311 -115.274 24.1978 -113.92C24.9269 -112.379 25.479 -110.691 25.854 -108.858C26.2498 -107.024 26.4478 -105.077 26.4478 -103.014V-96.389ZM17.5415 -103.077C17.5415 -104.243 17.479 -105.347 17.354 -106.389C17.2498 -107.452 17.0728 -108.431 16.8228 -109.327C16.5103 -110.452 16.0936 -111.452 15.5728 -112.327C15.0519 -113.222 14.4373 -113.952 13.729 -114.514C13.1665 -114.931 12.5311 -115.254 11.8228 -115.483C11.1353 -115.712 10.3644 -115.827 9.51025 -115.827C8.69775 -115.827 7.95817 -115.722 7.2915 -115.514C6.64567 -115.306 6.06234 -115.004 5.5415 -114.608C4.83317 -114.024 4.229 -113.295 3.729 -112.42C3.24984 -111.545 2.87484 -110.524 2.604 -109.358C2.39567 -108.462 2.23942 -107.483 2.13525 -106.42C2.05192 -105.358 2.01025 -104.243 2.01025 -103.077V-96.389C2.01025 -95.2848 2.05192 -94.2223 2.13525 -93.2015C2.21859 -92.1807 2.36442 -91.2328 2.57275 -90.3578C2.80192 -89.2536 3.13525 -88.2432 3.57275 -87.3265C4.03109 -86.4307 4.56234 -85.7015 5.1665 -85.139C5.729 -84.639 6.36442 -84.2536 7.07275 -83.9828C7.80192 -83.7119 8.62484 -83.5765 9.5415 -83.5765C10.4165 -83.5765 11.2186 -83.7015 11.9478 -83.9515C12.6769 -84.2015 13.3228 -84.5661 13.8853 -85.0453C14.5936 -85.6286 15.1873 -86.3578 15.6665 -87.2328C16.1665 -88.1286 16.5623 -89.139 16.854 -90.264C17.0832 -91.139 17.2498 -92.0973 17.354 -93.139C17.479 -94.1807 17.5415 -95.264 17.5415 -96.389V-103.077Z" fill="black"/>
<path d="M22.6978 -12.4375H4.01025V0.40625H25.854V7.5H-4.80225V-38H25.7603V-30.8438H4.01025V-19.375H22.6978V-12.4375Z" fill="black"/>
</g>
<defs>
<clipPath id="clip0_118_11448">
<rect width="25" height="29" fill="white"/>
</clipPath>
</defs>
</svg>
