<svg width="25" height="29" viewBox="0 0 25 29" fill="none" xmlns="http://www.w3.org/2000/svg">
<g clip-path="url(#clip0_118_11388)">
<rect width="25" height="29" fill="white"/>
<path d="M-100 0H50V174H-100V0Z" fill="var(--background)"/>
<path fill-rule="evenodd" clip-rule="evenodd" d="M49 1H-99V173H49V1ZM-100 0V174H50V0H-100Z" fill="black"/>
<path d="M-45.7408 68.0172H-54.4283V48.2985H-67.3033V68.0172H-76.022V22.5172H-67.3033V41.1735H-54.4283V22.5172H-45.7408V68.0172Z" fill="black"/>
<path d="M-64.9908 108L-60.6783 125.094L-55.772 108H-44.8658V153.5H-52.9283V140.031L-52.5533 118.75L-58.522 138.5H-62.8658L-68.2095 119.594L-67.8345 140.031V153.5H-75.897V108H-64.9908Z" fill="black"/>
<path d="M26.4478 48.611C26.4478 50.5693 26.2707 52.4339 25.9165 54.2047C25.5623 55.9547 25.0519 57.5797 24.3853 59.0797C23.6769 60.5797 22.8019 61.9547 21.7603 63.2047C20.7186 64.4547 19.5311 65.4964 18.1978 66.3297C16.9894 67.0589 15.6561 67.6214 14.1978 68.0172C12.7603 68.4339 11.2082 68.6422 9.5415 68.6422C7.77067 68.6422 6.13525 68.4131 4.63525 67.9547C3.13525 67.4964 1.77067 66.8506 0.541504 66.0172C-0.666832 65.1422 -1.75016 64.0902 -2.7085 62.861C-3.66683 61.611 -4.46891 60.2047 -5.11475 58.6422C-5.69808 57.2047 -6.146 55.6422 -6.4585 53.9547C-6.75016 52.2672 -6.896 50.486 -6.896 48.611V41.986C-6.896 39.986 -6.72933 38.0902 -6.396 36.2985C-6.04183 34.5068 -5.53141 32.8506 -4.86475 31.3297C-4.21891 29.8922 -3.43766 28.5902 -2.521 27.4235C-1.5835 26.2568 -0.510582 25.2568 0.697754 24.4235C1.88525 23.611 3.21859 22.986 4.69775 22.5485C6.17692 22.111 7.78109 21.8922 9.51025 21.8922C11.2603 21.8922 12.8957 22.1214 14.4165 22.5797C15.9582 23.0172 17.3436 23.6527 18.5728 24.486C19.8019 25.2777 20.8748 26.236 21.7915 27.361C22.729 28.486 23.5311 29.7256 24.1978 31.0797C24.9269 32.6214 25.479 34.3089 25.854 36.1422C26.2498 37.9756 26.4478 39.9235 26.4478 41.986V48.611ZM17.5415 41.9235C17.5415 40.7568 17.479 39.6527 17.354 38.611C17.2498 37.5485 17.0728 36.5693 16.8228 35.6735C16.5103 34.5485 16.0936 33.5485 15.5728 32.6735C15.0519 31.7777 14.4373 31.0485 13.729 30.486C13.1665 30.0693 12.5311 29.7464 11.8228 29.5172C11.1353 29.2881 10.3644 29.1735 9.51025 29.1735C8.69775 29.1735 7.95817 29.2777 7.2915 29.486C6.64567 29.6943 6.06234 29.9964 5.5415 30.3922C4.83317 30.9756 4.229 31.7047 3.729 32.5797C3.24984 33.4547 2.87484 34.4756 2.604 35.6422C2.39567 36.5381 2.23942 37.5172 2.13525 38.5797C2.05192 39.6422 2.01025 40.7568 2.01025 41.9235V48.611C2.01025 49.7152 2.05192 50.7777 2.13525 51.7985C2.21859 52.8193 2.36442 53.7672 2.57275 54.6422C2.80192 55.7464 3.13525 56.7568 3.57275 57.6735C4.03109 58.5693 4.56234 59.2985 5.1665 59.861C5.729 60.361 6.36442 60.7464 7.07275 61.0172C7.80192 61.2881 8.62484 61.4235 9.5415 61.4235C10.4165 61.4235 11.2186 61.2985 11.9478 61.0485C12.6769 60.7985 13.3228 60.4339 13.8853 59.9547C14.5936 59.3714 15.1873 58.6422 15.6665 57.7672C16.1665 56.8714 16.5623 55.861 16.854 54.736C17.0832 53.861 17.2498 52.9027 17.354 51.861C17.479 50.8193 17.5415 49.736 17.5415 48.611V41.9235Z" fill="black"/>
<path d="M22.6978 132.562H4.01025V145.406H25.854V152.5H-4.80225V107H25.7603V114.156H4.01025V125.625H22.6978V132.562Z" fill="black"/>
</g>
<defs>
<clipPath id="clip0_118_11388">
<rect width="25" height="29" fill="white"/>
</clipPath>
</defs>
</svg>
