<svg width="25" height="29" viewBox="0 0 25 29" fill="none" xmlns="http://www.w3.org/2000/svg">
<g clip-path="url(#clip0_118_11396)">
<rect width="25" height="29" fill="white"/>
<path d="M-50 -29H100V145H-50V-29Z" fill="#E3E3E3"/>
<path fill-rule="evenodd" clip-rule="evenodd" d="M99 -28H-49V144H99V-28ZM-50 -29V145H100V-29H-50Z" fill="black"/>
<path d="M4.25922 39.0172H-4.42828V19.2985H-17.3033V39.0172H-26.022V-6.48276H-17.3033V12.1735H-4.42828V-6.48276H4.25922V39.0172Z" fill="black"/>
<path d="M-14.9908 79L-10.6783 96.0938L-5.77203 79H5.13422V124.5H-2.92828V111.031L-2.55328 89.75L-8.52203 109.5H-12.8658L-18.2095 90.5938L-17.8345 111.031V124.5H-25.897V79H-14.9908Z" fill="black"/>
<path d="M76.4478 19.611C76.4478 21.5693 76.2707 23.4339 75.9165 25.2047C75.5623 26.9547 75.0519 28.5797 74.3853 30.0797C73.6769 31.5797 72.8019 32.9547 71.7603 34.2047C70.7186 35.4547 69.5311 36.4964 68.1978 37.3297C66.9894 38.0589 65.6561 38.6214 64.1978 39.0172C62.7603 39.4339 61.2082 39.6422 59.5415 39.6422C57.7707 39.6422 56.1353 39.4131 54.6353 38.9547C53.1353 38.4964 51.7707 37.8506 50.5415 37.0172C49.3332 36.1422 48.2498 35.0902 47.2915 33.861C46.3332 32.611 45.5311 31.2047 44.8853 29.6422C44.3019 28.2047 43.854 26.6422 43.5415 24.9547C43.2498 23.2672 43.104 21.486 43.104 19.611V12.986C43.104 10.986 43.2707 9.09016 43.604 7.29849C43.9582 5.50682 44.4686 3.85057 45.1353 2.32974C45.7811 0.892242 46.5623 -0.409842 47.479 -1.57651C48.4165 -2.74317 49.4894 -3.74317 50.6978 -4.57651C51.8853 -5.38901 53.2186 -6.01401 54.6978 -6.45151C56.1769 -6.88901 57.7811 -7.10776 59.5103 -7.10776C61.2603 -7.10776 62.8957 -6.87859 64.4165 -6.42026C65.9582 -5.98276 67.3436 -5.34734 68.5728 -4.51401C69.8019 -3.72234 70.8748 -2.76401 71.7915 -1.63901C72.729 -0.514008 73.5311 0.725576 74.1978 2.07974C74.9269 3.62141 75.479 5.30891 75.854 7.14224C76.2498 8.97557 76.4478 10.9235 76.4478 12.986V19.611ZM67.5415 12.9235C67.5415 11.7568 67.479 10.6527 67.354 9.61099C67.2498 8.54849 67.0728 7.56932 66.8228 6.67349C66.5103 5.54849 66.0936 4.54849 65.5728 3.67349C65.0519 2.77766 64.4373 2.04849 63.729 1.48599C63.1665 1.06933 62.5311 0.746408 61.8228 0.517242C61.1353 0.288076 60.3644 0.173492 59.5103 0.173492C58.6978 0.173492 57.9582 0.277658 57.2915 0.485992C56.6457 0.694326 56.0623 0.996408 55.5415 1.39224C54.8332 1.97558 54.229 2.70474 53.729 3.57974C53.2498 4.45474 52.8748 5.47557 52.604 6.64224C52.3957 7.53807 52.2394 8.51724 52.1353 9.57974C52.0519 10.6422 52.0103 11.7568 52.0103 12.9235V19.611C52.0103 20.7152 52.0519 21.7777 52.1353 22.7985C52.2186 23.8193 52.3644 24.7672 52.5728 25.6422C52.8019 26.7464 53.1353 27.7568 53.5728 28.6735C54.0311 29.5693 54.5623 30.2985 55.1665 30.861C55.729 31.361 56.3644 31.7464 57.0728 32.0172C57.8019 32.2881 58.6248 32.4235 59.5415 32.4235C60.4165 32.4235 61.2186 32.2985 61.9478 32.0485C62.6769 31.7985 63.3228 31.4339 63.8853 30.9547C64.5936 30.3714 65.1873 29.6422 65.6665 28.7672C66.1665 27.8714 66.5623 26.861 66.854 25.736C67.0832 24.861 67.2498 23.9027 67.354 22.861C67.479 21.8193 67.5415 20.736 67.5415 19.611V12.9235Z" fill="black"/>
<path d="M72.6978 103.562H54.0103V116.406H75.854V123.5H45.1978V78H75.7603V85.1562H54.0103V96.625H72.6978V103.562Z" fill="black"/>
</g>
<defs>
<clipPath id="clip0_118_11396">
<rect width="25" height="29" fill="white"/>
</clipPath>
</defs>
</svg>
