<svg xmlns="http://www.w3.org/2000/svg" width="25" height="29" fill="none"><g clip-path="url(#a)"><path fill="var(--white)" d="M0 0h25v29H0z"/><path fill="var(--background)" d="M-100-29H50v174h-150z"/><path fill="var(--black)" fill-rule="evenodd" d="M49-28H-99v172H49zm-149-1v174H50V-29z" clip-rule="evenodd"/><path fill="var(--black)" d="M-48.875 41h-8.687V21.281h-12.876V41h-8.718V-4.5h8.719v18.656h12.874V-4.5h8.688zM29.719 21.594c0 1.958-.177 3.823-.532 5.593a23.39 23.39 0 0 1-1.53 4.875 19.256 19.256 0 0 1-2.626 4.126 14.898 14.898 0 0 1-3.562 3.124 15.61 15.61 0 0 1-4 1.688c-1.438.417-2.99.625-4.657.625-1.77 0-3.406-.23-4.906-.687A15.116 15.116 0 0 1 3.813 39a16.056 16.056 0 0 1-3.25-3.156 18.52 18.52 0 0 1-2.407-4.219 24.12 24.12 0 0 1-1.343-4.687 31.356 31.356 0 0 1-.438-5.344v-6.625c0-2 .167-3.896.5-5.688.354-1.791.865-3.448 1.531-4.969A18.681 18.681 0 0 1 .75.406a15.14 15.14 0 0 1 3.219-3c1.187-.812 2.52-1.437 4-1.875 1.479-.437 3.083-.656 4.812-.656 1.75 0 3.386.23 4.906.688 1.542.437 2.928 1.072 4.157 1.906A13.68 13.68 0 0 1 25.062.344a18.652 18.652 0 0 1 2.407 3.719c.729 1.541 1.281 3.229 1.656 5.062.396 1.833.594 3.781.594 5.844zm-8.907-6.688c0-1.166-.062-2.27-.187-3.312a17.167 17.167 0 0 0-.531-2.938c-.313-1.125-.73-2.125-1.25-3C18.323 4.76 17.708 4.031 17 3.47a6.577 6.577 0 0 0-1.906-.969c-.688-.23-1.459-.344-2.313-.344-.812 0-1.552.104-2.219.313-.645.208-1.229.51-1.75.906C8.105 3.958 7.5 4.688 7 5.563c-.48.875-.854 1.895-1.125 3.062a22.835 22.835 0 0 0-.469 2.938 42.812 42.812 0 0 0-.125 3.343v6.688a39.2 39.2 0 0 0 .125 3.187c.084 1.021.23 1.969.438 2.844.229 1.104.562 2.115 1 3.031.458.896.99 1.625 1.593 2.188.563.5 1.198.885 1.907 1.156.729.27 1.552.406 2.469.406.874 0 1.677-.125 2.406-.375a5.912 5.912 0 0 0 1.937-1.093 7.394 7.394 0 0 0 1.782-2.188c.5-.896.895-1.906 1.187-3.031.23-.875.396-1.834.5-2.875.125-1.042.188-2.125.188-3.25zM-68.125 79.5l4.313 17.094 4.906-17.094H-48V125h-8.062v-13.469l.374-21.281-5.968 19.75H-66l-5.344-18.906.375 20.437V125h-8.062V79.5zM25.969 105.062H7.28v12.844h21.844V125H-1.531V79.5H29.03v7.156H7.281v11.469H25.97z"/></g><defs><clipPath id="a"><path fill="var(--white)" d="M0 0h25v29H0z"/></clipPath></defs></svg>