<svg xmlns="http://www.w3.org/2000/svg" width="25" height="29" fill="none"><g clip-path="url(#a)"><path fill="var(--white)" d="M0 0h25v29H0z"/><path fill="var(--background)" d="M-125-29H25v174h-150z"/><path fill="var(--black)" fill-rule="evenodd" d="M24-28h-148v172H24zm-149-1v174H25V-29z" clip-rule="evenodd"/><path fill="var(--black)" d="M-73.875 41h-8.687V21.281h-12.876V41h-8.718V-4.5h8.719v18.656h12.874V-4.5h8.688zM4.719 21.594c0 1.958-.177 3.823-.532 5.593a23.39 23.39 0 0 1-1.53 4.875A19.259 19.259 0 0 1 .03 36.189a14.9 14.9 0 0 1-3.562 3.124 15.608 15.608 0 0 1-4 1.688c-1.438.417-2.99.625-4.656.625-1.771 0-3.407-.23-4.907-.687A15.116 15.116 0 0 1-21.187 39a16.056 16.056 0 0 1-3.25-3.156 18.523 18.523 0 0 1-2.407-4.219c-.583-1.437-1.031-3-1.343-4.687a31.353 31.353 0 0 1-.438-5.344v-6.625c0-2 .167-3.896.5-5.688.354-1.791.865-3.448 1.531-4.969A18.683 18.683 0 0 1-24.25.406a15.14 15.14 0 0 1 3.219-3c1.187-.812 2.52-1.437 4-1.875 1.479-.437 3.083-.656 4.812-.656 1.75 0 3.386.23 4.906.688C-5.77-4-4.384-3.365-3.155-2.532-1.927-1.74-.854-.781.063.344a18.65 18.65 0 0 1 2.406 3.719c.729 1.541 1.281 3.229 1.656 5.062.396 1.833.594 3.781.594 5.844zm-8.907-6.688c0-1.166-.062-2.27-.187-3.312a17.164 17.164 0 0 0-.531-2.938c-.313-1.125-.73-2.125-1.25-3C-6.677 4.76-7.292 4.031-8 3.47A6.577 6.577 0 0 0-9.906 2.5c-.688-.23-1.459-.344-2.313-.344-.812 0-1.552.104-2.219.313-.645.208-1.229.51-1.75.906-.708.583-1.312 1.313-1.812 2.188-.48.875-.854 1.895-1.125 3.062a22.846 22.846 0 0 0-.469 2.938 42.826 42.826 0 0 0-.125 3.343v6.688c0 1.104.042 2.166.125 3.187.084 1.021.23 1.969.438 2.844.229 1.104.562 2.115 1 3.031.458.896.99 1.625 1.593 2.188A6.15 6.15 0 0 0-14.655 34c.729.27 1.552.406 2.469.406.874 0 1.677-.125 2.406-.375a5.913 5.913 0 0 0 1.937-1.093 7.395 7.395 0 0 0 1.782-2.188c.5-.896.895-1.906 1.187-3.031.23-.875.396-1.834.5-2.875.125-1.042.188-2.125.188-3.25zM-93.125 79.5l4.313 17.094 4.906-17.094H-73V125h-8.062v-13.469l.374-21.281-5.968 19.75H-91l-5.344-18.906.375 20.437V125h-8.062V79.5zM.969 105.062H-17.72v12.844H4.125V125h-30.656V79.5H4.03v7.156h-21.75v11.469H.97z"/></g><defs><clipPath id="a"><path fill="var(--white)" d="M0 0h25v29H0z"/></clipPath></defs></svg>