<svg width="25" height="29" viewBox="0 0 25 29" fill="none" xmlns="http://www.w3.org/2000/svg">
<g clip-path="url(#clip0_118_11402)">
<rect width="25" height="29" fill="white"/>
<path d="M-125 -29H25V145H-125V-29Z" fill="var(--background)"/>
<path fill-rule="evenodd" clip-rule="evenodd" d="M24 -28H-124V144H24V-28ZM-125 -29V145H25V-29H-125Z" fill="black"/>
<path d="M-70.7408 39.0172H-79.4283V19.2985H-92.3033V39.0172H-101.022V-6.48276H-92.3033V12.1735H-79.4283V-6.48276H-70.7408V39.0172Z" fill="black"/>
<path d="M-89.9908 79L-85.6783 96.0938L-80.772 79H-69.8658V124.5H-77.9283V111.031L-77.5533 89.75L-83.522 109.5H-87.8658L-93.2095 90.5938L-92.8345 111.031V124.5H-100.897V79H-89.9908Z" fill="black"/>
<path d="M1.44775 19.611C1.44775 21.5693 1.27067 23.4339 0.916504 25.2047C0.56234 26.9547 0.051918 28.5797 -0.614746 30.0797C-1.32308 31.5797 -2.19808 32.9547 -3.23975 34.2047C-4.28141 35.4547 -5.46891 36.4964 -6.80225 37.3297C-8.01058 38.0589 -9.34391 38.6214 -10.8022 39.0172C-12.2397 39.4339 -13.7918 39.6422 -15.4585 39.6422C-17.2293 39.6422 -18.8647 39.4131 -20.3647 38.9547C-21.8647 38.4964 -23.2293 37.8506 -24.4585 37.0172C-25.6668 36.1422 -26.7502 35.0902 -27.7085 33.861C-28.6668 32.611 -29.4689 31.2047 -30.1147 29.6422C-30.6981 28.2047 -31.146 26.6422 -31.4585 24.9547C-31.7502 23.2672 -31.896 21.486 -31.896 19.611V12.986C-31.896 10.986 -31.7293 9.09016 -31.396 7.29849C-31.0418 5.50682 -30.5314 3.85057 -29.8647 2.32974C-29.2189 0.892242 -28.4377 -0.409842 -27.521 -1.57651C-26.5835 -2.74317 -25.5106 -3.74317 -24.3022 -4.57651C-23.1147 -5.38901 -21.7814 -6.01401 -20.3022 -6.45151C-18.8231 -6.88901 -17.2189 -7.10776 -15.4897 -7.10776C-13.7397 -7.10776 -12.1043 -6.87859 -10.5835 -6.42026C-9.04183 -5.98276 -7.65641 -5.34734 -6.42725 -4.51401C-5.19808 -3.72234 -4.12516 -2.76401 -3.2085 -1.63901C-2.271 -0.514008 -1.46891 0.725576 -0.802246 2.07974C-0.073082 3.62141 0.479004 5.30891 0.854004 7.14224C1.24984 8.97557 1.44775 10.9235 1.44775 12.986V19.611ZM-7.4585 12.9235C-7.4585 11.7568 -7.521 10.6527 -7.646 9.61099C-7.75016 8.54849 -7.92725 7.56932 -8.17725 6.67349C-8.48975 5.54849 -8.90641 4.54849 -9.42725 3.67349C-9.94808 2.77766 -10.5627 2.04849 -11.271 1.48599C-11.8335 1.06933 -12.4689 0.746408 -13.1772 0.517242C-13.8647 0.288076 -14.6356 0.173492 -15.4897 0.173492C-16.3022 0.173492 -17.0418 0.277658 -17.7085 0.485992C-18.3543 0.694326 -18.9377 0.996408 -19.4585 1.39224C-20.1668 1.97558 -20.771 2.70474 -21.271 3.57974C-21.7502 4.45474 -22.1252 5.47557 -22.396 6.64224C-22.6043 7.53807 -22.7606 8.51724 -22.8647 9.57974C-22.9481 10.6422 -22.9897 11.7568 -22.9897 12.9235V19.611C-22.9897 20.7152 -22.9481 21.7777 -22.8647 22.7985C-22.7814 23.8193 -22.6356 24.7672 -22.4272 25.6422C-22.1981 26.7464 -21.8647 27.7568 -21.4272 28.6735C-20.9689 29.5693 -20.4377 30.2985 -19.8335 30.861C-19.271 31.361 -18.6356 31.7464 -17.9272 32.0172C-17.1981 32.2881 -16.3752 32.4235 -15.4585 32.4235C-14.5835 32.4235 -13.7814 32.2985 -13.0522 32.0485C-12.3231 31.7985 -11.6772 31.4339 -11.1147 30.9547C-10.4064 30.3714 -9.81266 29.6422 -9.3335 28.7672C-8.8335 27.8714 -8.43766 26.861 -8.146 25.736C-7.91683 24.861 -7.75016 23.9027 -7.646 22.861C-7.521 21.8193 -7.4585 20.736 -7.4585 19.611V12.9235Z" fill="black"/>
<path d="M-2.30225 103.562H-20.9897V116.406H0.854004V123.5H-29.8022V78H0.760254V85.1562H-20.9897V96.625H-2.30225V103.562Z" fill="black"/>
</g>
<defs>
<clipPath id="clip0_118_11402">
<rect width="25" height="29" fill="white"/>
</clipPath>
</defs>
</svg>
