<svg width="25" height="29" viewBox="0 0 25 29" fill="none" xmlns="http://www.w3.org/2000/svg">
<g clip-path="url(#clip0_118_11412)">
<rect width="25" height="29" fill="white"/>
<path d="M-100 -58H50V116H-100V-58Z" fill="var(--background)"/>
<path fill-rule="evenodd" clip-rule="evenodd" d="M49 -57H-99V115H49V-57ZM-100 -58V116H50V-58H-100Z" fill="black"/>
<path d="M-45.7408 10.0172H-54.4283V-9.70151H-67.3033V10.0172H-76.022V-35.4828H-67.3033V-16.8265H-54.4283V-35.4828H-45.7408V10.0172Z" fill="black"/>
<path d="M-64.9908 50L-60.6783 67.0938L-55.772 50H-44.8658V95.5H-52.9283V82.0312L-52.5533 60.75L-58.522 80.5H-62.8658L-68.2095 61.5938L-67.8345 82.0312V95.5H-75.897V50H-64.9908Z" fill="black"/>
<path d="M26.4478 -9.38901C26.4478 -7.43068 26.2707 -5.56609 25.9165 -3.79526C25.5623 -2.04526 25.0519 -0.420258 24.3853 1.07974C23.6769 2.57974 22.8019 3.95474 21.7603 5.20474C20.7186 6.45474 19.5311 7.49641 18.1978 8.32974C16.9894 9.05891 15.6561 9.62141 14.1978 10.0172C12.7603 10.4339 11.2082 10.6422 9.5415 10.6422C7.77067 10.6422 6.13525 10.4131 4.63525 9.95474C3.13525 9.49641 1.77067 8.85058 0.541504 8.01724C-0.666832 7.14224 -1.75016 6.09016 -2.7085 4.86099C-3.66683 3.61099 -4.46891 2.20474 -5.11475 0.642242C-5.69808 -0.795258 -6.146 -2.35776 -6.4585 -4.04526C-6.75016 -5.73276 -6.896 -7.51401 -6.896 -9.38901V-16.014C-6.896 -18.014 -6.72933 -19.9098 -6.396 -21.7015C-6.04183 -23.4932 -5.53141 -25.1494 -4.86475 -26.6703C-4.21891 -28.1078 -3.43766 -29.4098 -2.521 -30.5765C-1.5835 -31.7432 -0.510582 -32.7432 0.697754 -33.5765C1.88525 -34.389 3.21859 -35.014 4.69775 -35.4515C6.17692 -35.889 7.78109 -36.1078 9.51025 -36.1078C11.2603 -36.1078 12.8957 -35.8786 14.4165 -35.4203C15.9582 -34.9828 17.3436 -34.3473 18.5728 -33.514C19.8019 -32.7223 20.8748 -31.764 21.7915 -30.639C22.729 -29.514 23.5311 -28.2744 24.1978 -26.9203C24.9269 -25.3786 25.479 -23.6911 25.854 -21.8578C26.2498 -20.0244 26.4478 -18.0765 26.4478 -16.014V-9.38901ZM17.5415 -16.0765C17.5415 -17.2432 17.479 -18.3473 17.354 -19.389C17.2498 -20.4515 17.0728 -21.4307 16.8228 -22.3265C16.5103 -23.4515 16.0936 -24.4515 15.5728 -25.3265C15.0519 -26.2223 14.4373 -26.9515 13.729 -27.514C13.1665 -27.9307 12.5311 -28.2536 11.8228 -28.4828C11.1353 -28.7119 10.3644 -28.8265 9.51025 -28.8265C8.69775 -28.8265 7.95817 -28.7223 7.2915 -28.514C6.64567 -28.3057 6.06234 -28.0036 5.5415 -27.6078C4.83317 -27.0244 4.229 -26.2953 3.729 -25.4203C3.24984 -24.5453 2.87484 -23.5244 2.604 -22.3578C2.39567 -21.4619 2.23942 -20.4828 2.13525 -19.4203C2.05192 -18.3578 2.01025 -17.2432 2.01025 -16.0765V-9.38901C2.01025 -8.28484 2.05192 -7.22234 2.13525 -6.20151C2.21859 -5.18068 2.36442 -4.23276 2.57275 -3.35776C2.80192 -2.25359 3.13525 -1.24318 3.57275 -0.326508C4.03109 0.569324 4.56234 1.29849 5.1665 1.86099C5.729 2.36099 6.36442 2.74641 7.07275 3.01724C7.80192 3.28807 8.62484 3.42349 9.5415 3.42349C10.4165 3.42349 11.2186 3.29849 11.9478 3.04849C12.6769 2.79849 13.3228 2.43391 13.8853 1.95474C14.5936 1.37141 15.1873 0.642242 15.6665 -0.232758C16.1665 -1.12859 16.5623 -2.13901 16.854 -3.26401C17.0832 -4.13901 17.2498 -5.09734 17.354 -6.13901C17.479 -7.18068 17.5415 -8.26401 17.5415 -9.38901V-16.0765Z" fill="black"/>
<path d="M22.6978 74.5625H4.01025V87.4062H25.854V94.5H-4.80225V49H25.7603V56.1562H4.01025V67.625H22.6978V74.5625Z" fill="black"/>
</g>
<defs>
<clipPath id="clip0_118_11412">
<rect width="25" height="29" fill="white"/>
</clipPath>
</defs>
</svg>
