<svg xmlns="http://www.w3.org/2000/svg" width="25" height="29" fill="none"><g clip-path="url(#a)"><path fill="var(--white)" d="M0 0h25v29H0z"/><path fill="var(--background)" d="M-25 0h150v174H-25z"/><path fill="var(--black)" fill-rule="evenodd" d="M124 1H-24v172h148zM-25 0v174h150V0z" clip-rule="evenodd"/><path fill="var(--black)" d="M26.125 70h-8.687V50.281H4.563V70h-8.72V24.5h8.72v18.656h12.875V24.5h8.687zM104.719 50.594a28.49 28.49 0 0 1-.531 5.593 23.42 23.42 0 0 1-1.532 4.876 19.233 19.233 0 0 1-2.625 4.124 14.894 14.894 0 0 1-3.562 3.126 15.61 15.61 0 0 1-4 1.687c-1.438.417-2.99.625-4.656.625-1.771 0-3.407-.23-4.907-.687A15.116 15.116 0 0 1 78.812 68a16.056 16.056 0 0 1-3.25-3.156 18.523 18.523 0 0 1-2.406-4.219c-.583-1.437-1.031-3-1.344-4.687a31.353 31.353 0 0 1-.437-5.344v-6.625c0-2 .167-3.896.5-5.688.354-1.791.865-3.448 1.531-4.968a18.684 18.684 0 0 1 2.344-3.907 15.143 15.143 0 0 1 3.219-3c1.187-.812 2.52-1.437 4-1.875 1.479-.437 3.083-.656 4.812-.656 1.75 0 3.386.23 4.906.688 1.542.437 2.928 1.072 4.157 1.906 1.229.791 2.302 1.75 3.218 2.875a18.644 18.644 0 0 1 2.407 3.718c.729 1.542 1.281 3.23 1.656 5.063.396 1.833.594 3.781.594 5.844zm-8.906-6.688c0-1.166-.063-2.27-.188-3.312a17.17 17.17 0 0 0-.531-2.938c-.313-1.125-.73-2.125-1.25-3-.521-.896-1.136-1.625-1.844-2.187a6.577 6.577 0 0 0-1.906-.969c-.688-.23-1.459-.344-2.313-.344-.812 0-1.552.104-2.219.313-.645.208-1.229.51-1.75.906-.708.583-1.312 1.313-1.812 2.188-.48.874-.854 1.895-1.125 3.062a22.845 22.845 0 0 0-.469 2.938 42.826 42.826 0 0 0-.125 3.343v6.688c0 1.104.042 2.166.125 3.187.084 1.021.23 1.969.438 2.844.229 1.104.562 2.115 1 3.031.458.896.99 1.625 1.594 2.188A6.15 6.15 0 0 0 85.344 63c.729.27 1.552.406 2.469.406.874 0 1.677-.125 2.406-.375a5.912 5.912 0 0 0 1.937-1.093 7.394 7.394 0 0 0 1.781-2.188c.5-.896.896-1.906 1.188-3.031.23-.875.396-1.834.5-2.875.125-1.042.188-2.125.188-3.25zM6.875 108.5l4.313 17.094 4.906-17.094H27V154h-8.062v-13.469l.375-21.281-5.97 19.75H9l-5.344-18.906.375 20.437V154H-4.03v-45.5zM100.969 134.062H82.281v12.844h21.844V154H73.469v-45.5h30.562v7.156h-21.75v11.469h18.688z"/></g><defs><clipPath id="a"><path fill="var(--white)" d="M0 0h25v29H0z"/></clipPath></defs></svg>