<svg width="25" height="29" viewBox="0 0 25 29" fill="none" xmlns="http://www.w3.org/2000/svg">
<g clip-path="url(#clip0_118_11418)">
<rect width="25" height="29" fill="white"/>
<path d="M-25 -87H125V87H-25V-87Z" fill="var(--background)"/>
<path fill-rule="evenodd" clip-rule="evenodd" d="M124 -86H-24V86H124V-86ZM-25 -87V87H125V-87H-25Z" fill="black"/>
<path d="M29.2592 -18.9828H20.5717V-38.7015H7.69672V-18.9828H-1.02203V-64.4828H7.69672V-45.8265H20.5717V-64.4828H29.2592V-18.9828Z" fill="black"/>
<path d="M10.0092 21L14.3217 38.0938L19.228 21H30.1342V66.5H22.0717V53.0312L22.4467 31.75L16.478 51.5H12.1342L6.79047 32.5938L7.16547 53.0312V66.5H-0.897034V21H10.0092Z" fill="black"/>
<path d="M101.448 -38.389C101.448 -36.4307 101.271 -34.5661 100.917 -32.7953C100.562 -31.0453 100.052 -29.4203 99.3853 -27.9203C98.6769 -26.4203 97.8019 -25.0453 96.7603 -23.7953C95.7186 -22.5453 94.5311 -21.5036 93.1978 -20.6703C91.9894 -19.9411 90.6561 -19.3786 89.1978 -18.9828C87.7603 -18.5661 86.2082 -18.3578 84.5415 -18.3578C82.7707 -18.3578 81.1353 -18.5869 79.6353 -19.0453C78.1353 -19.5036 76.7707 -20.1494 75.5415 -20.9828C74.3332 -21.8578 73.2498 -22.9098 72.2915 -24.139C71.3332 -25.389 70.5311 -26.7953 69.8853 -28.3578C69.3019 -29.7953 68.854 -31.3578 68.5415 -33.0453C68.2498 -34.7328 68.104 -36.514 68.104 -38.389V-45.014C68.104 -47.014 68.2707 -48.9098 68.604 -50.7015C68.9582 -52.4932 69.4686 -54.1494 70.1353 -55.6703C70.7811 -57.1078 71.5623 -58.4098 72.479 -59.5765C73.4165 -60.7432 74.4894 -61.7432 75.6978 -62.5765C76.8853 -63.389 78.2186 -64.014 79.6978 -64.4515C81.1769 -64.889 82.7811 -65.1078 84.5103 -65.1078C86.2603 -65.1078 87.8957 -64.8786 89.4165 -64.4203C90.9582 -63.9828 92.3436 -63.3473 93.5728 -62.514C94.8019 -61.7223 95.8748 -60.764 96.7915 -59.639C97.729 -58.514 98.5311 -57.2744 99.1978 -55.9203C99.9269 -54.3786 100.479 -52.6911 100.854 -50.8578C101.25 -49.0244 101.448 -47.0765 101.448 -45.014V-38.389ZM92.5415 -45.0765C92.5415 -46.2432 92.479 -47.3473 92.354 -48.389C92.2498 -49.4515 92.0728 -50.4307 91.8228 -51.3265C91.5103 -52.4515 91.0936 -53.4515 90.5728 -54.3265C90.0519 -55.2223 89.4373 -55.9515 88.729 -56.514C88.1665 -56.9307 87.5311 -57.2536 86.8228 -57.4828C86.1353 -57.7119 85.3644 -57.8265 84.5103 -57.8265C83.6978 -57.8265 82.9582 -57.7223 82.2915 -57.514C81.6457 -57.3057 81.0623 -57.0036 80.5415 -56.6078C79.8332 -56.0244 79.229 -55.2953 78.729 -54.4203C78.2498 -53.5453 77.8748 -52.5244 77.604 -51.3578C77.3957 -50.4619 77.2394 -49.4828 77.1353 -48.4203C77.0519 -47.3578 77.0103 -46.2432 77.0103 -45.0765V-38.389C77.0103 -37.2848 77.0519 -36.2223 77.1353 -35.2015C77.2186 -34.1807 77.3644 -33.2328 77.5728 -32.3578C77.8019 -31.2536 78.1353 -30.2432 78.5728 -29.3265C79.0311 -28.4307 79.5623 -27.7015 80.1665 -27.139C80.729 -26.639 81.3644 -26.2536 82.0728 -25.9828C82.8019 -25.7119 83.6248 -25.5765 84.5415 -25.5765C85.4165 -25.5765 86.2186 -25.7015 86.9478 -25.9515C87.6769 -26.2015 88.3228 -26.5661 88.8853 -27.0453C89.5936 -27.6286 90.1873 -28.3578 90.6665 -29.2328C91.1665 -30.1286 91.5623 -31.139 91.854 -32.264C92.0832 -33.139 92.2498 -34.0973 92.354 -35.139C92.479 -36.1807 92.5415 -37.264 92.5415 -38.389V-45.0765Z" fill="black"/>
<path d="M97.6978 45.5625H79.0103V58.4062H100.854V65.5H70.1978V20H100.76V27.1562H79.0103V38.625H97.6978V45.5625Z" fill="black"/>
</g>
<defs>
<clipPath id="clip0_118_11418">
<rect width="25" height="29" fill="white"/>
</clipPath>
</defs>
</svg>
