<svg xmlns="http://www.w3.org/2000/svg" width="25" height="29" fill="none"><g clip-path="url(#a)"><path fill="var(--white)" d="M0 0h25v29H0z"/><path fill="var(--background)" d="M-75-87H75V87H-75z"/><path fill="var(--black)" fill-rule="evenodd" d="M74-86H-74V86H74zm-149-1V87H75V-87z" clip-rule="evenodd"/><path fill="var(--black)" d="M-23.875-17h-8.687v-19.719h-12.876V-17h-8.718v-45.5h8.718v18.656h12.876V-62.5h8.687zM54.719-36.406c0 1.958-.177 3.823-.532 5.593a23.39 23.39 0 0 1-1.53 4.875 19.256 19.256 0 0 1-2.626 4.125 14.898 14.898 0 0 1-3.562 3.125 15.61 15.61 0 0 1-4 1.688c-1.438.417-2.99.625-4.657.625-1.77 0-3.406-.23-4.906-.687A15.116 15.116 0 0 1 28.813-19a16.056 16.056 0 0 1-3.25-3.156 18.523 18.523 0 0 1-2.407-4.219c-.583-1.437-1.031-3-1.343-4.687a31.353 31.353 0 0 1-.438-5.344v-6.625c0-2 .167-3.896.5-5.688.354-1.791.865-3.448 1.531-4.968a18.684 18.684 0 0 1 2.344-3.907 15.143 15.143 0 0 1 3.219-3c1.187-.812 2.52-1.437 4-1.875 1.479-.437 3.083-.656 4.812-.656 1.75 0 3.386.23 4.907.688 1.541.437 2.927 1.072 4.156 1.906 1.229.791 2.302 1.75 3.218 2.875a18.65 18.65 0 0 1 2.407 3.718c.729 1.542 1.281 3.23 1.656 5.063.396 1.833.594 3.781.594 5.844zm-8.907-6.688c0-1.166-.062-2.27-.187-3.312a17.17 17.17 0 0 0-.531-2.938c-.313-1.125-.73-2.125-1.25-3-.521-.896-1.136-1.625-1.844-2.187a6.577 6.577 0 0 0-1.906-.969c-.688-.23-1.459-.344-2.313-.344-.812 0-1.552.104-2.218.313-.646.208-1.23.51-1.75.906-.709.583-1.313 1.313-1.813 2.188-.48.874-.854 1.895-1.125 3.062a22.845 22.845 0 0 0-.469 2.938 42.826 42.826 0 0 0-.125 3.343v6.688c0 1.104.042 2.166.125 3.187.084 1.021.23 1.969.438 2.844.229 1.104.562 2.115 1 3.031.458.896.99 1.625 1.593 2.188A6.15 6.15 0 0 0 35.345-24c.729.27 1.552.406 2.468.406.876 0 1.678-.125 2.407-.375a5.912 5.912 0 0 0 1.937-1.093 7.394 7.394 0 0 0 1.782-2.188c.5-.896.895-1.906 1.187-3.031.23-.875.396-1.834.5-2.875.125-1.042.188-2.125.188-3.25zM-43.125 21.5l4.313 17.094 4.906-17.094H-23V67h-8.062V53.531l.375-21.281-5.97 19.75H-41l-5.344-18.906.375 20.437V67h-8.062V21.5zM50.969 47.063H32.28v12.843h21.844V67H23.469V21.5H54.03v7.156h-21.75v11.469H50.97z"/></g><defs><clipPath id="a"><path fill="var(--white)" d="M0 0h25v29H0z"/></clipPath></defs></svg>