<svg width="25" height="29" viewBox="0 0 25 29" fill="none" xmlns="http://www.w3.org/2000/svg">
<g clip-path="url(#clip0_118_11424)">
<rect width="25" height="29" fill="white"/>
<path d="M-100 -87H50V87H-100V-87Z" fill="#E3E3E3"/>
<path fill-rule="evenodd" clip-rule="evenodd" d="M49 -86H-99V86H49V-86ZM-100 -87V87H50V-87H-100Z" fill="black"/>
<path d="M-45.7408 -18.9828H-54.4283V-38.7015H-67.3033V-18.9828H-76.022V-64.4828H-67.3033V-45.8265H-54.4283V-64.4828H-45.7408V-18.9828Z" fill="black"/>
<path d="M-64.9908 21L-60.6783 38.0938L-55.772 21H-44.8658V66.5H-52.9283V53.0312L-52.5533 31.75L-58.522 51.5H-62.8658L-68.2095 32.5938L-67.8345 53.0312V66.5H-75.897V21H-64.9908Z" fill="black"/>
<path d="M26.4478 -38.389C26.4478 -36.4307 26.2707 -34.5661 25.9165 -32.7953C25.5623 -31.0453 25.0519 -29.4203 24.3853 -27.9203C23.6769 -26.4203 22.8019 -25.0453 21.7603 -23.7953C20.7186 -22.5453 19.5311 -21.5036 18.1978 -20.6703C16.9894 -19.9411 15.6561 -19.3786 14.1978 -18.9828C12.7603 -18.5661 11.2082 -18.3578 9.5415 -18.3578C7.77067 -18.3578 6.13525 -18.5869 4.63525 -19.0453C3.13525 -19.5036 1.77067 -20.1494 0.541504 -20.9828C-0.666832 -21.8578 -1.75016 -22.9098 -2.7085 -24.139C-3.66683 -25.389 -4.46891 -26.7953 -5.11475 -28.3578C-5.69808 -29.7953 -6.146 -31.3578 -6.4585 -33.0453C-6.75016 -34.7328 -6.896 -36.514 -6.896 -38.389V-45.014C-6.896 -47.014 -6.72933 -48.9098 -6.396 -50.7015C-6.04183 -52.4932 -5.53141 -54.1494 -4.86475 -55.6703C-4.21891 -57.1078 -3.43766 -58.4098 -2.521 -59.5765C-1.5835 -60.7432 -0.510582 -61.7432 0.697754 -62.5765C1.88525 -63.389 3.21859 -64.014 4.69775 -64.4515C6.17692 -64.889 7.78109 -65.1078 9.51025 -65.1078C11.2603 -65.1078 12.8957 -64.8786 14.4165 -64.4203C15.9582 -63.9828 17.3436 -63.3473 18.5728 -62.514C19.8019 -61.7223 20.8748 -60.764 21.7915 -59.639C22.729 -58.514 23.5311 -57.2744 24.1978 -55.9203C24.9269 -54.3786 25.479 -52.6911 25.854 -50.8578C26.2498 -49.0244 26.4478 -47.0765 26.4478 -45.014V-38.389ZM17.5415 -45.0765C17.5415 -46.2432 17.479 -47.3473 17.354 -48.389C17.2498 -49.4515 17.0728 -50.4307 16.8228 -51.3265C16.5103 -52.4515 16.0936 -53.4515 15.5728 -54.3265C15.0519 -55.2223 14.4373 -55.9515 13.729 -56.514C13.1665 -56.9307 12.5311 -57.2536 11.8228 -57.4828C11.1353 -57.7119 10.3644 -57.8265 9.51025 -57.8265C8.69775 -57.8265 7.95817 -57.7223 7.2915 -57.514C6.64567 -57.3057 6.06234 -57.0036 5.5415 -56.6078C4.83317 -56.0244 4.229 -55.2953 3.729 -54.4203C3.24984 -53.5453 2.87484 -52.5244 2.604 -51.3578C2.39567 -50.4619 2.23942 -49.4828 2.13525 -48.4203C2.05192 -47.3578 2.01025 -46.2432 2.01025 -45.0765V-38.389C2.01025 -37.2848 2.05192 -36.2223 2.13525 -35.2015C2.21859 -34.1807 2.36442 -33.2328 2.57275 -32.3578C2.80192 -31.2536 3.13525 -30.2432 3.57275 -29.3265C4.03109 -28.4307 4.56234 -27.7015 5.1665 -27.139C5.729 -26.639 6.36442 -26.2536 7.07275 -25.9828C7.80192 -25.7119 8.62484 -25.5765 9.5415 -25.5765C10.4165 -25.5765 11.2186 -25.7015 11.9478 -25.9515C12.6769 -26.2015 13.3228 -26.5661 13.8853 -27.0453C14.5936 -27.6286 15.1873 -28.3578 15.6665 -29.2328C16.1665 -30.1286 16.5623 -31.139 16.854 -32.264C17.0832 -33.139 17.2498 -34.0973 17.354 -35.139C17.479 -36.1807 17.5415 -37.264 17.5415 -38.389V-45.0765Z" fill="black"/>
<path d="M22.6978 45.5625H4.01025V58.4062H25.854V65.5H-4.80225V20H25.7603V27.1562H4.01025V38.625H22.6978V45.5625Z" fill="black"/>
</g>
<defs>
<clipPath id="clip0_118_11424">
<rect width="25" height="29" fill="white"/>
</clipPath>
</defs>
</svg>
