<svg xmlns="http://www.w3.org/2000/svg" width="25" height="29" fill="none"><g clip-path="url(#a)"><path fill="var(--white)" d="M0 0h25v29H0z"/><path fill="var(--background)" d="M0-116h150V58H0z"/><path fill="var(--black)" fill-rule="evenodd" d="M149-115H1V57h148zM0-116V58h150v-174z" clip-rule="evenodd"/><path fill="var(--black)" d="M51.125-46h-8.687v-19.719H29.562V-46h-8.718v-45.5h8.718v18.656h12.875V-91.5h8.688zM129.719-65.406a28.49 28.49 0 0 1-.531 5.594 23.42 23.42 0 0 1-1.532 4.874 19.233 19.233 0 0 1-2.625 4.126 14.89 14.89 0 0 1-3.562 3.124 15.623 15.623 0 0 1-4 1.688c-1.438.417-2.99.625-4.657.625-1.77 0-3.406-.23-4.906-.687A15.13 15.13 0 0 1 103.812-48a16.081 16.081 0 0 1-3.25-3.156 18.54 18.54 0 0 1-2.406-4.219c-.583-1.437-1.031-3-1.344-4.687a31.353 31.353 0 0 1-.437-5.344v-6.625c0-2 .167-3.896.5-5.688.354-1.791.865-3.448 1.531-4.969a18.684 18.684 0 0 1 2.344-3.906 15.141 15.141 0 0 1 3.219-3c1.187-.812 2.521-1.437 4-1.875 1.479-.437 3.083-.656 4.812-.656 1.75 0 3.386.23 4.907.688 1.541.437 2.927 1.072 4.156 1.906a13.663 13.663 0 0 1 3.218 2.875 18.644 18.644 0 0 1 2.407 3.719c.729 1.541 1.281 3.229 1.656 5.062.396 1.833.594 3.781.594 5.844zm-8.907-6.688c0-1.166-.062-2.27-.187-3.312a17.15 17.15 0 0 0-.531-2.938c-.313-1.125-.729-2.125-1.25-3-.521-.896-1.136-1.625-1.844-2.187a6.574 6.574 0 0 0-1.906-.969c-.688-.23-1.459-.344-2.313-.344-.812 0-1.552.104-2.219.313a5.833 5.833 0 0 0-1.75.906c-.708.583-1.312 1.313-1.812 2.188-.479.874-.854 1.895-1.125 3.062a22.86 22.86 0 0 0-.469 2.938 42.974 42.974 0 0 0-.125 3.343v6.688c0 1.104.042 2.166.125 3.187.084 1.021.229 1.969.438 2.844a13.24 13.24 0 0 0 1 3.031c.458.896.989 1.625 1.594 2.188.562.5 1.197.885 1.906 1.156.729.27 1.552.406 2.468.406.876 0 1.678-.125 2.407-.375a5.907 5.907 0 0 0 1.937-1.093c.709-.584 1.302-1.313 1.782-2.188.5-.896.895-1.906 1.187-3.031.229-.875.396-1.834.5-2.875.125-1.042.187-2.125.187-3.25zM31.875-7.5l4.313 17.094L41.094-7.5H52V38h-8.062V24.531l.374-21.281L38.345 23H34L28.656 4.094l.375 20.437V38H20.97V-7.5zM125.969 18.063h-18.688v12.843h21.844V38H98.469V-7.5h30.562v7.156h-21.75v11.469h18.688z"/></g><defs><clipPath id="a"><path fill="var(--white)" d="M0 0h25v29H0z"/></clipPath></defs></svg>