<svg width="25" height="29" viewBox="0 0 25 29" fill="none" xmlns="http://www.w3.org/2000/svg">
<g clip-path="url(#clip0_118_11436)">
<rect width="25" height="29" fill="white"/>
<path d="M-100 -116H50V58H-100V-116Z" fill="var(--background)"/>
<path fill-rule="evenodd" clip-rule="evenodd" d="M49 -115H-99V57H49V-115ZM-100 -116V58H50V-116H-100Z" fill="black"/>
<path d="M-45.7408 -47.9828H-54.4283V-67.7015H-67.3033V-47.9828H-76.022V-93.4828H-67.3033V-74.8265H-54.4283V-93.4828H-45.7408V-47.9828Z" fill="black"/>
<path d="M-64.9908 -8L-60.6783 9.09375L-55.772 -8H-44.8658V37.5H-52.9283V24.0312L-52.5533 2.75L-58.522 22.5H-62.8658L-68.2095 3.59375L-67.8345 24.0312V37.5H-75.897V-8H-64.9908Z" fill="black"/>
<path d="M26.4478 -67.389C26.4478 -65.4307 26.2707 -63.5661 25.9165 -61.7953C25.5623 -60.0453 25.0519 -58.4203 24.3853 -56.9203C23.6769 -55.4203 22.8019 -54.0453 21.7603 -52.7953C20.7186 -51.5453 19.5311 -50.5036 18.1978 -49.6703C16.9894 -48.9411 15.6561 -48.3786 14.1978 -47.9828C12.7603 -47.5661 11.2082 -47.3578 9.5415 -47.3578C7.77067 -47.3578 6.13525 -47.5869 4.63525 -48.0453C3.13525 -48.5036 1.77067 -49.1494 0.541504 -49.9828C-0.666832 -50.8578 -1.75016 -51.9098 -2.7085 -53.139C-3.66683 -54.389 -4.46891 -55.7953 -5.11475 -57.3578C-5.69808 -58.7953 -6.146 -60.3578 -6.4585 -62.0453C-6.75016 -63.7328 -6.896 -65.514 -6.896 -67.389V-74.014C-6.896 -76.014 -6.72933 -77.9098 -6.396 -79.7015C-6.04183 -81.4932 -5.53141 -83.1494 -4.86475 -84.6703C-4.21891 -86.1078 -3.43766 -87.4098 -2.521 -88.5765C-1.5835 -89.7432 -0.510582 -90.7432 0.697754 -91.5765C1.88525 -92.389 3.21859 -93.014 4.69775 -93.4515C6.17692 -93.889 7.78109 -94.1078 9.51025 -94.1078C11.2603 -94.1078 12.8957 -93.8786 14.4165 -93.4203C15.9582 -92.9828 17.3436 -92.3473 18.5728 -91.514C19.8019 -90.7223 20.8748 -89.764 21.7915 -88.639C22.729 -87.514 23.5311 -86.2744 24.1978 -84.9203C24.9269 -83.3786 25.479 -81.6911 25.854 -79.8578C26.2498 -78.0244 26.4478 -76.0765 26.4478 -74.014V-67.389ZM17.5415 -74.0765C17.5415 -75.2432 17.479 -76.3473 17.354 -77.389C17.2498 -78.4515 17.0728 -79.4307 16.8228 -80.3265C16.5103 -81.4515 16.0936 -82.4515 15.5728 -83.3265C15.0519 -84.2223 14.4373 -84.9515 13.729 -85.514C13.1665 -85.9307 12.5311 -86.2536 11.8228 -86.4828C11.1353 -86.7119 10.3644 -86.8265 9.51025 -86.8265C8.69775 -86.8265 7.95817 -86.7223 7.2915 -86.514C6.64567 -86.3057 6.06234 -86.0036 5.5415 -85.6078C4.83317 -85.0244 4.229 -84.2953 3.729 -83.4203C3.24984 -82.5453 2.87484 -81.5244 2.604 -80.3578C2.39567 -79.4619 2.23942 -78.4828 2.13525 -77.4203C2.05192 -76.3578 2.01025 -75.2432 2.01025 -74.0765V-67.389C2.01025 -66.2848 2.05192 -65.2223 2.13525 -64.2015C2.21859 -63.1807 2.36442 -62.2328 2.57275 -61.3578C2.80192 -60.2536 3.13525 -59.2432 3.57275 -58.3265C4.03109 -57.4307 4.56234 -56.7015 5.1665 -56.139C5.729 -55.639 6.36442 -55.2536 7.07275 -54.9828C7.80192 -54.7119 8.62484 -54.5765 9.5415 -54.5765C10.4165 -54.5765 11.2186 -54.7015 11.9478 -54.9515C12.6769 -55.2015 13.3228 -55.5661 13.8853 -56.0453C14.5936 -56.6286 15.1873 -57.3578 15.6665 -58.2328C16.1665 -59.1286 16.5623 -60.139 16.854 -61.264C17.0832 -62.139 17.2498 -63.0973 17.354 -64.139C17.479 -65.1807 17.5415 -66.264 17.5415 -67.389V-74.0765Z" fill="black"/>
<path d="M22.6978 16.5625H4.01025V29.4062H25.854V36.5H-4.80225V-9H25.7603V-1.84375H4.01025V9.625H22.6978V16.5625Z" fill="black"/>
</g>
<defs>
<clipPath id="clip0_118_11436">
<rect width="25" height="29" fill="white"/>
</clipPath>
</defs>
</svg>
