<svg width="25" height="29" viewBox="0 0 25 29" fill="none" xmlns="http://www.w3.org/2000/svg">
<g clip-path="url(#clip0_118_11384)">
<rect width="25" height="29" fill="white"/>
<path d="M-50 0H100V174H-50V0Z" fill="var(--background)"/>
<path fill-rule="evenodd" clip-rule="evenodd" d="M99 1H-49V173H99V1ZM-50 0V174H100V0H-50Z" fill="black"/>
<path d="M4.25922 68.0172H-4.42828V48.2985H-17.3033V68.0172H-26.022V22.5172H-17.3033V41.1735H-4.42828V22.5172H4.25922V68.0172Z" fill="black"/>
<path d="M-14.9908 108L-10.6783 125.094L-5.77203 108H5.13422V153.5H-2.92828V140.031L-2.55328 118.75L-8.52203 138.5H-12.8658L-18.2095 119.594L-17.8345 140.031V153.5H-25.897V108H-14.9908Z" fill="black"/>
<path d="M76.4478 48.611C76.4478 50.5693 76.2707 52.4339 75.9165 54.2047C75.5623 55.9547 75.0519 57.5797 74.3853 59.0797C73.6769 60.5797 72.8019 61.9547 71.7603 63.2047C70.7186 64.4547 69.5311 65.4964 68.1978 66.3297C66.9894 67.0589 65.6561 67.6214 64.1978 68.0172C62.7603 68.4339 61.2082 68.6422 59.5415 68.6422C57.7707 68.6422 56.1353 68.4131 54.6353 67.9547C53.1353 67.4964 51.7707 66.8506 50.5415 66.0172C49.3332 65.1422 48.2498 64.0902 47.2915 62.861C46.3332 61.611 45.5311 60.2047 44.8853 58.6422C44.3019 57.2047 43.854 55.6422 43.5415 53.9547C43.2498 52.2672 43.104 50.486 43.104 48.611V41.986C43.104 39.986 43.2707 38.0902 43.604 36.2985C43.9582 34.5068 44.4686 32.8506 45.1353 31.3297C45.7811 29.8922 46.5623 28.5902 47.479 27.4235C48.4165 26.2568 49.4894 25.2568 50.6978 24.4235C51.8853 23.611 53.2186 22.986 54.6978 22.5485C56.1769 22.111 57.7811 21.8922 59.5103 21.8922C61.2603 21.8922 62.8957 22.1214 64.4165 22.5797C65.9582 23.0172 67.3436 23.6527 68.5728 24.486C69.8019 25.2777 70.8748 26.236 71.7915 27.361C72.729 28.486 73.5311 29.7256 74.1978 31.0797C74.9269 32.6214 75.479 34.3089 75.854 36.1422C76.2498 37.9756 76.4478 39.9235 76.4478 41.986V48.611ZM67.5415 41.9235C67.5415 40.7568 67.479 39.6527 67.354 38.611C67.2498 37.5485 67.0728 36.5693 66.8228 35.6735C66.5103 34.5485 66.0936 33.5485 65.5728 32.6735C65.0519 31.7777 64.4373 31.0485 63.729 30.486C63.1665 30.0693 62.5311 29.7464 61.8228 29.5172C61.1353 29.2881 60.3644 29.1735 59.5103 29.1735C58.6978 29.1735 57.9582 29.2777 57.2915 29.486C56.6457 29.6943 56.0623 29.9964 55.5415 30.3922C54.8332 30.9756 54.229 31.7047 53.729 32.5797C53.2498 33.4547 52.8748 34.4756 52.604 35.6422C52.3957 36.5381 52.2394 37.5172 52.1353 38.5797C52.0519 39.6422 52.0103 40.7568 52.0103 41.9235V48.611C52.0103 49.7152 52.0519 50.7777 52.1353 51.7985C52.2186 52.8193 52.3644 53.7672 52.5728 54.6422C52.8019 55.7464 53.1353 56.7568 53.5728 57.6735C54.0311 58.5693 54.5623 59.2985 55.1665 59.861C55.729 60.361 56.3644 60.7464 57.0728 61.0172C57.8019 61.2881 58.6248 61.4235 59.5415 61.4235C60.4165 61.4235 61.2186 61.2985 61.9478 61.0485C62.6769 60.7985 63.3228 60.4339 63.8853 59.9547C64.5936 59.3714 65.1873 58.6422 65.6665 57.7672C66.1665 56.8714 66.5623 55.861 66.854 54.736C67.0832 53.861 67.2498 52.9027 67.354 51.861C67.479 50.8193 67.5415 49.736 67.5415 48.611V41.9235Z" fill="black"/>
<path d="M72.6978 132.562H54.0103V145.406H75.854V152.5H45.1978V107H75.7603V114.156H54.0103V125.625H72.6978V132.562Z" fill="black"/>
</g>
<defs>
<clipPath id="clip0_118_11384">
<rect width="25" height="29" fill="white"/>
</clipPath>
</defs>
</svg>
