<svg xmlns="http://www.w3.org/2000/svg" width="25" height="29" fill="none"><g clip-path="url(#a)"><path fill="var(--white)" d="M0 0h25v29H0z"/><path fill="var(--background)" d="M-125-116H25V58h-150z"/><path fill="var(--black)" fill-rule="evenodd" d="M24-115h-148V57H24zm-149-1V58H25v-174z" clip-rule="evenodd"/><path fill="var(--black)" d="M-73.875-46h-8.687v-19.719h-12.876V-46h-8.718v-45.5h8.719v18.656h12.874V-91.5h8.688zM4.719-65.406c0 1.958-.177 3.823-.532 5.594a23.39 23.39 0 0 1-1.53 4.874A19.259 19.259 0 0 1 .03-50.811a14.9 14.9 0 0 1-3.562 3.124 15.608 15.608 0 0 1-4 1.688c-1.438.417-2.99.625-4.656.625-1.771 0-3.407-.23-4.907-.687A15.116 15.116 0 0 1-21.187-48a16.056 16.056 0 0 1-3.25-3.156 18.523 18.523 0 0 1-2.407-4.219c-.583-1.437-1.031-3-1.343-4.687a31.353 31.353 0 0 1-.438-5.344v-6.625c0-2 .167-3.896.5-5.688.354-1.791.865-3.448 1.531-4.969a18.684 18.684 0 0 1 2.344-3.906 15.143 15.143 0 0 1 3.219-3c1.187-.812 2.52-1.437 4-1.875 1.479-.437 3.083-.656 4.812-.656 1.75 0 3.386.23 4.906.688 1.542.437 2.928 1.072 4.157 1.906 1.229.791 2.302 1.75 3.219 2.875a18.649 18.649 0 0 1 2.406 3.719c.729 1.541 1.281 3.229 1.656 5.062.396 1.833.594 3.781.594 5.844zm-8.907-6.688c0-1.166-.062-2.27-.187-3.312a17.166 17.166 0 0 0-.531-2.938c-.313-1.125-.73-2.125-1.25-3-.521-.896-1.136-1.625-1.844-2.187a6.577 6.577 0 0 0-1.906-.969c-.688-.23-1.459-.344-2.313-.344-.812 0-1.552.104-2.219.313-.645.208-1.229.51-1.75.906-.708.583-1.312 1.313-1.812 2.188-.48.874-.854 1.895-1.125 3.062a22.845 22.845 0 0 0-.469 2.938 42.826 42.826 0 0 0-.125 3.343v6.688c0 1.104.042 2.166.125 3.187.084 1.021.23 1.969.438 2.844.229 1.104.562 2.115 1 3.031.458.896.99 1.625 1.593 2.188A6.15 6.15 0 0 0-14.655-53c.729.27 1.552.406 2.469.406.874 0 1.677-.125 2.406-.375a5.913 5.913 0 0 0 1.937-1.093 7.395 7.395 0 0 0 1.782-2.188c.5-.896.895-1.906 1.187-3.031.23-.875.396-1.834.5-2.875.125-1.042.188-2.125.188-3.25zM-93.125-7.5l4.313 17.094L-83.906-7.5H-73V38h-8.062V24.531l.374-21.281L-86.655 23H-91l-5.344-18.906.375 20.437V38h-8.062V-7.5zM.969 18.063H-17.72v12.843H4.125V38h-30.656V-7.5H4.03v7.156h-21.75v11.469H.97z"/></g><defs><clipPath id="a"><path fill="var(--white)" d="M0 0h25v29H0z"/></clipPath></defs></svg>