<svg width="25" height="29" viewBox="0 0 25 29" fill="none" xmlns="http://www.w3.org/2000/svg">
<g clip-path="url(#clip0_118_11440)">
<rect width="25" height="29" fill="white"/>
<path d="M0 -145H150V29H0V-145Z" fill="var(--background)"/>
<path fill-rule="evenodd" clip-rule="evenodd" d="M149 -144H1V28H149V-144ZM0 -145V29H150V-145H0Z" fill="black"/>
<path d="M54.2592 -76.9828H45.5717V-96.7015H32.6967V-76.9828H23.978V-122.483H32.6967V-103.827H45.5717V-122.483H54.2592V-76.9828Z" fill="black"/>
<path d="M35.0092 -37L39.3217 -19.9062L44.228 -37H55.1342V8.5H47.0717V-4.96875L47.4467 -26.25L41.478 -6.5H37.1342L31.7905 -25.4062L32.1655 -4.96875V8.5H24.103V-37H35.0092Z" fill="black"/>
<path d="M126.448 -96.389C126.448 -94.4307 126.271 -92.5661 125.917 -90.7953C125.562 -89.0453 125.052 -87.4203 124.385 -85.9203C123.677 -84.4203 122.802 -83.0453 121.76 -81.7953C120.719 -80.5453 119.531 -79.5036 118.198 -78.6703C116.989 -77.9411 115.656 -77.3786 114.198 -76.9828C112.76 -76.5661 111.208 -76.3578 109.542 -76.3578C107.771 -76.3578 106.135 -76.5869 104.635 -77.0453C103.135 -77.5036 101.771 -78.1494 100.542 -78.9828C99.3332 -79.8578 98.2498 -80.9098 97.2915 -82.139C96.3332 -83.389 95.5311 -84.7953 94.8853 -86.3578C94.3019 -87.7953 93.854 -89.3578 93.5415 -91.0453C93.2498 -92.7328 93.104 -94.514 93.104 -96.389V-103.014C93.104 -105.014 93.2707 -106.91 93.604 -108.702C93.9582 -110.493 94.4686 -112.149 95.1353 -113.67C95.7811 -115.108 96.5623 -116.41 97.479 -117.577C98.4165 -118.743 99.4894 -119.743 100.698 -120.577C101.885 -121.389 103.219 -122.014 104.698 -122.452C106.177 -122.889 107.781 -123.108 109.51 -123.108C111.26 -123.108 112.896 -122.879 114.417 -122.42C115.958 -121.983 117.344 -121.347 118.573 -120.514C119.802 -119.722 120.875 -118.764 121.792 -117.639C122.729 -116.514 123.531 -115.274 124.198 -113.92C124.927 -112.379 125.479 -110.691 125.854 -108.858C126.25 -107.024 126.448 -105.077 126.448 -103.014V-96.389ZM117.542 -103.077C117.542 -104.243 117.479 -105.347 117.354 -106.389C117.25 -107.452 117.073 -108.431 116.823 -109.327C116.51 -110.452 116.094 -111.452 115.573 -112.327C115.052 -113.222 114.437 -113.952 113.729 -114.514C113.167 -114.931 112.531 -115.254 111.823 -115.483C111.135 -115.712 110.364 -115.827 109.51 -115.827C108.698 -115.827 107.958 -115.722 107.292 -115.514C106.646 -115.306 106.062 -115.004 105.542 -114.608C104.833 -114.024 104.229 -113.295 103.729 -112.42C103.25 -111.545 102.875 -110.524 102.604 -109.358C102.396 -108.462 102.239 -107.483 102.135 -106.42C102.052 -105.358 102.01 -104.243 102.01 -103.077V-96.389C102.01 -95.2848 102.052 -94.2223 102.135 -93.2015C102.219 -92.1807 102.364 -91.2328 102.573 -90.3578C102.802 -89.2536 103.135 -88.2432 103.573 -87.3265C104.031 -86.4307 104.562 -85.7015 105.167 -85.139C105.729 -84.639 106.364 -84.2536 107.073 -83.9828C107.802 -83.7119 108.625 -83.5765 109.542 -83.5765C110.417 -83.5765 111.219 -83.7015 111.948 -83.9515C112.677 -84.2015 113.323 -84.5661 113.885 -85.0453C114.594 -85.6286 115.187 -86.3578 115.667 -87.2328C116.167 -88.1286 116.562 -89.139 116.854 -90.264C117.083 -91.139 117.25 -92.0973 117.354 -93.139C117.479 -94.1807 117.542 -95.264 117.542 -96.389V-103.077Z" fill="black"/>
<path d="M122.698 -12.4375H104.01V0.40625H125.854V7.5H95.1978V-38H125.76V-30.8438H104.01V-19.375H122.698V-12.4375Z" fill="black"/>
</g>
<defs>
<clipPath id="clip0_118_11440">
<rect width="25" height="29" fill="white"/>
</clipPath>
</defs>
</svg>
