<svg xmlns="http://www.w3.org/2000/svg" width="25" height="29" fill="none"><g clip-path="url(#a)"><path fill="var(--white)" d="M0 0h25v29H0z"/><path fill="var(--background)" d="M-25-145h150V29H-25z"/><path fill="var(--black)" fill-rule="evenodd" d="M124-144H-24V28h148zm-149-1V29h150v-174z" clip-rule="evenodd"/><path fill="var(--black)" d="M26.125-75h-8.687v-19.719H4.563V-75h-8.72v-45.5h8.72v18.656h12.875V-120.5h8.687zM104.719-94.406a28.49 28.49 0 0 1-.531 5.594 23.42 23.42 0 0 1-1.532 4.874 19.233 19.233 0 0 1-2.625 4.126 14.894 14.894 0 0 1-3.562 3.124 15.61 15.61 0 0 1-4 1.688c-1.438.417-2.99.625-4.656.625-1.771 0-3.407-.23-4.907-.687A15.116 15.116 0 0 1 78.812-77a16.056 16.056 0 0 1-3.25-3.156 18.523 18.523 0 0 1-2.406-4.219c-.583-1.437-1.031-3-1.344-4.687a31.353 31.353 0 0 1-.437-5.344v-6.625c0-2 .167-3.896.5-5.688.354-1.791.865-3.448 1.531-4.969a18.702 18.702 0 0 1 2.344-3.906 15.173 15.173 0 0 1 3.219-3c1.187-.812 2.52-1.437 4-1.875 1.479-.437 3.083-.656 4.812-.656 1.75 0 3.386.229 4.906.687 1.542.438 2.928 1.073 4.157 1.907 1.229.791 2.302 1.75 3.218 2.875a18.645 18.645 0 0 1 2.407 3.718c.729 1.542 1.281 3.23 1.656 5.063.396 1.833.594 3.781.594 5.844zm-8.906-6.688c0-1.166-.063-2.271-.188-3.312a17.169 17.169 0 0 0-.531-2.938c-.313-1.125-.73-2.125-1.25-3-.521-.896-1.136-1.625-1.844-2.187a6.565 6.565 0 0 0-1.906-.969c-.688-.229-1.459-.344-2.313-.344-.812 0-1.552.104-2.219.313a5.81 5.81 0 0 0-1.75.906c-.708.583-1.312 1.313-1.812 2.187-.48.876-.854 1.896-1.125 3.063a22.856 22.856 0 0 0-.469 2.937 42.855 42.855 0 0 0-.125 3.344v6.688c0 1.104.042 2.166.125 3.187.084 1.021.23 1.969.438 2.844.229 1.104.562 2.115 1 3.031.458.896.99 1.625 1.594 2.188A6.15 6.15 0 0 0 85.344-82c.729.27 1.552.406 2.469.406.874 0 1.677-.125 2.406-.375a5.912 5.912 0 0 0 1.937-1.094 7.394 7.394 0 0 0 1.781-2.187c.5-.896.896-1.906 1.188-3.031.23-.875.396-1.834.5-2.875.125-1.042.188-2.125.188-3.25zM6.875-36.5l4.313 17.094L16.093-36.5H27V9h-8.062V-4.469l.375-21.281L13.343-6H9L3.656-24.906 4.031-4.47V9H-4.03v-45.5zM100.969-10.937H82.281V1.906h21.844V9H73.469v-45.5h30.562v7.156h-21.75v11.469h18.688z"/></g><defs><clipPath id="a"><path fill="var(--white)" d="M0 0h25v29H0z"/></clipPath></defs></svg>