<svg xmlns="http://www.w3.org/2000/svg" width="25" height="29" fill="none"><g clip-path="url(#a)"><path fill="var(--white)" d="M0 0h25v29H0z"/><path fill="var(--background)" d="M-100-145H50V29h-150z"/><path fill="var(--black)" fill-rule="evenodd" d="M49-144H-99V28H49zm-149-1V29H50v-174z" clip-rule="evenodd"/><path fill="var(--black)" d="M-48.875-75h-8.687v-19.719h-12.876V-75h-8.718v-45.5h8.719v18.656h12.874V-120.5h8.688zM29.719-94.406c0 1.958-.177 3.823-.532 5.594a23.39 23.39 0 0 1-1.53 4.874 19.256 19.256 0 0 1-2.626 4.126 14.898 14.898 0 0 1-3.562 3.124 15.61 15.61 0 0 1-4 1.688c-1.438.417-2.99.625-4.657.625-1.77 0-3.406-.23-4.906-.687A15.116 15.116 0 0 1 3.813-77a16.056 16.056 0 0 1-3.25-3.156 18.52 18.52 0 0 1-2.407-4.219 24.12 24.12 0 0 1-1.343-4.687 31.356 31.356 0 0 1-.438-5.344v-6.625c0-2 .167-3.896.5-5.688.354-1.791.865-3.448 1.531-4.969a18.7 18.7 0 0 1 2.344-3.906 15.175 15.175 0 0 1 3.219-3c1.187-.812 2.52-1.437 4-1.875 1.479-.437 3.083-.656 4.812-.656 1.75 0 3.386.229 4.906.687 1.542.438 2.928 1.073 4.157 1.907 1.229.791 2.302 1.75 3.218 2.875a18.651 18.651 0 0 1 2.407 3.718c.729 1.542 1.281 3.23 1.656 5.063.396 1.833.594 3.781.594 5.844zm-8.907-6.688c0-1.166-.062-2.271-.187-3.312a17.169 17.169 0 0 0-.531-2.938c-.313-1.125-.73-2.125-1.25-3-.521-.896-1.136-1.625-1.844-2.187a6.565 6.565 0 0 0-1.906-.969c-.688-.229-1.459-.344-2.313-.344-.812 0-1.552.104-2.219.313a5.81 5.81 0 0 0-1.75.906c-.708.583-1.312 1.313-1.812 2.187-.48.876-.854 1.896-1.125 3.063a22.846 22.846 0 0 0-.469 2.937 42.84 42.84 0 0 0-.125 3.344v6.688a39.2 39.2 0 0 0 .125 3.187c.084 1.021.23 1.969.438 2.844.229 1.104.562 2.115 1 3.031.458.896.99 1.625 1.593 2.188.563.5 1.198.885 1.907 1.156.729.27 1.552.406 2.469.406.874 0 1.677-.125 2.406-.375a5.912 5.912 0 0 0 1.937-1.094 7.394 7.394 0 0 0 1.782-2.187c.5-.896.895-1.906 1.187-3.031.23-.875.396-1.834.5-2.875.125-1.042.188-2.125.188-3.25zM-68.125-36.5l4.313 17.094 4.906-17.094H-48V9h-8.062V-4.469l.374-21.281L-61.655-6H-66l-5.344-18.906.375 20.437V9h-8.062v-45.5zM25.969-10.937H7.28V1.906h21.844V9H-1.531v-45.5H29.03v7.156H7.281v11.469H25.97z"/></g><defs><clipPath id="a"><path fill="var(--white)" d="M0 0h25v29H0z"/></clipPath></defs></svg>