<svg width="25" height="29" viewBox="0 0 25 29" fill="none" xmlns="http://www.w3.org/2000/svg">
<g clip-path="url(#clip0_118_11386)">
<rect width="25" height="29" fill="white"/>
<path d="M-75 0H75V174H-75V0Z" fill="var(--background)"/>
<path fill-rule="evenodd" clip-rule="evenodd" d="M74 1H-74V173H74V1ZM-75 0V174H75V0H-75Z" fill="black"/>
<path d="M-20.7408 68.0172H-29.4283V48.2985H-42.3033V68.0172H-51.022V22.5172H-42.3033V41.1735H-29.4283V22.5172H-20.7408V68.0172Z" fill="black"/>
<path d="M-39.9908 108L-35.6783 125.094L-30.772 108H-19.8658V153.5H-27.9283V140.031L-27.5533 118.75L-33.522 138.5H-37.8658L-43.2095 119.594L-42.8345 140.031V153.5H-50.897V108H-39.9908Z" fill="black"/>
<path d="M51.4478 48.611C51.4478 50.5693 51.2707 52.4339 50.9165 54.2047C50.5623 55.9547 50.0519 57.5797 49.3853 59.0797C48.6769 60.5797 47.8019 61.9547 46.7603 63.2047C45.7186 64.4547 44.5311 65.4964 43.1978 66.3297C41.9894 67.0589 40.6561 67.6214 39.1978 68.0172C37.7603 68.4339 36.2082 68.6422 34.5415 68.6422C32.7707 68.6422 31.1353 68.4131 29.6353 67.9547C28.1353 67.4964 26.7707 66.8506 25.5415 66.0172C24.3332 65.1422 23.2498 64.0902 22.2915 62.861C21.3332 61.611 20.5311 60.2047 19.8853 58.6422C19.3019 57.2047 18.854 55.6422 18.5415 53.9547C18.2498 52.2672 18.104 50.486 18.104 48.611V41.986C18.104 39.986 18.2707 38.0902 18.604 36.2985C18.9582 34.5068 19.4686 32.8506 20.1353 31.3297C20.7811 29.8922 21.5623 28.5902 22.479 27.4235C23.4165 26.2568 24.4894 25.2568 25.6978 24.4235C26.8853 23.611 28.2186 22.986 29.6978 22.5485C31.1769 22.111 32.7811 21.8922 34.5103 21.8922C36.2603 21.8922 37.8957 22.1214 39.4165 22.5797C40.9582 23.0172 42.3436 23.6527 43.5728 24.486C44.8019 25.2777 45.8748 26.236 46.7915 27.361C47.729 28.486 48.5311 29.7256 49.1978 31.0797C49.9269 32.6214 50.479 34.3089 50.854 36.1422C51.2498 37.9756 51.4478 39.9235 51.4478 41.986V48.611ZM42.5415 41.9235C42.5415 40.7568 42.479 39.6527 42.354 38.611C42.2498 37.5485 42.0728 36.5693 41.8228 35.6735C41.5103 34.5485 41.0936 33.5485 40.5728 32.6735C40.0519 31.7777 39.4373 31.0485 38.729 30.486C38.1665 30.0693 37.5311 29.7464 36.8228 29.5172C36.1353 29.2881 35.3644 29.1735 34.5103 29.1735C33.6978 29.1735 32.9582 29.2777 32.2915 29.486C31.6457 29.6943 31.0623 29.9964 30.5415 30.3922C29.8332 30.9756 29.229 31.7047 28.729 32.5797C28.2498 33.4547 27.8748 34.4756 27.604 35.6422C27.3957 36.5381 27.2394 37.5172 27.1353 38.5797C27.0519 39.6422 27.0103 40.7568 27.0103 41.9235V48.611C27.0103 49.7152 27.0519 50.7777 27.1353 51.7985C27.2186 52.8193 27.3644 53.7672 27.5728 54.6422C27.8019 55.7464 28.1353 56.7568 28.5728 57.6735C29.0311 58.5693 29.5623 59.2985 30.1665 59.861C30.729 60.361 31.3644 60.7464 32.0728 61.0172C32.8019 61.2881 33.6248 61.4235 34.5415 61.4235C35.4165 61.4235 36.2186 61.2985 36.9478 61.0485C37.6769 60.7985 38.3228 60.4339 38.8853 59.9547C39.5936 59.3714 40.1873 58.6422 40.6665 57.7672C41.1665 56.8714 41.5623 55.861 41.854 54.736C42.0832 53.861 42.2498 52.9027 42.354 51.861C42.479 50.8193 42.5415 49.736 42.5415 48.611V41.9235Z" fill="black"/>
<path d="M47.6978 132.562H29.0103V145.406H50.854V152.5H20.1978V107H50.7603V114.156H29.0103V125.625H47.6978V132.562Z" fill="black"/>
</g>
<defs>
<clipPath id="clip0_118_11386">
<rect width="25" height="29" fill="white"/>
</clipPath>
</defs>
</svg>
