<svg width="25" height="29" viewBox="0 0 25 29" fill="none" xmlns="http://www.w3.org/2000/svg">
<g clip-path="url(#clip0_118_11394)">
<rect width="25" height="29" fill="white"/>
<path d="M-25 -29H125V145H-25V-29Z" fill="var(--background)"/>
<path fill-rule="evenodd" clip-rule="evenodd" d="M124 -28H-24V144H124V-28ZM-25 -29V145H125V-29H-25Z" fill="black"/>
<path d="M29.2592 39.0172H20.5717V19.2985H7.69672V39.0172H-1.02203V-6.48276H7.69672V12.1735H20.5717V-6.48276H29.2592V39.0172Z" fill="black"/>
<path d="M10.0092 79L14.3217 96.0938L19.228 79H30.1342V124.5H22.0717V111.031L22.4467 89.75L16.478 109.5H12.1342L6.79047 90.5938L7.16547 111.031V124.5H-0.897034V79H10.0092Z" fill="black"/>
<path d="M101.448 19.611C101.448 21.5693 101.271 23.4339 100.917 25.2047C100.562 26.9547 100.052 28.5797 99.3853 30.0797C98.6769 31.5797 97.8019 32.9547 96.7603 34.2047C95.7186 35.4547 94.5311 36.4964 93.1978 37.3297C91.9894 38.0589 90.6561 38.6214 89.1978 39.0172C87.7603 39.4339 86.2082 39.6422 84.5415 39.6422C82.7707 39.6422 81.1353 39.4131 79.6353 38.9547C78.1353 38.4964 76.7707 37.8506 75.5415 37.0172C74.3332 36.1422 73.2498 35.0902 72.2915 33.861C71.3332 32.611 70.5311 31.2047 69.8853 29.6422C69.3019 28.2047 68.854 26.6422 68.5415 24.9547C68.2498 23.2672 68.104 21.486 68.104 19.611V12.986C68.104 10.986 68.2707 9.09016 68.604 7.29849C68.9582 5.50682 69.4686 3.85057 70.1353 2.32974C70.7811 0.892242 71.5623 -0.409842 72.479 -1.57651C73.4165 -2.74317 74.4894 -3.74317 75.6978 -4.57651C76.8853 -5.38901 78.2186 -6.01401 79.6978 -6.45151C81.1769 -6.88901 82.7811 -7.10776 84.5103 -7.10776C86.2603 -7.10776 87.8957 -6.87859 89.4165 -6.42026C90.9582 -5.98276 92.3436 -5.34734 93.5728 -4.51401C94.8019 -3.72234 95.8748 -2.76401 96.7915 -1.63901C97.729 -0.514008 98.5311 0.725576 99.1978 2.07974C99.9269 3.62141 100.479 5.30891 100.854 7.14224C101.25 8.97557 101.448 10.9235 101.448 12.986V19.611ZM92.5415 12.9235C92.5415 11.7568 92.479 10.6527 92.354 9.61099C92.2498 8.54849 92.0728 7.56932 91.8228 6.67349C91.5103 5.54849 91.0936 4.54849 90.5728 3.67349C90.0519 2.77766 89.4373 2.04849 88.729 1.48599C88.1665 1.06933 87.5311 0.746408 86.8228 0.517242C86.1353 0.288076 85.3644 0.173492 84.5103 0.173492C83.6978 0.173492 82.9582 0.277658 82.2915 0.485992C81.6457 0.694326 81.0623 0.996408 80.5415 1.39224C79.8332 1.97558 79.229 2.70474 78.729 3.57974C78.2498 4.45474 77.8748 5.47557 77.604 6.64224C77.3957 7.53807 77.2394 8.51724 77.1353 9.57974C77.0519 10.6422 77.0103 11.7568 77.0103 12.9235V19.611C77.0103 20.7152 77.0519 21.7777 77.1353 22.7985C77.2186 23.8193 77.3644 24.7672 77.5728 25.6422C77.8019 26.7464 78.1353 27.7568 78.5728 28.6735C79.0311 29.5693 79.5623 30.2985 80.1665 30.861C80.729 31.361 81.3644 31.7464 82.0728 32.0172C82.8019 32.2881 83.6248 32.4235 84.5415 32.4235C85.4165 32.4235 86.2186 32.2985 86.9478 32.0485C87.6769 31.7985 88.3228 31.4339 88.8853 30.9547C89.5936 30.3714 90.1873 29.6422 90.6665 28.7672C91.1665 27.8714 91.5623 26.861 91.854 25.736C92.0832 24.861 92.2498 23.9027 92.354 22.861C92.479 21.8193 92.5415 20.736 92.5415 19.611V12.9235Z" fill="black"/>
<path d="M97.6978 103.562H79.0103V116.406H100.854V123.5H70.1978V78H100.76V85.1562H79.0103V96.625H97.6978V103.562Z" fill="black"/>
</g>
<defs>
<clipPath id="clip0_118_11394">
<rect width="25" height="29" fill="white"/>
</clipPath>
</defs>
</svg>
